<?xml version="1.0" encoding="utf-8"?>
<!-- Generator: Adobe Illustrator 23.0.6, SVG Export Plug-In . SVG Version: 6.00 Build 0)  -->
<svg version="1.1" id="Слой_1" xmlns="http://www.w3.org/2000/svg" xmlns:xlink="http://www.w3.org/1999/xlink" x="0px" y="0px"
	 viewBox="0 0 1000 1000" style="enable-background:new 0 0 1000 1000;" xml:space="preserve">
<style type="text/css">
	.st0{fill:#FFFFFF;}
	.st1{fill:#00ACE5;}
	.st2{fill:#BF381D;}
</style>
<path class="st0" d="M0,0h1000v1000H0V0z"/>
<path class="st1" d="M50,958.4c0.6,0,1-0.2,1.3-0.5c0.3-0.3,0.4-0.8,0.4-1.3v-2.9c0-0.6,0.1-1.1,0.2-1.5c0.1-0.4,0.4-0.8,0.7-1.1
	c0.3-0.3,0.8-0.5,1.3-0.7c0.5-0.2,1.2-0.2,2-0.2h0.4v2.3h-0.5c-0.6,0-1,0.1-1.2,0.4c-0.2,0.3-0.3,0.7-0.3,1.2v2.6
	c0,0.7-0.1,1.2-0.3,1.7c-0.2,0.5-0.5,0.9-1.1,1.2c0.5,0.3,0.9,0.7,1.1,1.2c0.2,0.5,0.3,1,0.3,1.7v2.6c0,0.6,0.1,1,0.3,1.2
	c0.2,0.3,0.6,0.4,1.2,0.4h0.5v2.3H56c-0.8,0-1.5-0.1-2-0.2c-0.6-0.2-1-0.4-1.3-0.7c-0.3-0.3-0.6-0.7-0.7-1.1
	c-0.1-0.4-0.2-0.9-0.2-1.5v-2.9c0-0.5-0.1-1-0.4-1.3c-0.3-0.3-0.7-0.5-1.3-0.5V958.4z M70.9,951.9v5.2h-5.1v-5.2h-3v13.5h3v-5.7h5.1
	l-0.1,9.3h3l0.1-17.1H70.9L70.9,951.9z M86.1,958c-0.2-0.7-0.6-1.2-1-1.7c-0.4-0.5-1-0.8-1.6-1.1c-0.6-0.3-1.3-0.4-2-0.4
	c-0.7,0-1.4,0.1-2,0.4s-1.1,0.6-1.6,1.1c-0.4,0.5-0.8,1-1,1.7c-0.2,0.7-0.4,1.4-0.4,2.2c0,0.8,0.1,1.5,0.4,2.2
	c0.2,0.7,0.6,1.2,1,1.7c0.4,0.5,1,0.8,1.6,1.1c0.6,0.3,1.3,0.4,2,0.4c0.8,0,1.5-0.1,2.1-0.4c0.6-0.3,1.1-0.6,1.6-1.1
	c0.4-0.5,0.8-1,1-1.7c0.2-0.7,0.4-1.4,0.4-2.2C86.5,959.4,86.4,958.7,86.1,958z M83,962.4c-0.4,0.5-0.9,0.8-1.5,0.8
	c-0.7,0-1.2-0.3-1.5-0.8c-0.4-0.5-0.5-1.2-0.5-2.1c0-0.9,0.2-1.6,0.5-2.1c0.4-0.5,0.9-0.8,1.5-0.8c0.7,0,1.2,0.3,1.5,0.8
	c0.4,0.5,0.5,1.2,0.5,2.1C83.5,961.1,83.3,961.8,83,962.4z M95.5,965.3c0.6-0.2,1.2-0.4,1.5-0.7c0.4-0.3,0.7-0.6,0.8-1
	c0.2-0.4,0.2-0.8,0.2-1.2c0-0.4-0.1-0.7-0.1-1c-0.1-0.3-0.2-0.5-0.4-0.7c-0.2-0.2-0.3-0.4-0.5-0.5c-0.2-0.1-0.4-0.2-0.5-0.3
	c0.3-0.2,0.6-0.4,0.8-0.8c0.2-0.4,0.3-0.8,0.3-1.2c0-0.3-0.1-0.7-0.2-1c-0.1-0.3-0.4-0.7-0.8-0.9c-0.4-0.3-0.8-0.5-1.4-0.7
	c-0.6-0.2-1.3-0.2-2.1-0.2c-0.4,0-0.8,0-1.2,0c-0.4,0-0.8,0-1.2,0.1c-0.4,0-0.8,0.1-1.1,0.1c-0.4,0-0.7,0.1-0.9,0.1v9.8
	c0.2,0.1,0.6,0.1,0.9,0.2c0.4,0.1,0.7,0.1,1.1,0.2c0.4,0,0.8,0.1,1.2,0.1c0.4,0,0.8,0,1.2,0C94.1,965.6,94.9,965.5,95.5,965.3z
	 M93.2,959.2h-1.6v-1.9c0.2,0,0.4,0,0.7-0.1c0.3,0,0.5,0,0.7,0c0.5,0,1,0.1,1.3,0.2c0.3,0.1,0.5,0.4,0.5,0.8c0,0.4-0.1,0.7-0.4,0.8
	C94.1,959.1,93.7,959.2,93.2,959.2L93.2,959.2z M91.6,963.2v-2.2h1.7c0.6,0,1.1,0.1,1.5,0.2c0.3,0.2,0.5,0.5,0.5,0.9
	c0,0.4-0.2,0.7-0.5,0.9c-0.4,0.2-0.9,0.2-1.5,0.2c-0.3,0-0.6,0-0.9,0C92,963.3,91.8,963.3,91.6,963.2L91.6,963.2z M103,954.9
	c-0.3,0-0.6,0.1-1,0.1c-0.3,0-0.6,0.1-0.8,0.1c-0.2,0.1-0.5,0.1-0.6,0.2l0.4,2.3c0.4-0.1,0.8-0.2,1.2-0.3c0.5-0.1,1-0.1,1.5-0.1
	c0.7,0,1.3,0.1,1.6,0.4c0.3,0.3,0.5,0.7,0.5,1.2v0.3c-0.2,0-0.4-0.1-0.7-0.1c-0.3,0-0.6,0-1,0c-0.6,0-1.1,0-1.6,0.2
	c-0.5,0.1-1,0.3-1.4,0.5c-0.4,0.2-0.7,0.6-1,1c-0.2,0.4-0.4,0.9-0.4,1.5c0,0.6,0.1,1.2,0.3,1.6c0.2,0.4,0.5,0.8,0.9,1
	c0.4,0.3,0.8,0.5,1.4,0.6c0.5,0.1,1.1,0.2,1.8,0.2c1.1,0,2-0.1,2.7-0.2c0.7-0.1,1.3-0.2,1.7-0.3v-6c0-0.6-0.1-1.2-0.2-1.7
	c-0.1-0.5-0.4-1-0.7-1.3c-0.3-0.4-0.8-0.7-1.4-0.8c-0.6-0.2-1.3-0.3-2.1-0.3C103.7,954.9,103.4,954.9,103,954.9z M103,963.1
	c-0.3-0.2-0.4-0.5-0.4-0.9c0-0.2,0-0.4,0.1-0.6c0.1-0.2,0.2-0.3,0.4-0.4s0.4-0.2,0.6-0.2c0.2,0,0.5,0,0.8,0c0.2,0,0.4,0,0.7,0
	c0.2,0,0.4,0,0.5,0.1v2.2c-0.1,0-0.4,0-0.6,0.1c-0.3,0-0.5,0-0.8,0C103.7,963.4,103.3,963.3,103,963.1z M116.9,961.8v3.6h2.9v-10
	c-0.2-0.1-0.6-0.1-0.9-0.2c-0.4-0.1-0.7-0.1-1.1-0.2c-0.4,0-0.8-0.1-1.2-0.1c-0.4,0-0.8,0-1.1,0c-1.5,0-2.6,0.3-3.4,0.9
	c-0.8,0.6-1.2,1.5-1.2,2.6c0,0.7,0.2,1.2,0.5,1.7c0.3,0.4,0.8,0.8,1.3,1.1c-0.4,0.5-0.7,1.1-1.1,1.8c-0.4,0.7-0.8,1.5-1.2,2.3h3
	c0.3-0.6,0.6-1.2,0.9-1.8c0.3-0.6,0.7-1.2,1.1-1.8H116.9z M116.9,957.2v2.5h-1.4c-0.2,0-0.4,0-0.6-0.1c-0.2,0-0.4-0.1-0.6-0.2
	c-0.2-0.1-0.3-0.2-0.4-0.4c-0.1-0.2-0.1-0.4-0.1-0.6c0-0.4,0.1-0.7,0.4-0.9c0.2-0.2,0.7-0.4,1.5-0.4c0.2,0,0.4,0,0.7,0
	C116.5,957.2,116.8,957.2,116.9,957.2L116.9,957.2z M129.5,955.6c-0.4-0.3-0.8-0.5-1.3-0.5s-0.9,0.2-1.3,0.5
	c-0.4,0.3-0.5,0.8-0.5,1.3c0,0.6,0.2,1,0.5,1.3c0.4,0.3,0.8,0.5,1.3,0.5s0.9-0.2,1.3-0.5c0.4-0.3,0.5-0.8,0.5-1.3
	C130,956.3,129.9,955.9,129.5,955.6z M129.5,962.5c-0.4-0.3-0.8-0.5-1.3-0.5s-0.9,0.1-1.3,0.5c-0.4,0.3-0.5,0.8-0.5,1.3
	c0,0.6,0.2,1,0.5,1.3c0.4,0.3,0.8,0.5,1.3,0.5s0.9-0.2,1.3-0.5c0.4-0.3,0.5-0.8,0.5-1.3C130,963.3,129.9,962.8,129.5,962.5z
	 M135.7,969h2.9v-3.6h9.4v3.6h2.9v-6.2h-2.3v-10.9h-8.9v0.5c0,1,0,1.9,0,2.8c0,0.9-0.1,1.8-0.2,2.6c-0.1,0.8-0.4,1.7-0.6,2.5
	c-0.3,0.8-0.7,1.7-1.1,2.5h-2V969z M145.6,954.5v8.4h-4.9c0.3-0.6,0.6-1.2,0.8-1.9c0.2-0.7,0.4-1.4,0.5-2.1c0.1-0.7,0.2-1.5,0.3-2.2
	c0.1-0.7,0.1-1.5,0.1-2.2H145.6z M155.4,954.9c-0.3,0-0.6,0.1-1,0.1c-0.3,0-0.6,0.1-0.8,0.1c-0.2,0.1-0.5,0.1-0.6,0.2l0.4,2.3
	c0.4-0.1,0.8-0.2,1.2-0.3c0.5-0.1,1-0.1,1.5-0.1c0.7,0,1.3,0.1,1.6,0.4c0.3,0.3,0.5,0.7,0.5,1.2v0.3c-0.2,0-0.4-0.1-0.7-0.1
	c-0.3,0-0.6,0-1,0c-0.5,0-1.1,0-1.6,0.2c-0.5,0.1-1,0.3-1.4,0.5c-0.4,0.2-0.7,0.6-1,1c-0.2,0.4-0.4,0.9-0.4,1.5
	c0,0.6,0.1,1.2,0.3,1.6c0.2,0.4,0.5,0.8,0.9,1c0.4,0.3,0.8,0.5,1.4,0.6c0.5,0.1,1.1,0.2,1.8,0.2c1,0,1.9-0.1,2.7-0.2
	c0.7-0.1,1.3-0.2,1.7-0.3v-6c0-0.6-0.1-1.2-0.2-1.7c-0.1-0.5-0.4-1-0.7-1.3c-0.3-0.4-0.8-0.7-1.4-0.8c-0.6-0.2-1.3-0.3-2.1-0.3
	C156,954.9,155.7,954.9,155.4,954.9z M155.3,963.1c-0.3-0.2-0.5-0.5-0.5-0.9c0-0.2,0-0.4,0.1-0.6c0.1-0.2,0.2-0.3,0.4-0.4
	c0.2-0.1,0.4-0.2,0.6-0.2c0.2,0,0.5,0,0.8,0c0.2,0,0.4,0,0.6,0c0.2,0,0.4,0,0.5,0.1v2.2c-0.1,0-0.4,0-0.6,0.1c-0.3,0-0.5,0-0.8,0
	C156.1,963.4,155.6,963.3,155.3,963.1z M171.9,957.5v-2.4h-9.5v2.4h3.3v7.9h2.9v-7.9H171.9L171.9,957.5z M176.4,954.9
	c-0.3,0-0.6,0.1-1,0.1c-0.3,0-0.6,0.1-0.8,0.1c-0.2,0.1-0.5,0.1-0.6,0.2l0.4,2.3c0.4-0.1,0.8-0.2,1.2-0.3c0.5-0.1,1-0.1,1.5-0.1
	c0.7,0,1.3,0.1,1.6,0.4c0.3,0.3,0.5,0.7,0.5,1.2v0.3c-0.2,0-0.4-0.1-0.7-0.1c-0.3,0-0.6,0-1,0c-0.5,0-1.1,0-1.6,0.2
	c-0.5,0.1-1,0.3-1.4,0.5c-0.4,0.2-0.7,0.6-1,1c-0.2,0.4-0.4,0.9-0.4,1.5c0,0.6,0.1,1.2,0.3,1.6c0.2,0.4,0.5,0.8,0.9,1
	c0.4,0.3,0.8,0.5,1.4,0.6c0.5,0.1,1.1,0.2,1.8,0.2c1,0,1.9-0.1,2.7-0.2c0.7-0.1,1.3-0.2,1.7-0.3v-6c0-0.6-0.1-1.2-0.2-1.7
	c-0.1-0.5-0.4-1-0.7-1.3c-0.3-0.4-0.8-0.7-1.4-0.8c-0.6-0.2-1.3-0.3-2.1-0.3C177,954.9,176.7,954.9,176.4,954.9z M176.3,963.1
	c-0.3-0.2-0.5-0.5-0.5-0.9c0-0.2,0-0.4,0.1-0.6c0.1-0.2,0.2-0.3,0.4-0.4c0.2-0.1,0.4-0.2,0.6-0.2c0.2,0,0.5,0,0.8,0
	c0.2,0,0.4,0,0.6,0c0.2,0,0.4,0,0.5,0.1v2.2c-0.1,0-0.4,0-0.6,0.1c-0.3,0-0.5,0-0.8,0C177.1,963.4,176.6,963.3,176.3,963.1z
	 M183.9,960.9h5.6v-2.6h-5.6V960.9z M200.8,958c-0.2-0.7-0.6-1.2-1-1.7c-0.4-0.5-1-0.8-1.6-1.1s-1.3-0.4-2-0.4c-0.7,0-1.4,0.1-2,0.4
	c-0.6,0.3-1.2,0.6-1.6,1.1c-0.5,0.5-0.8,1-1.1,1.7c-0.2,0.7-0.4,1.4-0.4,2.2c0,0.8,0.1,1.5,0.4,2.2c0.2,0.7,0.6,1.2,1,1.7
	c0.4,0.5,1,0.8,1.6,1.1c0.6,0.3,1.3,0.4,2.1,0.4c0.8,0,1.5-0.1,2.1-0.4c0.6-0.3,1.1-0.6,1.6-1.1c0.4-0.5,0.8-1,1-1.7
	c0.2-0.7,0.4-1.4,0.4-2.2C201.2,959.4,201.1,958.7,200.8,958z M197.7,962.4c-0.4,0.5-0.9,0.8-1.5,0.8c-0.7,0-1.2-0.3-1.5-0.8
	c-0.4-0.5-0.6-1.2-0.6-2.1c0-0.9,0.2-1.6,0.6-2.1c0.4-0.5,0.9-0.8,1.5-0.8c0.7,0,1.2,0.3,1.5,0.8c0.4,0.5,0.5,1.2,0.5,2.1
	C198.2,961.1,198.1,961.8,197.7,962.4z M211.9,955.1h-9.5v2.4h3.3v7.9h2.9v-7.9h3.3V955.1z M212.1,968.3h2.5v-2.9h7.5v2.9h2.5V963
	h-1.7v-7.9h-8c0,0.6,0,1.2,0,1.9c0,0.7-0.1,1.5-0.1,2.2c-0.1,0.7-0.2,1.4-0.4,2.1c-0.2,0.7-0.5,1.2-0.8,1.6h-1.3V968.3z M219.9,963
	h-3.5c0.2-0.4,0.4-0.8,0.6-1.2c0.1-0.5,0.2-0.9,0.3-1.4c0.1-0.5,0.1-0.9,0.2-1.4c0-0.5,0.1-1,0.1-1.4h2.4V963L219.9,963z
	 M226.1,962.5c0.2,0.6,0.5,1.2,1,1.7c0.4,0.5,1,0.8,1.7,1.1c0.7,0.3,1.5,0.4,2.4,0.4c0.4,0,0.7,0,1.1-0.1c0.4,0,0.7-0.1,1-0.1
	c0.3-0.1,0.6-0.1,0.9-0.2c0.3-0.1,0.5-0.2,0.6-0.2l-0.4-2.4c-0.3,0.1-0.8,0.3-1.3,0.4c-0.5,0.1-1,0.2-1.6,0.2c-0.8,0-1.5-0.2-2-0.5
	c-0.5-0.3-0.8-0.8-0.8-1.4h6.6c0-0.1,0-0.3,0-0.5c0-0.2,0-0.4,0-0.5c0-1.7-0.4-3-1.3-3.9c-0.9-0.9-2-1.3-3.5-1.3
	c-0.6,0-1.2,0.1-1.8,0.3c-0.6,0.2-1.1,0.6-1.6,1c-0.5,0.5-0.8,1-1.1,1.7c-0.3,0.7-0.4,1.5-0.4,2.4
	C225.8,961.1,225.9,961.8,226.1,962.5z M232.6,959.2h-3.8c0-0.2,0.1-0.5,0.2-0.7c0.1-0.2,0.2-0.5,0.4-0.6c0.2-0.2,0.4-0.3,0.6-0.4
	c0.2-0.1,0.5-0.2,0.8-0.2c0.3,0,0.6,0,0.9,0.2c0.2,0.1,0.4,0.3,0.6,0.5c0.1,0.2,0.3,0.4,0.3,0.6C232.6,958.8,232.6,959,232.6,959.2
	L232.6,959.2z M244.3,957.5v7.9h2.9v-10.2h-7.7v1.2c0,0.5,0,0.9,0,1.4c0,0.5,0,1-0.1,1.5c0,0.5-0.1,0.9-0.2,1.4
	c-0.1,0.4-0.2,0.8-0.3,1.1c-0.2,0.4-0.5,0.7-0.8,0.9c-0.4,0.2-0.9,0.4-1.5,0.6l0.4,2.4c0.7-0.1,1.3-0.2,1.9-0.4
	c0.5-0.2,1-0.4,1.3-0.7c0.4-0.3,0.7-0.6,0.9-1c0.2-0.3,0.4-0.7,0.6-1.2c0.1-0.3,0.2-0.7,0.3-1.1c0.1-0.4,0.1-0.8,0.2-1.2
	c0.1-0.4,0.1-0.8,0.1-1.3c0-0.4,0-0.8,0.1-1.2H244.3z M259.8,958.4c-0.6,0-1-0.2-1.3-0.5c-0.3-0.3-0.4-0.8-0.4-1.3v-2.9
	c0-0.6-0.1-1.1-0.2-1.5c-0.1-0.4-0.4-0.8-0.7-1.1s-0.8-0.5-1.3-0.7c-0.6-0.2-1.2-0.2-2.1-0.2h-0.4v2.3h0.5c0.6,0,1,0.1,1.2,0.4
	s0.3,0.7,0.3,1.2v2.6c0,0.7,0.1,1.2,0.3,1.7c0.2,0.5,0.6,0.9,1.1,1.2c-0.5,0.3-0.9,0.7-1.1,1.2c-0.2,0.5-0.3,1-0.3,1.7v2.6
	c0,0.5-0.1,0.9-0.3,1.2c-0.2,0.3-0.6,0.4-1.2,0.4h-0.5v2.3h0.4c0.8,0,1.5-0.1,2.1-0.2s1-0.4,1.3-0.7c0.3-0.3,0.6-0.7,0.7-1.1
	c0.1-0.4,0.2-0.9,0.2-1.5v-2.9c0-0.5,0.1-1,0.4-1.3c0.3-0.3,0.7-0.5,1.3-0.5V958.4z"/>
<g>
	<path d="M57.9,76.1l5.9,10.1h-5.2l-6.9-9.9v-0.5l6.9-9.9h5.2L57.9,76.1z M68.4,76.1l5.9,10.1H69l-6.9-9.9v-0.5l6.9-9.9h5.2
		L68.4,76.1z"/>
	<path d="M88.3,52.2v30.1h9.2V52.2h8.9v30.1h9.1V52.2h8.9v37h-45v-37H88.3z"/>
	<path d="M140.4,77.2l4.6-15.5h9.2l-11.2,32.1l-0.5,1.2c-1.6,3.6-4.4,5.3-8.4,5.3c-1.1,0-2.3-0.2-3.5-0.5v-6.1h1.1
		c1.2,0,2.1-0.2,2.8-0.5c0.6-0.3,1.1-1,1.4-1.9l0.7-1.8l-9.5-27.7h9.1L140.4,77.2z"/>
	<path d="M180.4,68.2h-8.7v20.9h-8.6V68.2h-8.5v-6.6h25.8V68.2z"/>
	<path d="M199.6,61.7h8.6v27.5h-8.6v-16l-7.5,16h-8.6V61.7h8.6v15.9L199.6,61.7z"/>
	<path d="M237.2,89.1h-8.6V79h-7.5v10.2h-8.6V61.7h8.6v10.7h7.5V61.7h8.6V89.1z"/>
	<path d="M261.1,68.3h-10.8v20.9h-8.6V61.7h19.4V68.3z"/>
	<path d="M279.6,61.7h8.6v27.5h-8.6v-16l-7.5,16h-8.6V61.7h8.6v15.9L279.6,61.7z"/>
	<path d="M297.6,65.9l6.9,9.9v0.5l-6.9,9.9h-5.3l5.9-10.1l-5.9-10.2H297.6z M308.1,65.9l6.9,9.9v0.5l-6.9,9.9h-5.3l5.9-10.1
		l-5.9-10.2H308.1z"/>
	<path d="M333.1,89.1V61.7h11.8c3.8,0,6.7,0.7,8.7,2s3,3.2,3,5.7c0,1.3-0.4,2.4-1.3,3.4c-0.9,1-2.2,1.8-3.9,2.3
		c2.2,0.4,3.9,1.1,5.1,2.2c1.2,1.1,1.8,2.4,1.8,4c0,2.6-1,4.5-2.9,5.9c-2,1.3-4.8,2-8.4,2H333.1z M341.7,72.7h3.5
		c1,0,1.8-0.2,2.2-0.5c0.4-0.3,0.6-0.9,0.6-1.5c0-0.9-0.3-1.5-0.8-1.9s-1.3-0.5-2.4-0.5h-3.2V72.7z M341.7,78v4.6h5
		c1.1,0,1.8-0.2,2.3-0.6c0.5-0.4,0.7-0.9,0.7-1.7c0-1.5-0.9-2.3-2.6-2.4H341.7z"/>
	<path d="M384,76.6v12.5h-8.9v-37h14.8c2.8,0,5.3,0.5,7.5,1.6c2.2,1,3.9,2.5,5.1,4.4c1.2,1.9,1.8,4.1,1.8,6.5c0,3.6-1.3,6.5-3.9,8.6
		c-2.6,2.2-6.1,3.2-10.6,3.2H384z M384,69.7h5.8c1.7,0,3-0.4,3.9-1.3c0.9-0.9,1.4-2.1,1.4-3.7c0-1.7-0.5-3.1-1.4-4.1
		c-0.9-1-2.2-1.6-3.8-1.6H384V69.7z"/>
	<path d="M407.1,75.2c0-2.7,0.5-5.2,1.6-7.3c1.1-2.1,2.6-3.8,4.6-4.9c2-1.2,4.3-1.7,7-1.7c4.1,0,7.4,1.3,9.7,3.8
		c2.4,2.5,3.6,6,3.6,10.4v0.3c0,4.3-1.2,7.7-3.6,10.2c-2.4,2.5-5.6,3.8-9.7,3.8c-3.9,0-7.1-1.2-9.4-3.5c-2.4-2.3-3.6-5.5-3.8-9.5
		L407.1,75.2z M415.7,75.7c0,2.5,0.4,4.4,1.2,5.6c0.8,1.2,2,1.8,3.5,1.8c3,0,4.6-2.3,4.7-7v-0.9c0-4.9-1.6-7.4-4.7-7.4
		c-2.9,0-4.4,2.1-4.6,6.4L415.7,75.7z"/>
	<path d="M449,83.1c1.2,0,2.1-0.3,2.8-1c0.7-0.7,1-1.6,1-2.7h8c0,3-1.1,5.5-3.2,7.4s-4.9,2.9-8.3,2.9c-4,0-7.1-1.3-9.4-3.8
		c-2.3-2.5-3.5-6-3.5-10.4v-0.4c0-2.8,0.5-5.2,1.5-7.4c1-2.1,2.5-3.8,4.4-4.9s4.2-1.7,6.9-1.7c3.6,0,6.4,1,8.5,3
		c2.1,2,3.1,4.7,3.1,8h-8c0-1.4-0.3-2.5-1-3.3c-0.7-0.8-1.6-1.1-2.8-1.1c-2.2,0-3.5,1.4-3.9,4.2c-0.1,0.9-0.2,2.1-0.2,3.7
		c0,2.8,0.3,4.7,1,5.7S447.5,83.1,449,83.1z"/>
	<path d="M476,83.1c1.2,0,2.1-0.3,2.8-1c0.7-0.7,1-1.6,1-2.7h8c0,3-1.1,5.5-3.2,7.4s-4.9,2.9-8.3,2.9c-4,0-7.1-1.3-9.4-3.8
		c-2.3-2.5-3.5-6-3.5-10.4v-0.4c0-2.8,0.5-5.2,1.5-7.4c1-2.1,2.5-3.8,4.4-4.9s4.2-1.7,6.9-1.7c3.6,0,6.4,1,8.5,3
		c2.1,2,3.1,4.7,3.1,8h-8c0-1.4-0.3-2.5-1-3.3c-0.7-0.8-1.6-1.1-2.8-1.1c-2.2,0-3.5,1.4-3.9,4.2c-0.1,0.9-0.2,2.1-0.2,3.7
		c0,2.8,0.3,4.7,1,5.7S474.6,83.1,476,83.1z"/>
	<path d="M507.4,61.7h8.6v27.5h-8.6v-16l-7.5,16h-8.6V61.7h8.6v15.9L507.4,61.7z"/>
	<path d="M536.5,61.7h8.6v27.5h-8.6v-16l-7.5,16h-8.6V61.7h8.6v15.9L536.5,61.7z"/>
	<path d="M574.3,83.1c1.2,0,2.1-0.3,2.8-1c0.7-0.7,1-1.6,1-2.7h8c0,3-1.1,5.5-3.2,7.4s-4.9,2.9-8.3,2.9c-4,0-7.1-1.3-9.4-3.8
		c-2.3-2.5-3.5-6-3.5-10.4v-0.4c0-2.8,0.5-5.2,1.5-7.4c1-2.1,2.5-3.8,4.4-4.9s4.2-1.7,6.9-1.7c3.6,0,6.4,1,8.5,3s3.1,4.7,3.1,8h-8
		c0-1.4-0.3-2.5-1-3.3s-1.6-1.1-2.8-1.1c-2.2,0-3.5,1.4-3.9,4.2c-0.1,0.9-0.2,2.1-0.2,3.7c0,2.8,0.3,4.7,1,5.7
		S572.8,83.1,574.3,83.1z"/>
	<path d="M628.3,89.1h-25.8v-5.6l11.9-12.5c2.9-3.3,4.4-6,4.4-7.9c0-1.6-0.3-2.8-1-3.6c-0.7-0.8-1.7-1.2-3-1.2
		c-1.3,0-2.4,0.6-3.2,1.7c-0.8,1.1-1.2,2.5-1.2,4.2h-8.6c0-2.3,0.6-4.4,1.7-6.3c1.1-1.9,2.7-3.4,4.7-4.5c2-1.1,4.3-1.6,6.8-1.6
		c4,0,7.1,0.9,9.2,2.8c2.2,1.8,3.2,4.5,3.2,7.9c0,1.5-0.3,2.9-0.8,4.3c-0.5,1.4-1.4,2.8-2.5,4.3c-1.1,1.5-3,3.5-5.5,6.1l-4.8,5.5
		h14.5V89.1z"/>
	<path d="M658.3,74c0,5-1.1,8.8-3.4,11.6c-2.2,2.7-5.4,4.1-9.5,4.1c-4.1,0-7.3-1.4-9.5-4.1c-2.3-2.7-3.4-6.6-3.4-11.5v-6.8
		c0-5,1.1-8.8,3.4-11.6c2.2-2.7,5.4-4.1,9.5-4.1s7.3,1.4,9.5,4.1c2.3,2.7,3.4,6.6,3.4,11.6V74z M649.7,66.2c0-2.7-0.3-4.6-1-6
		c-0.7-1.3-1.8-2-3.3-2c-1.5,0-2.5,0.6-3.2,1.8s-1,3.1-1.1,5.5v9.4c0,2.8,0.3,4.8,1,6.1c0.7,1.3,1.8,1.9,3.3,1.9
		c1.5,0,2.5-0.6,3.2-1.9s1-3.2,1.1-5.9V66.2z"/>
	<path d="M681.7,89.1h-8.6V61.8l-8.4,2.5v-6.5l16.2-5.6h0.8V89.1z"/>
	<path d="M715.4,74.7h3.8v6.6h-3.8v7.8h-8.6v-7.8h-14.3l-0.5-5.2l14.8-23.8v-0.1h8.6V74.7z M700.2,74.7h6.7V63.3l-0.5,0.9
		L700.2,74.7z"/>
	<path d="M755.2,68.3h-10.8v20.9h-8.6V61.7h19.4V68.3z"/>
	<path d="M756.2,75.2c0-2.7,0.5-5.2,1.6-7.3c1.1-2.1,2.6-3.8,4.6-4.9c2-1.2,4.3-1.7,7-1.7c4.1,0,7.4,1.3,9.7,3.8
		c2.4,2.5,3.6,6,3.6,10.4v0.3c0,4.3-1.2,7.7-3.6,10.2s-5.6,3.8-9.7,3.8c-3.9,0-7-1.2-9.4-3.5c-2.4-2.3-3.6-5.5-3.8-9.5L756.2,75.2z
		 M764.7,75.7c0,2.5,0.4,4.4,1.2,5.6c0.8,1.2,2,1.8,3.5,1.8c3,0,4.6-2.3,4.7-7v-0.9c0-4.9-1.6-7.4-4.7-7.4c-2.9,0-4.4,2.1-4.6,6.4
		L764.7,75.7z"/>
	<path d="M785.4,82.5c1.4-1.4,2.4-2.7,3-4.1c0.6-1.4,1-2.9,1.1-4.7l0.1-1.9l0.2-10.2h21.4v20.9h4.1v14.9h-8.6v-8.3h-14.9v8.3h-8.8
		l0-14.9H785.4z M795.2,82.5h7.3V68.3h-4.4l0,2.3C798,75.5,797,79.5,795.2,82.5z"/>
	<path d="M833.6,89.1c-0.3-0.6-0.6-1.4-0.8-2.5c-1.6,2-3.8,3-6.6,3c-2.6,0-4.8-0.8-6.6-2.3c-1.8-1.6-2.7-3.5-2.7-5.9
		c0-3,1.1-5.2,3.3-6.8s5.4-2.3,9.6-2.3h2.6v-1.5c0-2.5-1.1-3.8-3.3-3.8c-2,0-3,1-3,3h-8.6c0-2.7,1.1-4.8,3.4-6.5s5.1-2.5,8.6-2.5
		s6.3,0.9,8.3,2.6c2,1.7,3.1,4.1,3.1,7v12.2c0,2.5,0.4,4.5,1.2,5.8v0.4H833.6z M828.2,83.6c1.1,0,2-0.2,2.7-0.7s1.2-1,1.5-1.5v-4.4
		h-2.5c-3,0-4.5,1.3-4.5,4c0,0.8,0.3,1.4,0.8,1.9S827.4,83.6,828.2,83.6z"/>
</g>
<path d="M696.9,950.6h1.9v14.2h-1.9v-11l-7,11H688v-14.2h1.9v11L696.9,950.6z M706.1,963.5c0.6,0,1.2-0.2,1.7-0.6s0.7-0.9,0.8-1.5
	h1.7c0,0.6-0.2,1.2-0.6,1.7s-0.9,1-1.5,1.3s-1.3,0.5-2,0.5c-1.4,0-2.6-0.5-3.4-1.4s-1.3-2.3-1.3-3.9v-0.3c0-1,0.2-1.9,0.6-2.7
	s0.9-1.4,1.6-1.9s1.5-0.7,2.5-0.7c1.2,0,2.2,0.4,3,1.1s1.2,1.6,1.3,2.8h-1.7c-0.1-0.7-0.3-1.2-0.8-1.7s-1-0.7-1.7-0.7
	c-0.9,0-1.6,0.3-2.1,1s-0.8,1.6-0.8,2.9v0.3c0,1.2,0.3,2.2,0.8,2.8S705.2,963.5,706.1,963.5z M720.2,955.7h-3.5v9.1h-1.8v-9.1h-3.5
	v-1.5h8.8V955.7z M721.1,959.4c0-1,0.2-2,0.6-2.8s1-1.5,1.7-1.9s1.6-0.7,2.5-0.7c1.4,0,2.6,0.5,3.5,1.5s1.3,2.3,1.3,4v0.1
	c0,1-0.2,2-0.6,2.8s-1,1.5-1.7,1.9s-1.6,0.7-2.5,0.7c-1.4,0-2.6-0.5-3.5-1.5s-1.3-2.3-1.3-4V959.4z M722.9,959.7
	c0,1.2,0.3,2.1,0.8,2.8s1.3,1.1,2.2,1.1c0.9,0,1.6-0.4,2.2-1.1s0.8-1.7,0.8-3c0-1.2-0.3-2.1-0.8-2.8s-1.3-1.1-2.2-1.1
	c-0.9,0-1.6,0.4-2.2,1.1S722.9,958.3,722.9,959.7z M741,964.8h-1.8V961c-0.8,0.2-1.6,0.3-2.4,0.3c-1.3,0-2.3-0.3-3-1s-1-1.6-1.1-2.9
	v-3.2h1.8v3.2c0,1.6,0.8,2.4,2.3,2.4c0.8,0,1.6-0.1,2.4-0.3v-5.3h1.8V964.8z M752.5,964.8h-1.8v-4.5h-4.9v4.5H744v-10.6h1.8v4.6h4.9
	v-4.6h1.8V964.8z M762.2,954.3h1.8v10.6h-1.8v-7.7l-4.9,7.7h-1.8v-10.6h1.8v7.7L762.2,954.3z M770.2,960.3h-1.3v4.5h-1.8v-10.6h1.8
	v4.5h1.2l3.6-4.5h2.2l-4.2,5.1l4.5,5.5h-2.3L770.2,960.3z M777.7,963.9c0-0.3,0.1-0.6,0.3-0.8s0.5-0.3,0.8-0.3s0.7,0.1,0.8,0.3
	s0.3,0.5,0.3,0.8c0,0.3-0.1,0.5-0.3,0.8s-0.5,0.3-0.8,0.3s-0.6-0.1-0.8-0.3S777.7,964.2,777.7,963.9z M777.7,955.3
	c0-0.3,0.1-0.6,0.3-0.8s0.5-0.3,0.8-0.3s0.7,0.1,0.8,0.3s0.3,0.5,0.3,0.8c0,0.3-0.1,0.5-0.3,0.8s-0.5,0.3-0.8,0.3s-0.6-0.1-0.8-0.3
	S777.7,955.6,777.7,955.3z M789.7,959.3v5.6h-1.9v-14.2h5.2c1.6,0,2.8,0.4,3.7,1.2s1.3,1.8,1.3,3.2c0,1.4-0.4,2.4-1.3,3.2
	s-2.1,1.1-3.7,1.1H789.7z M789.7,957.7h3.4c1,0,1.8-0.2,2.3-0.7s0.8-1.2,0.8-2c0-0.8-0.3-1.5-0.8-2s-1.3-0.8-2.2-0.8h-3.5V957.7z
	 M806.6,964.8c-0.1-0.2-0.2-0.6-0.3-1.1c-0.8,0.9-1.8,1.3-3,1.3c-1,0-1.9-0.3-2.6-0.9s-1-1.3-1-2.2c0-1.1,0.4-2,1.3-2.6
	s2-0.9,3.5-0.9h1.8v-0.8c0-0.6-0.2-1.1-0.6-1.5s-0.9-0.6-1.7-0.6c-0.6,0-1.2,0.2-1.6,0.5s-0.7,0.7-0.7,1.2h-1.8c0-0.5,0.2-1,0.6-1.5
	s0.9-0.9,1.5-1.2s1.3-0.4,2.1-0.4c1.2,0,2.2,0.3,2.9,0.9s1,1.4,1.1,2.5v4.9c0,1,0.1,1.7,0.4,2.3v0.2H806.6z M803.6,963.5
	c0.6,0,1.1-0.1,1.6-0.4s0.9-0.7,1.1-1.1v-2.2h-1.4c-2.2,0-3.3,0.6-3.3,1.9c0,0.6,0.2,1,0.6,1.3S803,963.5,803.6,963.5z M815.1,963.5
	c0.6,0,1.2-0.2,1.7-0.6s0.7-0.9,0.8-1.5h1.7c0,0.6-0.2,1.2-0.6,1.7s-0.9,1-1.5,1.3s-1.3,0.5-2,0.5c-1.4,0-2.6-0.5-3.4-1.4
	s-1.3-2.3-1.3-3.9v-0.3c0-1,0.2-1.9,0.6-2.7s0.9-1.4,1.6-1.9s1.5-0.7,2.5-0.7c1.2,0,2.2,0.4,3,1.1s1.2,1.6,1.3,2.8h-1.7
	c-0.1-0.7-0.3-1.2-0.8-1.7s-1-0.7-1.7-0.7c-0.9,0-1.6,0.3-2.1,1s-0.8,1.6-0.8,2.9v0.3c0,1.2,0.3,2.2,0.8,2.8
	S814.2,963.5,815.1,963.5z M829.4,964.8h-1.8V961c-0.8,0.2-1.6,0.3-2.4,0.3c-1.3,0-2.3-0.3-3-1s-1-1.6-1.1-2.9v-3.2h1.8v3.2
	c0,1.6,0.8,2.4,2.3,2.4c0.8,0,1.6-0.1,2.4-0.3v-5.3h1.8V964.8z M836.6,965c-1.4,0-2.6-0.5-3.5-1.4s-1.3-2.2-1.3-3.8v-0.3
	c0-1,0.2-2,0.6-2.8s1-1.5,1.7-1.9s1.5-0.7,2.3-0.7c1.4,0,2.4,0.5,3.2,1.4s1.1,2.2,1.1,3.9v0.8h-7.2c0,1,0.3,1.9,0.9,2.5s1.3,1,2.2,1
	c0.6,0,1.2-0.1,1.6-0.4s0.8-0.6,1.2-1l1.1,0.9C839.7,964.3,838.4,965,836.6,965z M836.4,955.5c-0.7,0-1.3,0.3-1.8,0.8
	s-0.8,1.3-0.9,2.2h5.3v-0.1c-0.1-0.9-0.3-1.6-0.7-2.1S837.2,955.5,836.4,955.5z M850.6,955.7H847v9.1h-1.8v-9.1h-3.5v-1.5h8.8V955.7
	z M854.3,957.9h2.7c1.2,0,2.1,0.3,2.8,0.9s1,1.4,1,2.5c0,1.1-0.4,1.9-1.1,2.5s-1.7,1-2.9,1h-4.5v-10.6h1.8V957.9z M854.3,959.4v4
	h2.7c0.7,0,1.2-0.2,1.6-0.5s0.6-0.8,0.6-1.4c0-0.6-0.2-1.1-0.5-1.4s-0.9-0.6-1.5-0.6H854.3z M864.7,964.8h-1.8v-10.6h1.8V964.8z
	 M874.2,959.5l2.5,3.9h-1.4l-2.9-3.8v-0.2l2.9-3.8h1.4L874.2,959.5z M877.4,959.5l2.5,3.9h-1.4l-2.9-3.8v-0.2l2.9-3.8h1.4
	L877.4,959.5z M893.4,964.8h-1.9v-6.6h-7.2v6.6h-1.9v-14.2h1.9v6.1h7.2v-6.1h1.9V964.8z M896,959.4c0-1,0.2-2,0.6-2.8s1-1.5,1.7-1.9
	s1.6-0.7,2.5-0.7c1.4,0,2.6,0.5,3.5,1.5s1.3,2.3,1.3,4v0.1c0,1-0.2,2-0.6,2.8s-1,1.5-1.7,1.9s-1.6,0.7-2.5,0.7
	c-1.4,0-2.6-0.5-3.5-1.5s-1.3-2.3-1.3-4V959.4z M897.8,959.7c0,1.2,0.3,2.1,0.8,2.8s1.3,1.1,2.2,1.1c0.9,0,1.6-0.4,2.2-1.1
	s0.8-1.7,0.8-3c0-1.2-0.3-2.1-0.8-2.8s-1.3-1.1-2.2-1.1c-0.9,0-1.6,0.4-2.2,1.1S897.8,958.3,897.8,959.7z M908,964.8v-10.6h4.1
	c1.4,0,2.5,0.2,3.2,0.7s1.1,1.2,1.1,2.2c0,0.5-0.1,0.9-0.4,1.3s-0.7,0.7-1.3,0.9c0.6,0.1,1.2,0.4,1.5,0.9s0.6,1,0.6,1.6
	c0,1-0.4,1.7-1.1,2.2s-1.7,0.8-3,0.8H908z M909.8,958.7h2.3c1.7,0,2.5-0.5,2.5-1.5s-0.8-1.5-2.4-1.5h-2.5V958.7z M909.8,960.2v3.2h3
	c0.8,0,1.3-0.1,1.7-0.4s0.6-0.7,0.6-1.2c0-1.1-0.8-1.6-2.3-1.6H909.8z M918.8,959.4c0-1,0.2-2,0.6-2.8s1-1.5,1.7-1.9
	s1.6-0.7,2.5-0.7c1.4,0,2.6,0.5,3.5,1.5s1.3,2.3,1.3,4v0.1c0,1-0.2,2-0.6,2.8s-1,1.5-1.7,1.9s-1.6,0.7-2.5,0.7
	c-1.4,0-2.6-0.5-3.5-1.5s-1.3-2.3-1.3-4V959.4z M920.6,959.7c0,1.2,0.3,2.1,0.8,2.8s1.3,1.1,2.2,1.1c0.9,0,1.6-0.4,2.2-1.1
	s0.8-1.7,0.8-3c0-1.2-0.3-2.1-0.8-2.8s-1.3-1.1-2.2-1.1c-0.9,0-1.6,0.4-2.2,1.1S920.6,958.3,920.6,959.7z M937.5,954.3h1.8v10.6
	h-1.8v-7.7l-4.9,7.7h-1.8v-10.6h1.8v7.7L937.5,954.3z M938,950.4c0,0.8-0.3,1.4-0.8,1.9s-1.2,0.7-2.1,0.7s-1.6-0.2-2.1-0.7
	s-0.8-1.1-0.8-1.9h1.5c0,0.5,0.1,0.8,0.4,1.1s0.6,0.4,1.1,0.4c0.5,0,0.8-0.1,1.1-0.4s0.4-0.6,0.4-1.1H938z M943.3,955.6l2.9,3.8v0.2
	l-2.9,3.8h-1.4l2.5-3.9l-2.5-3.9H943.3z M946.7,955.6l2.9,3.8v0.2l-2.9,3.8h-1.4l2.5-3.9l-2.5-3.9H946.7z"/>
<g>
	<path d="M97.7,237.6h-2.2V233c-1,0.2-1.9,0.4-2.9,0.4c-1.6,0-2.8-0.4-3.6-1.2s-1.3-2-1.3-3.5v-3.8h2.2v3.9c0,1.9,0.9,2.8,2.7,2.8
		c1,0,2-0.1,2.9-0.4v-6.3h2.2V237.6z"/>
	<path d="M109.4,224.9h2.2v12.7h-2.2v-9.2l-5.8,9.2h-2.2v-12.7h2.2v9.3L109.4,224.9z"/>
	<path d="M120.1,236c0.8,0,1.4-0.2,2-0.7s0.9-1.1,1-1.8h2.1c0,0.7-0.3,1.4-0.8,2.1s-1.1,1.2-1.8,1.6s-1.6,0.6-2.4,0.6
		c-1.7,0-3.1-0.6-4.1-1.7s-1.5-2.7-1.5-4.7V231c0-1.2,0.2-2.3,0.7-3.3s1.1-1.7,2-2.2s1.8-0.8,3-0.8c1.4,0,2.6,0.4,3.5,1.3
		s1.4,2,1.5,3.3h-2.1c-0.1-0.8-0.4-1.5-0.9-2s-1.2-0.8-2.1-0.8c-1.1,0-2,0.4-2.6,1.2s-0.9,1.9-0.9,3.4v0.4c0,1.5,0.3,2.6,0.9,3.4
		S119,236,120.1,236z"/>
	<path d="M138,224.9v12.7h-2.2v-10.9h-4.3l-0.3,4.7c-0.1,2.2-0.5,3.7-1.1,4.7s-1.5,1.4-2.8,1.5h-0.9v-1.9l0.6,0
		c0.7-0.1,1.2-0.5,1.5-1.2s0.5-2.1,0.6-4.1l0.2-5.4H138z"/>
	<path d="M140.9,231.1c0-1.2,0.2-2.4,0.7-3.4s1.2-1.8,2-2.3s1.9-0.8,3-0.8c1.7,0,3.1,0.6,4.2,1.8s1.6,2.8,1.6,4.8v0.2
		c0,1.2-0.2,2.3-0.7,3.3s-1.1,1.7-2,2.3s-1.9,0.8-3,0.8c-1.7,0-3.1-0.6-4.2-1.8s-1.6-2.8-1.6-4.7V231.1z M143.1,231.4
		c0,1.4,0.3,2.5,1,3.4s1.5,1.3,2.6,1.3c1.1,0,2-0.4,2.6-1.3s1-2.1,1-3.6c0-1.4-0.3-2.5-1-3.4s-1.5-1.3-2.6-1.3
		c-1.1,0-1.9,0.4-2.6,1.3S143.1,229.8,143.1,231.4z"/>
	<path d="M171.4,237.6h-2.2v-5.4h-5.8v5.4h-2.2v-12.7h2.2v5.5h5.8v-5.5h2.2V237.6z"/>
	<path d="M182.7,237.6c-0.1-0.2-0.2-0.7-0.3-1.3c-1,1-2.2,1.6-3.6,1.6c-1.2,0-2.3-0.4-3.1-1.1s-1.2-1.6-1.2-2.7
		c0-1.3,0.5-2.3,1.5-3.1s2.4-1.1,4.2-1.1h2.1v-1c0-0.8-0.2-1.4-0.7-1.8s-1.1-0.7-2-0.7c-0.8,0-1.4,0.2-1.9,0.6s-0.8,0.9-0.8,1.4
		h-2.2c0-0.6,0.2-1.2,0.7-1.8s1.1-1.1,1.8-1.4s1.6-0.5,2.5-0.5c1.5,0,2.6,0.4,3.4,1.1s1.3,1.7,1.3,3v5.8c0,1.2,0.1,2.1,0.4,2.8v0.2
		H182.7z M179.1,235.9c0.7,0,1.3-0.2,1.9-0.5s1.1-0.8,1.3-1.4v-2.6h-1.7c-2.7,0-4,0.8-4,2.3c0,0.7,0.2,1.2,0.7,1.6
		S178.4,235.9,179.1,235.9z"/>
	<path d="M198.3,237.6h-2.2v-10.9h-5.8v10.9h-2.2v-12.7h10.2V237.6z"/>
	<path d="M209.7,237.6c-0.1-0.2-0.2-0.7-0.3-1.3c-1,1-2.2,1.6-3.6,1.6c-1.2,0-2.3-0.4-3.1-1.1s-1.2-1.6-1.2-2.7
		c0-1.3,0.5-2.3,1.5-3.1s2.4-1.1,4.2-1.1h2.1v-1c0-0.8-0.2-1.4-0.7-1.8s-1.1-0.7-2-0.7c-0.8,0-1.4,0.2-1.9,0.6s-0.8,0.9-0.8,1.4
		h-2.2c0-0.6,0.2-1.2,0.7-1.8s1.1-1.1,1.8-1.4s1.6-0.5,2.5-0.5c1.5,0,2.6,0.4,3.4,1.1s1.3,1.7,1.3,3v5.8c0,1.2,0.1,2.1,0.4,2.8v0.2
		H209.7z M206.1,235.9c0.7,0,1.3-0.2,1.9-0.5s1.1-0.8,1.3-1.4v-2.6h-1.7c-2.7,0-4,0.8-4,2.3c0,0.7,0.2,1.2,0.7,1.6
		S205.3,235.9,206.1,235.9z"/>
	<path d="M214.8,235.8l0.8-0.9c0.8-1.1,1.3-2.7,1.4-4.9l0.2-5.1h8.2v10.9h1.6v5.5h-2.2v-3.7h-8.8v3.7h-2.2l0-5.5H214.8z
		 M217.3,235.8h5.8v-8.9h-3.9l-0.1,3C219,232.5,218.4,234.4,217.3,235.8z"/>
	<path d="M234.6,237.8c-1.7,0-3.1-0.6-4.2-1.7s-1.6-2.6-1.6-4.5v-0.4c0-1.3,0.2-2.4,0.7-3.4s1.2-1.8,2-2.3s1.8-0.8,2.8-0.8
		c1.6,0,2.9,0.5,3.8,1.6s1.4,2.6,1.4,4.7v0.9H231c0,1.2,0.4,2.3,1.1,3s1.6,1.2,2.7,1.2c0.8,0,1.4-0.2,1.9-0.5s1-0.7,1.4-1.2l1.3,1
		C238.3,237,236.8,237.8,234.6,237.8z M234.4,226.4c-0.9,0-1.6,0.3-2.2,1s-1,1.5-1.1,2.7h6.4v-0.2c-0.1-1.1-0.4-2-0.9-2.6
		S235.3,226.4,234.4,226.4z"/>
	<path d="M252.4,237.6h-2.2v-5.4h-5.8v5.4h-2.2v-12.7h2.2v5.5h5.8v-5.5h2.2V237.6z"/>
	<path d="M264.1,224.9h2.2v12.7h-2.2v-9.2l-5.8,9.2h-2.2v-12.7h2.2v9.3L264.1,224.9z"/>
	<path d="M278,224.9h2.2v12.7H278v-9.2l-5.8,9.2H270v-12.7h2.2v9.3L278,224.9z M278.6,220.3c0,0.9-0.3,1.7-1,2.3
		c-0.6,0.6-1.5,0.9-2.5,0.9s-1.9-0.3-2.5-0.9c-0.6-0.6-1-1.3-1-2.3h1.8c0,0.5,0.1,1,0.4,1.3s0.7,0.5,1.3,0.5c0.5,0,1-0.2,1.3-0.5
		s0.5-0.7,0.5-1.3H278.6z"/>
	<path d="M98.5,285.6h-2.2v-10.9h-5.8v10.9h-2.2v-12.7h10.2V285.6z"/>
	<path d="M112.7,279.4c0,1.9-0.4,3.5-1.3,4.7s-2.1,1.8-3.6,1.8c-1.5,0-2.8-0.5-3.6-1.5v6.1H102v-17.6h2l0.1,1.4
		c0.9-1.1,2.1-1.6,3.7-1.6c1.5,0,2.7,0.6,3.6,1.7s1.3,2.7,1.3,4.8V279.4z M110.5,279.1c0-1.4-0.3-2.6-0.9-3.4s-1.4-1.2-2.5-1.2
		c-1.3,0-2.3,0.6-3,1.7v6.1c0.6,1.2,1.6,1.7,3,1.7c1,0,1.9-0.4,2.5-1.2S110.5,280.8,110.5,279.1z"/>
	<path d="M120.7,285.8c-1.7,0-3.1-0.6-4.2-1.7s-1.6-2.6-1.6-4.5v-0.4c0-1.3,0.2-2.4,0.7-3.4s1.2-1.8,2-2.3s1.8-0.8,2.8-0.8
		c1.6,0,2.9,0.5,3.8,1.6s1.4,2.6,1.4,4.7v0.9h-8.6c0,1.2,0.4,2.3,1.1,3s1.6,1.2,2.7,1.2c0.8,0,1.4-0.2,1.9-0.5s1-0.7,1.4-1.2l1.3,1
		C124.4,285,122.8,285.8,120.7,285.8z M120.4,274.4c-0.9,0-1.6,0.3-2.2,1s-1,1.5-1.1,2.7h6.4v-0.2c-0.1-1.1-0.4-2-0.9-2.6
		S121.3,274.4,120.4,274.4z"/>
	<path d="M128,283.8l0.8-0.9c0.8-1.1,1.3-2.7,1.4-4.9l0.2-5.1h8.2v10.9h1.6v5.5h-2.2v-3.7h-8.8v3.7H127l0-5.5H128z M130.6,283.8h5.8
		v-8.9h-3.9l-0.1,3C132.3,280.5,131.7,282.4,130.6,283.8z"/>
	<path d="M142.1,279.1c0-1.2,0.2-2.4,0.7-3.4s1.2-1.8,2-2.3s1.9-0.8,3-0.8c1.7,0,3.1,0.6,4.2,1.8s1.6,2.8,1.6,4.8v0.2
		c0,1.2-0.2,2.3-0.7,3.3s-1.1,1.7-2,2.3s-1.9,0.8-3,0.8c-1.7,0-3.1-0.6-4.2-1.8s-1.6-2.8-1.6-4.7V279.1z M144.2,279.4
		c0,1.4,0.3,2.5,1,3.4s1.5,1.3,2.6,1.3c1.1,0,2-0.4,2.6-1.3s1-2.1,1-3.6c0-1.4-0.3-2.5-1-3.4s-1.5-1.3-2.6-1.3
		c-1.1,0-1.9,0.4-2.6,1.3S144.2,277.8,144.2,279.4z"/>
	<path d="M165.5,274.7h-4.3v10.9h-2.2v-10.9h-4.2v-1.8h10.6V274.7z"/>
	<path d="M167.8,285.6v-12.7h4.9c1.7,0,3,0.3,3.9,0.9s1.4,1.5,1.4,2.6c0,0.6-0.2,1.1-0.5,1.6s-0.9,0.8-1.6,1.1
		c0.8,0.2,1.4,0.5,1.8,1.1s0.7,1.1,0.7,1.9c0,1.2-0.4,2.1-1.3,2.7s-2.1,0.9-3.6,0.9H167.8z M170,278.3h2.8c2,0,3-0.6,3-1.8
		s-1-1.8-2.9-1.8h-3V278.3z M170,280v3.8h3.6c0.9,0,1.6-0.2,2-0.5s0.7-0.8,0.7-1.4c0-1.3-0.9-1.9-2.8-1.9H170z"/>
	<path d="M192,279.4c0,1.9-0.4,3.5-1.3,4.7s-2.1,1.8-3.6,1.8c-1.5,0-2.8-0.5-3.6-1.5v6.1h-2.2v-17.6h2l0.1,1.4
		c0.9-1.1,2.1-1.6,3.7-1.6c1.5,0,2.7,0.6,3.6,1.7s1.3,2.7,1.3,4.8V279.4z M189.8,279.1c0-1.4-0.3-2.6-0.9-3.4s-1.4-1.2-2.5-1.2
		c-1.3,0-2.3,0.6-3,1.7v6.1c0.6,1.2,1.6,1.7,3,1.7c1,0,1.9-0.4,2.5-1.2S189.8,280.8,189.8,279.1z"/>
	<path d="M202.6,285.6c-0.1-0.2-0.2-0.7-0.3-1.3c-1,1-2.2,1.6-3.6,1.6c-1.2,0-2.3-0.4-3.1-1.1s-1.2-1.6-1.2-2.7
		c0-1.3,0.5-2.3,1.5-3.1s2.4-1.1,4.2-1.1h2.1v-1c0-0.8-0.2-1.4-0.7-1.8s-1.1-0.7-2-0.7c-0.8,0-1.4,0.2-1.9,0.6s-0.8,0.9-0.8,1.4
		h-2.2c0-0.6,0.2-1.2,0.7-1.8s1.1-1.1,1.8-1.4s1.6-0.5,2.5-0.5c1.5,0,2.6,0.4,3.4,1.1s1.3,1.7,1.3,3v5.8c0,1.2,0.1,2.1,0.4,2.8v0.2
		H202.6z M199,283.9c0.7,0,1.3-0.2,1.9-0.5s1.1-0.8,1.3-1.4v-2.6h-1.7c-2.7,0-4,0.8-4,2.3c0,0.7,0.2,1.2,0.7,1.6
		S198.3,283.9,199,283.9z"/>
	<path d="M210.1,272.9v10.9h4.6v-10.9h2.2v10.9h4.6v-10.9h2.2v10.9h1.8l-0.2,5.5h-1.9v-3.8h-15.4v-12.7H210.1z"/>
	<path d="M233.1,285.8c-1.7,0-3.1-0.6-4.2-1.7s-1.6-2.6-1.6-4.5v-0.4c0-1.3,0.2-2.4,0.7-3.4s1.2-1.8,2-2.3s1.8-0.8,2.8-0.8
		c1.6,0,2.9,0.5,3.8,1.6s1.4,2.6,1.4,4.7v0.9h-8.6c0,1.2,0.4,2.3,1.1,3s1.6,1.2,2.7,1.2c0.8,0,1.4-0.2,1.9-0.5s1-0.7,1.4-1.2l1.3,1
		C236.8,285,235.2,285.8,233.1,285.8z M232.8,274.4c-0.9,0-1.6,0.3-2.2,1s-1,1.5-1.1,2.7h6.4v-0.2c-0.1-1.1-0.4-2-0.9-2.6
		S233.7,274.4,232.8,274.4z"/>
	<path d="M250.9,285.6h-2.2v-5.4h-5.8v5.4h-2.2v-12.7h2.2v5.5h5.8v-5.5h2.2V285.6z"/>
	<path d="M262.6,272.9h2.2v12.7h-2.2v-9.2l-5.8,9.2h-2.2v-12.7h2.2v9.3L262.6,272.9z"/>
	<path d="M276.4,272.9h2.2v12.7h-2.2v-9.2l-5.8,9.2h-2.2v-12.7h2.2v9.3L276.4,272.9z M277,268.3c0,0.9-0.3,1.7-1,2.3
		c-0.6,0.6-1.5,0.9-2.5,0.9s-1.9-0.3-2.5-0.9c-0.6-0.6-1-1.3-1-2.3h1.8c0,0.5,0.1,1,0.4,1.3s0.7,0.5,1.3,0.5c0.5,0,1-0.2,1.3-0.5
		s0.5-0.7,0.5-1.3H277z"/>
	<path d="M98.5,333.6h-2.2v-10.9h-5.8v10.9h-2.2v-12.7h10.2V333.6z"/>
	<path d="M101.4,327.1c0-1.2,0.2-2.4,0.7-3.4s1.2-1.8,2-2.3s1.9-0.8,3-0.8c1.7,0,3.1,0.6,4.2,1.8s1.6,2.8,1.6,4.8v0.2
		c0,1.2-0.2,2.3-0.7,3.3s-1.1,1.7-2,2.3s-1.9,0.8-3,0.8c-1.7,0-3.1-0.6-4.2-1.8s-1.6-2.8-1.6-4.7V327.1z M103.6,327.4
		c0,1.4,0.3,2.5,1,3.4s1.5,1.3,2.6,1.3c1.1,0,2-0.4,2.6-1.3s1-2.1,1-3.6c0-1.4-0.3-2.5-1-3.4s-1.5-1.3-2.6-1.3
		c-1.1,0-1.9,0.4-2.6,1.3S103.6,325.8,103.6,327.4z"/>
	<path d="M120.7,332c0.8,0,1.4-0.2,2-0.7s0.9-1.1,1-1.8h2.1c0,0.7-0.3,1.4-0.8,2.1s-1.1,1.2-1.8,1.6s-1.6,0.6-2.4,0.6
		c-1.7,0-3.1-0.6-4.1-1.7s-1.5-2.7-1.5-4.7V327c0-1.2,0.2-2.3,0.7-3.3s1.1-1.7,2-2.2s1.8-0.8,3-0.8c1.4,0,2.6,0.4,3.5,1.3
		s1.4,2,1.5,3.3h-2.1c-0.1-0.8-0.4-1.5-0.9-2s-1.2-0.8-2.1-0.8c-1.1,0-2,0.4-2.6,1.2s-0.9,1.9-0.9,3.4v0.4c0,1.5,0.3,2.6,0.9,3.4
		S119.6,332,120.7,332z"/>
	<path d="M137.6,322.7h-4.3v10.9h-2.2v-10.9H127v-1.8h10.6V322.7z"/>
	<path d="M150.5,327.4c0,1.9-0.4,3.5-1.3,4.7s-2.1,1.8-3.6,1.8c-1.5,0-2.8-0.5-3.6-1.5v6.1h-2.2v-17.6h2l0.1,1.4
		c0.9-1.1,2.1-1.6,3.7-1.6c1.5,0,2.7,0.6,3.6,1.7s1.3,2.7,1.3,4.8V327.4z M148.3,327.1c0-1.4-0.3-2.6-0.9-3.4s-1.4-1.2-2.5-1.2
		c-1.3,0-2.3,0.6-3,1.7v6.1c0.6,1.2,1.6,1.7,3,1.7c1,0,1.9-0.4,2.5-1.2S148.3,328.8,148.3,327.1z"/>
	<path d="M161,333.6c-0.1-0.2-0.2-0.7-0.3-1.3c-1,1-2.2,1.6-3.6,1.6c-1.2,0-2.3-0.4-3.1-1.1s-1.2-1.6-1.2-2.7c0-1.3,0.5-2.3,1.5-3.1
		s2.4-1.1,4.2-1.1h2.1v-1c0-0.8-0.2-1.4-0.7-1.8s-1.1-0.7-2-0.7c-0.8,0-1.4,0.2-1.9,0.6s-0.8,0.9-0.8,1.4h-2.2
		c0-0.6,0.2-1.2,0.7-1.8s1.1-1.1,1.8-1.4s1.6-0.5,2.5-0.5c1.5,0,2.6,0.4,3.4,1.1s1.3,1.7,1.3,3v5.8c0,1.2,0.1,2.1,0.4,2.8v0.2H161z
		 M157.4,331.9c0.7,0,1.3-0.2,1.9-0.5s1.1-0.8,1.3-1.4v-2.6H159c-2.7,0-4,0.8-4,2.3c0,0.7,0.2,1.2,0.7,1.6S156.7,331.9,157.4,331.9z
		"/>
	<path d="M166.2,331.8l0.8-0.9c0.8-1.1,1.3-2.7,1.4-4.9l0.2-5.1h8.2v10.9h1.6v5.5h-2.2v-3.7h-8.8v3.7h-2.2l0-5.5H166.2z
		 M168.7,331.8h5.8v-8.9h-3.9l-0.1,3C170.4,328.5,169.8,330.4,168.7,331.8z"/>
	<path d="M188.6,333.6c-0.1-0.2-0.2-0.7-0.3-1.3c-1,1-2.2,1.6-3.6,1.6c-1.2,0-2.3-0.4-3.1-1.1s-1.2-1.6-1.2-2.7
		c0-1.3,0.5-2.3,1.5-3.1s2.4-1.1,4.2-1.1h2.1v-1c0-0.8-0.2-1.4-0.7-1.8s-1.1-0.7-2-0.7c-0.8,0-1.4,0.2-1.9,0.6s-0.8,0.9-0.8,1.4
		h-2.2c0-0.6,0.2-1.2,0.7-1.8s1.1-1.1,1.8-1.4s1.6-0.5,2.5-0.5c1.5,0,2.6,0.4,3.4,1.1s1.3,1.7,1.3,3v5.8c0,1.2,0.1,2.1,0.4,2.8v0.2
		H188.6z M185,331.9c0.7,0,1.3-0.2,1.9-0.5s1.1-0.8,1.3-1.4v-2.6h-1.7c-2.7,0-4,0.8-4,2.3c0,0.7,0.2,1.2,0.7,1.6
		S184.3,331.9,185,331.9z"/>
	<path d="M194,333.6v-12.7h4.9c1.7,0,3,0.3,3.9,0.9s1.4,1.5,1.4,2.6c0,0.6-0.2,1.1-0.5,1.6s-0.9,0.8-1.6,1.1
		c0.8,0.2,1.4,0.5,1.8,1.1s0.7,1.1,0.7,1.9c0,1.2-0.4,2.1-1.3,2.7s-2.1,0.9-3.6,0.9H194z M196.2,326.3h2.8c2,0,3-0.6,3-1.8
		s-1-1.8-2.9-1.8h-3V326.3z M196.2,328v3.8h3.6c0.9,0,1.6-0.2,2-0.5s0.7-0.8,0.7-1.4c0-1.3-0.9-1.9-2.8-1.9H196.2z"/>
	<path d="M209.9,320.9v10.9h4.6v-10.9h2.2v10.9h4.6v-10.9h2.2v12.7h-15.8v-12.7H209.9z"/>
	<path d="M235.1,320.9h2.2v12.7h-2.2v-9.2l-5.8,9.2h-2.2v-12.7h2.2v9.3L235.1,320.9z"/>
	<path d="M245,325.5l2.8-4.6h2.5l-4.1,6.3l4.3,6.4H248l-2.9-4.7l-2.9,4.7h-2.5l4.3-6.4l-4.1-6.3h2.5L245,325.5z"/>
	<path class="st1" d="M63.3,268l-8.5,2.9c0.2,7.1,1.8,15.8,8.5,18.4c6.7-2.5,8.2-11.3,8.5-18.4L63.3,268z"/>
	<path class="st2" d="M72,329.2h-5.8v5.8h-5.9v-5.8h-5.8v-5.9h5.8v-5.8h5.9v5.8H72V329.2z"/>
	<path d="M71.1,230.3c-0.6-3.3-3.2-5.9-6.5-6.5v-2.2H62v2.2c-3.3,0.6-5.9,3.2-6.4,6.5h-2.2v2.6h2.2c0.6,3.3,3.1,5.9,6.4,6.5v2.2h2.7
		v-2.2c3.3-0.6,5.9-3.2,6.5-6.5h2.2v-2.6H71.1z M63.4,236.6c-2.8,0-5.1-2.3-5.1-5.1c0-2.8,2.3-5.1,5.1-5.1c2.8,0,5.2,2.3,5.2,5.1
		C68.5,234.3,66.2,236.6,63.4,236.6z"/>
	<path d="M65.3,231.6c0,1.1-0.9,2-2,2c-1.1,0-2-0.9-2-2s0.9-2,2-2C64.4,229.6,65.3,230.5,65.3,231.6z"/>
</g>
<g>
	<path class="st1" d="M61,810.8l-8.5,2.9c0.2,7.1,1.8,15.8,8.5,18.3c6.7-2.5,8.2-11.3,8.5-18.3L61,810.8z"/>
	<path class="st2" d="M175.9,824.9h-5.8v5.8h-5.9v-5.8h-5.8v-5.9h5.8v-5.8h5.9v5.8h5.8V824.9z"/>
	<path class="st2" d="M175.9,797.4h-5.8v5.8h-5.9v-5.8h-5.8v-5.9h5.8v-5.8h5.9v5.8h5.8V797.4z"/>
	<path class="st2" d="M175.9,769.9h-5.8v5.8h-5.9v-5.8h-5.8v-5.9h5.8v-5.8h5.9v5.8h5.8V769.9z"/>
	<path class="st2" d="M175.9,742.4h-5.8v5.8h-5.9v-5.8h-5.8v-5.9h5.8v-5.8h5.9v5.8h5.8V742.4z"/>
	<path class="st2" d="M175.9,714.9h-5.8v5.8h-5.9v-5.8h-5.8v-5.9h5.8v-5.8h5.9v5.8h5.8V714.9z"/>
	<path class="st2" d="M175.9,687.4h-5.8v5.8h-5.9v-5.8h-5.8v-5.9h5.8v-5.8h5.9v5.8h5.8V687.4z"/>
	<path class="st2" d="M175.9,659.9h-5.8v5.8h-5.9v-5.8h-5.8v-5.9h5.8v-5.8h5.9v5.8h5.8V659.9z"/>
	<path class="st2" d="M175.9,632.4h-5.8v5.8h-5.9v-5.8h-5.8v-5.9h5.8v-5.8h5.9v5.8h5.8V632.4z"/>
	<path class="st2" d="M270.5,824.9h-5.8v5.8h-5.9v-5.8h-5.8v-5.9h5.8v-5.8h5.9v5.8h5.8V824.9z"/>
	<path class="st2" d="M270.5,797.4h-5.8v5.8h-5.9v-5.8h-5.8v-5.9h5.8v-5.8h5.9v5.8h5.8V797.4z"/>
	<path class="st1" d="M342.3,810.8l-8.4,2.9c0.2,7.1,1.8,15.8,8.4,18.3c6.7-2.5,8.2-11.3,8.5-18.3L342.3,810.8z"/>
	<path class="st1" d="M437.2,810.8l-8.5,2.9c0.2,7.1,1.8,15.8,8.5,18.3c6.7-2.5,8.2-11.3,8.4-18.3L437.2,810.8z"/>
	<path class="st1" d="M437.2,783.3l-8.5,2.9c0.2,7.1,1.8,15.8,8.5,18.3c6.7-2.5,8.2-11.3,8.4-18.3L437.2,783.3z"/>
	<path class="st1" d="M437.2,755.8l-8.5,2.9c0.2,7.1,1.8,15.8,8.5,18.3c6.7-2.5,8.2-11.3,8.4-18.3L437.2,755.8z"/>
	<path class="st1" d="M437.2,728.3l-8.5,2.9c0.2,7.1,1.8,15.8,8.5,18.3c6.7-2.5,8.2-11.3,8.4-18.3L437.2,728.3z"/>
	<path class="st2" d="M469.9,824.3h-5.8v5.8h-5.9v-5.8h-5.8v-5.9h5.8v-5.8h5.9v5.8h5.8V824.3z"/>
	<path class="st2" d="M469.9,796.8h-5.8v5.8h-5.9v-5.8h-5.8v-5.9h5.8v-5.8h5.9v5.8h5.8V796.8z"/>
	<path class="st2" d="M469.9,769.3h-5.8v5.8h-5.9v-5.8h-5.8v-5.9h5.8v-5.8h5.9v5.8h5.8V769.3z"/>
	<path class="st2" d="M469.9,741.8h-5.8v5.8h-5.9v-5.8h-5.8v-5.9h5.8v-5.8h5.9v5.8h5.8V741.8z"/>
	<path class="st2" d="M469.9,714.3h-5.8v5.8h-5.9v-5.8h-5.8v-5.9h5.8v-5.8h5.9v5.8h5.8V714.3z"/>
	<path class="st2" d="M469.9,686.8h-5.8v5.8h-5.9v-5.8h-5.8v-5.9h5.8v-5.8h5.9v5.8h5.8V686.8z"/>
	<path class="st2" d="M469.9,659.3h-5.8v5.8h-5.9v-5.8h-5.8v-5.9h5.8v-5.8h5.9v5.8h5.8V659.3z"/>
	<path class="st2" d="M469.9,631.8h-5.8v5.8h-5.9v-5.8h-5.8v-5.9h5.8v-5.8h5.9v5.8h5.8V631.8z"/>
	<path class="st2" d="M469.9,604.3h-5.8v5.8h-5.9v-5.8h-5.8v-5.9h5.8v-5.8h5.9v5.8h5.8V604.3z"/>
	<path class="st2" d="M469.9,576.8h-5.8v5.8h-5.9v-5.8h-5.8v-5.9h5.8v-5.8h5.9v5.8h5.8V576.8z"/>
	<path class="st2" d="M469.9,549.3h-5.8v5.8h-5.9v-5.8h-5.8v-5.9h5.8v-5.8h5.9v5.8h5.8V549.3z"/>
	<path class="st2" d="M469.9,521.8h-5.8v5.8h-5.9v-5.8h-5.8v-5.9h5.8v-5.8h5.9v5.8h5.8V521.8z"/>
	<path class="st2" d="M469.9,494.3h-5.8v5.8h-5.9v-5.8h-5.8v-5.9h5.8v-5.8h5.9v5.8h5.8V494.3z"/>
	<path class="st1" d="M530.9,810.8l-8.5,2.9c0.2,7.1,1.8,15.8,8.5,18.3c6.7-2.5,8.2-11.3,8.5-18.3L530.9,810.8z"/>
	<path class="st2" d="M563.6,824.3h-5.8v5.8H552v-5.8h-5.8v-5.9h5.8v-5.8h5.9v5.8h5.8V824.3z"/>
	<path class="st2" d="M563.6,796.8h-5.8v5.8H552v-5.8h-5.8v-5.9h5.8v-5.8h5.9v5.8h5.8V796.8z"/>
	<path class="st2" d="M563.6,769.3h-5.8v5.8H552v-5.8h-5.8v-5.9h5.8v-5.8h5.9v5.8h5.8V769.3z"/>
	<path class="st2" d="M563.6,741.8h-5.8v5.8H552v-5.8h-5.8v-5.9h5.8v-5.8h5.9v5.8h5.8V741.8z"/>
	<path class="st2" d="M563.6,714.3h-5.8v5.8H552v-5.8h-5.8v-5.9h5.8v-5.8h5.9v5.8h5.8V714.3z"/>
	<path class="st2" d="M563.6,686.8h-5.8v5.8H552v-5.8h-5.8v-5.9h5.8v-5.8h5.9v5.8h5.8V686.8z"/>
	<path class="st2" d="M563.6,659.3h-5.8v5.8H552v-5.8h-5.8v-5.9h5.8v-5.8h5.9v5.8h5.8V659.3z"/>
	<path class="st2" d="M563.6,631.8h-5.8v5.8H552v-5.8h-5.8v-5.9h5.8v-5.8h5.9v5.8h5.8V631.8z"/>
	<path class="st2" d="M563.6,604.3h-5.8v5.8H552v-5.8h-5.8v-5.9h5.8v-5.8h5.9v5.8h5.8V604.3z"/>
	<path class="st2" d="M563.6,576.8h-5.8v5.8H552v-5.8h-5.8v-5.9h5.8v-5.8h5.9v5.8h5.8V576.8z"/>
	<path class="st2" d="M563.6,549.3h-5.8v5.8H552v-5.8h-5.8v-5.9h5.8v-5.8h5.9v5.8h5.8V549.3z"/>
	<path class="st2" d="M563.6,521.8h-5.8v5.8H552v-5.8h-5.8v-5.9h5.8v-5.8h5.9v5.8h5.8V521.8z"/>
	<path class="st2" d="M563.6,494.3h-5.8v5.8H552v-5.8h-5.8v-5.9h5.8v-5.8h5.9v5.8h5.8V494.3z"/>
	<path class="st2" d="M563.6,466.8h-5.8v5.8H552v-5.8h-5.8v-5.9h5.8v-5.8h5.9v5.8h5.8V466.8z"/>
	<path class="st2" d="M563.6,439.3h-5.8v5.8H552v-5.8h-5.8v-5.9h5.8v-5.8h5.9v5.8h5.8V439.3z"/>
	<path class="st2" d="M563.6,411.8h-5.8v5.8H552v-5.8h-5.8v-5.9h5.8v-5.8h5.9v5.8h5.8V411.8z"/>
	<path class="st2" d="M563.6,384.3h-5.8v5.8H552v-5.8h-5.8v-5.9h5.8v-5.8h5.9v5.8h5.8V384.3z"/>
	<path class="st2" d="M563.6,356.8h-5.8v5.8H552v-5.8h-5.8v-5.9h5.8v-5.8h5.9v5.8h5.8V356.8z"/>
	<path class="st2" d="M563.6,329.3h-5.8v5.8H552v-5.8h-5.8v-5.9h5.8v-5.8h5.9v5.8h5.8V329.3z"/>
	<path class="st2" d="M563.6,301.8h-5.8v5.8H552v-5.8h-5.8v-5.9h5.8v-5.8h5.9v5.8h5.8V301.8z"/>
	<path class="st2" d="M563.6,274.3h-5.8v5.8H552v-5.8h-5.8v-5.9h5.8v-5.8h5.9v5.8h5.8V274.3z"/>
	<path class="st2" d="M563.6,246.8h-5.8v5.8H552v-5.8h-5.8v-5.9h5.8v-5.8h5.9v5.8h5.8V246.8z"/>
	<path class="st2" d="M563.6,219.3h-5.8v5.8H552v-5.8h-5.8v-5.9h5.8v-5.8h5.9v5.8h5.8V219.3z"/>
	<path class="st2" d="M563.6,191.8h-5.8v5.8H552v-5.8h-5.8v-5.9h5.8v-5.8h5.9v5.8h5.8V191.8z"/>
	<path class="st2" d="M563.6,164.3h-5.8v5.8H552v-5.8h-5.8v-5.9h5.8v-5.8h5.9v5.8h5.8V164.3z"/>
	<path class="st2" d="M563.6,136.8h-5.8v5.8H552v-5.8h-5.8v-5.9h5.8v-5.8h5.9v5.8h5.8V136.8z"/>
	<path class="st2" d="M581,811h-5.8v5.8h-5.9V811h-5.8v-5.9h5.8v-5.8h5.9v5.8h5.8V811z"/>
	<path class="st2" d="M581,783.5h-5.8v5.8h-5.9v-5.8h-5.8v-5.9h5.8v-5.8h5.9v5.8h5.8V783.5z"/>
	<path class="st2" d="M581,756h-5.8v5.8h-5.9V756h-5.8v-5.9h5.8v-5.8h5.9v5.8h5.8V756z"/>
	<path class="st2" d="M581,728.5h-5.8v5.8h-5.9v-5.8h-5.8v-5.9h5.8v-5.8h5.9v5.8h5.8V728.5z"/>
	<path class="st2" d="M581,701h-5.8v5.8h-5.9V701h-5.8v-5.9h5.8v-5.8h5.9v5.8h5.8V701z"/>
	<path class="st2" d="M581,673.5h-5.8v5.8h-5.9v-5.8h-5.8v-5.9h5.8v-5.8h5.9v5.8h5.8V673.5z"/>
	<path class="st2" d="M581,646h-5.8v5.8h-5.9V646h-5.8v-5.9h5.8v-5.8h5.9v5.8h5.8V646z"/>
	<path class="st2" d="M581,618.5h-5.8v5.8h-5.9v-5.8h-5.8v-5.9h5.8v-5.8h5.9v5.8h5.8V618.5z"/>
	<path class="st2" d="M581,591h-5.8v5.8h-5.9V591h-5.8v-5.9h5.8v-5.8h5.9v5.8h5.8V591z"/>
	<path class="st2" d="M581,563.5h-5.8v5.8h-5.9v-5.8h-5.8v-5.9h5.8v-5.8h5.9v5.8h5.8V563.5z"/>
	<path class="st2" d="M581,536h-5.8v5.8h-5.9V536h-5.8v-5.9h5.8v-5.8h5.9v5.8h5.8V536z"/>
	<path class="st2" d="M581,508.5h-5.8v5.8h-5.9v-5.8h-5.8v-5.9h5.8v-5.8h5.9v5.8h5.8V508.5z"/>
	<path class="st2" d="M581,481h-5.8v5.8h-5.9V481h-5.8v-5.9h5.8v-5.8h5.9v5.8h5.8V481z"/>
	<path class="st2" d="M581,453.5h-5.8v5.8h-5.9v-5.8h-5.8v-5.9h5.8v-5.8h5.9v5.8h5.8V453.5z"/>
	<path class="st2" d="M581,426h-5.8v5.8h-5.9V426h-5.8v-5.9h5.8v-5.8h5.9v5.8h5.8V426z"/>
	<path class="st2" d="M581,398.5h-5.8v5.8h-5.9v-5.8h-5.8v-5.9h5.8v-5.8h5.9v5.8h5.8V398.5z"/>
	<path class="st2" d="M581,371h-5.8v5.8h-5.9V371h-5.8v-5.9h5.8v-5.8h5.9v5.8h5.8V371z"/>
	<path class="st2" d="M581,343.5h-5.8v5.8h-5.9v-5.8h-5.8v-5.9h5.8v-5.8h5.9v5.8h5.8V343.5z"/>
	<path class="st2" d="M581,316h-5.8v5.8h-5.9V316h-5.8v-5.9h5.8v-5.8h5.9v5.8h5.8V316z"/>
	<path class="st2" d="M581,288.5h-5.8v5.8h-5.9v-5.8h-5.8v-5.9h5.8v-5.8h5.9v5.8h5.8V288.5z"/>
	<path class="st2" d="M581,261h-5.8v5.8h-5.9V261h-5.8v-5.9h5.8v-5.8h5.9v5.8h5.8V261z"/>
	<path class="st2" d="M581,233.5h-5.8v5.8h-5.9v-5.8h-5.8v-5.9h5.8v-5.8h5.9v5.8h5.8V233.5z"/>
	<path class="st2" d="M581,206h-5.8v5.8h-5.9V206h-5.8v-5.9h5.8v-5.8h5.9v5.8h5.8V206z"/>
	<path class="st2" d="M581,178.5h-5.8v5.8h-5.9v-5.8h-5.8v-5.9h5.8v-5.8h5.9v5.8h5.8V178.5z"/>
	<path class="st2" d="M581,151h-5.8v5.8h-5.9V151h-5.8v-5.9h5.8v-5.8h5.9v5.8h5.8V151z"/>
	<path class="st2" d="M598.4,824.3h-5.8v5.8h-5.9v-5.8H581v-5.9h5.8v-5.8h5.9v5.8h5.8V824.3z"/>
	<path class="st2" d="M598.4,796.8h-5.8v5.8h-5.9v-5.8H581v-5.9h5.8v-5.8h5.9v5.8h5.8V796.8z"/>
	<path class="st2" d="M598.4,769.3h-5.8v5.8h-5.9v-5.8H581v-5.9h5.8v-5.8h5.9v5.8h5.8V769.3z"/>
	<path class="st2" d="M598.4,741.8h-5.8v5.8h-5.9v-5.8H581v-5.9h5.8v-5.8h5.9v5.8h5.8V741.8z"/>
	<path class="st2" d="M598.4,714.3h-5.8v5.8h-5.9v-5.8H581v-5.9h5.8v-5.8h5.9v5.8h5.8V714.3z"/>
	<path class="st2" d="M598.4,686.8h-5.8v5.8h-5.9v-5.8H581v-5.9h5.8v-5.8h5.9v5.8h5.8V686.8z"/>
	<path class="st2" d="M598.4,659.3h-5.8v5.8h-5.9v-5.8H581v-5.9h5.8v-5.8h5.9v5.8h5.8V659.3z"/>
	<path class="st2" d="M598.4,631.8h-5.8v5.8h-5.9v-5.8H581v-5.9h5.8v-5.8h5.9v5.8h5.8V631.8z"/>
	<path class="st2" d="M598.4,604.3h-5.8v5.8h-5.9v-5.8H581v-5.9h5.8v-5.8h5.9v5.8h5.8V604.3z"/>
	<path class="st2" d="M598.4,576.8h-5.8v5.8h-5.9v-5.8H581v-5.9h5.8v-5.8h5.9v5.8h5.8V576.8z"/>
	<path class="st2" d="M598.4,549.3h-5.8v5.8h-5.9v-5.8H581v-5.9h5.8v-5.8h5.9v5.8h5.8V549.3z"/>
	<path class="st2" d="M598.4,521.8h-5.8v5.8h-5.9v-5.8H581v-5.9h5.8v-5.8h5.9v5.8h5.8V521.8z"/>
	<path class="st2" d="M598.4,494.3h-5.8v5.8h-5.9v-5.8H581v-5.9h5.8v-5.8h5.9v5.8h5.8V494.3z"/>
	<path class="st2" d="M598.4,466.8h-5.8v5.8h-5.9v-5.8H581v-5.9h5.8v-5.8h5.9v5.8h5.8V466.8z"/>
	<path class="st2" d="M598.4,439.3h-5.8v5.8h-5.9v-5.8H581v-5.9h5.8v-5.8h5.9v5.8h5.8V439.3z"/>
	<path class="st2" d="M598.4,411.8h-5.8v5.8h-5.9v-5.8H581v-5.9h5.8v-5.8h5.9v5.8h5.8V411.8z"/>
	<path class="st2" d="M598.4,384.3h-5.8v5.8h-5.9v-5.8H581v-5.9h5.8v-5.8h5.9v5.8h5.8V384.3z"/>
	<path class="st2" d="M598.4,356.8h-5.8v5.8h-5.9v-5.8H581v-5.9h5.8v-5.8h5.9v5.8h5.8V356.8z"/>
	<path class="st2" d="M598.4,329.3h-5.8v5.8h-5.9v-5.8H581v-5.9h5.8v-5.8h5.9v5.8h5.8V329.3z"/>
	<path class="st2" d="M598.4,301.8h-5.8v5.8h-5.9v-5.8H581v-5.9h5.8v-5.8h5.9v5.8h5.8V301.8z"/>
	<path class="st2" d="M598.4,274.3h-5.8v5.8h-5.9v-5.8H581v-5.9h5.8v-5.8h5.9v5.8h5.8V274.3z"/>
	<path class="st2" d="M598.4,246.8h-5.8v5.8h-5.9v-5.8H581v-5.9h5.8v-5.8h5.9v5.8h5.8V246.8z"/>
	<path class="st2" d="M598.4,219.3h-5.8v5.8h-5.9v-5.8H581v-5.9h5.8v-5.8h5.9v5.8h5.8V219.3z"/>
	<path class="st2" d="M598.4,191.8h-5.8v5.8h-5.9v-5.8H581v-5.9h5.8v-5.8h5.9v5.8h5.8V191.8z"/>
	<path class="st2" d="M598.4,164.3h-5.8v5.8h-5.9v-5.8H581v-5.9h5.8v-5.8h5.9v5.8h5.8V164.3z"/>
	<path class="st2" d="M598.4,136.8h-5.8v5.8h-5.9v-5.8H581v-5.9h5.8v-5.8h5.9v5.8h5.8V136.8z"/>
	<path class="st2" d="M615.8,811h-5.8v5.8h-5.9V811h-5.8v-5.9h5.8v-5.8h5.9v5.8h5.8V811z"/>
	<path class="st2" d="M615.8,783.5h-5.8v5.8h-5.9v-5.8h-5.8v-5.9h5.8v-5.8h5.9v5.8h5.8V783.5z"/>
	<path class="st2" d="M615.8,756h-5.8v5.8h-5.9V756h-5.8v-5.9h5.8v-5.8h5.9v5.8h5.8V756z"/>
	<path class="st2" d="M615.8,728.5h-5.8v5.8h-5.9v-5.8h-5.8v-5.9h5.8v-5.8h5.9v5.8h5.8V728.5z"/>
	<path class="st2" d="M615.8,701h-5.8v5.8h-5.9V701h-5.8v-5.9h5.8v-5.8h5.9v5.8h5.8V701z"/>
	<path class="st2" d="M615.8,673.5h-5.8v5.8h-5.9v-5.8h-5.8v-5.9h5.8v-5.8h5.9v5.8h5.8V673.5z"/>
	<path class="st2" d="M615.8,646h-5.8v5.8h-5.9V646h-5.8v-5.9h5.8v-5.8h5.9v5.8h5.8V646z"/>
	<path class="st2" d="M615.8,618.5h-5.8v5.8h-5.9v-5.8h-5.8v-5.9h5.8v-5.8h5.9v5.8h5.8V618.5z"/>
	<path class="st2" d="M615.8,591h-5.8v5.8h-5.9V591h-5.8v-5.9h5.8v-5.8h5.9v5.8h5.8V591z"/>
	<path class="st2" d="M615.8,563.5h-5.8v5.8h-5.9v-5.8h-5.8v-5.9h5.8v-5.8h5.9v5.8h5.8V563.5z"/>
	<path class="st2" d="M615.8,536h-5.8v5.8h-5.9V536h-5.8v-5.9h5.8v-5.8h5.9v5.8h5.8V536z"/>
	<path class="st2" d="M615.8,508.5h-5.8v5.8h-5.9v-5.8h-5.8v-5.9h5.8v-5.8h5.9v5.8h5.8V508.5z"/>
	<path class="st2" d="M615.8,481h-5.8v5.8h-5.9V481h-5.8v-5.9h5.8v-5.8h5.9v5.8h5.8V481z"/>
	<path class="st2" d="M615.8,453.5h-5.8v5.8h-5.9v-5.8h-5.8v-5.9h5.8v-5.8h5.9v5.8h5.8V453.5z"/>
	<path class="st2" d="M615.8,426h-5.8v5.8h-5.9V426h-5.8v-5.9h5.8v-5.8h5.9v5.8h5.8V426z"/>
	<path class="st2" d="M615.8,398.5h-5.8v5.8h-5.9v-5.8h-5.8v-5.9h5.8v-5.8h5.9v5.8h5.8V398.5z"/>
	<path class="st2" d="M615.8,371h-5.8v5.8h-5.9V371h-5.8v-5.9h5.8v-5.8h5.9v5.8h5.8V371z"/>
	<path class="st2" d="M615.8,343.5h-5.8v5.8h-5.9v-5.8h-5.8v-5.9h5.8v-5.8h5.9v5.8h5.8V343.5z"/>
	<path class="st2" d="M615.8,316h-5.8v5.8h-5.9V316h-5.8v-5.9h5.8v-5.8h5.9v5.8h5.8V316z"/>
	<path class="st2" d="M615.8,288.5h-5.8v5.8h-5.9v-5.8h-5.8v-5.9h5.8v-5.8h5.9v5.8h5.8V288.5z"/>
	<path class="st2" d="M615.8,261h-5.8v5.8h-5.9V261h-5.8v-5.9h5.8v-5.8h5.9v5.8h5.8V261z"/>
	<path class="st2" d="M615.8,233.5h-5.8v5.8h-5.9v-5.8h-5.8v-5.9h5.8v-5.8h5.9v5.8h5.8V233.5z"/>
	<path class="st2" d="M615.8,206h-5.8v5.8h-5.9V206h-5.8v-5.9h5.8v-5.8h5.9v5.8h5.8V206z"/>
	<path class="st2" d="M615.8,178.5h-5.8v5.8h-5.9v-5.8h-5.8v-5.9h5.8v-5.8h5.9v5.8h5.8V178.5z"/>
	<path class="st2" d="M615.8,151h-5.8v5.8h-5.9V151h-5.8v-5.9h5.8v-5.8h5.9v5.8h5.8V151z"/>
	<path class="st2" d="M633.2,824.3h-5.8v5.8h-5.9v-5.8h-5.8v-5.9h5.8v-5.8h5.9v5.8h5.8V824.3z"/>
	<path class="st2" d="M633.2,796.8h-5.8v5.8h-5.9v-5.8h-5.8v-5.9h5.8v-5.8h5.9v5.8h5.8V796.8z"/>
	<path class="st2" d="M633.2,769.3h-5.8v5.8h-5.9v-5.8h-5.8v-5.9h5.8v-5.8h5.9v5.8h5.8V769.3z"/>
	<path class="st2" d="M633.2,741.8h-5.8v5.8h-5.9v-5.8h-5.8v-5.9h5.8v-5.8h5.9v5.8h5.8V741.8z"/>
	<path class="st2" d="M633.2,714.3h-5.8v5.8h-5.9v-5.8h-5.8v-5.9h5.8v-5.8h5.9v5.8h5.8V714.3z"/>
	<path class="st2" d="M633.2,686.8h-5.8v5.8h-5.9v-5.8h-5.8v-5.9h5.8v-5.8h5.9v5.8h5.8V686.8z"/>
	<path class="st2" d="M633.2,659.3h-5.8v5.8h-5.9v-5.8h-5.8v-5.9h5.8v-5.8h5.9v5.8h5.8V659.3z"/>
	<path class="st2" d="M633.2,631.8h-5.8v5.8h-5.9v-5.8h-5.8v-5.9h5.8v-5.8h5.9v5.8h5.8V631.8z"/>
	<path class="st2" d="M633.2,604.3h-5.8v5.8h-5.9v-5.8h-5.8v-5.9h5.8v-5.8h5.9v5.8h5.8V604.3z"/>
	<path class="st2" d="M633.2,576.8h-5.8v5.8h-5.9v-5.8h-5.8v-5.9h5.8v-5.8h5.9v5.8h5.8V576.8z"/>
	<path class="st2" d="M633.2,549.3h-5.8v5.8h-5.9v-5.8h-5.8v-5.9h5.8v-5.8h5.9v5.8h5.8V549.3z"/>
	<path class="st2" d="M633.2,521.8h-5.8v5.8h-5.9v-5.8h-5.8v-5.9h5.8v-5.7h5.9v5.7h5.8V521.8z"/>
	<path class="st2" d="M633.2,494.3h-5.8v5.8h-5.9v-5.8h-5.8v-5.9h5.8v-5.8h5.9v5.8h5.8V494.3z"/>
	<path class="st2" d="M633.2,466.8h-5.8v5.8h-5.9v-5.8h-5.8v-5.9h5.8v-5.8h5.9v5.8h5.8V466.8z"/>
	<path class="st2" d="M633.2,439.3h-5.8v5.8h-5.9v-5.8h-5.8v-5.9h5.8v-5.8h5.9v5.8h5.8V439.3z"/>
	<path class="st2" d="M633.2,411.8h-5.8v5.8h-5.9v-5.8h-5.8v-5.9h5.8v-5.8h5.9v5.8h5.8V411.8z"/>
	<path class="st2" d="M633.2,384.3h-5.8v5.8h-5.9v-5.8h-5.8v-5.9h5.8v-5.8h5.9v5.8h5.8V384.3z"/>
	<path class="st2" d="M633.2,356.8h-5.8v5.8h-5.9v-5.8h-5.8v-5.9h5.8v-5.8h5.9v5.8h5.8V356.8z"/>
	<path class="st2" d="M633.2,329.3h-5.8v5.8h-5.9v-5.8h-5.8v-5.9h5.8v-5.8h5.9v5.8h5.8V329.3z"/>
	<path class="st2" d="M633.2,301.8h-5.8v5.8h-5.9v-5.8h-5.8v-5.9h5.8v-5.8h5.9v5.8h5.8V301.8z"/>
	<path class="st2" d="M633.2,274.3h-5.8v5.8h-5.9v-5.8h-5.8v-5.9h5.8v-5.8h5.9v5.8h5.8V274.3z"/>
	<path class="st2" d="M633.2,246.8h-5.8v5.8h-5.9v-5.8h-5.8v-5.9h5.8v-5.8h5.9v5.8h5.8V246.8z"/>
	<path class="st2" d="M633.2,219.3h-5.8v5.8h-5.9v-5.8h-5.8v-5.9h5.8v-5.8h5.9v5.8h5.8V219.3z"/>
	<path class="st2" d="M633.2,191.8h-5.8v5.8h-5.9v-5.8h-5.8v-5.9h5.8v-5.8h5.9v5.8h5.8V191.8z"/>
	<path class="st2" d="M633.2,164.3h-5.8v5.8h-5.9v-5.8h-5.8v-5.9h5.8v-5.8h5.9v5.8h5.8V164.3z"/>
	<path class="st1" d="M694.3,810.8l-8.4,2.9c0.2,7.1,1.8,15.8,8.4,18.3c6.7-2.5,8.2-11.3,8.5-18.3L694.3,810.8z"/>
	<path class="st1" d="M694.3,783.3l-8.4,2.9c0.2,7.1,1.8,15.8,8.4,18.3c6.7-2.5,8.2-11.3,8.5-18.3L694.3,783.3z"/>
	<path class="st1" d="M694.3,755.8l-8.4,2.9c0.2,7.1,1.8,15.8,8.4,18.3c6.7-2.5,8.2-11.3,8.5-18.3L694.3,755.8z"/>
	<path class="st1" d="M694.3,728.3l-8.4,2.9c0.2,7.1,1.8,15.8,8.4,18.3c6.7-2.5,8.2-11.3,8.5-18.3L694.3,728.3z"/>
	<path class="st1" d="M694.3,700.8l-8.4,2.9c0.2,7.1,1.8,15.8,8.4,18.3c6.7-2.5,8.2-11.3,8.5-18.3L694.3,700.8z"/>
	<path class="st1" d="M694.3,673.3l-8.4,2.9c0.2,7.1,1.8,15.8,8.4,18.3c6.7-2.5,8.2-11.3,8.5-18.3L694.3,673.3z"/>
	<path class="st2" d="M727,824.3h-5.8v5.8h-5.9v-5.8h-5.8v-5.9h5.8v-5.8h5.9v5.8h5.8V824.3z"/>
	<path class="st2" d="M727,796.8h-5.8v5.8h-5.9v-5.8h-5.8v-5.9h5.8v-5.8h5.9v5.8h5.8V796.8z"/>
	<path class="st2" d="M727,769.3h-5.8v5.8h-5.9v-5.8h-5.8v-5.9h5.8v-5.8h5.9v5.8h5.8V769.3z"/>
	<path class="st2" d="M727,741.8h-5.8v5.8h-5.9v-5.8h-5.8v-5.9h5.8v-5.8h5.9v5.8h5.8V741.8z"/>
	<path class="st2" d="M727,714.3h-5.8v5.8h-5.9v-5.8h-5.8v-5.9h5.8v-5.8h5.9v5.8h5.8V714.3z"/>
	<path class="st2" d="M727,686.8h-5.8v5.8h-5.9v-5.8h-5.8v-5.9h5.8v-5.8h5.9v5.8h5.8V686.8z"/>
	<path class="st2" d="M727,659.3h-5.8v5.8h-5.9v-5.8h-5.8v-5.9h5.8v-5.8h5.9v5.8h5.8V659.3z"/>
	<path class="st2" d="M727,631.8h-5.8v5.8h-5.9v-5.8h-5.8v-5.9h5.8v-5.8h5.9v5.8h5.8V631.8z"/>
	<path class="st2" d="M727,604.3h-5.8v5.8h-5.9v-5.8h-5.8v-5.9h5.8v-5.8h5.9v5.8h5.8V604.3z"/>
	<path class="st2" d="M727,576.8h-5.8v5.8h-5.9v-5.8h-5.8v-5.9h5.8v-5.8h5.9v5.8h5.8V576.8z"/>
	<path class="st2" d="M727,549.3h-5.8v5.8h-5.9v-5.8h-5.8v-5.9h5.8v-5.8h5.9v5.8h5.8V549.3z"/>
	<path class="st1" d="M788,810.8l-8.4,2.9c0.2,7.1,1.8,15.8,8.4,18.3c6.7-2.5,8.2-11.3,8.5-18.3L788,810.8z"/>
	<path class="st1" d="M788,783.3l-8.4,2.9c0.2,7.1,1.8,15.8,8.4,18.3c6.7-2.5,8.2-11.3,8.5-18.3L788,783.3z"/>
	<path class="st1" d="M788,755.8l-8.4,2.9c0.2,7.1,1.8,15.8,8.4,18.3c6.7-2.5,8.2-11.3,8.5-18.3L788,755.8z"/>
	<path class="st1" d="M788,728.3l-8.4,2.9c0.2,7.1,1.8,15.8,8.4,18.3c6.7-2.5,8.2-11.3,8.5-18.3L788,728.3z"/>
	<path class="st1" d="M788,700.8l-8.4,2.9c0.2,7.1,1.8,15.8,8.4,18.3c6.7-2.5,8.2-11.3,8.5-18.3L788,700.8z"/>
	<path class="st1" d="M788,673.3l-8.4,2.9c0.2,7.1,1.8,15.8,8.4,18.3c6.7-2.5,8.2-11.3,8.5-18.3L788,673.3z"/>
	<path class="st1" d="M788,645.8l-8.4,2.9c0.2,7.1,1.8,15.8,8.4,18.3c6.7-2.5,8.2-11.3,8.5-18.3L788,645.8z"/>
	<path class="st1" d="M788,618.3l-8.4,2.9c0.2,7.1,1.8,15.8,8.4,18.3c6.7-2.5,8.2-11.3,8.5-18.3L788,618.3z"/>
	<path class="st1" d="M788,590.8l-8.4,2.9c0.2,7.1,1.8,15.8,8.4,18.3c6.7-2.5,8.2-11.3,8.5-18.3L788,590.8z"/>
	<path class="st1" d="M788,563.3l-8.4,2.9c0.2,7.1,1.8,15.8,8.4,18.3c6.7-2.5,8.2-11.3,8.5-18.3L788,563.3z"/>
	<path class="st1" d="M788,535.8l-8.4,2.9c0.2,7.1,1.8,15.8,8.4,18.3c6.7-2.5,8.2-11.3,8.5-18.3L788,535.8z"/>
	<path class="st1" d="M788,508.3l-8.4,2.9c0.2,7.1,1.8,15.8,8.4,18.4c6.7-2.5,8.2-11.3,8.5-18.4L788,508.3z"/>
	<path class="st1" d="M788,480.8l-8.4,2.9c0.2,7.1,1.8,15.8,8.4,18.4c6.7-2.5,8.2-11.3,8.5-18.4L788,480.8z"/>
	<path class="st1" d="M788,453.3l-8.4,2.9c0.2,7.1,1.8,15.8,8.4,18.4c6.7-2.5,8.2-11.3,8.5-18.4L788,453.3z"/>
	<path class="st1" d="M788,425.8l-8.4,2.9c0.2,7.1,1.8,15.8,8.4,18.4c6.7-2.5,8.2-11.3,8.5-18.4L788,425.8z"/>
	<path class="st1" d="M788,398.3l-8.4,2.9c0.2,7.1,1.8,15.8,8.4,18.4c6.7-2.5,8.2-11.3,8.5-18.4L788,398.3z"/>
	<path class="st1" d="M788,370.8l-8.4,2.9c0.2,7.1,1.8,15.8,8.4,18.4c6.7-2.5,8.2-11.3,8.5-18.4L788,370.8z"/>
	<path class="st1" d="M788,343.3l-8.4,2.9c0.2,7.1,1.8,15.8,8.4,18.4c6.7-2.5,8.2-11.3,8.5-18.4L788,343.3z"/>
	<path class="st1" d="M788,315.8l-8.4,2.9c0.2,7.1,1.8,15.8,8.4,18.4c6.7-2.5,8.2-11.3,8.5-18.4L788,315.8z"/>
	<path class="st1" d="M788,288.3l-8.4,2.9c0.2,7.1,1.8,15.8,8.4,18.4c6.7-2.5,8.2-11.3,8.5-18.4L788,288.3z"/>
	<path class="st1" d="M788,260.8l-8.4,2.9c0.2,7.1,1.8,15.8,8.4,18.4c6.7-2.5,8.2-11.3,8.5-18.4L788,260.8z"/>
	<path class="st1" d="M788,233.3l-8.4,2.9c0.2,7.1,1.8,15.8,8.4,18.4c6.7-2.5,8.2-11.3,8.5-18.4L788,233.3z"/>
	<path class="st1" d="M788,205.8l-8.4,2.9c0.2,7.1,1.8,15.8,8.4,18.4c6.7-2.5,8.2-11.3,8.5-18.4L788,205.8z"/>
	<path class="st1" d="M788,178.3l-8.4,2.9c0.2,7.1,1.8,15.8,8.4,18.4c6.7-2.5,8.2-11.3,8.5-18.4L788,178.3z"/>
	<path class="st1" d="M788,150.8l-8.4,2.9c0.2,7.1,1.8,15.8,8.4,18.4c6.7-2.5,8.2-11.3,8.5-18.4L788,150.8z"/>
	<path class="st1" d="M788,123.3l-8.4,2.9c0.2,7.1,1.8,15.8,8.4,18.4c6.7-2.5,8.2-11.3,8.5-18.4L788,123.3z"/>
	<path class="st1" d="M806.3,798.1l-8.5,2.9c0.2,7.1,1.8,15.8,8.5,18.4c6.7-2.5,8.2-11.3,8.5-18.4L806.3,798.1z"/>
	<path class="st1" d="M806.3,770.6l-8.5,2.9c0.2,7.1,1.8,15.8,8.5,18.4c6.7-2.5,8.2-11.3,8.5-18.4L806.3,770.6z"/>
	<path class="st1" d="M806.3,743.1l-8.5,2.9c0.2,7.1,1.8,15.8,8.5,18.4c6.7-2.5,8.2-11.3,8.5-18.4L806.3,743.1z"/>
	<path class="st1" d="M806.3,715.6l-8.5,2.9c0.2,7.1,1.8,15.8,8.5,18.4c6.7-2.5,8.2-11.3,8.5-18.4L806.3,715.6z"/>
	<path class="st1" d="M806.3,688.1l-8.5,2.9c0.2,7.1,1.8,15.8,8.5,18.4c6.7-2.5,8.2-11.3,8.5-18.4L806.3,688.1z"/>
	<path class="st1" d="M806.3,660.6l-8.5,2.9c0.2,7.1,1.8,15.8,8.5,18.4c6.7-2.5,8.2-11.3,8.5-18.4L806.3,660.6z"/>
	<path class="st1" d="M806.3,633.1l-8.5,2.9c0.2,7.1,1.8,15.8,8.5,18.4c6.7-2.5,8.2-11.3,8.5-18.4L806.3,633.1z"/>
	<path class="st1" d="M806.3,605.6l-8.5,2.9c0.2,7.1,1.8,15.8,8.5,18.3c6.7-2.5,8.2-11.3,8.5-18.3L806.3,605.6z"/>
	<path class="st1" d="M806.3,578.1l-8.5,2.9c0.2,7.1,1.8,15.8,8.5,18.3c6.7-2.5,8.2-11.3,8.5-18.3L806.3,578.1z"/>
	<path class="st1" d="M806.3,550.6l-8.5,2.9c0.2,7.1,1.8,15.8,8.5,18.3c6.7-2.5,8.2-11.3,8.5-18.3L806.3,550.6z"/>
	<path class="st1" d="M806.3,523.1l-8.5,2.9c0.2,7.1,1.8,15.8,8.5,18.3c6.7-2.5,8.2-11.3,8.5-18.3L806.3,523.1z"/>
	<path class="st1" d="M806.3,495.6l-8.5,2.9c0.2,7.1,1.8,15.8,8.5,18.3c6.7-2.5,8.2-11.3,8.5-18.3L806.3,495.6z"/>
	<path class="st1" d="M806.3,468.1l-8.5,2.9c0.2,7.1,1.8,15.8,8.5,18.3c6.7-2.5,8.2-11.3,8.5-18.3L806.3,468.1z"/>
	<path class="st1" d="M806.3,440.6l-8.5,2.9c0.2,7.1,1.8,15.8,8.5,18.3c6.7-2.5,8.2-11.3,8.5-18.3L806.3,440.6z"/>
	<path class="st1" d="M806.3,413.1l-8.5,2.9c0.2,7.1,1.8,15.8,8.5,18.3c6.7-2.5,8.2-11.3,8.5-18.3L806.3,413.1z"/>
	<path class="st1" d="M806.3,385.6l-8.5,2.9c0.2,7.1,1.8,15.8,8.5,18.3c6.7-2.5,8.2-11.3,8.5-18.3L806.3,385.6z"/>
	<path class="st1" d="M806.3,358.1l-8.5,2.9c0.2,7.1,1.8,15.8,8.5,18.3c6.7-2.5,8.2-11.3,8.5-18.3L806.3,358.1z"/>
	<path class="st1" d="M806.3,330.6l-8.5,2.9c0.2,7.1,1.8,15.8,8.5,18.3c6.7-2.5,8.2-11.3,8.5-18.3L806.3,330.6z"/>
	<path class="st1" d="M806.3,303.1l-8.5,2.9c0.2,7.1,1.8,15.8,8.5,18.3c6.7-2.5,8.2-11.3,8.5-18.3L806.3,303.1z"/>
	<path class="st1" d="M806.3,275.6l-8.5,2.9c0.2,7.1,1.8,15.8,8.5,18.3c6.7-2.5,8.2-11.3,8.5-18.3L806.3,275.6z"/>
	<path class="st1" d="M806.3,248.1l-8.5,2.9c0.2,7.1,1.8,15.8,8.5,18.3c6.7-2.5,8.2-11.3,8.5-18.3L806.3,248.1z"/>
	<path class="st1" d="M806.3,220.6l-8.5,2.9c0.2,7.1,1.8,15.8,8.5,18.3c6.7-2.5,8.2-11.3,8.5-18.3L806.3,220.6z"/>
	<path class="st1" d="M806.3,193.1l-8.5,2.9c0.2,7.1,1.8,15.8,8.5,18.3c6.7-2.5,8.2-11.3,8.5-18.3L806.3,193.1z"/>
	<path class="st1" d="M806.3,165.6l-8.5,2.9c0.2,7.1,1.8,15.8,8.5,18.3c6.7-2.5,8.2-11.3,8.5-18.3L806.3,165.6z"/>
	<path class="st1" d="M806.3,138.1l-8.5,2.9c0.2,7.1,1.8,15.8,8.5,18.3c6.7-2.5,8.2-11.3,8.5-18.3L806.3,138.1z"/>
	<path class="st1" d="M824.5,810.8l-8.5,2.9c0.2,7.1,1.8,15.8,8.5,18.3c6.7-2.5,8.2-11.3,8.5-18.3L824.5,810.8z"/>
	<path class="st1" d="M824.5,783.3l-8.5,2.9c0.2,7.1,1.8,15.8,8.5,18.3c6.7-2.5,8.2-11.3,8.5-18.3L824.5,783.3z"/>
	<path class="st1" d="M824.5,755.8l-8.5,2.9c0.2,7.1,1.8,15.8,8.5,18.3c6.7-2.5,8.2-11.3,8.5-18.3L824.5,755.8z"/>
	<path class="st1" d="M824.5,728.3l-8.5,2.9c0.2,7.1,1.8,15.8,8.5,18.3c6.7-2.5,8.2-11.3,8.5-18.3L824.5,728.3z"/>
	<path class="st1" d="M824.5,700.8l-8.5,2.9c0.2,7.1,1.8,15.8,8.5,18.3c6.7-2.5,8.2-11.3,8.5-18.3L824.5,700.8z"/>
	<path class="st1" d="M824.5,673.3l-8.5,2.9c0.2,7.1,1.8,15.8,8.5,18.3c6.7-2.5,8.2-11.3,8.5-18.3L824.5,673.3z"/>
	<path class="st2" d="M854.2,824.3h-5.8v5.8h-5.9v-5.8h-5.8v-5.9h5.8v-5.8h5.9v5.8h5.8V824.3z"/>
	<path class="st2" d="M854.2,796.8h-5.8v5.8h-5.9v-5.8h-5.8v-5.9h5.8v-5.8h5.9v5.8h5.8V796.8z"/>
	<path class="st2" d="M854.2,769.3h-5.8v5.8h-5.9v-5.8h-5.8v-5.9h5.8v-5.8h5.9v5.8h5.8V769.3z"/>
	<path class="st2" d="M854.2,741.8h-5.8v5.8h-5.9v-5.8h-5.8v-5.9h5.8v-5.8h5.9v5.8h5.8V741.8z"/>
	<path class="st2" d="M854.2,714.3h-5.8v5.8h-5.9v-5.8h-5.8v-5.9h5.8v-5.8h5.9v5.8h5.8V714.3z"/>
	<path class="st2" d="M854.2,686.8h-5.8v5.8h-5.9v-5.8h-5.8v-5.9h5.8v-5.8h5.9v5.8h5.8V686.8z"/>
	<path class="st2" d="M854.2,659.3h-5.8v5.8h-5.9v-5.8h-5.8v-5.9h5.8v-5.8h5.9v5.8h5.8V659.3z"/>
	<path class="st2" d="M854.2,631.8h-5.8v5.8h-5.9v-5.8h-5.8v-5.9h5.8v-5.8h5.9v5.8h5.8V631.8z"/>
	<path class="st2" d="M854.2,604.3h-5.8v5.8h-5.9v-5.8h-5.8v-5.9h5.8v-5.8h5.9v5.8h5.8V604.3z"/>
	<path class="st1" d="M915.1,810.8l-8.4,2.9c0.2,7.1,1.8,15.8,8.4,18.3c6.7-2.5,8.2-11.3,8.5-18.3L915.1,810.8z"/>
	<path class="st1" d="M915.1,783.3l-8.4,2.9c0.2,7.1,1.8,15.8,8.4,18.3c6.7-2.5,8.2-11.3,8.5-18.3L915.1,783.3z"/>
	<path class="st1" d="M915.1,755.8l-8.4,2.9c0.2,7.1,1.8,15.8,8.4,18.3c6.7-2.5,8.2-11.3,8.5-18.3L915.1,755.8z"/>
	<path class="st1" d="M915.1,728.3l-8.4,2.9c0.2,7.1,1.8,15.8,8.4,18.3c6.7-2.5,8.2-11.3,8.5-18.3L915.1,728.3z"/>
	<path class="st1" d="M915.1,700.8l-8.4,2.9c0.2,7.1,1.8,15.8,8.4,18.3c6.7-2.5,8.2-11.3,8.5-18.3L915.1,700.8z"/>
	<path class="st2" d="M947.8,824.3h-5.8v5.8h-5.9v-5.8h-5.8v-5.9h5.8v-5.8h5.9v5.8h5.8V824.3z"/>
	<path class="st2" d="M947.8,796.8h-5.8v5.8h-5.9v-5.8h-5.8v-5.9h5.8v-5.8h5.9v5.8h5.8V796.8z"/>
	<path class="st2" d="M947.8,769.3h-5.8v5.8h-5.9v-5.8h-5.8v-5.9h5.8v-5.8h5.9v5.8h5.8V769.3z"/>
	<path class="st2" d="M947.8,741.8h-5.8v5.8h-5.9v-5.8h-5.8v-5.9h5.8v-5.8h5.9v5.8h5.8V741.8z"/>
	<path class="st2" d="M947.8,714.3h-5.8v5.8h-5.9v-5.8h-5.8v-5.9h5.8v-5.8h5.9v5.8h5.8V714.3z"/>
	<path class="st2" d="M947.8,686.8h-5.8v5.8h-5.9v-5.8h-5.8v-5.9h5.8v-5.8h5.9v5.8h5.8V686.8z"/>
	<path class="st2" d="M947.8,659.3h-5.8v5.8h-5.9v-5.8h-5.8v-5.9h5.8v-5.8h5.9v5.8h5.8V659.3z"/>
	<path class="st2" d="M947.8,631.8h-5.8v5.8h-5.9v-5.8h-5.8v-5.9h5.8v-5.8h5.9v5.8h5.8V631.8z"/>
	<path class="st2" d="M947.8,604.3h-5.8v5.8h-5.9v-5.8h-5.8v-5.9h5.8v-5.8h5.9v5.8h5.8V604.3z"/>
	<path class="st2" d="M947.8,576.8h-5.8v5.8h-5.9v-5.8h-5.8v-5.9h5.8v-5.8h5.9v5.8h5.8V576.8z"/>
	<path class="st2" d="M947.8,549.3h-5.8v5.8h-5.9v-5.8h-5.8v-5.9h5.8v-5.8h5.9v5.8h5.8V549.3z"/>
	<path class="st2" d="M947.8,521.8h-5.8v5.8h-5.9v-5.8h-5.8v-5.9h5.8v-5.8h5.9v5.8h5.8V521.8z"/>
	<path class="st2" d="M947.8,494.3h-5.8v5.8h-5.9v-5.8h-5.8v-5.9h5.8v-5.8h5.9v5.8h5.8V494.3z"/>
	<path class="st2" d="M947.8,466.8h-5.8v5.8h-5.9v-5.8h-5.8v-5.9h5.8v-5.8h5.9v5.8h5.8V466.8z"/>
	<path class="st2" d="M947.8,439.3h-5.8v5.8h-5.9v-5.8h-5.8v-5.9h5.8v-5.8h5.9v5.8h5.8V439.3z"/>
	<path class="st2" d="M947.8,411.8h-5.8v5.8h-5.9v-5.8h-5.8v-5.9h5.8v-5.8h5.9v5.8h5.8V411.8z"/>
	<path class="st2" d="M947.8,384.3h-5.8v5.8h-5.9v-5.8h-5.8v-5.9h5.8v-5.8h5.9v5.8h5.8V384.3z"/>
	<path class="st2" d="M947.8,356.8h-5.8v5.8h-5.9v-5.8h-5.8v-5.9h5.8v-5.8h5.9v5.8h5.8V356.8z"/>
	<path class="st2" d="M947.8,329.3h-5.8v5.8h-5.9v-5.8h-5.8v-5.9h5.8v-5.8h5.9v5.8h5.8V329.3z"/>
	<path class="st2" d="M947.8,301.8h-5.8v5.8h-5.9v-5.8h-5.8v-5.9h5.8v-5.8h5.9v5.8h5.8V301.8z"/>
	<path class="st2" d="M947.8,274.3h-5.8v5.8h-5.9v-5.8h-5.8v-5.9h5.8v-5.8h5.9v5.8h5.8V274.3z"/>
	<path class="st2" d="M947.8,246.8h-5.8v5.8h-5.9v-5.8h-5.8v-5.9h5.8v-5.8h5.9v5.8h5.8V246.8z"/>
	<path class="st2" d="M947.8,219.3h-5.8v5.8h-5.9v-5.8h-5.8v-5.9h5.8v-5.8h5.9v5.8h5.8V219.3z"/>
	<path class="st2" d="M947.8,191.8h-5.8v5.8h-5.9v-5.8h-5.8v-5.9h5.8v-5.8h5.9v5.8h5.8V191.8z"/>
	<path class="st2" d="M947.8,164.3h-5.8v5.8h-5.9v-5.8h-5.8v-5.9h5.8v-5.8h5.9v5.8h5.8V164.3z"/>
	<path class="st2" d="M947.8,136.8h-5.8v5.8h-5.9v-5.8h-5.8v-5.9h5.8v-5.8h5.9v5.8h5.8V136.8z"/>
	<path class="st2" d="M964.8,811.6h-5.8v5.8h-5.9v-5.8h-5.8v-5.9h5.8V800h5.9v5.8h5.8V811.6z"/>
	<path class="st2" d="M964.8,784.1h-5.8v5.8h-5.9v-5.8h-5.8v-5.9h5.8v-5.8h5.9v5.8h5.8V784.1z"/>
	<path class="st2" d="M964.8,756.6h-5.8v5.8h-5.9v-5.8h-5.8v-5.9h5.8V745h5.9v5.8h5.8V756.6z"/>
	<path d="M46.7,862H35.5v-1.6l5.9-6.6c0.9-1,1.5-1.8,1.8-2.4c0.3-0.6,0.5-1.3,0.5-1.9c0-0.9-0.3-1.6-0.8-2.2
		c-0.5-0.6-1.3-0.9-2.2-0.9c-1.1,0-1.9,0.3-2.5,0.9c-0.6,0.6-0.9,1.5-0.9,2.6h-2.2c0-1.6,0.5-2.8,1.5-3.8c1-1,2.4-1.5,4.1-1.5
		c1.6,0,2.8,0.4,3.8,1.2c0.9,0.8,1.4,1.9,1.4,3.3c0,1.7-1.1,3.7-3.2,6l-4.6,5h8.6V862z M59.7,854.7c0,2.5-0.4,4.4-1.3,5.7
		c-0.9,1.2-2.2,1.8-4.1,1.8c-1.8,0-3.2-0.6-4-1.8c-0.9-1.2-1.3-3-1.4-5.4v-2.9c0-2.5,0.4-4.4,1.3-5.6c0.9-1.2,2.2-1.8,4.1-1.8
		c1.8,0,3.2,0.6,4,1.8c0.9,1.2,1.3,3,1.3,5.4V854.7z M57.5,851.8c0-1.8-0.3-3.2-0.8-4c-0.5-0.8-1.3-1.3-2.5-1.3
		c-1.1,0-1.9,0.4-2.4,1.3c-0.5,0.8-0.8,2.1-0.8,3.8v3.5c0,1.9,0.3,3.2,0.8,4.1c0.5,0.9,1.4,1.3,2.4,1.3c1.1,0,1.9-0.4,2.4-1.2
		c0.5-0.8,0.8-2.1,0.8-3.9V851.8z M69.6,862h-2.2v-14.5l-4.4,1.6v-2l6.2-2.3h0.3V862z M79.1,852.4h1.6c1,0,1.8-0.3,2.4-0.8
		c0.6-0.5,0.9-1.2,0.9-2.1c0-2-1-3-3-3c-0.9,0-1.7,0.3-2.2,0.8c-0.6,0.5-0.8,1.2-0.8,2.1h-2.2c0-1.4,0.5-2.5,1.5-3.4
		c1-0.9,2.2-1.3,3.8-1.3c1.6,0,2.9,0.4,3.8,1.3c0.9,0.8,1.4,2,1.4,3.6c0,0.7-0.2,1.5-0.7,2.2c-0.5,0.7-1.1,1.2-2,1.6
		c0.9,0.3,1.7,0.8,2.2,1.5c0.5,0.7,0.8,1.5,0.8,2.5c0,1.5-0.5,2.8-1.5,3.7s-2.3,1.3-3.9,1.3c-1.6,0-2.9-0.4-3.9-1.3
		c-1-0.9-1.5-2-1.5-3.4h2.2c0,0.9,0.3,1.6,0.9,2.2c0.6,0.5,1.4,0.8,2.3,0.8c1.1,0,1.9-0.3,2.4-0.8c0.6-0.5,0.8-1.3,0.8-2.3
		c0-1-0.3-1.8-0.9-2.3c-0.6-0.5-1.5-0.8-2.6-0.8h-1.6V852.4z"/>
	<path d="M140.4,862h-11.2v-1.6l5.9-6.6c0.9-1,1.5-1.8,1.8-2.4c0.3-0.6,0.5-1.3,0.5-1.9c0-0.9-0.3-1.6-0.8-2.2
		c-0.5-0.6-1.3-0.9-2.2-0.9c-1.1,0-1.9,0.3-2.5,0.9c-0.6,0.6-0.9,1.5-0.9,2.6h-2.2c0-1.6,0.5-2.8,1.5-3.8c1-1,2.4-1.5,4.1-1.5
		c1.6,0,2.8,0.4,3.8,1.2c0.9,0.8,1.4,1.9,1.4,3.3c0,1.7-1.1,3.7-3.2,6l-4.6,5h8.6V862z M153.4,854.7c0,2.5-0.4,4.4-1.3,5.7
		c-0.9,1.2-2.2,1.8-4.1,1.8c-1.8,0-3.2-0.6-4-1.8c-0.9-1.2-1.3-3-1.4-5.4v-2.9c0-2.5,0.4-4.4,1.3-5.6c0.9-1.2,2.2-1.8,4.1-1.8
		c1.8,0,3.2,0.6,4,1.8c0.9,1.2,1.3,3,1.3,5.4V854.7z M151.2,851.8c0-1.8-0.3-3.2-0.8-4c-0.5-0.8-1.3-1.3-2.5-1.3
		c-1.1,0-1.9,0.4-2.4,1.3c-0.5,0.8-0.8,2.1-0.8,3.8v3.5c0,1.9,0.3,3.2,0.8,4.1c0.5,0.9,1.4,1.3,2.4,1.3c1.1,0,1.9-0.4,2.4-1.2
		c0.5-0.8,0.8-2.1,0.8-3.9V851.8z M163.3,862h-2.2v-14.5l-4.4,1.6v-2l6.2-2.3h0.3V862z M178.8,856.3h2.4v1.8h-2.4v4h-2.2v-4h-7.8
		v-1.3l7.6-11.8h2.3V856.3z M171.3,856.3h5.3v-8.4l-0.3,0.5L171.3,856.3z"/>
	<path d="M234.2,862H223v-1.6l5.9-6.6c0.9-1,1.5-1.8,1.8-2.4c0.3-0.6,0.5-1.3,0.5-1.9c0-0.9-0.3-1.6-0.8-2.2
		c-0.5-0.6-1.3-0.9-2.2-0.9c-1.1,0-1.9,0.3-2.5,0.9c-0.6,0.6-0.9,1.5-0.9,2.6h-2.2c0-1.6,0.5-2.8,1.5-3.8c1-1,2.4-1.5,4.1-1.5
		c1.6,0,2.8,0.4,3.8,1.2c0.9,0.8,1.4,1.9,1.4,3.3c0,1.7-1.1,3.7-3.2,6l-4.6,5h8.6V862z M247.2,854.7c0,2.5-0.4,4.4-1.3,5.7
		c-0.9,1.2-2.2,1.8-4.1,1.8c-1.8,0-3.2-0.6-4-1.8c-0.9-1.2-1.3-3-1.4-5.4v-2.9c0-2.5,0.4-4.4,1.3-5.6c0.9-1.2,2.2-1.8,4.1-1.8
		c1.8,0,3.2,0.6,4.1,1.8c0.9,1.2,1.3,3,1.3,5.4V854.7z M245,851.8c0-1.8-0.3-3.2-0.8-4c-0.5-0.8-1.3-1.3-2.4-1.3
		c-1.1,0-1.9,0.4-2.4,1.3c-0.5,0.8-0.8,2.1-0.8,3.8v3.5c0,1.9,0.3,3.2,0.8,4.1c0.5,0.9,1.4,1.3,2.4,1.3c1.1,0,1.9-0.4,2.4-1.2
		c0.5-0.8,0.8-2.1,0.8-3.9V851.8z M257.1,862h-2.2v-14.5l-4.4,1.6v-2l6.2-2.3h0.3V862z M264.4,853.5l0.9-8.5h8.7v2h-6.9l-0.5,4.6
		c0.8-0.5,1.8-0.7,2.8-0.7c1.6,0,2.8,0.5,3.7,1.5c0.9,1,1.4,2.4,1.4,4.2c0,1.8-0.5,3.1-1.4,4.2c-1,1-2.3,1.5-4,1.5
		c-1.5,0-2.7-0.4-3.7-1.2c-0.9-0.8-1.5-2-1.6-3.5h2.1c0.1,1,0.5,1.7,1,2.2c0.6,0.5,1.3,0.7,2.2,0.7c1,0,1.8-0.3,2.4-1
		c0.6-0.7,0.9-1.6,0.9-2.8c0-1.1-0.3-2.1-0.9-2.8c-0.6-0.7-1.4-1-2.5-1c-0.9,0-1.7,0.2-2.2,0.6l-0.6,0.5L264.4,853.5z"/>
	<path d="M327.9,862h-11.2v-1.6l5.9-6.6c0.9-1,1.5-1.8,1.8-2.4c0.3-0.6,0.5-1.3,0.5-1.9c0-0.9-0.3-1.6-0.8-2.2
		c-0.5-0.6-1.3-0.9-2.2-0.9c-1.1,0-1.9,0.3-2.5,0.9c-0.6,0.6-0.9,1.5-0.9,2.6h-2.2c0-1.6,0.5-2.8,1.5-3.8c1-1,2.4-1.5,4.1-1.5
		c1.6,0,2.8,0.4,3.8,1.2c0.9,0.8,1.4,1.9,1.4,3.3c0,1.7-1.1,3.7-3.2,6l-4.6,5h8.6V862z M340.9,854.7c0,2.5-0.4,4.4-1.3,5.7
		c-0.9,1.2-2.2,1.8-4.1,1.8c-1.8,0-3.2-0.6-4-1.8c-0.9-1.2-1.3-3-1.4-5.4v-2.9c0-2.5,0.4-4.4,1.3-5.6c0.9-1.2,2.2-1.8,4.1-1.8
		c1.8,0,3.2,0.6,4.1,1.8c0.9,1.2,1.3,3,1.3,5.4V854.7z M338.7,851.8c0-1.8-0.3-3.2-0.8-4c-0.5-0.8-1.3-1.3-2.5-1.3
		c-1.1,0-1.9,0.4-2.4,1.3c-0.5,0.8-0.8,2.1-0.8,3.8v3.5c0,1.9,0.3,3.2,0.8,4.1c0.5,0.9,1.4,1.3,2.4,1.3c1.1,0,1.9-0.4,2.4-1.2
		c0.5-0.8,0.8-2.1,0.8-3.9V851.8z M350.8,862h-2.2v-14.5l-4.4,1.6v-2l6.2-2.3h0.3V862z M365.7,844.9v1.8h-0.4c-1.7,0-3,0.5-4,1.5
		c-1,1-1.6,2.3-1.7,4.1c0.9-1,2.1-1.5,3.7-1.5c1.5,0,2.7,0.5,3.5,1.6c0.9,1,1.3,2.4,1.3,4c0,1.8-0.5,3.2-1.4,4.2
		c-1,1.1-2.2,1.6-3.9,1.6c-1.6,0-3-0.6-4-1.9c-1-1.2-1.5-2.9-1.5-4.8v-0.8c0-3.1,0.7-5.5,2-7.2c1.3-1.7,3.3-2.5,6-2.5H365.7z
		 M362.8,852.6c-0.7,0-1.4,0.2-2.1,0.7c-0.6,0.4-1,1-1.3,1.7v0.8c0,1.4,0.3,2.5,1,3.4c0.6,0.9,1.4,1.3,2.4,1.3c1,0,1.7-0.4,2.3-1.1
		s0.8-1.7,0.8-2.8c0-1.2-0.3-2.1-0.9-2.8C364.5,853,363.8,852.6,362.8,852.6z"/>
	<path d="M421.7,862h-11.2v-1.6l5.9-6.6c0.9-1,1.5-1.8,1.8-2.4c0.3-0.6,0.5-1.3,0.5-1.9c0-0.9-0.3-1.6-0.8-2.2
		c-0.5-0.6-1.3-0.9-2.2-0.9c-1.1,0-1.9,0.3-2.5,0.9c-0.6,0.6-0.9,1.5-0.9,2.6h-2.2c0-1.6,0.5-2.8,1.5-3.8c1-1,2.4-1.5,4.1-1.5
		c1.6,0,2.8,0.4,3.8,1.2c0.9,0.8,1.4,1.9,1.4,3.3c0,1.7-1.1,3.7-3.2,6l-4.6,5h8.6V862z M434.7,854.7c0,2.5-0.4,4.4-1.3,5.7
		c-0.9,1.2-2.2,1.8-4.1,1.8c-1.8,0-3.2-0.6-4-1.8c-0.9-1.2-1.3-3-1.4-5.4v-2.9c0-2.5,0.4-4.4,1.3-5.6c0.9-1.2,2.2-1.8,4.1-1.8
		c1.8,0,3.2,0.6,4.1,1.8c0.9,1.2,1.3,3,1.3,5.4V854.7z M432.5,851.8c0-1.8-0.3-3.2-0.8-4c-0.5-0.8-1.3-1.3-2.5-1.3
		c-1.1,0-1.9,0.4-2.4,1.3c-0.5,0.8-0.8,2.1-0.8,3.8v3.5c0,1.9,0.3,3.2,0.8,4.1c0.5,0.9,1.3,1.3,2.4,1.3c1.1,0,1.9-0.4,2.4-1.2
		c0.5-0.8,0.8-2.1,0.8-3.9V851.8z M444.6,862h-2.2v-14.5l-4.4,1.6v-2l6.2-2.3h0.3V862z M461.9,846.2l-7.1,15.8h-2.3l7-15.3h-9.2
		v-1.8h11.5V846.2z"/>
	<path d="M558.1,863h-11.2v-1.6l5.9-6.6c0.9-1,1.5-1.8,1.8-2.4s0.5-1.3,0.5-1.9c0-0.9-0.3-1.6-0.8-2.2s-1.3-0.9-2.2-0.9
		c-1.1,0-1.9,0.3-2.5,0.9c-0.6,0.6-0.9,1.5-0.9,2.6h-2.2c0-1.6,0.5-2.8,1.5-3.8c1-1,2.4-1.5,4.1-1.5c1.6,0,2.8,0.4,3.8,1.2
		c0.9,0.8,1.4,1.9,1.4,3.3c0,1.7-1.1,3.7-3.2,6l-4.6,5h8.6V863z M571.1,855.8c0,2.5-0.4,4.4-1.3,5.7c-0.9,1.2-2.2,1.9-4.1,1.9
		c-1.8,0-3.2-0.6-4-1.8c-0.9-1.2-1.3-3-1.4-5.4v-2.9c0-2.5,0.4-4.4,1.3-5.6c0.9-1.2,2.2-1.8,4.1-1.8c1.8,0,3.2,0.6,4,1.8
		c0.9,1.2,1.3,3,1.3,5.4V855.8z M568.9,852.8c0-1.8-0.3-3.2-0.8-4c-0.5-0.8-1.3-1.3-2.5-1.3c-1.1,0-1.9,0.4-2.4,1.3
		c-0.5,0.8-0.8,2.1-0.8,3.9v3.5c0,1.9,0.3,3.2,0.8,4.1c0.5,0.9,1.4,1.3,2.4,1.3c1.1,0,1.9-0.4,2.4-1.2c0.5-0.8,0.8-2.1,0.8-3.9
		V852.8z M581,863h-2.2v-14.5l-4.4,1.6v-2l6.2-2.3h0.3V863z M597.7,850.4c0,0.8-0.2,1.6-0.7,2.3c-0.5,0.7-1.1,1.2-1.8,1.6
		c0.9,0.4,1.6,0.9,2.1,1.7c0.5,0.7,0.8,1.6,0.8,2.5c0,1.5-0.5,2.7-1.5,3.5c-1,0.9-2.3,1.3-3.9,1.3c-1.6,0-2.9-0.4-3.9-1.3
		c-1-0.9-1.5-2.1-1.5-3.5c0-0.9,0.2-1.8,0.8-2.5c0.5-0.7,1.2-1.3,2.1-1.7c-0.8-0.4-1.4-0.9-1.8-1.6c-0.4-0.7-0.6-1.4-0.6-2.3
		c0-1.4,0.5-2.6,1.4-3.4c0.9-0.8,2.1-1.3,3.6-1.3s2.7,0.4,3.6,1.3C597.2,847.8,597.7,849,597.7,850.4z M595.9,858.4
		c0-1-0.3-1.7-0.9-2.3c-0.6-0.6-1.4-0.9-2.4-0.9c-1,0-1.8,0.3-2.4,0.9c-0.6,0.6-0.9,1.4-0.9,2.4c0,1,0.3,1.7,0.9,2.3
		c0.6,0.6,1.4,0.8,2.4,0.8c1,0,1.8-0.3,2.4-0.8C595.6,860.1,595.9,859.3,595.9,858.4z M592.7,847.5c-0.8,0-1.5,0.3-2.1,0.8
		c-0.5,0.5-0.8,1.2-0.8,2.1c0,0.9,0.3,1.6,0.8,2.1c0.5,0.5,1.2,0.8,2.1,0.8c0.9,0,1.6-0.3,2.1-0.8c0.5-0.5,0.8-1.2,0.8-2.1
		c0-0.9-0.3-1.6-0.8-2.1C594.2,847.8,593.5,847.5,592.7,847.5z"/>
	<path d="M678.8,862h-11.2v-1.6l5.9-6.6c0.9-1,1.5-1.8,1.8-2.4s0.5-1.3,0.5-1.9c0-0.9-0.3-1.6-0.8-2.2c-0.5-0.6-1.3-0.9-2.2-0.9
		c-1.1,0-1.9,0.3-2.5,0.9c-0.6,0.6-0.9,1.5-0.9,2.6h-2.2c0-1.6,0.5-2.8,1.5-3.8c1-1,2.4-1.5,4.1-1.5c1.6,0,2.8,0.4,3.8,1.2
		c0.9,0.8,1.4,1.9,1.4,3.3c0,1.7-1.1,3.7-3.2,6l-4.6,5h8.6V862z M691.8,854.7c0,2.5-0.4,4.4-1.3,5.7c-0.9,1.2-2.2,1.8-4.1,1.8
		c-1.8,0-3.2-0.6-4-1.8c-0.9-1.2-1.3-3-1.4-5.4v-2.9c0-2.5,0.4-4.4,1.3-5.6c0.9-1.2,2.2-1.8,4.1-1.8c1.8,0,3.2,0.6,4,1.8
		c0.9,1.2,1.3,3,1.3,5.4V854.7z M689.6,851.8c0-1.8-0.3-3.2-0.8-4c-0.5-0.8-1.3-1.3-2.5-1.3c-1.1,0-1.9,0.4-2.4,1.3
		c-0.5,0.8-0.8,2.1-0.8,3.8v3.5c0,1.9,0.3,3.2,0.8,4.1c0.5,0.9,1.4,1.3,2.4,1.3c1.1,0,1.9-0.4,2.4-1.2c0.5-0.8,0.8-2.1,0.8-3.9
		V851.8z M701.7,862h-2.2v-14.5l-4.4,1.6v-2l6.2-2.3h0.3V862z M716.3,854.5c-0.5,0.5-1,1-1.6,1.3s-1.3,0.5-2.1,0.5
		c-1,0-1.8-0.2-2.6-0.7c-0.7-0.5-1.3-1.2-1.7-2c-0.4-0.9-0.6-1.8-0.6-2.9c0-1.1,0.2-2.2,0.7-3.1c0.4-0.9,1-1.6,1.8-2.1
		c0.8-0.5,1.7-0.7,2.8-0.7c1.7,0,3,0.6,4,1.9c1,1.3,1.5,3,1.5,5.2v0.6c0,3.3-0.7,5.7-2,7.3c-1.3,1.5-3.3,2.3-5.9,2.3h-0.4v-1.8h0.5
		c1.8,0,3.2-0.5,4.1-1.4C715.7,857.9,716.2,856.5,716.3,854.5z M713,854.5c0.7,0,1.4-0.2,2-0.7c0.6-0.4,1.1-1,1.3-1.6v-0.9
		c0-1.4-0.3-2.6-0.9-3.5c-0.6-0.9-1.4-1.3-2.3-1.3c-1,0-1.7,0.4-2.3,1.1c-0.6,0.7-0.9,1.7-0.9,2.9c0,1.2,0.3,2.1,0.8,2.9
		S712.1,854.5,713,854.5z"/>
	<path d="M788.6,862h-11.2v-1.6l5.9-6.6c0.9-1,1.5-1.8,1.8-2.4c0.3-0.6,0.5-1.3,0.5-1.9c0-0.9-0.3-1.6-0.8-2.2
		c-0.5-0.6-1.3-0.9-2.2-0.9c-1.1,0-1.9,0.3-2.5,0.9c-0.6,0.6-0.9,1.5-0.9,2.6h-2.2c0-1.6,0.5-2.8,1.5-3.8c1-1,2.4-1.5,4.1-1.5
		c1.6,0,2.8,0.4,3.8,1.2c0.9,0.8,1.4,1.9,1.4,3.3c0,1.7-1.1,3.7-3.2,6l-4.6,5h8.6V862z M801.6,854.7c0,2.5-0.4,4.4-1.3,5.7
		c-0.9,1.2-2.2,1.8-4.1,1.8c-1.8,0-3.2-0.6-4-1.8c-0.9-1.2-1.3-3-1.4-5.4v-2.9c0-2.5,0.4-4.4,1.3-5.6c0.9-1.2,2.2-1.8,4.1-1.8
		c1.8,0,3.2,0.6,4,1.8c0.9,1.2,1.3,3,1.3,5.4V854.7z M799.4,851.8c0-1.8-0.3-3.2-0.8-4c-0.5-0.8-1.3-1.3-2.5-1.3
		c-1.1,0-1.9,0.4-2.4,1.3c-0.5,0.8-0.8,2.1-0.8,3.8v3.5c0,1.8,0.3,3.2,0.8,4.1c0.5,0.9,1.3,1.3,2.4,1.3c1.1,0,1.9-0.4,2.4-1.2
		c0.5-0.8,0.8-2.1,0.8-3.9V851.8z M815.6,862h-11.2v-1.6l5.9-6.6c0.9-1,1.5-1.8,1.8-2.4c0.3-0.6,0.5-1.3,0.5-1.9
		c0-0.9-0.3-1.6-0.8-2.2c-0.5-0.6-1.2-0.9-2.1-0.9c-1.1,0-1.9,0.3-2.5,0.9c-0.6,0.6-0.9,1.5-0.9,2.6h-2.2c0-1.6,0.5-2.8,1.5-3.8
		c1-1,2.4-1.5,4.1-1.5c1.6,0,2.8,0.4,3.8,1.2c0.9,0.8,1.4,1.9,1.4,3.3c0,1.7-1.1,3.7-3.2,6l-4.6,5h8.6V862z M828.6,854.7
		c0,2.5-0.4,4.4-1.3,5.7c-0.9,1.2-2.2,1.8-4.1,1.8c-1.8,0-3.2-0.6-4.1-1.8c-0.9-1.2-1.3-3-1.4-5.4v-2.9c0-2.5,0.4-4.4,1.3-5.6
		c0.9-1.2,2.2-1.8,4.1-1.8c1.8,0,3.2,0.6,4.1,1.8c0.9,1.2,1.3,3,1.3,5.4V854.7z M826.4,851.8c0-1.8-0.3-3.2-0.8-4
		c-0.5-0.8-1.3-1.3-2.5-1.3c-1.1,0-1.9,0.4-2.4,1.3c-0.5,0.8-0.8,2.1-0.8,3.8v3.5c0,1.8,0.3,3.2,0.8,4.1c0.5,0.9,1.3,1.3,2.4,1.3
		c1.1,0,1.9-0.4,2.4-1.2c0.5-0.8,0.8-2.1,0.8-3.9V851.8z"/>
	<path d="M911.6,862h-11.2v-1.6l5.9-6.6c0.9-1,1.5-1.8,1.8-2.4s0.5-1.3,0.5-1.9c0-0.9-0.3-1.6-0.8-2.2c-0.5-0.6-1.3-0.9-2.2-0.9
		c-1.1,0-1.9,0.3-2.5,0.9c-0.6,0.6-0.9,1.5-0.9,2.6h-2.2c0-1.6,0.5-2.8,1.5-3.8c1-1,2.4-1.5,4.1-1.5c1.6,0,2.8,0.4,3.8,1.2
		c0.9,0.8,1.4,1.9,1.4,3.3c0,1.7-1.1,3.7-3.2,6l-4.6,5h8.6V862z M924.6,854.7c0,2.5-0.4,4.4-1.3,5.7c-0.9,1.2-2.2,1.8-4.1,1.8
		c-1.8,0-3.2-0.6-4-1.8c-0.9-1.2-1.3-3-1.4-5.4v-2.9c0-2.5,0.4-4.4,1.3-5.6c0.9-1.2,2.2-1.8,4.1-1.8c1.8,0,3.2,0.6,4,1.8
		c0.9,1.2,1.3,3,1.3,5.4V854.7z M922.4,851.8c0-1.8-0.3-3.2-0.8-4c-0.5-0.8-1.3-1.3-2.5-1.3c-1.1,0-1.9,0.4-2.4,1.3
		c-0.5,0.8-0.8,2.1-0.8,3.8v3.5c0,1.9,0.3,3.2,0.8,4.1c0.5,0.9,1.4,1.3,2.4,1.3c1.1,0,1.9-0.4,2.4-1.2c0.5-0.8,0.8-2.1,0.8-3.9
		V851.8z M938.6,862h-11.2v-1.6l5.9-6.6c0.9-1,1.5-1.8,1.8-2.4c0.3-0.6,0.5-1.3,0.5-1.9c0-0.9-0.3-1.6-0.8-2.2
		c-0.5-0.6-1.2-0.9-2.2-0.9c-1.1,0-1.9,0.3-2.5,0.9c-0.6,0.6-0.9,1.5-0.9,2.6H927c0-1.6,0.5-2.8,1.5-3.8c1-1,2.4-1.5,4.1-1.5
		c1.6,0,2.8,0.4,3.8,1.2s1.4,1.9,1.4,3.3c0,1.7-1.1,3.7-3.2,6l-4.6,5h8.6V862z M948,862h-2.2v-14.5l-4.4,1.6v-2l6.2-2.3h0.3V862z"/>
	<g>
		<path d="M833.8,850.5l-3.5-1.1l0.5-1.8l3.5,1.3l-0.1-4h1.8l-0.1,4.1l3.5-1.3l0.5,1.8l-3.6,1.1l2.3,3.2l-1.5,1.1l-2.2-3.4l-2.1,3.3
			l-1.5-1.1L833.8,850.5z"/>
	</g>
	<path d="M244.9,820.8c-0.6-3.3-3.2-5.9-6.5-6.5v-2.2h-2.7v2.2c-3.3,0.6-5.9,3.2-6.4,6.5h-2.2v2.6h2.2c0.6,3.3,3.1,5.9,6.4,6.5v2.2
		h2.7v-2.2c3.3-0.6,5.9-3.2,6.5-6.5h2.2v-2.6H244.9z M237.2,827.1c-2.8,0-5.1-2.3-5.1-5.2c0-2.8,2.3-5.1,5.1-5.1
		c2.8,0,5.2,2.3,5.2,5.1C242.3,824.8,240,827.1,237.2,827.1z"/>
	<path d="M239.2,822.1c0,1.1-0.9,2-2,2c-1.1,0-2-0.9-2-2c0-1.1,0.9-2,2-2C238.3,820.1,239.2,821,239.2,822.1z"/>
	<path d="M420,820.1c-0.6-3.3-3.2-5.9-6.5-6.5v-2.2h-2.7v2.2c-3.3,0.6-5.9,3.2-6.4,6.5h-2.2v2.6h2.2c0.6,3.3,3.1,5.9,6.4,6.5v2.2
		h2.7v-2.2c3.3-0.6,5.9-3.2,6.5-6.5h2.2v-2.6H420z M412.2,826.4c-2.8,0-5.1-2.3-5.1-5.2c0-2.8,2.3-5.2,5.1-5.2
		c2.8,0,5.2,2.3,5.2,5.2C417.3,824.1,415,826.4,412.2,826.4z"/>
	<path d="M414.2,821.4c0,1.1-0.9,2-2,2c-1.1,0-2-0.9-2-2c0-1.1,0.9-2,2-2C413.3,819.4,414.2,820.3,414.2,821.4z"/>
	<path d="M420,792.6c-0.6-3.3-3.2-5.9-6.5-6.5v-2.2h-2.7v2.2c-3.3,0.6-5.9,3.2-6.4,6.5h-2.2v2.6h2.2c0.6,3.3,3.1,5.9,6.4,6.5v2.2
		h2.7v-2.2c3.3-0.6,5.9-3.2,6.5-6.5h2.2v-2.6H420z M412.2,798.9c-2.8,0-5.1-2.3-5.1-5.2c0-2.8,2.3-5.2,5.1-5.2
		c2.8,0,5.2,2.3,5.2,5.2C417.3,796.6,415,798.9,412.2,798.9z"/>
	<path d="M414.2,793.9c0,1.1-0.9,2-2,2c-1.1,0-2-0.9-2-2c0-1.1,0.9-2,2-2C413.3,791.9,414.2,792.8,414.2,793.9z"/>
	<path d="M420,765.1c-0.6-3.3-3.2-5.9-6.5-6.5v-2.2h-2.7v2.2c-3.3,0.6-5.9,3.2-6.4,6.5h-2.2v2.6h2.2c0.6,3.3,3.1,5.9,6.4,6.5v2.2
		h2.7v-2.2c3.3-0.6,5.9-3.2,6.5-6.5h2.2v-2.6H420z M412.2,771.4c-2.8,0-5.1-2.3-5.1-5.2c0-2.8,2.3-5.2,5.1-5.2
		c2.8,0,5.2,2.3,5.2,5.2C417.3,769.1,415,771.4,412.2,771.4z"/>
	<path d="M414.2,766.4c0,1.1-0.9,2-2,2c-1.1,0-2-0.9-2-2c0-1.1,0.9-2,2-2C413.3,764.4,414.2,765.3,414.2,766.4z"/>
	<path d="M420,737.6c-0.6-3.3-3.2-5.9-6.5-6.5v-2.2h-2.7v2.2c-3.3,0.6-5.9,3.2-6.4,6.5h-2.2v2.6h2.2c0.6,3.3,3.1,5.9,6.4,6.5v2.2
		h2.7v-2.2c3.3-0.6,5.9-3.2,6.5-6.5h2.2v-2.6H420z M412.2,743.9c-2.8,0-5.1-2.3-5.1-5.2c0-2.8,2.3-5.2,5.1-5.2
		c2.8,0,5.2,2.3,5.2,5.2C417.3,741.6,415,743.9,412.2,743.9z"/>
	<path d="M414.2,738.9c0,1.1-0.9,2-2,2c-1.1,0-2-0.9-2-2c0-1.1,0.9-2,2-2C413.3,736.9,414.2,737.8,414.2,738.9z"/>
	<path d="M420,710.1c-0.6-3.3-3.2-5.9-6.5-6.5v-2.2h-2.7v2.2c-3.3,0.6-5.9,3.2-6.4,6.5h-2.2v2.6h2.2c0.6,3.3,3.1,5.9,6.4,6.5v2.2
		h2.7v-2.2c3.3-0.6,5.9-3.2,6.5-6.5h2.2v-2.6H420z M412.2,716.4c-2.8,0-5.1-2.3-5.1-5.2c0-2.8,2.3-5.2,5.1-5.2
		c2.8,0,5.2,2.3,5.2,5.2C417.3,714.1,415,716.4,412.2,716.4z"/>
	<path d="M414.2,711.4c0,1.1-0.9,2-2,2c-1.1,0-2-0.9-2-2c0-1.1,0.9-2,2-2C413.3,709.4,414.2,710.3,414.2,711.4z"/>
	<path d="M513.7,820c-0.6-3.3-3.2-5.9-6.5-6.5v-2.2h-2.7v2.2c-3.3,0.6-5.9,3.2-6.4,6.5h-2.2v2.6h2.2c0.6,3.3,3.1,5.9,6.4,6.5v2.2
		h2.7v-2.2c3.3-0.6,5.9-3.2,6.5-6.5h2.2V820H513.7z M505.9,826.4c-2.9,0-5.2-2.3-5.2-5.2c0-2.8,2.3-5.2,5.2-5.2
		c2.8,0,5.1,2.3,5.1,5.2C511.1,824.1,508.8,826.4,505.9,826.4z"/>
	<path d="M507.9,821.4c0,1.1-0.9,2-2,2c-1.1,0-2-0.9-2-2c0-1.1,0.9-2,2-2C507,819.4,507.9,820.3,507.9,821.4z"/>
	<path d="M513.7,792.5c-0.6-3.3-3.2-5.9-6.5-6.5v-2.2h-2.7v2.2c-3.3,0.6-5.9,3.2-6.4,6.5h-2.2v2.6h2.2c0.6,3.3,3.1,5.9,6.4,6.5v2.2
		h2.7v-2.2c3.3-0.6,5.9-3.2,6.5-6.5h2.2v-2.6H513.7z M505.9,798.9c-2.9,0-5.2-2.3-5.2-5.2c0-2.8,2.3-5.2,5.2-5.2
		c2.8,0,5.1,2.3,5.1,5.2C511.1,796.6,508.8,798.9,505.9,798.9z"/>
	<path d="M507.9,793.9c0,1.1-0.9,2-2,2c-1.1,0-2-0.9-2-2c0-1.1,0.9-2,2-2C507,791.9,507.9,792.8,507.9,793.9z"/>
	<path d="M513.7,765c-0.6-3.3-3.2-5.9-6.5-6.5v-2.2h-2.7v2.2c-3.3,0.6-5.9,3.2-6.4,6.5h-2.2v2.6h2.2c0.6,3.3,3.1,5.9,6.4,6.5v2.2
		h2.7v-2.2c3.3-0.6,5.9-3.2,6.5-6.5h2.2V765H513.7z M505.9,771.4c-2.9,0-5.2-2.3-5.2-5.2c0-2.8,2.3-5.2,5.2-5.2
		c2.8,0,5.1,2.3,5.1,5.2C511.1,769.1,508.8,771.4,505.9,771.4z"/>
	<path d="M507.9,766.4c0,1.1-0.9,2-2,2c-1.1,0-2-0.9-2-2c0-1.1,0.9-2,2-2C507,764.4,507.9,765.3,507.9,766.4z"/>
	<path d="M513.7,737.5c-0.6-3.3-3.2-5.9-6.5-6.5v-2.2h-2.7v2.2c-3.3,0.6-5.9,3.2-6.4,6.5h-2.2v2.6h2.2c0.6,3.3,3.1,5.9,6.4,6.5v2.2
		h2.7v-2.2c3.3-0.6,5.9-3.2,6.5-6.5h2.2v-2.6H513.7z M505.9,743.9c-2.9,0-5.2-2.3-5.2-5.2c0-2.8,2.3-5.2,5.2-5.2
		c2.8,0,5.1,2.3,5.1,5.2C511.1,741.6,508.8,743.9,505.9,743.9z"/>
	<path d="M507.9,738.9c0,1.1-0.9,2-2,2c-1.1,0-2-0.9-2-2c0-1.1,0.9-2,2-2C507,736.9,507.9,737.8,507.9,738.9z"/>
	<path d="M513.7,710c-0.6-3.3-3.2-5.9-6.5-6.5v-2.2h-2.7v2.2c-3.3,0.6-5.9,3.2-6.4,6.5h-2.2v2.6h2.2c0.6,3.3,3.1,5.9,6.4,6.5v2.2
		h2.7v-2.2c3.3-0.6,5.9-3.2,6.5-6.5h2.2V710H513.7z M505.9,716.4c-2.9,0-5.2-2.3-5.2-5.2c0-2.8,2.3-5.2,5.2-5.2
		c2.8,0,5.1,2.3,5.1,5.2C511.1,714.1,508.8,716.4,505.9,716.4z"/>
	<path d="M507.9,711.4c0,1.1-0.9,2-2,2c-1.1,0-2-0.9-2-2c0-1.1,0.9-2,2-2C507,709.4,507.9,710.3,507.9,711.4z"/>
	<path d="M513.7,682.5c-0.6-3.3-3.2-5.9-6.5-6.5v-2.2h-2.7v2.2c-3.3,0.6-5.9,3.2-6.4,6.5h-2.2v2.6h2.2c0.6,3.3,3.1,5.9,6.4,6.5v2.2
		h2.7v-2.2c3.3-0.6,5.9-3.2,6.5-6.5h2.2v-2.6H513.7z M505.9,688.9c-2.9,0-5.2-2.3-5.2-5.2c0-2.8,2.3-5.2,5.2-5.2
		c2.8,0,5.1,2.3,5.1,5.2C511.1,686.6,508.8,688.9,505.9,688.9z"/>
	<path d="M507.9,683.9c0,1.1-0.9,2-2,2c-1.1,0-2-0.9-2-2c0-1.1,0.9-2,2-2C507,681.9,507.9,682.8,507.9,683.9z"/>
	<path d="M513.7,655c-0.6-3.3-3.2-5.9-6.5-6.5v-2.2h-2.7v2.2c-3.3,0.6-5.9,3.2-6.4,6.5h-2.2v2.7h2.2c0.6,3.3,3.1,5.9,6.4,6.5v2.2
		h2.7v-2.2c3.3-0.6,5.9-3.2,6.5-6.5h2.2V655H513.7z M505.9,661.4c-2.9,0-5.2-2.3-5.2-5.2c0-2.8,2.3-5.2,5.2-5.2
		c2.8,0,5.1,2.3,5.1,5.2C511.1,659.1,508.8,661.4,505.9,661.4z"/>
	<path d="M507.9,656.4c0,1.1-0.9,2-2,2c-1.1,0-2-0.9-2-2c0-1.1,0.9-2,2-2C507,654.4,507.9,655.3,507.9,656.4z"/>
	<path d="M513.7,627.5c-0.6-3.3-3.2-5.9-6.5-6.5v-2.2h-2.7v2.2c-3.3,0.6-5.9,3.2-6.4,6.5h-2.2v2.7h2.2c0.6,3.3,3.1,5.9,6.4,6.5v2.2
		h2.7v-2.2c3.3-0.6,5.9-3.2,6.5-6.5h2.2v-2.7H513.7z M505.9,633.9c-2.9,0-5.2-2.3-5.2-5.2c0-2.8,2.3-5.2,5.2-5.2
		c2.8,0,5.1,2.3,5.1,5.2C511.1,631.6,508.8,633.9,505.9,633.9z"/>
	<path d="M507.9,628.9c0,1.1-0.9,2-2,2c-1.1,0-2-0.9-2-2c0-1.1,0.9-2,2-2C507,626.9,507.9,627.8,507.9,628.9z"/>
	<path d="M513.7,600c-0.6-3.3-3.2-5.9-6.5-6.5v-2.2h-2.7v2.2c-3.3,0.6-5.9,3.2-6.4,6.5h-2.2v2.7h2.2c0.6,3.3,3.1,5.9,6.4,6.5v2.2
		h2.7v-2.2c3.3-0.6,5.9-3.2,6.5-6.5h2.2V600H513.7z M505.9,606.4c-2.9,0-5.2-2.3-5.2-5.2c0-2.8,2.3-5.2,5.2-5.2
		c2.8,0,5.1,2.3,5.1,5.2C511.1,604.1,508.8,606.4,505.9,606.4z"/>
	<path d="M507.9,601.4c0,1.1-0.9,2-2,2c-1.1,0-2-0.9-2-2c0-1.1,0.9-2,2-2C507,599.4,507.9,600.3,507.9,601.4z"/>
	<path d="M513.7,572.5c-0.6-3.3-3.2-5.9-6.5-6.5v-2.2h-2.7v2.2c-3.3,0.6-5.9,3.2-6.4,6.5h-2.2v2.7h2.2c0.6,3.3,3.1,5.9,6.4,6.5v2.2
		h2.7v-2.2c3.3-0.6,5.9-3.2,6.5-6.5h2.2v-2.7H513.7z M505.9,578.9c-2.9,0-5.2-2.3-5.2-5.2c0-2.8,2.3-5.2,5.2-5.2
		c2.8,0,5.1,2.3,5.1,5.2C511.1,576.6,508.8,578.9,505.9,578.9z"/>
	<path d="M507.9,573.9c0,1.1-0.9,2-2,2c-1.1,0-2-0.9-2-2c0-1.1,0.9-2,2-2C507,571.9,507.9,572.8,507.9,573.9z"/>
	<path d="M677,820c-0.6-3.3-3.2-5.9-6.5-6.5v-2.2h-2.7v2.2c-3.3,0.6-5.9,3.2-6.4,6.5h-2.2v2.6h2.2c0.6,3.3,3.1,5.9,6.4,6.5v2.2h2.7
		v-2.2c3.3-0.6,5.9-3.2,6.5-6.5h2.2V820H677z M669.3,826.4c-2.8,0-5.1-2.3-5.1-5.2c0-2.8,2.3-5.2,5.1-5.2c2.8,0,5.2,2.3,5.2,5.2
		C674.4,824.1,672.1,826.4,669.3,826.4z"/>
	<path d="M671.2,821.4c0,1.1-0.9,2-2,2c-1.1,0-2-0.9-2-2c0-1.1,0.9-2,2-2C670.4,819.4,671.2,820.3,671.2,821.4z"/>
	<path d="M677,792.5c-0.6-3.3-3.2-5.9-6.5-6.5v-2.2h-2.7v2.2c-3.3,0.6-5.9,3.2-6.4,6.5h-2.2v2.6h2.2c0.6,3.3,3.1,5.9,6.4,6.5v2.2
		h2.7v-2.2c3.3-0.6,5.9-3.2,6.5-6.5h2.2v-2.6H677z M669.3,798.9c-2.8,0-5.1-2.3-5.1-5.2c0-2.8,2.3-5.2,5.1-5.2
		c2.8,0,5.2,2.3,5.2,5.2C674.4,796.6,672.1,798.9,669.3,798.9z"/>
	<path d="M671.2,793.9c0,1.1-0.9,2-2,2c-1.1,0-2-0.9-2-2c0-1.1,0.9-2,2-2C670.4,791.9,671.2,792.8,671.2,793.9z"/>
	<path d="M677,765c-0.6-3.3-3.2-5.9-6.5-6.5v-2.2h-2.7v2.2c-3.3,0.6-5.9,3.2-6.4,6.5h-2.2v2.6h2.2c0.6,3.3,3.1,5.9,6.4,6.5v2.2h2.7
		v-2.2c3.3-0.6,5.9-3.2,6.5-6.5h2.2V765H677z M669.3,771.4c-2.8,0-5.1-2.3-5.1-5.2c0-2.8,2.3-5.2,5.1-5.2c2.8,0,5.2,2.3,5.2,5.2
		C674.4,769.1,672.1,771.4,669.3,771.4z"/>
	<path d="M671.2,766.4c0,1.1-0.9,2-2,2c-1.1,0-2-0.9-2-2c0-1.1,0.9-2,2-2C670.4,764.4,671.2,765.3,671.2,766.4z"/>
	<path d="M677,737.5c-0.6-3.3-3.2-5.9-6.5-6.5v-2.2h-2.7v2.2c-3.3,0.6-5.9,3.2-6.4,6.5h-2.2v2.6h2.2c0.6,3.3,3.1,5.9,6.4,6.5v2.2
		h2.7v-2.2c3.3-0.6,5.9-3.2,6.5-6.5h2.2v-2.6H677z M669.3,743.9c-2.8,0-5.1-2.3-5.1-5.2c0-2.8,2.3-5.2,5.1-5.2
		c2.8,0,5.2,2.3,5.2,5.2C674.4,741.6,672.1,743.9,669.3,743.9z"/>
	<path d="M671.2,738.9c0,1.1-0.9,2-2,2c-1.1,0-2-0.9-2-2c0-1.1,0.9-2,2-2C670.4,736.9,671.2,737.8,671.2,738.9z"/>
	<path d="M677,710c-0.6-3.3-3.2-5.9-6.5-6.5v-2.2h-2.7v2.2c-3.3,0.6-5.9,3.2-6.4,6.5h-2.2v2.6h2.2c0.6,3.3,3.1,5.9,6.4,6.5v2.2h2.7
		v-2.2c3.3-0.6,5.9-3.2,6.5-6.5h2.2V710H677z M669.3,716.4c-2.8,0-5.1-2.3-5.1-5.2c0-2.8,2.3-5.2,5.1-5.2c2.8,0,5.2,2.3,5.2,5.2
		C674.4,714.1,672.1,716.4,669.3,716.4z"/>
	<path d="M671.2,711.4c0,1.1-0.9,2-2,2c-1.1,0-2-0.9-2-2c0-1.1,0.9-2,2-2C670.4,709.4,671.2,710.3,671.2,711.4z"/>
	<path d="M677,682.5c-0.6-3.3-3.2-5.9-6.5-6.5v-2.2h-2.7v2.2c-3.3,0.6-5.9,3.2-6.4,6.5h-2.2v2.6h2.2c0.6,3.3,3.1,5.9,6.4,6.5v2.2
		h2.7v-2.2c3.3-0.6,5.9-3.2,6.5-6.5h2.2v-2.6H677z M669.3,688.9c-2.8,0-5.1-2.3-5.1-5.2c0-2.8,2.3-5.2,5.1-5.2
		c2.8,0,5.2,2.3,5.2,5.2C674.4,686.6,672.1,688.9,669.3,688.9z"/>
	<path d="M671.2,683.9c0,1.1-0.9,2-2,2c-1.1,0-2-0.9-2-2c0-1.1,0.9-2,2-2C670.4,681.9,671.2,682.8,671.2,683.9z"/>
	<path d="M770.8,820c-0.6-3.3-3.2-5.9-6.5-6.5v-2.2h-2.7v2.2c-3.3,0.6-5.9,3.2-6.4,6.5H753v2.6h2.2c0.6,3.3,3.1,5.9,6.4,6.5v2.2h2.7
		v-2.2c3.3-0.6,5.9-3.2,6.5-6.5h2.2V820H770.8z M763,826.4c-2.8,0-5.1-2.3-5.1-5.2c0-2.8,2.3-5.2,5.1-5.2c2.8,0,5.2,2.3,5.2,5.2
		C768.2,824.1,765.9,826.4,763,826.4z"/>
	<path d="M765,821.4c0,1.1-0.9,2-2,2c-1.1,0-2-0.9-2-2c0-1.1,0.9-2,2-2C764.1,819.4,765,820.3,765,821.4z"/>
	<path d="M770.8,792.5c-0.6-3.3-3.2-5.9-6.5-6.5v-2.2h-2.7v2.2c-3.3,0.6-5.9,3.2-6.4,6.5H753v2.6h2.2c0.6,3.3,3.1,5.9,6.4,6.5v2.2
		h2.7v-2.2c3.3-0.6,5.9-3.2,6.5-6.5h2.2v-2.6H770.8z M763,798.9c-2.8,0-5.1-2.3-5.1-5.2c0-2.8,2.3-5.2,5.1-5.2
		c2.8,0,5.2,2.3,5.2,5.2C768.2,796.6,765.9,798.9,763,798.9z"/>
	<path d="M765,793.9c0,1.1-0.9,2-2,2c-1.1,0-2-0.9-2-2c0-1.1,0.9-2,2-2C764.1,791.9,765,792.8,765,793.9z"/>
	<path d="M770.8,765c-0.6-3.3-3.2-5.9-6.5-6.5v-2.2h-2.7v2.2c-3.3,0.6-5.9,3.2-6.4,6.5H753v2.6h2.2c0.6,3.3,3.1,5.9,6.4,6.5v2.2h2.7
		v-2.2c3.3-0.6,5.9-3.2,6.5-6.5h2.2V765H770.8z M763,771.4c-2.8,0-5.1-2.3-5.1-5.2c0-2.8,2.3-5.2,5.1-5.2c2.8,0,5.2,2.3,5.2,5.2
		C768.2,769.1,765.9,771.4,763,771.4z"/>
	<path d="M765,766.4c0,1.1-0.9,2-2,2c-1.1,0-2-0.9-2-2c0-1.1,0.9-2,2-2C764.1,764.4,765,765.3,765,766.4z"/>
	<path d="M770.8,737.5c-0.6-3.3-3.2-5.9-6.5-6.5v-2.2h-2.7v2.2c-3.3,0.6-5.9,3.2-6.4,6.5H753v2.6h2.2c0.6,3.3,3.1,5.9,6.4,6.5v2.2
		h2.7v-2.2c3.3-0.6,5.9-3.2,6.5-6.5h2.2v-2.6H770.8z M763,743.9c-2.8,0-5.1-2.3-5.1-5.2c0-2.8,2.3-5.2,5.1-5.2
		c2.8,0,5.2,2.3,5.2,5.2C768.2,741.6,765.9,743.9,763,743.9z"/>
	<path d="M765,738.9c0,1.1-0.9,2-2,2c-1.1,0-2-0.9-2-2c0-1.1,0.9-2,2-2C764.1,736.9,765,737.8,765,738.9z"/>
	<path d="M897.9,820c-0.6-3.3-3.2-5.9-6.5-6.5v-2.2h-2.7v2.2c-3.3,0.6-5.9,3.2-6.4,6.5h-2.2v2.6h2.2c0.6,3.3,3.2,5.9,6.4,6.5v2.2
		h2.7v-2.2c3.3-0.6,5.9-3.2,6.5-6.5h2.2V820H897.9z M890.1,826.4c-2.8,0-5.1-2.3-5.1-5.2c0-2.8,2.3-5.2,5.1-5.2
		c2.8,0,5.2,2.3,5.2,5.2C895.3,824.1,892.9,826.4,890.1,826.4z"/>
	<path d="M892.1,821.4c0,1.1-0.9,2-2,2c-1.1,0-2-0.9-2-2c0-1.1,0.9-2,2-2C891.2,819.4,892.1,820.3,892.1,821.4z"/>
	<path d="M897.9,792.5c-0.6-3.3-3.2-5.9-6.5-6.5v-2.2h-2.7v2.2c-3.3,0.6-5.9,3.2-6.4,6.5h-2.2v2.6h2.2c0.6,3.3,3.2,5.9,6.4,6.5v2.2
		h2.7v-2.2c3.3-0.6,5.9-3.2,6.5-6.5h2.2v-2.6H897.9z M890.1,798.9c-2.8,0-5.1-2.3-5.1-5.2c0-2.8,2.3-5.2,5.1-5.2
		c2.8,0,5.2,2.3,5.2,5.2C895.3,796.6,892.9,798.9,890.1,798.9z"/>
	<path d="M892.1,793.9c0,1.1-0.9,2-2,2c-1.1,0-2-0.9-2-2c0-1.1,0.9-2,2-2C891.2,791.9,892.1,792.8,892.1,793.9z"/>
	<g>
		<path d="M150.4,820c-0.6-3.3-3.2-5.9-6.5-6.5v-2.2h-2.7v2.2c-3.3,0.6-5.9,3.2-6.4,6.5h-2.2v2.6h2.2c0.6,3.3,3.2,5.9,6.4,6.5v2.2
			h2.7v-2.2c3.3-0.6,5.9-3.2,6.5-6.5h2.2V820H150.4z M142.6,826.3c-2.9,0-5.1-2.3-5.1-5.2c0-2.8,2.3-5.1,5.1-5.1
			c2.8,0,5.1,2.3,5.1,5.1C147.8,824,145.5,826.3,142.6,826.3z"/>
		<path d="M144.6,821.3c0,1.1-0.9,2-2,2c-1.1,0-2-0.9-2-2c0-1.1,0.9-2,2-2C143.7,819.3,144.6,820.2,144.6,821.3z"/>
		<path d="M150.4,792.5c-0.6-3.3-3.2-5.9-6.5-6.5v-2.2h-2.7v2.2c-3.3,0.6-5.9,3.2-6.4,6.5h-2.2v2.6h2.2c0.6,3.3,3.2,5.9,6.4,6.5v2.2
			h2.7v-2.2c3.3-0.6,5.9-3.2,6.5-6.5h2.2v-2.6H150.4z M142.6,798.8c-2.9,0-5.1-2.3-5.1-5.2c0-2.8,2.3-5.1,5.1-5.1
			c2.8,0,5.1,2.3,5.1,5.1C147.8,796.5,145.5,798.8,142.6,798.8z"/>
		<path d="M144.6,793.8c0,1.1-0.9,2-2,2c-1.1,0-2-0.9-2-2c0-1.1,0.9-2,2-2C143.7,791.8,144.6,792.7,144.6,793.8z"/>
		<path d="M150.4,765c-0.6-3.3-3.2-5.9-6.5-6.5v-2.2h-2.7v2.2c-3.3,0.6-5.9,3.2-6.4,6.5h-2.2v2.6h2.2c0.6,3.3,3.2,5.9,6.4,6.5v2.2
			h2.7v-2.2c3.3-0.6,5.9-3.2,6.5-6.5h2.2V765H150.4z M142.6,771.3c-2.9,0-5.1-2.3-5.1-5.2c0-2.8,2.3-5.1,5.1-5.1
			c2.8,0,5.1,2.3,5.1,5.1C147.8,769,145.5,771.3,142.6,771.3z"/>
		<path d="M144.6,766.3c0,1.1-0.9,2-2,2c-1.1,0-2-0.9-2-2c0-1.1,0.9-2,2-2C143.7,764.3,144.6,765.2,144.6,766.3z"/>
	</g>
</g>
<path d="M52.2,893.6l-2.9-0.9l0.4-1.5l2.9,1.1l-0.1-3.4h1.5l-0.1,3.4l2.9-1.1l0.4,1.5l-3,0.9l1.9,2.6l-1.2,0.9l-1.8-2.8l-1.8,2.7
	l-1.2-0.9L52.2,893.6z M59.2,903.2v-10.6h4.1c1.4,0,2.5,0.2,3.2,0.7s1.1,1.2,1.1,2.2c0,0.5-0.1,0.9-0.4,1.3s-0.7,0.7-1.3,0.9
	c0.6,0.1,1.2,0.4,1.5,0.9s0.6,1,0.6,1.6c0,1-0.4,1.7-1.1,2.2s-1.7,0.8-3,0.8H59.2z M61,897.1h2.3c1.7,0,2.5-0.5,2.5-1.5
	s-0.8-1.5-2.4-1.5H61V897.1z M61,898.5v3.2h3c0.8,0,1.3-0.1,1.7-0.4s0.6-0.7,0.6-1.2c0-1.1-0.8-1.6-2.3-1.6H61z M84.5,903.2h-9.3
	v-1.3l4.9-5.5c0.7-0.8,1.2-1.5,1.5-2s0.4-1.1,0.4-1.6c0-0.7-0.2-1.4-0.7-1.8s-1-0.7-1.8-0.7c-0.9,0-1.6,0.3-2.1,0.8
	s-0.7,1.2-0.7,2.1h-1.8c0-1.3,0.4-2.4,1.3-3.2s2-1.2,3.4-1.2c1.3,0,2.4,0.3,3.1,1s1.2,1.6,1.2,2.8c0,1.4-0.9,3.1-2.7,5l-3.8,4.1h7.1
	V903.2z M95.3,897.1c0,2.1-0.4,3.7-1.1,4.7s-1.9,1.5-3.4,1.5c-1.5,0-2.6-0.5-3.4-1.5s-1.1-2.5-1.1-4.5v-2.4c0-2.1,0.4-3.6,1.1-4.7
	s1.9-1.5,3.4-1.5c1.5,0,2.7,0.5,3.4,1.5s1.1,2.5,1.1,4.5V897.1z M93.5,894.6c0-1.5-0.2-2.6-0.6-3.3s-1.1-1-2-1c-0.9,0-1.6,0.3-2,1
	s-0.6,1.8-0.7,3.2v2.9c0,1.5,0.2,2.7,0.7,3.4s1.1,1.1,2,1.1c0.9,0,1.6-0.3,2-1s0.7-1.8,0.7-3.3V894.6z M107,903.2h-9.3v-1.3l4.9-5.5
	c0.7-0.8,1.2-1.5,1.5-2s0.4-1.1,0.4-1.6c0-0.7-0.2-1.4-0.7-1.8s-1-0.7-1.8-0.7c-0.9,0-1.6,0.3-2.1,0.8s-0.7,1.2-0.7,2.1h-1.8
	c0-1.3,0.4-2.4,1.3-3.2s2-1.2,3.4-1.2c1.3,0,2.4,0.3,3.1,1s1.2,1.6,1.2,2.8c0,1.4-0.9,3.1-2.7,5l-3.8,4.1h7.1V903.2z M117.8,897.1
	c0,2.1-0.4,3.7-1.1,4.7s-1.9,1.5-3.4,1.5c-1.5,0-2.6-0.5-3.4-1.5s-1.1-2.5-1.1-4.5v-2.4c0-2.1,0.4-3.6,1.1-4.7s1.9-1.5,3.4-1.5
	c1.5,0,2.7,0.5,3.4,1.5s1.1,2.5,1.1,4.5V897.1z M116,894.6c0-1.5-0.2-2.6-0.6-3.3s-1.1-1-2-1c-0.9,0-1.6,0.3-2,1s-0.6,1.8-0.7,3.2
	v2.9c0,1.5,0.2,2.7,0.7,3.4s1.1,1.1,2,1.1c0.9,0,1.6-0.3,2-1s0.7-1.8,0.7-3.3V894.6z M132.1,894.1h-4.9v9.1h-1.8v-10.6h6.7V894.1z
	 M133,897.8c0-1,0.2-2,0.6-2.8s1-1.5,1.7-1.9s1.6-0.7,2.5-0.7c1.4,0,2.6,0.5,3.5,1.5s1.3,2.3,1.3,4v0.1c0,1-0.2,2-0.6,2.8
	s-1,1.5-1.7,1.9s-1.6,0.7-2.5,0.7c-1.4,0-2.6-0.5-3.5-1.5s-1.3-2.3-1.3-4V897.8z M134.8,898c0,1.2,0.3,2.1,0.8,2.8s1.3,1.1,2.2,1.1
	c0.9,0,1.6-0.4,2.2-1.1s0.8-1.7,0.8-3c0-1.2-0.3-2.1-0.8-2.8s-1.3-1.1-2.2-1.1c-0.9,0-1.6,0.4-2.2,1.1S134.8,896.7,134.8,898z
	 M144.1,901.7l0.6-0.8c0.7-0.9,1.1-2.3,1.2-4.1l0.2-4.2h6.8v9.1h1.4v4.6h-1.8v-3.1H145v3.1h-1.8l0-4.6H144.1z M146.2,901.7h4.9v-7.4
	h-3.3l-0.1,2.5C147.6,898.9,147.1,900.5,146.2,901.7z M159.7,900.5l2.5-7.9h1.9l-4.2,12.2c-0.7,1.8-1.7,2.6-3.1,2.6l-0.3,0l-0.7-0.1
	v-1.5l0.5,0c0.6,0,1.1-0.1,1.4-0.4s0.6-0.7,0.8-1.4l0.4-1.1l-3.8-10.4h2L159.7,900.5z M177.9,890.4h0.3c1.1,0,2.1,0.3,2.9,0.8
	s1.6,1.2,2.1,2s0.7,1.8,0.7,2.9c0,1.1-0.2,2.1-0.7,2.9s-1.2,1.6-2.1,2.1s-1.8,0.7-2.9,0.8h-0.3v1.9h-1.8v-1.9h-0.3
	c-1.1,0-2.1-0.2-3-0.7s-1.6-1.2-2.1-2.1s-0.7-1.9-0.7-2.9s0.2-2.1,0.7-2.9s1.2-1.6,2.1-2.1s1.9-0.7,3-0.7h0.3v-2h1.8V890.4z
	 M175.8,891.8c-1.2,0-2.2,0.4-2.9,1.1s-1.1,1.8-1.1,3.1c0,1.3,0.4,2.4,1.1,3.1s1.7,1.1,2.9,1.1h0.3v-8.5H175.8z M177.9,891.8v8.5
	h0.3c1.2,0,2.2-0.4,2.9-1.1s1-1.8,1-3.1c0-1.3-0.4-2.3-1-3.1s-1.7-1.1-3-1.1H177.9z M196.8,898.7c-0.2,1.5-0.7,2.7-1.7,3.5
	s-2.2,1.2-3.7,1.2c-1.7,0-3-0.6-4-1.8s-1.5-2.8-1.5-4.8v-1.4c0-1.3,0.2-2.5,0.7-3.5s1.1-1.8,2-2.3s1.9-0.8,3-0.8
	c1.5,0,2.7,0.4,3.6,1.3s1.4,2,1.6,3.5h-1.9c-0.2-1.1-0.5-2-1.1-2.5s-1.3-0.8-2.3-0.8c-1.2,0-2.1,0.4-2.8,1.3c-0.7,0.9-1,2.1-1,3.8
	v1.4c0,1.5,0.3,2.8,1,3.7s1.5,1.4,2.7,1.4c1,0,1.8-0.2,2.4-0.7s0.9-1.3,1.1-2.5H196.8z M208,890.5h-6.9v4.3h3.5
	c1.5,0,2.6,0.4,3.5,1.1s1.2,1.8,1.2,3c0,1.3-0.4,2.3-1.3,3.1s-2,1.2-3.4,1.2h-5.4v-14.2h8.7V890.5z M201.2,896.3v5.4h3.4
	c0.9,0,1.7-0.2,2.2-0.7s0.8-1.2,0.8-2c0-0.8-0.2-1.4-0.7-1.9c-0.5-0.5-1.2-0.7-2.1-0.7H201.2z M216.2,897.8c0-1,0.2-2,0.6-2.8
	s1-1.5,1.7-1.9s1.6-0.7,2.5-0.7c1.4,0,2.6,0.5,3.5,1.5s1.3,2.3,1.3,4v0.1c0,1-0.2,2-0.6,2.8s-1,1.5-1.7,1.9s-1.6,0.7-2.5,0.7
	c-1.4,0-2.6-0.5-3.5-1.5s-1.3-2.3-1.3-4V897.8z M218,898c0,1.2,0.3,2.1,0.8,2.8s1.3,1.1,2.2,1.1c0.9,0,1.6-0.4,2.2-1.1
	s0.8-1.7,0.8-3c0-1.2-0.3-2.1-0.8-2.8s-1.3-1.1-2.2-1.1c-0.9,0-1.6,0.4-2.2,1.1S218,896.7,218,898z M235.7,894.1h-3.5v9.1h-1.8v-9.1
	h-3.5v-1.5h8.8V894.1z M245.4,903.2h-1.8v-3.8c-0.8,0.2-1.6,0.3-2.4,0.3c-1.3,0-2.3-0.3-3-1s-1-1.6-1.1-2.9v-3.2h1.8v3.2
	c0,1.6,0.8,2.4,2.3,2.4c0.8,0,1.6-0.1,2.4-0.3v-5.3h1.8V903.2z M255.1,892.6h1.8v10.6h-1.8v-7.7l-4.9,7.7h-1.8v-10.6h1.8v7.7
	L255.1,892.6z M267.7,894.1h-3.5v9.1h-1.8v-9.1h-3.5v-1.5h8.8V894.1z M275.8,903.2c-0.1-0.2-0.2-0.6-0.3-1.1c-0.8,0.9-1.8,1.3-3,1.3
	c-1,0-1.9-0.3-2.6-0.9s-1-1.3-1-2.2c0-1.1,0.4-2,1.3-2.6s2-0.9,3.5-0.9h1.8v-0.8c0-0.6-0.2-1.1-0.6-1.5s-0.9-0.6-1.7-0.6
	c-0.6,0-1.2,0.2-1.6,0.5s-0.7,0.7-0.7,1.2h-1.8c0-0.5,0.2-1,0.6-1.5s0.9-0.9,1.5-1.2s1.3-0.4,2.1-0.4c1.2,0,2.2,0.3,2.9,0.9
	s1,1.4,1.1,2.5v4.9c0,1,0.1,1.7,0.4,2.3v0.2H275.8z M272.8,901.8c0.6,0,1.1-0.1,1.6-0.4s0.9-0.7,1.1-1.1V898h-1.4
	c-2.2,0-3.3,0.6-3.3,1.9c0,0.6,0.2,1,0.6,1.3S272.2,901.8,272.8,901.8z M288.8,892.6v10.6H287v-9.1h-3.6l-0.2,4
	c-0.1,1.8-0.4,3.1-0.9,3.9s-1.3,1.2-2.3,1.2h-0.7v-1.6l0.5,0c0.6-0.1,1-0.4,1.3-1s0.4-1.7,0.5-3.4l0.2-4.5H288.8z M298.3,903.2
	c-0.1-0.2-0.2-0.6-0.3-1.1c-0.8,0.9-1.8,1.3-3,1.3c-1,0-1.9-0.3-2.6-0.9s-1-1.3-1-2.2c0-1.1,0.4-2,1.3-2.6s2-0.9,3.5-0.9h1.8v-0.8
	c0-0.6-0.2-1.1-0.6-1.5s-0.9-0.6-1.7-0.6c-0.6,0-1.2,0.2-1.6,0.5s-0.7,0.7-0.7,1.2h-1.8c0-0.5,0.2-1,0.6-1.5s0.9-0.9,1.5-1.2
	s1.3-0.4,2.1-0.4c1.2,0,2.2,0.3,2.9,0.9s1,1.4,1.1,2.5v4.9c0,1,0.1,1.7,0.4,2.3v0.2H298.3z M295.3,901.8c0.6,0,1.1-0.1,1.6-0.4
	s0.9-0.7,1.1-1.1V898h-1.4c-2.2,0-3.3,0.6-3.3,1.9c0,0.6,0.2,1,0.6,1.3S294.7,901.8,295.3,901.8z M306.9,901.9
	c0.6,0,1.2-0.2,1.7-0.6s0.7-0.9,0.8-1.5h1.7c0,0.6-0.2,1.2-0.6,1.7s-0.9,1-1.5,1.3s-1.3,0.5-2,0.5c-1.4,0-2.6-0.5-3.4-1.4
	s-1.3-2.3-1.3-3.9v-0.3c0-1,0.2-1.9,0.6-2.7s0.9-1.4,1.6-1.9s1.5-0.7,2.5-0.7c1.2,0,2.2,0.4,3,1.1s1.2,1.6,1.3,2.8h-1.7
	c-0.1-0.7-0.3-1.2-0.8-1.7s-1-0.7-1.7-0.7c-0.9,0-1.6,0.3-2.1,1s-0.8,1.6-0.8,2.9v0.3c0,1.2,0.3,2.2,0.8,2.8
	S305.9,901.9,306.9,901.9z M315.1,896.2h2.7c1.2,0,2.1,0.3,2.8,0.9s1,1.4,1,2.5c0,1.1-0.4,1.9-1.1,2.5s-1.7,1-2.9,1h-4.5v-10.6h1.8
	V896.2z M315.1,897.7v4h2.7c0.7,0,1.2-0.2,1.6-0.5s0.6-0.8,0.6-1.4c0-0.6-0.2-1.1-0.5-1.4s-0.9-0.6-1.5-0.6H315.1z M328.4,897.8
	c0-1,0.2-2,0.6-2.8s1-1.5,1.7-1.9s1.6-0.7,2.5-0.7c1.4,0,2.6,0.5,3.5,1.5s1.3,2.3,1.3,4v0.1c0,1-0.2,2-0.6,2.8s-1,1.5-1.7,1.9
	s-1.6,0.7-2.5,0.7c-1.4,0-2.6-0.5-3.5-1.5s-1.3-2.3-1.3-4V897.8z M330.2,898c0,1.2,0.3,2.1,0.8,2.8s1.3,1.1,2.2,1.1
	c0.9,0,1.6-0.4,2.2-1.1s0.8-1.7,0.8-3c0-1.2-0.3-2.1-0.8-2.8s-1.3-1.1-2.2-1.1c-0.9,0-1.6,0.4-2.2,1.1S330.2,896.7,330.2,898z
	 M353.9,903.2h-1.8v-9.1h-4.9v9.1h-1.8v-10.6h8.5V903.2z M365.7,898c0,1.6-0.4,2.9-1.1,3.9s-1.7,1.5-3,1.5c-1.3,0-2.3-0.4-3-1.2v5.1
	h-1.8v-14.6h1.7l0.1,1.2c0.7-0.9,1.8-1.4,3.1-1.4c1.3,0,2.3,0.5,3,1.4s1.1,2.3,1.1,4V898z M363.9,897.8c0-1.2-0.3-2.1-0.8-2.8
	s-1.2-1-2.1-1c-1.1,0-1.9,0.5-2.5,1.5v5c0.5,1,1.4,1.4,2.5,1.4c0.9,0,1.6-0.3,2.1-1S363.9,899.2,363.9,897.8z M372.4,903.4
	c-1.4,0-2.6-0.5-3.5-1.4s-1.3-2.2-1.3-3.8v-0.3c0-1,0.2-2,0.6-2.8s1-1.5,1.7-1.9s1.5-0.7,2.3-0.7c1.4,0,2.4,0.5,3.2,1.4
	s1.1,2.2,1.1,3.9v0.8h-7.2c0,1,0.3,1.9,0.9,2.5s1.3,1,2.2,1c0.6,0,1.2-0.1,1.6-0.4s0.8-0.6,1.2-1l1.1,0.9
	C375.5,902.7,374.2,903.4,372.4,903.4z M372.2,893.9c-0.7,0-1.3,0.3-1.8,0.8s-0.8,1.3-0.9,2.2h5.3v-0.1c-0.1-0.9-0.3-1.6-0.7-2.1
	S372.9,893.9,372.2,893.9z M378.5,901.7l0.6-0.8c0.7-0.9,1.1-2.3,1.2-4.1l0.2-4.2h6.8v9.1h1.4v4.6h-1.8v-3.1h-7.4v3.1h-1.8l0-4.6
	H378.5z M380.7,901.7h4.9v-7.4h-3.3l-0.1,2.5C382.1,898.9,381.6,900.5,380.7,901.7z M390.2,897.8c0-1,0.2-2,0.6-2.8s1-1.5,1.7-1.9
	s1.6-0.7,2.5-0.7c1.4,0,2.6,0.5,3.5,1.5s1.3,2.3,1.3,4v0.1c0,1-0.2,2-0.6,2.8s-1,1.5-1.7,1.9s-1.6,0.7-2.5,0.7
	c-1.4,0-2.6-0.5-3.5-1.5s-1.3-2.3-1.3-4V897.8z M392,898c0,1.2,0.3,2.1,0.8,2.8s1.3,1.1,2.2,1.1c0.9,0,1.6-0.4,2.2-1.1
	s0.8-1.7,0.8-3c0-1.2-0.3-2.1-0.8-2.8s-1.3-1.1-2.2-1.1c-0.9,0-1.6,0.4-2.2,1.1S392,896.7,392,898z M409.7,894.1h-3.5v9.1h-1.8v-9.1
	h-3.5v-1.5h8.8V894.1z M411.7,903.2v-10.6h4.1c1.4,0,2.5,0.2,3.2,0.7s1.1,1.2,1.1,2.2c0,0.5-0.1,0.9-0.4,1.3s-0.7,0.7-1.3,0.9
	c0.6,0.1,1.2,0.4,1.5,0.9s0.6,1,0.6,1.6c0,1-0.4,1.7-1.1,2.2s-1.7,0.8-3,0.8H411.7z M413.5,897.1h2.3c1.7,0,2.5-0.5,2.5-1.5
	s-0.8-1.5-2.4-1.5h-2.5V897.1z M413.5,898.5v3.2h3c0.8,0,1.3-0.1,1.7-0.4s0.6-0.7,0.6-1.2c0-1.1-0.8-1.6-2.3-1.6H413.5z M431.8,898
	c0,1.6-0.4,2.9-1.1,3.9s-1.7,1.5-3,1.5c-1.3,0-2.3-0.4-3-1.2v5.1h-1.8v-14.6h1.7l0.1,1.2c0.7-0.9,1.8-1.4,3.1-1.4
	c1.3,0,2.3,0.5,3,1.4s1.1,2.3,1.1,4V898z M430,897.8c0-1.2-0.3-2.1-0.8-2.8s-1.2-1-2.1-1c-1.1,0-1.9,0.5-2.5,1.5v5
	c0.5,1,1.4,1.4,2.5,1.4c0.9,0,1.6-0.3,2.1-1S430,899.2,430,897.8z M440.7,903.2c-0.1-0.2-0.2-0.6-0.3-1.1c-0.8,0.9-1.8,1.3-3,1.3
	c-1,0-1.9-0.3-2.6-0.9s-1-1.3-1-2.2c0-1.1,0.4-2,1.3-2.6s2-0.9,3.5-0.9h1.8v-0.8c0-0.6-0.2-1.1-0.6-1.5s-0.9-0.6-1.7-0.6
	c-0.6,0-1.2,0.2-1.6,0.5s-0.7,0.7-0.7,1.2h-1.8c0-0.5,0.2-1,0.6-1.5s0.9-0.9,1.5-1.2s1.3-0.4,2.1-0.4c1.2,0,2.2,0.3,2.9,0.9
	s1,1.4,1.1,2.5v4.9c0,1,0.1,1.7,0.4,2.3v0.2H440.7z M437.7,901.8c0.6,0,1.1-0.1,1.6-0.4s0.9-0.7,1.1-1.1V898H439
	c-2.2,0-3.3,0.6-3.3,1.9c0,0.6,0.2,1,0.6,1.3S437.1,901.8,437.7,901.8z M446.9,892.6v9.1h3.9v-9.1h1.8v9.1h3.9v-9.1h1.8v9.1h1.5
	l-0.2,4.6h-1.6v-3.1h-12.9v-10.6H446.9z M466.1,903.4c-1.4,0-2.6-0.5-3.5-1.4s-1.3-2.2-1.3-3.8v-0.3c0-1,0.2-2,0.6-2.8
	s1-1.5,1.7-1.9s1.5-0.7,2.3-0.7c1.4,0,2.4,0.5,3.2,1.4s1.1,2.2,1.1,3.9v0.8H463c0,1,0.3,1.9,0.9,2.5s1.3,1,2.2,1
	c0.6,0,1.2-0.1,1.6-0.4s0.8-0.6,1.2-1l1.1,0.9C469.2,902.7,467.8,903.4,466.1,903.4z M465.8,893.9c-0.7,0-1.3,0.3-1.8,0.8
	s-0.8,1.3-0.9,2.2h5.3v-0.1c-0.1-0.9-0.3-1.6-0.7-2.1S466.6,893.9,465.8,893.9z M480.9,903.2h-1.8v-4.5h-4.9v4.5h-1.8v-10.6h1.8v4.6
	h4.9v-4.6h1.8V903.2z M490.6,892.6h1.8v10.6h-1.8v-7.7l-4.9,7.7H484v-10.6h1.8v7.7L490.6,892.6z M502.2,892.6h1.8v10.6h-1.8v-7.7
	l-4.9,7.7h-1.8v-10.6h1.8v7.7L502.2,892.6z M66.8,923.2c-0.1-0.2-0.2-0.6-0.3-1.1c-0.8,0.9-1.8,1.3-3,1.3c-1,0-1.9-0.3-2.6-0.9
	s-1-1.3-1-2.2c0-1.1,0.4-2,1.3-2.6s2-0.9,3.5-0.9h1.8v-0.8c0-0.6-0.2-1.1-0.6-1.5s-0.9-0.6-1.7-0.6c-0.6,0-1.2,0.2-1.6,0.5
	s-0.7,0.7-0.7,1.2h-1.8c0-0.5,0.2-1,0.6-1.5s0.9-0.9,1.5-1.2s1.3-0.4,2.1-0.4c1.2,0,2.2,0.3,2.9,0.9s1,1.4,1.1,2.5v4.9
	c0,1,0.1,1.7,0.4,2.3v0.2H66.8z M63.8,921.8c0.6,0,1.1-0.1,1.6-0.4s0.9-0.7,1.1-1.1V918h-1.4c-2.2,0-3.3,0.6-3.3,1.9
	c0,0.6,0.2,1,0.6,1.3S63.2,921.8,63.8,921.8z M78.9,914.1h-3.5v9.1h-1.8v-9.1H70v-1.5h8.8V914.1z M87,923.2
	c-0.1-0.2-0.2-0.6-0.3-1.1c-0.8,0.9-1.8,1.3-3,1.3c-1,0-1.9-0.3-2.6-0.9s-1-1.3-1-2.2c0-1.1,0.4-2,1.3-2.6s2-0.9,3.5-0.9h1.8v-0.8
	c0-0.6-0.2-1.1-0.6-1.5s-0.9-0.6-1.7-0.6c-0.6,0-1.2,0.2-1.6,0.5s-0.7,0.7-0.7,1.2h-1.8c0-0.5,0.2-1,0.6-1.5s0.9-0.9,1.5-1.2
	s1.3-0.4,2.1-0.4c1.2,0,2.2,0.3,2.9,0.9s1,1.4,1.1,2.5v4.9c0,1,0.1,1.7,0.4,2.3v0.2H87z M84,921.8c0.6,0,1.1-0.1,1.6-0.4
	s0.9-0.7,1.1-1.1V918h-1.4c-2.2,0-3.3,0.6-3.3,1.9c0,0.6,0.2,1,0.6,1.3S83.4,921.8,84,921.8z M94.6,918.7h-1.3v4.5h-1.8v-10.6h1.8
	v4.5h1.2l3.6-4.5h2.2l-4.2,5.1l4.5,5.5h-2.3L94.6,918.7z M112.9,915.5c0-0.5-0.2-0.9-0.6-1.2s-0.9-0.4-1.6-0.4
	c-0.6,0-1.2,0.2-1.6,0.5s-0.6,0.7-0.6,1.2h-1.8c0-0.9,0.4-1.7,1.2-2.3s1.7-0.9,2.9-0.9c1.2,0,2.2,0.3,2.9,0.8c0.7,0.5,1,1.3,1,2.3
	c0,0.5-0.1,0.9-0.4,1.3s-0.7,0.7-1.2,0.9c1.2,0.4,1.8,1.2,1.8,2.5c0,1-0.4,1.7-1.1,2.3c-0.7,0.6-1.7,0.8-3,0.8c-1.2,0-2.2-0.3-3-0.9
	s-1.2-1.4-1.2-2.4h1.8c0,0.5,0.2,1,0.7,1.3s1,0.6,1.7,0.6c0.7,0,1.2-0.2,1.7-0.5s0.6-0.7,0.6-1.2c0-0.6-0.2-1-0.5-1.3
	s-0.9-0.4-1.7-0.4h-1.8V917h2C112.3,917,112.9,916.5,112.9,915.5z M123.8,923.2c-0.1-0.2-0.2-0.6-0.3-1.1c-0.8,0.9-1.8,1.3-3,1.3
	c-1,0-1.9-0.3-2.6-0.9s-1-1.3-1-2.2c0-1.1,0.4-2,1.3-2.6s2-0.9,3.5-0.9h1.8v-0.8c0-0.6-0.2-1.1-0.6-1.5s-0.9-0.6-1.7-0.6
	c-0.6,0-1.2,0.2-1.6,0.5s-0.7,0.7-0.7,1.2h-1.8c0-0.5,0.2-1,0.6-1.5s0.9-0.9,1.5-1.2s1.3-0.4,2.1-0.4c1.2,0,2.2,0.3,2.9,0.9
	s1,1.4,1.1,2.5v4.9c0,1,0.1,1.7,0.4,2.3v0.2H123.8z M120.8,921.8c0.6,0,1.1-0.1,1.6-0.4s0.9-0.7,1.1-1.1V918h-1.4
	c-2.2,0-3.3,0.6-3.3,1.9c0,0.6,0.2,1,0.6,1.3S120.2,921.8,120.8,921.8z M133,921.7l0.6-0.8c0.7-0.9,1.1-2.3,1.2-4.1l0.2-4.2h6.8v9.1
	h1.4v4.6h-1.8v-3.1H134v3.1h-1.8l0-4.6H133z M135.1,921.7h4.9v-7.4h-3.3l-0.1,2.5C136.5,918.9,136,920.5,135.1,921.7z M145.3,923.2
	v-10.6h4.1c1.4,0,2.5,0.2,3.2,0.7s1.1,1.2,1.1,2.2c0,0.5-0.1,0.9-0.4,1.3s-0.7,0.7-1.3,0.9c0.6,0.1,1.2,0.4,1.5,0.9s0.6,1,0.6,1.6
	c0,1-0.4,1.7-1.1,2.2s-1.7,0.8-3,0.8H145.3z M147.1,917.1h2.3c1.7,0,2.5-0.5,2.5-1.5s-0.8-1.5-2.4-1.5h-2.5V917.1z M147.1,918.5v3.2
	h3c0.8,0,1.3-0.1,1.7-0.4s0.6-0.7,0.6-1.2c0-1.1-0.8-1.6-2.3-1.6H147.1z M163.1,923.2c-0.1-0.2-0.2-0.6-0.3-1.1
	c-0.8,0.9-1.8,1.3-3,1.3c-1,0-1.9-0.3-2.6-0.9s-1-1.3-1-2.2c0-1.1,0.4-2,1.3-2.6s2-0.9,3.5-0.9h1.8v-0.8c0-0.6-0.2-1.1-0.6-1.5
	s-0.9-0.6-1.7-0.6c-0.6,0-1.2,0.2-1.6,0.5s-0.7,0.7-0.7,1.2h-1.8c0-0.5,0.2-1,0.6-1.5s0.9-0.9,1.5-1.2s1.3-0.4,2.1-0.4
	c1.2,0,2.2,0.3,2.9,0.9s1,1.4,1.1,2.5v4.9c0,1,0.1,1.7,0.4,2.3v0.2H163.1z M160.1,921.8c0.6,0,1.1-0.1,1.6-0.4s0.9-0.7,1.1-1.1V918
	h-1.4c-2.2,0-3.3,0.6-3.3,1.9c0,0.6,0.2,1,0.6,1.3S159.5,921.8,160.1,921.8z M179.2,914.1h-4.9v9.1h-1.8v-10.6h6.7V914.1z
	 M180.1,917.8c0-1,0.2-2,0.6-2.8s1-1.5,1.7-1.9s1.6-0.7,2.5-0.7c1.4,0,2.6,0.5,3.5,1.5s1.3,2.3,1.3,4v0.1c0,1-0.2,2-0.6,2.8
	s-1,1.5-1.7,1.9s-1.6,0.7-2.5,0.7c-1.4,0-2.6-0.5-3.5-1.5s-1.3-2.3-1.3-4V917.8z M181.9,918c0,1.2,0.3,2.1,0.8,2.8s1.3,1.1,2.2,1.1
	c0.9,0,1.6-0.4,2.2-1.1s0.8-1.7,0.8-3c0-1.2-0.3-2.1-0.8-2.8s-1.3-1.1-2.2-1.1c-0.9,0-1.6,0.4-2.2,1.1S181.9,916.7,181.9,918z
	 M191.2,921.7l0.6-0.8c0.7-0.9,1.1-2.3,1.2-4.1l0.2-4.2h6.8v9.1h1.4v4.6h-1.8v-3.1h-7.4v3.1h-1.8l0-4.6H191.2z M193.4,921.7h4.9
	v-7.4H195l-0.1,2.5C194.7,918.9,194.2,920.5,193.4,921.7z M209.9,923.2c-0.1-0.2-0.2-0.6-0.3-1.1c-0.8,0.9-1.8,1.3-3,1.3
	c-1,0-1.9-0.3-2.6-0.9s-1-1.3-1-2.2c0-1.1,0.4-2,1.3-2.6s2-0.9,3.5-0.9h1.8v-0.8c0-0.6-0.2-1.1-0.6-1.5s-0.9-0.6-1.7-0.6
	c-0.6,0-1.2,0.2-1.6,0.5s-0.7,0.7-0.7,1.2h-1.8c0-0.5,0.2-1,0.6-1.5s0.9-0.9,1.5-1.2s1.3-0.4,2.1-0.4c1.2,0,2.2,0.3,2.9,0.9
	s1,1.4,1.1,2.5v4.9c0,1,0.1,1.7,0.4,2.3v0.2H209.9z M206.9,921.8c0.6,0,1.1-0.1,1.6-0.4s0.9-0.7,1.1-1.1V918h-1.4
	c-2.2,0-3.3,0.6-3.3,1.9c0,0.6,0.2,1,0.6,1.3S206.3,921.8,206.9,921.8z M223.8,913.2c1.3,0,2.4,0.4,3.2,1.3s1.2,2.1,1.2,3.5v0.2
	c0,1-0.2,1.9-0.6,2.7s-0.9,1.4-1.7,1.8s-1.5,0.6-2.5,0.6c-1.4,0-2.6-0.5-3.4-1.4s-1.3-2.2-1.3-3.8v-0.9c0-2.2,0.4-4,1.2-5.3
	s2-2.1,3.6-2.4c0.9-0.2,1.5-0.4,1.8-0.6s0.5-0.6,0.5-1h1.5c0,0.8-0.2,1.4-0.6,1.9s-1,0.8-1.8,1l-1.3,0.3c-1.1,0.3-1.9,0.7-2.4,1.3
	s-0.9,1.4-1,2.4C221.3,913.8,222.5,913.2,223.8,913.2z M223.5,914.7c-0.9,0-1.6,0.3-2.1,0.9s-0.8,1.4-0.8,2.5v0.2
	c0,1.1,0.3,2,0.8,2.7s1.2,1,2.1,1c0.9,0,1.6-0.3,2.1-1s0.8-1.6,0.8-2.9c0-1-0.3-1.8-0.8-2.4S224.4,914.7,223.5,914.7z M234.6,923.4
	c-1.4,0-2.6-0.5-3.5-1.4s-1.3-2.2-1.3-3.8v-0.3c0-1,0.2-2,0.6-2.8s1-1.5,1.7-1.9s1.5-0.7,2.3-0.7c1.4,0,2.4,0.5,3.2,1.4
	s1.1,2.2,1.1,3.9v0.8h-7.2c0,1,0.3,1.9,0.9,2.5s1.3,1,2.2,1c0.6,0,1.2-0.1,1.6-0.4s0.8-0.6,1.2-1l1.1,0.9
	C237.7,922.7,236.4,923.4,234.6,923.4z M234.4,913.9c-0.7,0-1.3,0.3-1.8,0.8s-0.8,1.3-0.9,2.2h5.3v-0.1c-0.1-0.9-0.3-1.6-0.7-2.1
	S235.2,913.9,234.4,913.9z M246.7,915.5c0-0.5-0.2-0.9-0.6-1.2s-0.9-0.4-1.6-0.4c-0.6,0-1.2,0.2-1.6,0.5s-0.6,0.7-0.6,1.2h-1.8
	c0-0.9,0.4-1.7,1.2-2.3s1.7-0.9,2.9-0.9c1.2,0,2.2,0.3,2.9,0.8c0.7,0.5,1,1.3,1,2.3c0,0.5-0.1,0.9-0.4,1.3s-0.7,0.7-1.2,0.9
	c1.2,0.4,1.8,1.2,1.8,2.5c0,1-0.4,1.7-1.1,2.3c-0.7,0.6-1.7,0.8-3,0.8c-1.2,0-2.2-0.3-3-0.9s-1.2-1.4-1.2-2.4h1.8
	c0,0.5,0.2,1,0.7,1.3s1,0.6,1.7,0.6c0.7,0,1.2-0.2,1.7-0.5s0.6-0.7,0.6-1.2c0-0.6-0.2-1-0.5-1.3s-0.9-0.4-1.7-0.4h-1.8V917h2
	C246.1,917,246.7,916.5,246.7,915.5z M259.4,920.5l2.5-7.9h1.9l-4.2,12.2c-0.7,1.8-1.7,2.6-3.1,2.6l-0.3,0l-0.7-0.1v-1.5l0.5,0
	c0.6,0,1.1-0.1,1.4-0.4s0.6-0.7,0.8-1.4l0.4-1.1l-3.8-10.4h2L259.4,920.5z M273.3,914.1h-3.5v9.1h-1.8v-9.1h-3.5v-1.5h8.8V914.1z
	 M274.1,917.8c0-1,0.2-2,0.6-2.8s1-1.5,1.7-1.9s1.6-0.7,2.5-0.7c1.4,0,2.6,0.5,3.5,1.5s1.3,2.3,1.3,4v0.1c0,1-0.2,2-0.6,2.8
	s-1,1.5-1.7,1.9s-1.6,0.7-2.5,0.7c-1.4,0-2.6-0.5-3.5-1.5s-1.3-2.3-1.3-4V917.8z M276,918c0,1.2,0.3,2.1,0.8,2.8s1.3,1.1,2.2,1.1
	c0.9,0,1.6-0.4,2.2-1.1s0.8-1.7,0.8-3c0-1.2-0.3-2.1-0.8-2.8s-1.3-1.1-2.2-1.1c-0.9,0-1.6,0.4-2.2,1.1S276,916.7,276,918z
	 M294,923.2h-1.8v-3.8c-0.8,0.2-1.6,0.3-2.4,0.3c-1.3,0-2.3-0.3-3-1s-1-1.6-1.1-2.9v-3.2h1.8v3.2c0,1.6,0.8,2.4,2.3,2.4
	c0.8,0,1.6-0.1,2.4-0.3v-5.3h1.8V923.2z M305.5,923.2h-1.8v-4.5h-4.9v4.5h-1.8v-10.6h1.8v4.6h4.9v-4.6h1.8V923.2z M312.8,923.4
	c-1.4,0-2.6-0.5-3.5-1.4s-1.3-2.2-1.3-3.8v-0.3c0-1,0.2-2,0.6-2.8s1-1.5,1.7-1.9s1.5-0.7,2.3-0.7c1.4,0,2.4,0.5,3.2,1.4
	s1.1,2.2,1.1,3.9v0.8h-7.2c0,1,0.3,1.9,0.9,2.5s1.3,1,2.2,1c0.6,0,1.2-0.1,1.6-0.4s0.8-0.6,1.2-1l1.1,0.9
	C315.9,922.7,314.6,923.4,312.8,923.4z M312.6,913.9c-0.7,0-1.3,0.3-1.8,0.8s-0.8,1.3-0.9,2.2h5.3v-0.1c-0.1-0.9-0.3-1.6-0.7-2.1
	S313.4,913.9,312.6,913.9z M327.7,923.2h-1.8v-4.5H321v4.5h-1.8v-10.6h1.8v4.6h4.9v-4.6h1.8V923.2z M337.4,912.6h1.8v10.6h-1.8v-7.7
	l-4.9,7.7h-1.8v-10.6h1.8v7.7L337.4,912.6z M350.2,912.6v10.6h-1.8v-4.1h-2.7l-2.5,4.1h-2l2.7-4.4c-0.7-0.2-1.2-0.6-1.6-1.1
	s-0.5-1.1-0.5-1.8c0-1,0.4-1.7,1.1-2.3s1.7-0.9,2.9-0.9H350.2z M343.6,915.8c0,0.5,0.2,0.9,0.5,1.2s0.8,0.5,1.4,0.5h2.9v-3.5h-2.6
	c-0.7,0-1.2,0.2-1.6,0.5S343.6,915.3,343.6,915.8z M357.9,921.7l0.6-0.8c0.7-0.9,1.1-2.3,1.2-4.1l0.2-4.2h6.8v9.1h1.4v4.6h-1.8v-3.1
	h-7.4v3.1h-1.8l0-4.6H357.9z M360.1,921.7h4.9v-7.4h-3.3l-0.1,2.5C361.5,918.9,361,920.5,360.1,921.7z M376.6,923.2
	c-0.1-0.2-0.2-0.6-0.3-1.1c-0.8,0.9-1.8,1.3-3,1.3c-1,0-1.9-0.3-2.6-0.9s-1-1.3-1-2.2c0-1.1,0.4-2,1.3-2.6s2-0.9,3.5-0.9h1.8v-0.8
	c0-0.6-0.2-1.1-0.6-1.5s-0.9-0.6-1.7-0.6c-0.6,0-1.2,0.2-1.6,0.5s-0.7,0.7-0.7,1.2H370c0-0.5,0.2-1,0.6-1.5s0.9-0.9,1.5-1.2
	s1.3-0.4,2.1-0.4c1.2,0,2.2,0.3,2.9,0.9s1,1.4,1.1,2.5v4.9c0,1,0.1,1.7,0.4,2.3v0.2H376.6z M373.6,921.8c0.6,0,1.1-0.1,1.6-0.4
	s0.9-0.7,1.1-1.1V918h-1.4c-2.2,0-3.3,0.6-3.3,1.9c0,0.6,0.2,1,0.6,1.3S373,921.8,373.6,921.8z M388.7,914.1h-3.5v9.1h-1.8v-9.1
	h-3.5v-1.5h8.8V914.1z"/>
</svg>
