<?xml version="1.0" encoding="utf-8"?>
<!-- Generator: Adobe Illustrator 23.0.6, SVG Export Plug-In . SVG Version: 6.00 Build 0)  -->
<svg version="1.1" id="Слой_1" xmlns="http://www.w3.org/2000/svg" xmlns:xlink="http://www.w3.org/1999/xlink" x="0px" y="0px"
	 viewBox="0 0 1000 1000" style="enable-background:new 0 0 1000 1000;" xml:space="preserve">
<style type="text/css">
	.st0{fill:#FFFFFF;}
	.st1{fill:#60AAE2;}
	.st2{enable-background:new    ;}
	.st3{fill:#00ACE5;}
	.st4{fill:#A04A9A;}
	.st5{fill:none;}
	.st6{font-family:'Roboto-Regular';}
	.st7{font-size:20px;}
	.st8{fill:#979899;}
	.st9{fill:none;stroke:#A04A9A;stroke-width:2;stroke-linecap:square;stroke-miterlimit:10;}
	.st10{fill-opacity:0;}
	.st11{fill:none;stroke:#00ACE5;stroke-width:2;stroke-linecap:square;stroke-miterlimit:10;}
</style>
<rect class="st0" width="1000" height="1000"/>
<g>
	<path class="st1" d="M50,958.4c0.6,0,1-0.2,1.3-0.5s0.4-0.8,0.4-1.3v-2.9c0-0.6,0.1-1.1,0.2-1.5c0.1-0.4,0.4-0.8,0.7-1.1
		s0.8-0.5,1.3-0.7s1.2-0.2,2-0.2h0.4v2.3h-0.5c-0.6,0-1,0.1-1.2,0.4c-0.2,0.3-0.3,0.7-0.3,1.2v2.6c0,0.7-0.1,1.2-0.3,1.7
		s-0.5,0.9-1.1,1.2c0.5,0.3,0.9,0.7,1.1,1.2c0.2,0.5,0.3,1,0.3,1.7v2.6c0,0.6,0.1,1,0.3,1.2c0.2,0.3,0.6,0.4,1.2,0.4h0.5v2.3H56
		c-0.8,0-1.5-0.1-2-0.2c-0.6-0.2-1-0.4-1.3-0.7s-0.6-0.7-0.7-1.1c-0.1-0.4-0.2-0.9-0.2-1.5v-2.9c0-0.5-0.1-1-0.4-1.3
		c-0.3-0.3-0.7-0.5-1.3-0.5L50,958.4L50,958.4z"/>
	<path class="st1" d="M70.9,951.9h3V969h-3l0.1-9.3h-5.1v5.7h-3v-13.5h3v5.2H71L70.9,951.9L70.9,951.9z"/>
	<path class="st1" d="M86.5,960.2c0,0.8-0.1,1.5-0.4,2.2c-0.2,0.7-0.6,1.2-1,1.7s-1,0.8-1.6,1.1s-1.3,0.4-2.1,0.4
		c-0.8,0-1.4-0.1-2-0.4c-0.6-0.3-1.2-0.6-1.6-1.1s-0.8-1-1-1.7s-0.4-1.4-0.4-2.2s0.1-1.5,0.4-2.2c0.2-0.7,0.6-1.2,1-1.7
		c0.5-0.5,1-0.8,1.6-1.1s1.3-0.4,2-0.4s1.4,0.1,2,0.4c0.6,0.3,1.1,0.6,1.6,1.1c0.4,0.5,0.8,1,1,1.7
		C86.4,958.7,86.5,959.4,86.5,960.2z M83.5,960.2c0-0.9-0.2-1.6-0.5-2.1c-0.4-0.5-0.9-0.8-1.5-0.8c-0.7,0-1.2,0.3-1.5,0.8
		c-0.4,0.5-0.5,1.2-0.5,2.1c0,0.9,0.2,1.6,0.5,2.1c0.4,0.5,0.9,0.8,1.5,0.8c0.7,0,1.2-0.3,1.5-0.8S83.5,961.1,83.5,960.2z"/>
	<path class="st1" d="M93.1,965.6c-0.4,0-0.8,0-1.2,0c-0.4,0-0.8-0.1-1.2-0.1c-0.4,0-0.8-0.1-1.1-0.2c-0.4-0.1-0.7-0.1-0.9-0.2v-9.8
		c0.2,0,0.6-0.1,0.9-0.1c0.4-0.1,0.7-0.1,1.1-0.1s0.8-0.1,1.2-0.1c0.4,0,0.8,0,1.2,0c0.9,0,1.6,0.1,2.1,0.2c0.6,0.2,1,0.4,1.4,0.7
		s0.6,0.6,0.8,0.9c0.2,0.3,0.2,0.7,0.2,1c0,0.5-0.1,0.9-0.3,1.2c-0.2,0.4-0.5,0.7-0.8,0.8c0.2,0.1,0.4,0.2,0.5,0.3
		c0.2,0.1,0.4,0.3,0.5,0.5c0.2,0.2,0.3,0.4,0.4,0.7s0.1,0.6,0.1,1s-0.1,0.8-0.2,1.2c-0.2,0.4-0.4,0.7-0.8,1s-0.9,0.5-1.5,0.7
		C94.9,965.5,94.1,965.6,93.1,965.6z M93.2,959.2c0.5,0,0.9-0.1,1.2-0.2c0.3-0.1,0.4-0.4,0.4-0.8c0-0.4-0.2-0.7-0.5-0.8
		s-0.8-0.2-1.3-0.2c-0.2,0-0.4,0-0.7,0c-0.3,0-0.5,0-0.7,0.1v1.9H93.2L93.2,959.2z M91.6,963.2c0.2,0,0.4,0,0.7,0.1
		c0.3,0,0.6,0,0.9,0c0.6,0,1.1-0.1,1.5-0.2c0.4-0.2,0.5-0.5,0.5-0.9s-0.2-0.7-0.5-0.9s-0.8-0.2-1.5-0.2h-1.7L91.6,963.2L91.6,963.2z
		"/>
	<path class="st1" d="M104,954.9c0.9,0,1.6,0.1,2.1,0.3c0.6,0.2,1,0.5,1.4,0.8c0.4,0.4,0.6,0.8,0.7,1.3s0.2,1.1,0.2,1.7v6
		c-0.4,0.1-1,0.2-1.7,0.3s-1.6,0.2-2.7,0.2c-0.7,0-1.3-0.1-1.8-0.2c-0.5-0.1-1-0.3-1.4-0.6s-0.7-0.6-0.9-1c-0.2-0.4-0.3-1-0.3-1.6
		s0.1-1.1,0.4-1.5c0.2-0.4,0.6-0.8,1-1s0.9-0.4,1.4-0.5s1-0.2,1.6-0.2c0.4,0,0.7,0,1,0s0.5,0.1,0.7,0.1v-0.3c0-0.5-0.1-0.9-0.5-1.2
		c-0.3-0.3-0.8-0.4-1.6-0.4c-0.5,0-1,0-1.5,0.1s-0.9,0.2-1.2,0.3l-0.4-2.3c0.2,0,0.4-0.1,0.6-0.2c0.3-0.1,0.5-0.1,0.8-0.1
		c0.3-0.1,0.6-0.1,1-0.1C103.4,954.9,103.7,954.9,104,954.9z M104.3,963.4c0.3,0,0.6,0,0.8,0c0.3,0,0.5,0,0.6-0.1v-2.2
		c-0.1,0-0.3,0-0.5-0.1c-0.2,0-0.5,0-0.7,0c-0.3,0-0.5,0-0.8,0c-0.2,0-0.5,0.1-0.6,0.2s-0.3,0.2-0.4,0.4s-0.1,0.4-0.1,0.6
		c0,0.5,0.1,0.8,0.4,0.9C103.3,963.3,103.7,963.4,104.3,963.4z"/>
	<path class="st1" d="M115.4,961.8c-0.4,0.6-0.8,1.2-1.1,1.8c-0.3,0.6-0.6,1.2-0.9,1.8h-3c0.4-0.8,0.8-1.6,1.2-2.3
		c0.4-0.7,0.8-1.3,1.1-1.8c-0.6-0.3-1-0.7-1.3-1.1c-0.3-0.5-0.5-1-0.5-1.7c0-1.1,0.4-2,1.2-2.6c0.8-0.6,2-0.9,3.4-0.9
		c0.3,0,0.7,0,1.1,0s0.8,0.1,1.2,0.1c0.4,0.1,0.8,0.1,1.1,0.2c0.4,0.1,0.7,0.1,0.9,0.2v10h-2.9v-3.6h-1.5L115.4,961.8L115.4,961.8z
		 M116.9,957.2c-0.1,0-0.3,0-0.6,0c-0.3,0-0.5,0-0.7,0c-0.7,0-1.2,0.1-1.5,0.4c-0.3,0.2-0.4,0.5-0.4,0.9c0,0.2,0,0.4,0.1,0.6
		c0.1,0.2,0.2,0.3,0.4,0.4c0.2,0.1,0.4,0.2,0.6,0.2s0.4,0.1,0.6,0.1h1.4L116.9,957.2L116.9,957.2z"/>
	<path class="st1" d="M130,956.9c0,0.6-0.2,1-0.5,1.3c-0.4,0.3-0.8,0.5-1.3,0.5s-0.9-0.2-1.3-0.5s-0.5-0.8-0.5-1.3
		c0-0.6,0.2-1,0.5-1.3c0.4-0.3,0.8-0.5,1.3-0.5s0.9,0.2,1.3,0.5C129.9,955.9,130,956.3,130,956.9z M130,963.8c0,0.6-0.2,1-0.5,1.3
		c-0.4,0.3-0.8,0.5-1.3,0.5s-0.9-0.2-1.3-0.5s-0.5-0.8-0.5-1.3c0-0.6,0.2-1,0.5-1.3c0.4-0.3,0.8-0.5,1.3-0.5s0.9,0.1,1.3,0.5
		C129.9,962.8,130,963.3,130,963.8z"/>
	<path class="st1" d="M135.7,962.8h2c0.5-0.8,0.9-1.7,1.1-2.5c0.3-0.8,0.5-1.6,0.6-2.5c0.1-0.8,0.2-1.7,0.2-2.6c0-0.9,0-1.8,0-2.8
		v-0.5h8.9v10.9h2.3v6.2H148v-3.6h-9.4v3.6h-2.9L135.7,962.8L135.7,962.8z M142.5,954.5c0,0.7-0.1,1.4-0.1,2.2
		c-0.1,0.7-0.2,1.5-0.3,2.2s-0.3,1.4-0.5,2.1c-0.2,0.7-0.5,1.3-0.8,1.9h4.9v-8.4H142.5z"/>
	<path class="st1" d="M156.4,954.9c0.9,0,1.6,0.1,2.1,0.3c0.6,0.2,1,0.5,1.4,0.8c0.4,0.4,0.6,0.8,0.7,1.3c0.1,0.5,0.2,1.1,0.2,1.7v6
		c-0.4,0.1-1,0.2-1.7,0.3s-1.6,0.2-2.7,0.2c-0.7,0-1.3-0.1-1.8-0.2c-0.5-0.1-1-0.3-1.4-0.6s-0.7-0.6-0.9-1s-0.3-1-0.3-1.6
		s0.1-1.1,0.4-1.5c0.2-0.4,0.6-0.8,1-1s0.9-0.4,1.4-0.5s1.1-0.2,1.6-0.2c0.4,0,0.7,0,1,0s0.5,0.1,0.7,0.1v-0.3
		c0-0.5-0.1-0.9-0.5-1.2c-0.3-0.3-0.8-0.4-1.6-0.4c-0.5,0-1,0-1.5,0.1s-0.9,0.2-1.2,0.3l-0.4-2.3c0.2,0,0.4-0.1,0.6-0.2
		c0.3-0.1,0.5-0.1,0.8-0.1c0.3-0.1,0.6-0.1,1-0.1C155.7,954.9,156,954.9,156.4,954.9z M156.6,963.4c0.3,0,0.6,0,0.8,0
		c0.3,0,0.5,0,0.6-0.1v-2.2c-0.1,0-0.3,0-0.5-0.1c-0.2,0-0.5,0-0.6,0c-0.3,0-0.5,0-0.8,0c-0.2,0-0.4,0.1-0.6,0.2
		c-0.2,0.1-0.3,0.2-0.4,0.4c-0.1,0.2-0.1,0.4-0.1,0.6c0,0.5,0.1,0.8,0.5,0.9C155.6,963.3,156.1,963.4,156.6,963.4z"/>
	<path class="st1" d="M171.9,957.5h-3.3v7.9h-2.9v-7.9h-3.3v-2.4h9.5V957.5L171.9,957.5z"/>
	<path class="st1" d="M177.4,954.9c0.9,0,1.6,0.1,2.1,0.3c0.6,0.2,1,0.5,1.4,0.8c0.4,0.4,0.6,0.8,0.7,1.3c0.1,0.5,0.2,1.1,0.2,1.7v6
		c-0.4,0.1-1,0.2-1.7,0.3s-1.6,0.2-2.7,0.2c-0.7,0-1.3-0.1-1.8-0.2c-0.5-0.1-1-0.3-1.4-0.6s-0.7-0.6-0.9-1s-0.3-1-0.3-1.6
		s0.1-1.1,0.4-1.5c0.2-0.4,0.6-0.8,1-1s0.9-0.4,1.4-0.5s1.1-0.2,1.6-0.2c0.4,0,0.7,0,1,0s0.5,0.1,0.7,0.1v-0.3
		c0-0.5-0.1-0.9-0.5-1.2c-0.3-0.3-0.8-0.4-1.6-0.4c-0.5,0-1,0-1.5,0.1s-0.9,0.2-1.2,0.3l-0.4-2.3c0.2,0,0.4-0.1,0.6-0.2
		c0.3-0.1,0.5-0.1,0.8-0.1c0.3-0.1,0.6-0.1,1-0.1C176.7,954.9,177,954.9,177.4,954.9z M177.6,963.4c0.3,0,0.6,0,0.8,0
		c0.3,0,0.5,0,0.6-0.1v-2.2c-0.1,0-0.3,0-0.5-0.1c-0.2,0-0.5,0-0.6,0c-0.3,0-0.5,0-0.8,0c-0.2,0-0.4,0.1-0.6,0.2
		c-0.2,0.1-0.3,0.2-0.4,0.4c-0.1,0.2-0.1,0.4-0.1,0.6c0,0.5,0.1,0.8,0.5,0.9C176.6,963.3,177.1,963.4,177.6,963.4z"/>
	<path class="st1" d="M183.9,958.3h5.6v2.6h-5.6V958.3z"/>
	<path class="st1" d="M201.2,960.2c0,0.8-0.1,1.5-0.4,2.2c-0.2,0.7-0.6,1.2-1,1.7s-1,0.8-1.6,1.1s-1.3,0.4-2.1,0.4s-1.4-0.1-2.1-0.4
		c-0.6-0.3-1.1-0.6-1.6-1.1c-0.4-0.5-0.8-1-1-1.7s-0.4-1.4-0.4-2.2s0.1-1.5,0.4-2.2c0.3-0.7,0.6-1.2,1.1-1.7c0.4-0.5,1-0.8,1.6-1.1
		s1.3-0.4,2-0.4s1.4,0.1,2,0.4s1.1,0.6,1.6,1.1s0.8,1,1,1.7C201.1,958.7,201.2,959.4,201.2,960.2z M198.2,960.2
		c0-0.9-0.2-1.6-0.5-2.1c-0.4-0.5-0.9-0.8-1.5-0.8c-0.7,0-1.2,0.3-1.5,0.8c-0.4,0.5-0.6,1.2-0.6,2.1c0,0.9,0.2,1.6,0.6,2.1
		c0.4,0.5,0.9,0.8,1.5,0.8c0.7,0,1.2-0.3,1.5-0.8C198.1,961.8,198.2,961.1,198.2,960.2z"/>
	<path class="st1" d="M211.9,957.5h-3.3v7.9h-2.9v-7.9h-3.3v-2.4h9.5V957.5z"/>
	<path class="st1" d="M212.1,963h1.3c0.4-0.4,0.6-1,0.8-1.6c0.2-0.7,0.4-1.3,0.4-2.1c0.1-0.7,0.1-1.5,0.1-2.2s0-1.4,0-1.9h8v7.9h1.7
		v5.3h-2.5v-2.9h-7.5v2.9h-2.5V963H212.1z M219.9,963v-5.5h-2.4c0,0.4,0,0.9-0.1,1.4c0,0.5-0.1,1-0.2,1.4c-0.1,0.5-0.2,0.9-0.3,1.4
		c-0.2,0.5-0.3,0.9-0.6,1.2L219.9,963L219.9,963z"/>
	<path class="st1" d="M225.8,960.3c0-0.9,0.1-1.7,0.4-2.4c0.3-0.7,0.6-1.2,1.1-1.7s1-0.8,1.6-1s1.2-0.3,1.8-0.3
		c1.5,0,2.6,0.4,3.5,1.3c0.8,0.9,1.3,2.2,1.3,3.9c0,0.2,0,0.3,0,0.5s0,0.4,0,0.5h-6.6c0.1,0.6,0.3,1.1,0.8,1.4
		c0.5,0.3,1.1,0.5,2,0.5c0.5,0,1.1-0.1,1.6-0.2c0.5-0.1,0.9-0.2,1.3-0.4l0.4,2.4c-0.2,0.1-0.4,0.2-0.6,0.2c-0.3,0.1-0.5,0.2-0.9,0.2
		c-0.3,0.1-0.7,0.1-1,0.1c-0.4,0-0.7,0.1-1.1,0.1c-0.9,0-1.7-0.1-2.4-0.4c-0.7-0.3-1.2-0.6-1.7-1.1s-0.8-1-1-1.7
		C225.9,961.8,225.8,961.1,225.8,960.3z M232.6,959.2c0-0.2-0.1-0.5-0.1-0.7c-0.1-0.2-0.2-0.4-0.3-0.6c-0.1-0.2-0.3-0.3-0.6-0.5
		c-0.2-0.1-0.5-0.2-0.9-0.2c-0.3,0-0.6,0-0.8,0.2c-0.2,0.1-0.4,0.3-0.6,0.4c-0.1,0.2-0.3,0.4-0.4,0.6c-0.1,0.2-0.1,0.5-0.2,0.7
		L232.6,959.2L232.6,959.2z"/>
	<path class="st1" d="M242.3,957.5c0,0.4,0,0.8-0.1,1.2c0,0.4,0,0.9-0.1,1.3c-0.1,0.4-0.1,0.8-0.2,1.2c-0.1,0.4-0.2,0.8-0.3,1.1
		c-0.2,0.4-0.3,0.8-0.6,1.2c-0.2,0.4-0.5,0.7-0.9,1s-0.8,0.5-1.3,0.7s-1.1,0.3-1.9,0.4l-0.4-2.4c0.7-0.1,1.2-0.3,1.5-0.6
		c0.4-0.2,0.6-0.5,0.8-0.9c0.1-0.3,0.3-0.7,0.3-1.1c0.1-0.4,0.1-0.9,0.2-1.4c0-0.5,0.1-1,0.1-1.5s0-1,0-1.4v-1.2h7.7v10.2h-2.9v-7.9
		h-1.9L242.3,957.5L242.3,957.5z"/>
	<path class="st1" d="M259.8,960.7c-0.6,0-1,0.2-1.3,0.5s-0.4,0.8-0.4,1.3v2.9c0,0.6-0.1,1.1-0.2,1.5s-0.4,0.8-0.7,1.1
		c-0.3,0.3-0.8,0.5-1.3,0.7s-1.2,0.2-2.1,0.2h-0.4v-2.3h0.5c0.6,0,1-0.1,1.2-0.4c0.2-0.3,0.3-0.7,0.3-1.2v-2.6
		c0-0.7,0.1-1.2,0.3-1.7s0.6-0.9,1.1-1.2c-0.5-0.3-0.9-0.7-1.1-1.2c-0.2-0.5-0.3-1-0.3-1.7V954c0-0.5-0.1-1-0.3-1.2
		s-0.6-0.4-1.2-0.4h-0.5v-2.3h0.4c0.8,0,1.5,0.1,2.1,0.2c0.6,0.2,1,0.4,1.3,0.7s0.6,0.7,0.7,1.1c0.1,0.4,0.2,0.9,0.2,1.5v2.9
		c0,0.6,0.1,1,0.4,1.3s0.7,0.5,1.3,0.5V960.7z"/>
</g>
<g class="st2">
	<path d="M58.2,77.1l6.1,10.5h-5.4l-7.2-10.3v-0.5l7.2-10.3h5.4L58.2,77.1z M69.1,77.1l6.1,10.5h-5.4l-7.2-10.3v-0.5l7.2-10.3h5.4
		L69.1,77.1z"/>
	<path d="M110.8,59.4H99.3v31.2H90V59.4H78.7v-7.1h32.1C110.8,52.3,110.8,59.4,110.8,59.4z"/>
	<path d="M138.5,76.6c0,4.4-1,8-3,10.6s-4.7,4-8.1,4c-2.6,0-4.8-1-6.5-2.9v13.3H112V62.1h8.3l0.3,2.6c1.7-2.1,3.9-3.2,6.7-3.2
		c3.5,0,6.2,1.3,8.2,3.9s2.9,6.2,2.9,10.7v0.5H138.5z M129.6,76c0-5.1-1.5-7.6-4.4-7.6c-2.1,0-3.5,0.8-4.2,2.3v11.2
		c0.8,1.6,2.2,2.4,4.3,2.4c2.8,0,4.3-2.4,4.4-7.3v-1H129.6z"/>
	<path d="M156.2,91.2c-4.4,0-7.9-1.3-10.6-3.9c-2.7-2.6-4.1-6-4.1-10.2v-0.7c0-2.9,0.5-5.5,1.6-7.7s2.7-4,4.7-5.2
		c2.1-1.2,4.5-1.8,7.4-1.8c4,0,7.2,1.2,9.5,3.7c2.3,2.5,3.5,6,3.5,10.4v3.5h-17.7c0.3,1.6,1,2.9,2.1,3.8s2.5,1.4,4.2,1.4
		c2.8,0,5-1,6.6-3l4.1,4.8c-1.1,1.5-2.7,2.7-4.7,3.7C160.7,90.7,158.5,91.2,156.2,91.2z M155.2,68.4c-2.6,0-4.1,1.7-4.6,5.2h9v-0.7
		c0-1.4-0.3-2.5-1.1-3.3C157.7,68.8,156.6,68.4,155.2,68.4z"/>
	<path d="M196.5,68.9h-9v21.7h-8.9V68.9h-8.9v-6.8h26.8L196.5,68.9L196.5,68.9z"/>
	<path d="M209.3,70h4.6c2.6,0,5,0.4,7,1.3s3.5,2.1,4.6,3.7s1.6,3.4,1.6,5.5c0,3.1-1.2,5.6-3.6,7.4c-2.4,1.9-5.6,2.8-9.7,2.8h-13.3
		V62.1h8.9V70H209.3z M209.3,76.8v7h4.5c1.4,0,2.4-0.3,3.2-0.9s1.1-1.5,1.1-2.5c0-1.1-0.3-1.9-1-2.6s-1.8-1-3.3-1H209.3z"/>
	<path d="M255.1,62.1v28.5h-8.9v-9.4h-3.4l-5,9.4h-8.9l5.9-10.9c-1.7-0.8-3-1.9-3.9-3.2s-1.4-2.8-1.4-4.5c0-2.9,1.2-5.3,3.5-7.1
		c2.3-1.8,5.3-2.7,9.1-2.8C242.1,62.1,255.1,62.1,255.1,62.1z M238.3,72.3c0,0.9,0.4,1.6,1.1,2.2c0.7,0.6,1.6,1,2.8,1h4.1v-6.6h-4
		c-1.2,0-2.1,0.3-2.8,1S238.3,71.3,238.3,72.3z"/>
	<path d="M274.8,90.6V62.1H287c3.9,0,6.9,0.7,9,2.1c2.1,1.4,3.1,3.3,3.1,5.9c0,1.3-0.5,2.5-1.4,3.5s-2.3,1.9-4,2.4
		c2.3,0.4,4,1.1,5.2,2.3c1.2,1.1,1.8,2.5,1.8,4.2c0,2.7-1,4.7-3,6.1s-5,2.1-8.8,2.1L274.8,90.6L274.8,90.6z M283.7,73.5h3.7
		c1.1,0,1.8-0.2,2.3-0.5c0.4-0.4,0.6-0.9,0.6-1.6c0-0.9-0.3-1.6-0.8-1.9s-1.3-0.6-2.5-0.6h-3.3L283.7,73.5L283.7,73.5z M283.7,79
		v4.8h5.2c1.1,0,1.9-0.2,2.4-0.6s0.7-1,0.7-1.8c0-1.6-0.9-2.4-2.7-2.5L283.7,79L283.7,79z"/>
	<path d="M303.4,76.1c0-2.8,0.6-5.4,1.7-7.6s2.7-3.9,4.8-5.1c2.1-1.2,4.5-1.8,7.3-1.8c4.3,0,7.6,1.3,10.1,4
		c2.5,2.6,3.7,6.2,3.7,10.8v0.3c0,4.4-1.2,8-3.7,10.6s-5.8,3.9-10,3.9c-4.1,0-7.3-1.2-9.8-3.7c-2.5-2.4-3.8-5.7-4-9.9L303.4,76.1z
		 M312.3,76.7c0,2.6,0.4,4.6,1.2,5.8c0.8,1.2,2,1.8,3.7,1.8c3.2,0,4.8-2.4,4.9-7.3v-0.9c0-5.1-1.6-7.7-4.9-7.7c-3,0-4.6,2.2-4.8,6.6
		L312.3,76.7z"/>
	<path d="M359.9,62.1v28.5H351V69h-5.3l-0.5,8.7c-0.3,4.3-1.3,7.6-2.9,9.7s-4,3.2-7.2,3.2h-2.8l-0.1-6.8l0.9-0.1
		c1.2-0.1,2.1-0.9,2.6-2.4c0.6-1.4,0.9-3.6,1.1-6.5l0.6-12.8h22.5V62.1z"/>
	<path d="M390.2,90.6h-8.9V80.1h-7.8v10.5h-8.9V62.1h8.9v11.1h7.8V62.1h8.9V90.6z"/>
	<path d="M411.1,90.6c-0.3-0.6-0.6-1.4-0.8-2.6c-1.6,2.1-3.9,3.1-6.9,3.1c-2.7,0-5-0.8-6.9-2.4s-2.8-3.7-2.8-6.1
		c0-3.1,1.1-5.4,3.4-7s5.6-2.4,10-2.4h2.7v-1.5c0-2.6-1.1-3.9-3.4-3.9c-2.1,0-3.2,1-3.2,3.1h-8.9c0-2.8,1.2-5,3.5-6.7s5.3-2.6,9-2.6
		s6.5,0.9,8.6,2.7s3.2,4.2,3.2,7.3v12.6c0,2.6,0.4,4.6,1.2,6v0.4H411.1z M405.5,84.8c1.1,0,2-0.2,2.8-0.7c0.7-0.5,1.3-1,1.6-1.6V78
		h-2.6c-3.1,0-4.6,1.4-4.6,4.2c0,0.8,0.3,1.5,0.8,2C404,84.6,404.7,84.8,405.5,84.8z"/>
	<path d="M428.7,66.5l7.2,10.3v0.5l-7.2,10.3h-5.5l6.1-10.5l-6.1-10.5h5.5V66.5z M439.6,66.5l7.2,10.3v0.5l-7.2,10.3h-5.5l6.1-10.5
		l-6.1-10.5h5.5V66.5z"/>
	<path d="M465.5,90.6V62.1h12.2c3.9,0,6.9,0.7,9,2.1c2.1,1.4,3.1,3.3,3.1,5.9c0,1.3-0.5,2.5-1.4,3.5s-2.3,1.9-4,2.4
		c2.3,0.4,4,1.1,5.2,2.3c1.2,1.1,1.8,2.5,1.8,4.2c0,2.7-1,4.7-3,6.1s-5,2.1-8.8,2.1L465.5,90.6L465.5,90.6z M474.4,73.5h3.7
		c1.1,0,1.8-0.2,2.3-0.5c0.4-0.4,0.6-0.9,0.6-1.6c0-0.9-0.3-1.6-0.8-1.9s-1.3-0.6-2.5-0.6h-3.3L474.4,73.5L474.4,73.5z M474.4,79
		v4.8h5.2c1.1,0,1.9-0.2,2.4-0.6s0.7-1,0.7-1.8c0-1.6-0.9-2.4-2.7-2.5L474.4,79L474.4,79z"/>
	<path d="M521.3,52.3l8.6,26.7l8.5-26.7h12.2v38.4h-9.3v-9l0.9-18.4l-9.3,27.3h-6.1l-9.3-27.3l0.9,18.4v9h-9.3V52.3H521.3z"/>
	<path d="M554.9,76.1c0-2.8,0.6-5.4,1.7-7.6s2.7-3.9,4.8-5.1s4.5-1.8,7.3-1.8c4.3,0,7.6,1.3,10.1,4s3.7,6.2,3.7,10.8v0.3
		c0,4.4-1.2,8-3.7,10.6s-5.8,3.9-10,3.9c-4.1,0-7.3-1.2-9.8-3.7c-2.5-2.4-3.8-5.7-4-9.9L554.9,76.1z M563.8,76.7
		c0,2.6,0.4,4.6,1.2,5.8s2,1.8,3.7,1.8c3.2,0,4.8-2.4,4.9-7.3v-0.9c0-5.1-1.6-7.7-4.9-7.7c-3,0-4.6,2.2-4.8,6.6L563.8,76.7z"/>
	<path d="M598.4,84.3c1.2,0,2.2-0.3,2.9-1s1-1.6,1-2.8h8.3c0,3.1-1.1,5.7-3.4,7.7c-2.2,2-5.1,3-8.7,3c-4.1,0-7.4-1.3-9.8-3.9
		s-3.6-6.2-3.6-10.8v-0.4c0-2.9,0.5-5.4,1.6-7.6s2.6-3.9,4.6-5.1c2-1.2,4.4-1.8,7.1-1.8c3.7,0,6.7,1,8.8,3.1
		c2.1,2.1,3.3,4.8,3.3,8.4h-8.3c0-1.5-0.4-2.6-1.1-3.4s-1.7-1.2-2.9-1.2c-2.3,0-3.6,1.5-4,4.4c-0.1,0.9-0.2,2.2-0.2,3.8
		c0,2.9,0.3,4.9,1,6S596.9,84.3,598.4,84.3z"/>
	<path d="M626.6,80.7h-2.7v10H615V62.1h8.9v10.3h2.6l4.5-10.3h11.4l-8.3,13.2l0,0l9.1,15.3h-12L626.6,80.7z"/>
	<path d="M646,90.6V62.1h12.2c3.9,0,6.9,0.7,9,2.1c2.1,1.4,3.1,3.3,3.1,5.9c0,1.3-0.5,2.5-1.4,3.5s-2.2,1.9-4,2.4
		c2.3,0.4,4,1.1,5.2,2.3s1.8,2.5,1.8,4.2c0,2.7-1,4.7-3,6.1s-5,2.1-8.8,2.1L646,90.6L646,90.6z M654.9,73.5h3.7
		c1.1,0,1.8-0.2,2.3-0.5s0.6-0.9,0.6-1.6c0-0.9-0.3-1.6-0.8-1.9s-1.3-0.6-2.5-0.6h-3.3V73.5z M654.9,79v4.8h5.2
		c1.1,0,1.9-0.2,2.4-0.6s0.7-1,0.7-1.8c0-1.6-0.9-2.4-2.7-2.5L654.9,79L654.9,79z"/>
	<path d="M689.5,91.2c-4.4,0-7.9-1.3-10.6-3.9c-2.7-2.6-4.1-6-4.1-10.2v-0.7c0-2.9,0.5-5.5,1.6-7.7s2.7-4,4.7-5.2
		c2.1-1.2,4.5-1.8,7.4-1.8c4,0,7.2,1.2,9.5,3.7c2.3,2.5,3.5,6,3.5,10.4v3.5h-17.7c0.3,1.6,1,2.9,2.1,3.8s2.5,1.4,4.2,1.4
		c2.8,0,5-1,6.6-3l4.1,4.8c-1.1,1.5-2.7,2.7-4.7,3.7C694,90.7,691.8,91.2,689.5,91.2z M688.5,68.4c-2.6,0-4.1,1.7-4.6,5.2h9v-0.7
		c0-1.4-0.3-2.5-1.1-3.3S689.9,68.4,688.5,68.4z"/>
	<path d="M710.6,61c1.4,0,2.6,0.4,3.5,1.3s1.4,1.9,1.4,3.2s-0.5,2.4-1.4,3.2c-0.9,0.8-2.1,1.3-3.5,1.3s-2.6-0.4-3.5-1.3
		c-0.9-0.8-1.4-1.9-1.4-3.2s0.5-2.3,1.4-3.2C708,61.4,709.2,61,710.6,61z M710.6,82c1.4,0,2.6,0.4,3.5,1.3s1.4,1.9,1.4,3.2
		s-0.5,2.4-1.4,3.2c-0.9,0.8-2.1,1.3-3.5,1.3s-2.6-0.4-3.5-1.3c-0.9-0.8-1.4-1.9-1.4-3.2s0.5-2.3,1.4-3.2
		C708,82.4,709.2,82,710.6,82z"/>
</g>
<g class="st2">
	<path d="M491,116.1h8.9v28.5H491V128l-7.8,16.6h-8.9v-28.5h8.9v16.6L491,116.1z"/>
	<path class="st3" d="M532.9,124.7c0-1.9-1-2.8-3-2.8c-2.3,0-3.4,0.8-3.4,2.5h-8.9c0-2.6,1.1-4.7,3.3-6.3c2.2-1.6,5-2.5,8.5-2.5
		c3.8,0,6.9,0.7,9.1,2.2c2.2,1.5,3.3,3.5,3.3,6.1c0,1.3-0.4,2.4-1.1,3.5s-1.8,1.9-3.2,2.5c3.3,1.1,4.9,3.3,4.9,6.6
		c0,2.6-1.2,4.7-3.5,6.2s-5.5,2.3-9.4,2.3c-3.6,0-6.5-0.8-8.8-2.4c-2.3-1.6-3.4-3.8-3.4-6.5h8.9c0,0.7,0.3,1.3,0.9,1.9
		s1.6,0.8,3,0.8c1.1,0,2-0.3,2.6-0.8s0.9-1.3,0.9-2.2c0-2-1.1-3.1-3.4-3.2h-4v-5.2h3.6C531.8,127.5,532.9,126.6,532.9,124.7z"/>
	<path class="st3" d="M562.1,144.6c-0.3-0.6-0.6-1.4-0.8-2.6c-1.6,2.1-3.9,3.1-6.9,3.1c-2.7,0-5-0.8-6.9-2.4
		c-1.9-1.6-2.8-3.7-2.8-6.1c0-3.1,1.1-5.4,3.4-7s5.6-2.4,10-2.4h2.7v-1.5c0-2.6-1.1-3.9-3.4-3.9c-2.1,0-3.2,1-3.2,3.1h-8.9
		c0-2.8,1.2-5,3.5-6.7s5.3-2.6,9-2.6s6.5,0.9,8.6,2.7s3.2,4.2,3.2,7.3v12.6c0,2.6,0.4,4.6,1.2,6v0.4H562.1z M556.6,138.8
		c1.1,0,2-0.2,2.8-0.7s1.3-1,1.6-1.6V132h-2.6c-3.1,0-4.6,1.4-4.6,4.2c0,0.8,0.3,1.5,0.8,2C555,138.6,555.7,138.8,556.6,138.8z"/>
	<path class="st3" d="M589.7,117.7c3.7,0,6.7,1.2,8.9,3.7c2.2,2.4,3.3,5.8,3.3,10v0.4c0,2.7-0.6,5-1.7,7.1s-2.7,3.6-4.8,4.7
		c-2.1,1.1-4.5,1.7-7.3,1.7c-4.2,0-7.6-1.4-10.1-4.1c-2.5-2.7-3.8-6.4-3.8-11.2v-0.8c0-6.5,1.1-11.6,3.2-15.3s5.3-6.1,9.7-7
		c2-0.4,3.2-0.9,3.8-1.3s0.9-1.1,0.9-1.9h7.1c0,2.2-0.3,3.9-1,5s-1.8,2.1-3.2,2.8c-1.5,0.7-3.5,1.4-6.2,1.9
		c-2.1,0.4-3.7,1.2-4.8,2.5s-1.9,3-2.3,5.3C583.9,118.8,586.6,117.7,589.7,117.7z M588,124.6c-3.3,0-4.9,2.2-4.9,6.8v0.4
		c0,4.4,1.6,6.6,4.9,6.6c3.2,0,4.8-2.1,4.9-6.3v-0.8C593,126.8,591.3,124.6,588,124.6z"/>
	<path class="st3" d="M604.8,130.1c0-2.8,0.6-5.4,1.7-7.6s2.7-3.9,4.8-5.1s4.5-1.8,7.3-1.8c4.3,0,7.6,1.3,10.1,4s3.7,6.2,3.7,10.8
		v0.3c0,4.4-1.2,8-3.7,10.6s-5.8,3.9-10,3.9c-4.1,0-7.3-1.2-9.8-3.7c-2.5-2.4-3.8-5.7-4-9.9L604.8,130.1z M613.7,130.7
		c0,2.6,0.4,4.6,1.2,5.8s2,1.8,3.7,1.8c3.2,0,4.8-2.4,4.9-7.3v-0.9c0-5.1-1.6-7.7-4.9-7.7c-3,0-4.6,2.2-4.8,6.6L613.7,130.7z"/>
	<path class="st3" d="M661.3,116.1v28.5h-8.9V123h-5.3l-0.5,8.7c-0.3,4.3-1.3,7.6-2.9,9.7s-4,3.2-7.2,3.2h-2.8l-0.1-6.8l0.9-0.1
		c1.2-0.1,2.1-0.9,2.6-2.4c0.6-1.4,0.9-3.6,1.1-6.5l0.6-12.8h22.5V116.1z"/>
	<path class="st3" d="M679.9,145.2c-4.4,0-7.9-1.3-10.6-3.9c-2.7-2.6-4.1-6-4.1-10.2v-0.7c0-2.9,0.5-5.5,1.6-7.7s2.7-4,4.7-5.2
		c2.1-1.2,4.5-1.8,7.4-1.8c4,0,7.2,1.2,9.5,3.7s3.5,6,3.5,10.4v3.5h-17.7c0.3,1.6,1,2.9,2.1,3.8s2.5,1.4,4.2,1.4c2.8,0,5-1,6.6-3
		l4.1,4.8c-1.1,1.5-2.7,2.7-4.7,3.7C684.5,144.7,682.3,145.2,679.9,145.2z M678.9,122.4c-2.6,0-4.1,1.7-4.6,5.2h9v-0.7
		c0-1.4-0.3-2.5-1.1-3.3S680.3,122.4,678.9,122.4z"/>
	<path class="st3" d="M696.1,144.6v-28.5h12.2c3.9,0,6.9,0.7,9,2.1s3.1,3.3,3.1,5.9c0,1.3-0.5,2.5-1.4,3.5s-2.2,1.9-4,2.4
		c2.3,0.4,4,1.1,5.2,2.3s1.8,2.5,1.8,4.2c0,2.7-1,4.7-3,6.1c-2,1.4-5,2.1-8.8,2.1h-14.1V144.6z M705,127.5h3.7
		c1.1,0,1.8-0.2,2.3-0.5s0.6-0.9,0.6-1.6c0-0.9-0.3-1.6-0.8-1.9s-1.3-0.6-2.5-0.6H705V127.5z M705,133v4.8h5.2
		c1.1,0,1.9-0.2,2.4-0.6s0.7-1,0.7-1.8c0-1.6-0.9-2.4-2.7-2.5H705V133z"/>
	<path class="st3" d="M741.9,144.6c-0.3-0.6-0.6-1.4-0.8-2.6c-1.6,2.1-3.9,3.1-6.9,3.1c-2.7,0-5-0.8-6.9-2.4
		c-1.9-1.6-2.8-3.7-2.8-6.1c0-3.1,1.1-5.4,3.4-7s5.6-2.4,10-2.4h2.7v-1.5c0-2.6-1.1-3.9-3.4-3.9c-2.1,0-3.2,1-3.2,3.1h-8.9
		c0-2.8,1.2-5,3.5-6.7s5.3-2.6,9-2.6s6.5,0.9,8.6,2.7s3.2,4.2,3.2,7.3v12.6c0,2.6,0.4,4.6,1.2,6v0.4H741.9z M736.4,138.8
		c1.1,0,2-0.2,2.8-0.7s1.3-1,1.6-1.6V132h-2.6c-3.1,0-4.6,1.4-4.6,4.2c0,0.8,0.3,1.5,0.8,2C734.8,138.6,735.5,138.8,736.4,138.8z"/>
	<path class="st3" d="M768.3,145.2c-4.4,0-7.9-1.3-10.6-3.9c-2.7-2.6-4.1-6-4.1-10.2v-0.7c0-2.9,0.5-5.5,1.6-7.7s2.7-4,4.7-5.2
		c2.1-1.2,4.5-1.8,7.4-1.8c4,0,7.2,1.2,9.5,3.7s3.5,6,3.5,10.4v3.5h-17.7c0.3,1.6,1,2.9,2.1,3.8s2.5,1.4,4.2,1.4c2.8,0,5-1,6.6-3
		l4.1,4.8c-1.1,1.5-2.7,2.7-4.7,3.7C772.8,144.7,770.7,145.2,768.3,145.2z M767.3,122.4c-2.6,0-4.1,1.7-4.6,5.2h9v-0.7
		c0-1.4-0.3-2.5-1.1-3.3S768.7,122.4,767.3,122.4z"/>
	<path class="st3" d="M801.8,134.8l6.5-18.7h11.2v28.5h-8.9v-15.8l-5.7,15.8H799l-5.4-15v15h-8.9v-28.5h10.9L801.8,134.8z"/>
	<path class="st3" d="M824.2,130.1c0-2.8,0.6-5.4,1.7-7.6s2.7-3.9,4.8-5.1s4.5-1.8,7.3-1.8c4.3,0,7.6,1.3,10.1,4s3.7,6.2,3.7,10.8
		v0.3c0,4.4-1.2,8-3.7,10.6s-5.8,3.9-10,3.9c-4.1,0-7.3-1.2-9.8-3.7c-2.5-2.4-3.8-5.7-4-9.9L824.2,130.1z M833.1,130.7
		c0,2.6,0.4,4.6,1.2,5.8s2,1.8,3.7,1.8c3.2,0,4.8-2.4,4.9-7.3v-0.9c0-5.1-1.6-7.7-4.9-7.7c-3,0-4.6,2.2-4.8,6.6L833.1,130.7z"/>
	<path class="st3" d="M867.8,138.3c1.2,0,2.2-0.3,2.9-1s1-1.6,1-2.8h8.3c0,3.1-1.1,5.7-3.4,7.7c-2.2,2-5.1,3-8.7,3
		c-4.1,0-7.4-1.3-9.8-3.9s-3.6-6.2-3.6-10.8v-0.4c0-2.9,0.5-5.4,1.6-7.6s2.6-3.9,4.6-5.1s4.4-1.8,7.1-1.8c3.7,0,6.7,1,8.8,3.1
		s3.3,4.8,3.3,8.4h-8.3c0-1.5-0.4-2.6-1.1-3.4s-1.7-1.2-2.9-1.2c-2.3,0-3.6,1.5-4,4.4c-0.1,0.9-0.2,2.2-0.2,3.8c0,2.9,0.3,4.9,1,6
		S866.3,138.3,867.8,138.3z"/>
	<path class="st3" d="M908.7,122.9h-9v21.7h-8.9v-21.7h-8.9v-6.8h26.8L908.7,122.9L908.7,122.9z"/>
	<path class="st3" d="M921.6,124h4.6c2.6,0,5,0.4,7,1.3s3.5,2.1,4.6,3.7c1.1,1.6,1.6,3.4,1.6,5.5c0,3.1-1.2,5.6-3.6,7.4
		c-2.4,1.9-5.6,2.8-9.7,2.8h-13.3v-28.5h8.9L921.6,124L921.6,124z M921.6,130.8v7h4.5c1.4,0,2.4-0.3,3.2-0.9
		c0.8-0.6,1.1-1.5,1.1-2.5c0-1.1-0.3-1.9-1-2.6c-0.7-0.7-1.8-1-3.3-1H921.6z"/>
</g>
<path class="st4" d="M72.5,123H61.2v21.7h-8.9v-28.5h20.1L72.5,123L72.5,123z"/>
<path class="st4" d="M73.4,130.1c0-2.8,0.6-5.4,1.7-7.6s2.7-3.9,4.8-5.1c2.1-1.2,4.5-1.8,7.3-1.8c4.3,0,7.6,1.3,10.1,4
	c2.5,2.6,3.7,6.2,3.7,10.8v0.3c0,4.4-1.2,8-3.7,10.6s-5.8,3.9-10,3.9c-4.1,0-7.3-1.2-9.8-3.7c-2.5-2.4-3.8-5.7-4-9.9L73.4,130.1z
	 M82.3,130.7c0,2.6,0.4,4.6,1.2,5.8c0.8,1.2,2,1.8,3.7,1.8c3.2,0,4.8-2.4,4.9-7.3v-0.9c0-5.1-1.6-7.7-4.9-7.7c-3,0-4.6,2.2-4.8,6.6
	L82.3,130.7z"/>
<path class="st4" d="M116.9,138.3c1.2,0,2.2-0.3,2.9-1c0.7-0.7,1-1.6,1-2.8h8.3c0,3.1-1.1,5.7-3.4,7.7s-5.1,3-8.7,3
	c-4.1,0-7.4-1.3-9.8-3.9c-2.4-2.6-3.6-6.2-3.6-10.8v-0.4c0-2.9,0.5-5.4,1.6-7.6s2.6-3.9,4.6-5.1s4.4-1.8,7.1-1.8
	c3.7,0,6.7,1,8.8,3.1c2.2,2.1,3.3,4.8,3.3,8.4h-8.3c0-1.5-0.4-2.6-1.1-3.4s-1.7-1.2-2.9-1.2c-2.3,0-3.6,1.5-4,4.4
	c-0.1,0.9-0.2,2.2-0.2,3.8c0,2.9,0.3,4.9,1,6S115.5,138.3,116.9,138.3z"/>
<path class="st4" d="M158.4,144.6h-8.9V123h-7.9v21.7h-8.9v-28.5h25.7L158.4,144.6L158.4,144.6z"/>
<path class="st4" d="M179.8,116.1h8.9v28.5h-8.9V128l-7.8,16.6h-9v-28.5h8.9v16.6L179.8,116.1z"/>
<path class="st4" d="M218.5,122.9h-9v21.7h-8.9v-21.7h-8.9v-6.8h26.8L218.5,122.9L218.5,122.9z"/>
<path class="st4" d="M237.4,144.6c-0.3-0.6-0.6-1.4-0.8-2.6c-1.6,2.1-3.9,3.1-6.9,3.1c-2.7,0-5-0.8-6.9-2.4
	c-1.9-1.6-2.8-3.7-2.8-6.1c0-3.1,1.1-5.4,3.4-7c2.3-1.6,5.6-2.4,10-2.4h2.7v-1.5c0-2.6-1.1-3.9-3.4-3.9c-2.1,0-3.2,1-3.2,3.1h-8.9
	c0-2.8,1.2-5,3.5-6.7s5.3-2.6,9-2.6s6.5,0.9,8.6,2.7s3.2,4.2,3.2,7.3v12.6c0,2.6,0.4,4.6,1.2,6v0.4H237.4z M231.9,138.8
	c1.1,0,2-0.2,2.8-0.7c0.7-0.5,1.3-1,1.6-1.6V132h-2.6c-3.1,0-4.6,1.4-4.6,4.2c0,0.8,0.3,1.5,0.8,2
	C230.3,138.6,231,138.8,231.9,138.8z"/>
<path class="st4" d="M275.5,116.1v28.5h-8.9V123h-5.3l-0.5,8.7c-0.3,4.3-1.3,7.6-2.9,9.7c-1.6,2.1-4,3.2-7.2,3.2h-2.8l-0.1-6.8
	l0.9-0.1c1.2-0.1,2.1-0.9,2.6-2.4c0.6-1.4,0.9-3.6,1.1-6.5L253,116h22.5V116.1z"/>
<path class="st4" d="M296.9,116.1h8.9v28.5h-8.9V128l-7.8,16.6h-8.9v-28.5h8.9v16.6L296.9,116.1z"/>
<path class="st4" d="M325.4,124.7c0-1.9-1-2.8-3-2.8c-2.3,0-3.4,0.8-3.4,2.5h-8.9c0-2.6,1.1-4.7,3.3-6.3c2.2-1.6,5-2.5,8.5-2.5
	c3.8,0,6.9,0.7,9.1,2.2s3.3,3.5,3.3,6.1c0,1.3-0.4,2.4-1.1,3.5s-1.8,1.9-3.2,2.5c3.3,1.1,4.9,3.3,4.9,6.6c0,2.6-1.2,4.7-3.5,6.2
	s-5.5,2.3-9.4,2.3c-3.6,0-6.5-0.8-8.8-2.4c-2.3-1.6-3.4-3.8-3.4-6.5h8.9c0,0.7,0.3,1.3,0.9,1.9c0.6,0.5,1.6,0.8,3,0.8
	c1.1,0,2-0.3,2.6-0.8s0.9-1.3,0.9-2.2c0-2-1.1-3.1-3.4-3.2h-4v-5.2h3.6C324.3,127.5,325.4,126.6,325.4,124.7z"/>
<path class="st4" d="M354.6,144.6c-0.3-0.6-0.6-1.4-0.8-2.6c-1.6,2.1-3.9,3.1-6.9,3.1c-2.7,0-5-0.8-6.9-2.4
	c-1.9-1.6-2.8-3.7-2.8-6.1c0-3.1,1.1-5.4,3.4-7s5.6-2.4,10-2.4h2.7v-1.5c0-2.6-1.1-3.9-3.4-3.9c-2.1,0-3.2,1-3.2,3.1h-8.9
	c0-2.8,1.2-5,3.5-6.7s5.3-2.6,9-2.6s6.5,0.9,8.6,2.7s3.2,4.2,3.2,7.3v12.6c0,2.6,0.4,4.6,1.2,6v0.4H354.6z M349,138.8
	c1.1,0,2-0.2,2.8-0.7c0.7-0.5,1.3-1,1.6-1.6V132h-2.6c-3.1,0-4.6,1.4-4.6,4.2c0,0.8,0.3,1.5,0.8,2
	C347.5,138.6,348.2,138.8,349,138.8z"/>
<path class="st4" d="M367,116.1h8.9v21.7h7.9v-21.7h8.9v21.7h4.7l-0.5,15.3h-8.4v-8.5H367V116.1z"/>
<path class="st4" d="M417,116.1h8.9v28.5H417V128l-7.8,16.6h-8.9v-28.5h8.9v16.6L417,116.1z"/>
<path class="st4" d="M447.3,116.1h8.9v28.5h-8.9V128l-7.8,16.6h-8.9v-28.5h8.9v16.6L447.3,116.1z"/>
<rect x="714.3" y="949.8" class="st5" width="236" height="16"/>
<text transform="matrix(1 0 0 1 755.1472 964.8278)" class="st6 st7">Источник: Оперштаб</text>
<rect x="977.3" y="474.1" class="st5" width="0" height="2.2"/>
<g>
	<path d="M99.3,878.6c0-1.5-0.2-2.6-0.7-3.3c-0.4-0.7-1.1-1-2-1s-1.6,0.4-2,1c-0.4,0.7-0.6,1.8-0.7,3.2v2.9c0,1.5,0.2,2.7,0.7,3.4
		c0.4,0.7,1.1,1.1,2,1.1s1.6-0.4,2-1s0.7-1.8,0.7-3.3V878.6z M101.1,881c0,2.1-0.4,3.7-1.1,4.7s-1.9,1.5-3.4,1.5s-2.6-0.5-3.4-1.5
		c-0.7-1-1.1-2.5-1.1-4.5v-2.4c0-2.1,0.4-3.7,1.1-4.7s1.8-1.5,3.4-1.5c1.5,0,2.7,0.5,3.4,1.5c0.7,1,1.1,2.5,1.1,4.5V881z"/>
	<path d="M99.3,798.6c0-1.5-0.2-2.6-0.7-3.3c-0.4-0.7-1.1-1-2-1s-1.6,0.4-2,1c-0.4,0.7-0.6,1.8-0.7,3.2v2.9c0,1.5,0.2,2.7,0.7,3.4
		c0.4,0.7,1.1,1.1,2,1.1s1.6-0.4,2-1s0.7-1.8,0.7-3.3V798.6z M101.1,801c0,2.1-0.4,3.7-1.1,4.7s-1.9,1.5-3.4,1.5s-2.6-0.5-3.4-1.5
		c-0.7-1-1.1-2.5-1.1-4.5v-2.4c0-2.1,0.4-3.7,1.1-4.7s1.8-1.5,3.4-1.5c1.5,0,2.7,0.5,3.4,1.5c0.7,1,1.1,2.5,1.1,4.5V801z
		 M88.1,798.6c0-1.5-0.2-2.6-0.7-3.3c-0.4-0.7-1.1-1-2-1s-1.6,0.4-2,1c-0.4,0.7-0.6,1.8-0.7,3.2v2.9c0,1.5,0.2,2.7,0.7,3.4
		c0.4,0.7,1.1,1.1,2,1.1s1.6-0.4,2-1s0.7-1.8,0.7-3.3V798.6z M89.9,801c0,2.1-0.4,3.7-1.1,4.7s-1.8,1.5-3.4,1.5
		c-1.5,0-2.6-0.5-3.4-1.5c-0.7-1-1.1-2.5-1.1-4.5v-2.4c0-2.1,0.4-3.7,1.1-4.7s1.9-1.5,3.4-1.5s2.7,0.5,3.4,1.5
		c0.7,1,1.1,2.5,1.1,4.5V801z M76.9,798.6c0-1.5-0.2-2.6-0.7-3.3c-0.4-0.7-1.1-1-2-1s-1.6,0.4-2,1c-0.4,0.7-0.6,1.8-0.7,3.2v2.9
		c0,1.5,0.2,2.7,0.7,3.4c0.4,0.7,1.1,1.1,2,1.1s1.6-0.4,2-1s0.7-1.8,0.7-3.3V798.6z M78.7,801c0,2.1-0.4,3.7-1.1,4.7
		s-1.8,1.5-3.4,1.5c-1.5,0-2.6-0.5-3.4-1.5c-0.7-1-1.1-2.5-1.1-4.5v-2.4c0-2.1,0.4-3.7,1.1-4.7s1.9-1.5,3.4-1.5s2.7,0.5,3.4,1.5
		c0.7,1,1.1,2.5,1.1,4.5V801z M64.5,807.1h-1.8v-12l-3.6,1.3v-1.6l5.2-2h0.3v14.3H64.5z"/>
	<path d="M99.3,718.6c0-1.5-0.2-2.6-0.7-3.3c-0.4-0.7-1.1-1-2-1s-1.6,0.4-2,1c-0.4,0.7-0.6,1.8-0.7,3.2v2.9c0,1.5,0.2,2.7,0.7,3.4
		c0.4,0.7,1.1,1.1,2,1.1s1.6-0.3,2-1s0.7-1.8,0.7-3.3V718.6z M101.1,721c0,2.1-0.4,3.7-1.1,4.7s-1.9,1.5-3.4,1.5s-2.6-0.5-3.4-1.5
		c-0.7-1-1.1-2.5-1.1-4.5v-2.4c0-2.1,0.4-3.7,1.1-4.7s1.8-1.5,3.4-1.5c1.5,0,2.7,0.5,3.4,1.5c0.7,1,1.1,2.5,1.1,4.5V721z
		 M88.1,718.6c0-1.5-0.2-2.6-0.7-3.3c-0.4-0.7-1.1-1-2-1s-1.6,0.4-2,1c-0.4,0.7-0.6,1.8-0.7,3.2v2.9c0,1.5,0.2,2.7,0.7,3.4
		c0.4,0.7,1.1,1.1,2,1.1s1.6-0.3,2-1s0.7-1.8,0.7-3.3V718.6z M89.9,721c0,2.1-0.4,3.7-1.1,4.7s-1.8,1.5-3.4,1.5
		c-1.5,0-2.6-0.5-3.4-1.5c-0.7-1-1.1-2.5-1.1-4.5v-2.4c0-2.1,0.4-3.7,1.1-4.7s1.9-1.5,3.4-1.5s2.7,0.5,3.4,1.5
		c0.7,1,1.1,2.5,1.1,4.5V721z M76.9,718.6c0-1.5-0.2-2.6-0.7-3.3c-0.4-0.7-1.1-1-2-1s-1.6,0.4-2,1c-0.4,0.7-0.6,1.8-0.7,3.2v2.9
		c0,1.5,0.2,2.7,0.7,3.4c0.4,0.7,1.1,1.1,2,1.1s1.6-0.3,2-1s0.7-1.8,0.7-3.3V718.6z M78.7,721c0,2.1-0.4,3.7-1.1,4.7
		s-1.8,1.5-3.4,1.5c-1.5,0-2.6-0.5-3.4-1.5c-0.7-1-1.1-2.5-1.1-4.5v-2.4c0-2.1,0.4-3.7,1.1-4.7s1.9-1.5,3.4-1.5s2.7,0.5,3.4,1.5
		c0.7,1,1.1,2.5,1.1,4.5V721z M67.8,727.1h-9.3v-1.3l4.9-5.5c0.7-0.8,1.2-1.5,1.5-2s0.4-1.1,0.4-1.6c0-0.7-0.2-1.3-0.7-1.8
		c-0.4-0.5-1-0.7-1.8-0.7c-0.9,0-1.6,0.3-2.1,0.8s-0.8,1.2-0.8,2.1h-1.8c0-1.3,0.4-2.4,1.3-3.2c0.8-0.8,2-1.2,3.4-1.2
		c1.3,0,2.4,0.3,3.1,1c0.8,0.7,1.2,1.6,1.2,2.8c0,1.4-0.9,3.1-2.7,5l-3.8,4.1h7.1L67.8,727.1L67.8,727.1z"/>
	<path d="M99.3,638.6c0-1.5-0.2-2.6-0.7-3.3c-0.4-0.7-1.1-1-2-1s-1.6,0.4-2,1c-0.4,0.7-0.6,1.8-0.7,3.2v2.9c0,1.5,0.2,2.7,0.7,3.4
		c0.4,0.7,1.1,1.1,2,1.1s1.6-0.3,2-1s0.7-1.8,0.7-3.3V638.6z M101.1,641c0,2.1-0.4,3.7-1.1,4.7s-1.9,1.5-3.4,1.5s-2.6-0.5-3.4-1.5
		c-0.7-1-1.1-2.5-1.1-4.5v-2.4c0-2.1,0.4-3.7,1.1-4.7s1.8-1.5,3.4-1.5c1.5,0,2.7,0.5,3.4,1.5c0.7,1,1.1,2.5,1.1,4.5V641z
		 M88.1,638.6c0-1.5-0.2-2.6-0.7-3.3c-0.4-0.7-1.1-1-2-1s-1.6,0.4-2,1c-0.4,0.7-0.6,1.8-0.7,3.2v2.9c0,1.5,0.2,2.7,0.7,3.4
		c0.4,0.7,1.1,1.1,2,1.1s1.6-0.3,2-1s0.7-1.8,0.7-3.3V638.6z M89.9,641c0,2.1-0.4,3.7-1.1,4.7s-1.8,1.5-3.4,1.5
		c-1.5,0-2.6-0.5-3.4-1.5c-0.7-1-1.1-2.5-1.1-4.5v-2.4c0-2.1,0.4-3.7,1.1-4.7s1.9-1.5,3.4-1.5s2.7,0.5,3.4,1.5
		c0.7,1,1.1,2.5,1.1,4.5V641z M76.9,638.6c0-1.5-0.2-2.6-0.7-3.3c-0.4-0.7-1.1-1-2-1s-1.6,0.4-2,1c-0.4,0.7-0.6,1.8-0.7,3.2v2.9
		c0,1.5,0.2,2.7,0.7,3.4c0.4,0.7,1.1,1.1,2,1.1s1.6-0.3,2-1s0.7-1.8,0.7-3.3V638.6z M78.7,641c0,2.1-0.4,3.7-1.1,4.7
		s-1.8,1.5-3.4,1.5c-1.5,0-2.6-0.5-3.4-1.5c-0.7-1-1.1-2.5-1.1-4.5v-2.4c0-2.1,0.4-3.7,1.1-4.7s1.9-1.5,3.4-1.5s2.7,0.5,3.4,1.5
		c0.7,1,1.1,2.5,1.1,4.5V641z M61.2,639.1h1.3c0.9,0,1.5-0.2,2-0.7c0.5-0.4,0.7-1,0.7-1.8c0-1.7-0.8-2.5-2.5-2.5
		c-0.8,0-1.4,0.2-1.9,0.7c-0.5,0.4-0.7,1-0.7,1.8h-1.8c0-1.1,0.4-2.1,1.2-2.8s1.9-1.1,3.1-1.1c1.3,0,2.4,0.3,3.1,1.1
		c0.8,0.7,1.1,1.7,1.1,3c0,0.6-0.2,1.2-0.6,1.8s-0.9,1-1.6,1.3c0.8,0.2,1.4,0.7,1.8,1.2c0.4,0.6,0.6,1.3,0.6,2.1
		c0,1.3-0.4,2.3-1.2,3c-0.8,0.8-1.9,1.1-3.2,1.1s-2.4-0.4-3.3-1.1c-0.8-0.7-1.3-1.7-1.3-2.9h1.8c0,0.8,0.2,1.3,0.7,1.8
		c0.5,0.4,1.1,0.7,2,0.7s1.5-0.2,2-0.7s0.7-1.1,0.7-2c0-0.8-0.2-1.5-0.8-1.9c-0.5-0.4-1.2-0.7-2.2-0.7h-1.3v-1.4H61.2z"/>
	<path d="M99.3,558.6c0-1.5-0.2-2.6-0.7-3.3c-0.4-0.7-1.1-1-2-1s-1.6,0.4-2,1c-0.4,0.7-0.6,1.8-0.7,3.2v2.9c0,1.5,0.2,2.7,0.7,3.4
		c0.4,0.7,1.1,1.1,2,1.1s1.6-0.3,2-1s0.7-1.8,0.7-3.3V558.6z M101.1,561c0,2.1-0.4,3.7-1.1,4.7s-1.9,1.5-3.4,1.5s-2.6-0.5-3.4-1.5
		c-0.7-1-1.1-2.5-1.1-4.5v-2.4c0-2.1,0.4-3.7,1.1-4.7s1.8-1.5,3.4-1.5c1.5,0,2.7,0.5,3.4,1.5c0.7,1,1.1,2.5,1.1,4.5V561z
		 M88.1,558.6c0-1.5-0.2-2.6-0.7-3.3c-0.4-0.7-1.1-1-2-1s-1.6,0.4-2,1c-0.4,0.7-0.6,1.8-0.7,3.2v2.9c0,1.5,0.2,2.7,0.7,3.4
		c0.4,0.7,1.1,1.1,2,1.1s1.6-0.3,2-1s0.7-1.8,0.7-3.3V558.6z M89.9,561c0,2.1-0.4,3.7-1.1,4.7s-1.8,1.5-3.4,1.5
		c-1.5,0-2.6-0.5-3.4-1.5c-0.7-1-1.1-2.5-1.1-4.5v-2.4c0-2.1,0.4-3.7,1.1-4.7s1.9-1.5,3.4-1.5s2.7,0.5,3.4,1.5
		c0.7,1,1.1,2.5,1.1,4.5V561z M76.9,558.6c0-1.5-0.2-2.6-0.7-3.3c-0.4-0.7-1.1-1-2-1s-1.6,0.4-2,1c-0.4,0.7-0.6,1.8-0.7,3.2v2.9
		c0,1.5,0.2,2.7,0.7,3.4c0.4,0.7,1.1,1.1,2,1.1s1.6-0.3,2-1s0.7-1.8,0.7-3.3V558.6z M78.7,561c0,2.1-0.4,3.7-1.1,4.7
		s-1.8,1.5-3.4,1.5c-1.5,0-2.6-0.5-3.4-1.5c-0.7-1-1.1-2.5-1.1-4.5v-2.4c0-2.1,0.4-3.7,1.1-4.7s1.9-1.5,3.4-1.5s2.7,0.5,3.4,1.5
		c0.7,1,1.1,2.5,1.1,4.5V561z M59.9,562.3h4.4v-7l-0.2,0.4L59.9,562.3z M66.2,562.3h2v1.5h-2v3.3h-1.8v-3.3h-6.5v-1.1l6.4-9.8h1.9
		V562.3z"/>
	<path d="M99.3,478.6c0-1.5-0.2-2.6-0.7-3.3c-0.4-0.7-1.1-1-2-1s-1.6,0.4-2,1c-0.4,0.7-0.6,1.8-0.7,3.2v2.9c0,1.5,0.2,2.7,0.7,3.4
		c0.4,0.7,1.1,1.1,2,1.1s1.6-0.4,2-1s0.7-1.8,0.7-3.3V478.6z M101.1,481c0,2.1-0.4,3.7-1.1,4.7s-1.9,1.5-3.4,1.5s-2.6-0.5-3.4-1.5
		c-0.7-1-1.1-2.5-1.1-4.5v-2.4c0-2.1,0.4-3.7,1.1-4.7s1.8-1.5,3.4-1.5c1.5,0,2.7,0.5,3.4,1.5c0.7,1,1.1,2.5,1.1,4.5V481z
		 M88.1,478.6c0-1.5-0.2-2.6-0.7-3.3c-0.4-0.7-1.1-1-2-1s-1.6,0.4-2,1c-0.4,0.7-0.6,1.8-0.7,3.2v2.9c0,1.5,0.2,2.7,0.7,3.4
		c0.4,0.7,1.1,1.1,2,1.1s1.6-0.4,2-1s0.7-1.8,0.7-3.3V478.6z M89.9,481c0,2.1-0.4,3.7-1.1,4.7s-1.8,1.5-3.4,1.5
		c-1.5,0-2.6-0.5-3.4-1.5c-0.7-1-1.1-2.5-1.1-4.5v-2.4c0-2.1,0.4-3.7,1.1-4.7s1.9-1.5,3.4-1.5s2.7,0.5,3.4,1.5
		c0.7,1,1.1,2.5,1.1,4.5V481z M76.9,478.6c0-1.5-0.2-2.6-0.7-3.3c-0.4-0.7-1.1-1-2-1s-1.6,0.4-2,1c-0.4,0.7-0.6,1.8-0.7,3.2v2.9
		c0,1.5,0.2,2.7,0.7,3.4c0.4,0.7,1.1,1.1,2,1.1s1.6-0.4,2-1s0.7-1.8,0.7-3.3V478.6z M78.7,481c0,2.1-0.4,3.7-1.1,4.7
		s-1.8,1.5-3.4,1.5c-1.5,0-2.6-0.5-3.4-1.5c-0.7-1-1.1-2.5-1.1-4.5v-2.4c0-2.1,0.4-3.7,1.1-4.7s1.9-1.5,3.4-1.5s2.7,0.5,3.4,1.5
		c0.7,1,1.1,2.5,1.1,4.5V481z M59.4,480l0.7-7.1h7.3v1.7h-5.8l-0.4,3.9c0.7-0.4,1.5-0.6,2.4-0.6c1.3,0,2.3,0.4,3.1,1.3
		s1.2,2,1.2,3.5s-0.4,2.6-1.2,3.5c-0.8,0.8-1.9,1.3-3.3,1.3c-1.2,0-2.3-0.3-3.1-1s-1.2-1.7-1.4-2.9h1.7c0.1,0.8,0.4,1.4,0.9,1.8
		s1.1,0.6,1.8,0.6c0.8,0,1.5-0.3,2-0.9s0.7-1.4,0.7-2.4c0-0.9-0.3-1.7-0.8-2.3c-0.5-0.6-1.2-0.9-2.1-0.9c-0.8,0-1.4,0.2-1.9,0.5
		l-0.5,0.4L59.4,480z"/>
	<path d="M99.3,398.6c0-1.5-0.2-2.6-0.7-3.3c-0.4-0.7-1.1-1-2-1s-1.6,0.4-2,1c-0.4,0.7-0.6,1.8-0.7,3.2v2.9c0,1.5,0.2,2.7,0.7,3.4
		c0.4,0.7,1.1,1.1,2,1.1s1.6-0.4,2-1s0.7-1.8,0.7-3.3V398.6z M101.1,401c0,2.1-0.4,3.7-1.1,4.7s-1.9,1.5-3.4,1.5s-2.6-0.5-3.4-1.5
		c-0.7-1-1.1-2.5-1.1-4.5v-2.4c0-2.1,0.4-3.7,1.1-4.7s1.8-1.5,3.4-1.5c1.5,0,2.7,0.5,3.4,1.5c0.7,1,1.1,2.5,1.1,4.5V401z
		 M88.1,398.6c0-1.5-0.2-2.6-0.7-3.3c-0.4-0.7-1.1-1-2-1s-1.6,0.4-2,1c-0.4,0.7-0.6,1.8-0.7,3.2v2.9c0,1.5,0.2,2.7,0.7,3.4
		c0.4,0.7,1.1,1.1,2,1.1s1.6-0.4,2-1s0.7-1.8,0.7-3.3V398.6z M89.9,401c0,2.1-0.4,3.7-1.1,4.7s-1.8,1.5-3.4,1.5
		c-1.5,0-2.6-0.5-3.4-1.5c-0.7-1-1.1-2.5-1.1-4.5v-2.4c0-2.1,0.4-3.7,1.1-4.7s1.9-1.5,3.4-1.5s2.7,0.5,3.4,1.5
		c0.7,1,1.1,2.5,1.1,4.5V401z M76.9,398.6c0-1.5-0.2-2.6-0.7-3.3c-0.4-0.7-1.1-1-2-1s-1.6,0.4-2,1c-0.4,0.7-0.6,1.8-0.7,3.2v2.9
		c0,1.5,0.2,2.7,0.7,3.4c0.4,0.7,1.1,1.1,2,1.1s1.6-0.4,2-1s0.7-1.8,0.7-3.3V398.6z M78.7,401c0,2.1-0.4,3.7-1.1,4.7
		s-1.8,1.5-3.4,1.5c-1.5,0-2.6-0.5-3.4-1.5c-0.7-1-1.1-2.5-1.1-4.5v-2.4c0-2.1,0.4-3.7,1.1-4.7s1.9-1.5,3.4-1.5s2.7,0.5,3.4,1.5
		c0.7,1,1.1,2.5,1.1,4.5V401z M63.2,399.3c-0.6,0-1.2,0.2-1.7,0.6s-0.9,0.8-1.1,1.4v0.7c0,1.2,0.3,2.1,0.8,2.8
		c0.5,0.7,1.2,1.1,2,1.1s1.4-0.3,1.9-0.9s0.7-1.4,0.7-2.3c0-1-0.2-1.8-0.7-2.4C64.7,399.6,64,399.3,63.2,399.3z M65.6,392.9v1.5
		h-0.3c-1.4,0-2.5,0.5-3.4,1.2c-0.8,0.8-1.3,2-1.5,3.4c0.8-0.9,1.8-1.3,3.1-1.3c1.2,0,2.2,0.4,3,1.3c0.7,0.9,1.1,2,1.1,3.4
		c0,1.5-0.4,2.6-1.2,3.5c-0.8,0.9-1.9,1.3-3.2,1.3c-1.4,0-2.5-0.5-3.3-1.6c-0.8-1-1.3-2.4-1.3-4V401c0-2.6,0.5-4.6,1.7-6
		c1.1-1.4,2.8-2.1,5-2.1H65.6z"/>
	<path d="M99.3,318.6c0-1.5-0.2-2.6-0.7-3.3c-0.4-0.7-1.1-1-2-1s-1.6,0.4-2,1c-0.4,0.7-0.6,1.8-0.7,3.2v2.9c0,1.5,0.2,2.7,0.7,3.4
		c0.4,0.7,1.1,1.1,2,1.1s1.6-0.3,2-1s0.7-1.8,0.7-3.3V318.6z M101.1,321c0,2.1-0.4,3.7-1.1,4.7s-1.9,1.5-3.4,1.5s-2.6-0.5-3.4-1.5
		c-0.7-1-1.1-2.5-1.1-4.5v-2.4c0-2.1,0.4-3.7,1.1-4.7s1.8-1.5,3.4-1.5c1.5,0,2.7,0.5,3.4,1.5c0.7,1,1.1,2.5,1.1,4.5V321z
		 M88.1,318.6c0-1.5-0.2-2.6-0.7-3.3c-0.4-0.7-1.1-1-2-1s-1.6,0.4-2,1c-0.4,0.7-0.6,1.8-0.7,3.2v2.9c0,1.5,0.2,2.7,0.7,3.4
		c0.4,0.7,1.1,1.1,2,1.1s1.6-0.3,2-1s0.7-1.8,0.7-3.3V318.6z M89.9,321c0,2.1-0.4,3.7-1.1,4.7s-1.8,1.5-3.4,1.5
		c-1.5,0-2.6-0.5-3.4-1.5c-0.7-1-1.1-2.5-1.1-4.5v-2.4c0-2.1,0.4-3.7,1.1-4.7s1.9-1.5,3.4-1.5s2.7,0.5,3.4,1.5
		c0.7,1,1.1,2.5,1.1,4.5V321z M76.9,318.6c0-1.5-0.2-2.6-0.7-3.3c-0.4-0.7-1.1-1-2-1s-1.6,0.4-2,1c-0.4,0.7-0.6,1.8-0.7,3.2v2.9
		c0,1.5,0.2,2.7,0.7,3.4c0.4,0.7,1.1,1.1,2,1.1s1.6-0.3,2-1s0.7-1.8,0.7-3.3V318.6z M78.7,321c0,2.1-0.4,3.7-1.1,4.7
		s-1.8,1.5-3.4,1.5c-1.5,0-2.6-0.5-3.4-1.5c-0.7-1-1.1-2.5-1.1-4.5v-2.4c0-2.1,0.4-3.7,1.1-4.7s1.9-1.5,3.4-1.5s2.7,0.5,3.4,1.5
		c0.7,1,1.1,2.5,1.1,4.5V321z M67.7,313.9l-5.9,13.2h-1.9l5.9-12.7h-7.7v-1.5h9.6V313.9z"/>
	<path d="M99.3,238.6c0-1.5-0.2-2.6-0.7-3.3c-0.4-0.7-1.1-1-2-1s-1.6,0.4-2,1c-0.4,0.7-0.6,1.8-0.7,3.2v2.9c0,1.5,0.2,2.7,0.7,3.4
		c0.4,0.7,1.1,1.1,2,1.1s1.6-0.3,2-1s0.7-1.8,0.7-3.3V238.6z M101.1,241c0,2.1-0.4,3.7-1.1,4.7s-1.9,1.5-3.4,1.5s-2.6-0.5-3.4-1.5
		c-0.7-1-1.1-2.5-1.1-4.5v-2.4c0-2.1,0.4-3.7,1.1-4.7s1.8-1.5,3.4-1.5c1.5,0,2.7,0.5,3.4,1.5c0.7,1,1.1,2.5,1.1,4.5V241z
		 M88.1,238.6c0-1.5-0.2-2.6-0.7-3.3c-0.4-0.7-1.1-1-2-1s-1.6,0.4-2,1c-0.4,0.7-0.6,1.8-0.7,3.2v2.9c0,1.5,0.2,2.7,0.7,3.4
		c0.4,0.7,1.1,1.1,2,1.1s1.6-0.3,2-1s0.7-1.8,0.7-3.3V238.6z M89.9,241c0,2.1-0.4,3.7-1.1,4.7s-1.8,1.5-3.4,1.5
		c-1.5,0-2.6-0.5-3.4-1.5c-0.7-1-1.1-2.5-1.1-4.5v-2.4c0-2.1,0.4-3.7,1.1-4.7s1.9-1.5,3.4-1.5s2.7,0.5,3.4,1.5
		c0.7,1,1.1,2.5,1.1,4.5V241z M76.9,238.6c0-1.5-0.2-2.6-0.7-3.3c-0.4-0.7-1.1-1-2-1s-1.6,0.4-2,1c-0.4,0.7-0.6,1.8-0.7,3.2v2.9
		c0,1.5,0.2,2.7,0.7,3.4c0.4,0.7,1.1,1.1,2,1.1s1.6-0.3,2-1s0.7-1.8,0.7-3.3V238.6z M78.7,241c0,2.1-0.4,3.7-1.1,4.7
		s-1.8,1.5-3.4,1.5c-1.5,0-2.6-0.5-3.4-1.5c-0.7-1-1.1-2.5-1.1-4.5v-2.4c0-2.1,0.4-3.7,1.1-4.7s1.9-1.5,3.4-1.5s2.7,0.5,3.4,1.5
		c0.7,1,1.1,2.5,1.1,4.5V241z M63,234.2c-0.7,0-1.3,0.2-1.7,0.7c-0.4,0.4-0.7,1-0.7,1.8c0,0.7,0.2,1.3,0.6,1.8
		c0.4,0.5,1,0.7,1.7,0.7s1.3-0.2,1.7-0.7c0.4-0.4,0.6-1,0.6-1.8c0-0.7-0.2-1.3-0.7-1.8C64.2,234.4,63.7,234.2,63,234.2z M65.7,243.2
		c0-0.8-0.3-1.4-0.8-1.9s-1.2-0.8-2-0.8s-1.5,0.2-2,0.7s-0.7,1.1-0.7,1.9c0,0.8,0.2,1.4,0.7,1.9s1.2,0.7,2,0.7c0.9,0,1.5-0.2,2-0.7
		C65.4,244.7,65.7,244,65.7,243.2z M67.2,236.6c0,0.7-0.2,1.3-0.6,1.9c-0.4,0.5-0.9,1-1.5,1.3c0.7,0.3,1.3,0.8,1.8,1.4
		c0.4,0.6,0.7,1.3,0.7,2.1c0,1.2-0.4,2.2-1.2,2.9c-0.8,0.7-1.9,1.1-3.3,1.1c-1.4,0-2.5-0.4-3.3-1.1c-0.8-0.7-1.2-1.7-1.2-2.9
		c0-0.8,0.2-1.5,0.6-2.1c0.4-0.6,1-1.1,1.7-1.4c-0.6-0.3-1.1-0.8-1.5-1.3c-0.4-0.6-0.5-1.2-0.5-1.9c0-1.2,0.4-2.1,1.1-2.8
		c0.8-0.7,1.8-1,3-1c1.2,0,2.3,0.3,3,1C66.8,234.5,67.2,235.4,67.2,236.6z"/>
	<circle class="st8" cx="101.1" cy="880" r="1"/>
	<circle class="st8" cx="109.1" cy="880" r="1"/>
	<circle class="st8" cx="117.1" cy="880" r="1"/>
	<circle class="st8" cx="125.1" cy="880" r="1"/>
	<circle class="st8" cx="133.1" cy="880" r="1"/>
	<circle class="st8" cx="141.1" cy="880" r="1"/>
	<circle class="st8" cx="149.1" cy="880" r="1"/>
	<circle class="st8" cx="157.1" cy="880" r="1"/>
	<circle class="st8" cx="165.1" cy="880" r="1"/>
	<circle class="st8" cx="173.1" cy="880" r="1"/>
	<circle class="st8" cx="181.1" cy="880" r="1"/>
	<circle class="st8" cx="189.1" cy="880" r="1"/>
	<circle class="st8" cx="197.1" cy="880" r="1"/>
	<circle class="st8" cx="205.1" cy="880" r="1"/>
	<circle class="st8" cx="213.1" cy="880" r="1"/>
	<circle class="st8" cx="221.1" cy="880" r="1"/>
	<circle class="st8" cx="229.1" cy="880" r="1"/>
	<circle class="st8" cx="237.1" cy="880" r="1"/>
	<circle class="st8" cx="245.1" cy="880" r="1"/>
	<circle class="st8" cx="253.1" cy="880" r="1"/>
	<circle class="st8" cx="261.1" cy="880" r="1"/>
	<circle class="st8" cx="269.1" cy="880" r="1"/>
	<circle class="st8" cx="277.1" cy="880" r="1"/>
	<circle class="st8" cx="285.1" cy="880" r="1"/>
	<circle class="st8" cx="293.1" cy="880" r="1"/>
	<circle class="st8" cx="301.1" cy="880" r="1"/>
	<circle class="st8" cx="309.1" cy="880" r="1"/>
	<circle class="st8" cx="317.1" cy="880" r="1"/>
	<circle class="st8" cx="325.1" cy="880" r="1"/>
	<circle class="st8" cx="333.1" cy="880" r="1"/>
	<circle class="st8" cx="341.1" cy="880" r="1"/>
	<circle class="st8" cx="349.1" cy="880" r="1"/>
	<circle class="st8" cx="357.1" cy="880" r="1"/>
	<circle class="st8" cx="365.1" cy="880" r="1"/>
	<circle class="st8" cx="373.1" cy="880" r="1"/>
	<circle class="st8" cx="381.1" cy="880" r="1"/>
	<circle class="st8" cx="389.1" cy="880" r="1"/>
	<circle class="st8" cx="397.1" cy="880" r="1"/>
	<circle class="st8" cx="405.1" cy="880" r="1"/>
	<circle class="st8" cx="413.1" cy="880" r="1"/>
	<circle class="st8" cx="421.1" cy="880" r="1"/>
	<circle class="st8" cx="429.1" cy="880" r="1"/>
	<circle class="st8" cx="437.1" cy="880" r="1"/>
	<circle class="st8" cx="445.1" cy="880" r="1"/>
	<circle class="st8" cx="453.1" cy="880" r="1"/>
	<circle class="st8" cx="461.1" cy="880" r="1"/>
	<circle class="st8" cx="469.1" cy="880" r="1"/>
	<circle class="st8" cx="477.1" cy="880" r="1"/>
	<circle class="st8" cx="485.1" cy="880" r="1"/>
	<circle class="st8" cx="493.1" cy="880" r="1"/>
	<circle class="st8" cx="501.1" cy="880" r="1"/>
	<circle class="st8" cx="509.1" cy="880" r="1"/>
	<circle class="st8" cx="517.1" cy="880" r="1"/>
	<circle class="st8" cx="525.1" cy="880" r="1"/>
	<circle class="st8" cx="533.1" cy="880" r="1"/>
	<circle class="st8" cx="541.1" cy="880" r="1"/>
	<circle class="st8" cx="549.1" cy="880" r="1"/>
	<circle class="st8" cx="557.1" cy="880" r="1"/>
	<circle class="st8" cx="565.1" cy="880" r="1"/>
	<circle class="st8" cx="573.1" cy="880" r="1"/>
	<circle class="st8" cx="581.1" cy="880" r="1"/>
	<circle class="st8" cx="589.1" cy="880" r="1"/>
	<circle class="st8" cx="597.1" cy="880" r="1"/>
	<circle class="st8" cx="605.1" cy="880" r="1"/>
	<circle class="st8" cx="613.1" cy="880" r="1"/>
	<circle class="st8" cx="621.1" cy="880" r="1"/>
	<circle class="st8" cx="629.1" cy="880" r="1"/>
	<circle class="st8" cx="637.1" cy="880" r="1"/>
	<circle class="st8" cx="645.1" cy="880" r="1"/>
	<circle class="st8" cx="653.1" cy="880" r="1"/>
	<circle class="st8" cx="661.1" cy="880" r="1"/>
	<circle class="st8" cx="669.1" cy="880" r="1"/>
	<circle class="st8" cx="677.1" cy="880" r="1"/>
	<circle class="st8" cx="685.1" cy="880" r="1"/>
	<circle class="st8" cx="693.1" cy="880" r="1"/>
	<circle class="st8" cx="701.1" cy="880" r="1"/>
	<circle class="st8" cx="709.1" cy="880" r="1"/>
	<circle class="st8" cx="717.1" cy="880" r="1"/>
	<circle class="st8" cx="725.1" cy="880" r="1"/>
	<circle class="st8" cx="733.1" cy="880" r="1"/>
	<circle class="st8" cx="741.1" cy="880" r="1"/>
	<circle class="st8" cx="749.1" cy="880" r="1"/>
	<circle class="st8" cx="757.1" cy="880" r="1"/>
	<circle class="st8" cx="765.1" cy="880" r="1"/>
	<circle class="st8" cx="773.1" cy="880" r="1"/>
	<circle class="st8" cx="781.1" cy="880" r="1"/>
	<circle class="st8" cx="789.1" cy="880" r="1"/>
	<circle class="st8" cx="797.1" cy="880" r="1"/>
	<circle class="st8" cx="805.1" cy="880" r="1"/>
	<circle class="st8" cx="813.1" cy="880" r="1"/>
	<circle class="st8" cx="821.1" cy="880" r="1"/>
	<circle class="st8" cx="829.1" cy="880" r="1"/>
	<circle class="st8" cx="837.1" cy="880" r="1"/>
	<circle class="st8" cx="845.1" cy="880" r="1"/>
	<circle class="st8" cx="853.1" cy="880" r="1"/>
	<circle class="st8" cx="861.1" cy="880" r="1"/>
	<circle class="st8" cx="869.1" cy="880" r="1"/>
	<circle class="st8" cx="877.1" cy="880" r="1"/>
	<circle class="st8" cx="885.1" cy="880" r="1"/>
	<circle class="st8" cx="893.1" cy="880" r="1"/>
	<circle class="st8" cx="901.1" cy="880" r="1"/>
	<circle class="st8" cx="909.1" cy="880" r="1"/>
	<circle class="st8" cx="917.1" cy="880" r="1"/>
	<circle class="st8" cx="925.1" cy="880" r="1"/>
	<circle class="st8" cx="933.1" cy="880" r="1"/>
	<circle class="st8" cx="941.1" cy="880" r="1"/>
	<circle class="st8" cx="109.1" cy="800" r="1"/>
	<circle class="st8" cx="117.1" cy="800" r="1"/>
	<circle class="st8" cx="125.1" cy="800" r="1"/>
	<circle class="st8" cx="133.1" cy="800" r="1"/>
	<circle class="st8" cx="141.1" cy="800" r="1"/>
	<circle class="st8" cx="149.1" cy="800" r="1"/>
	<circle class="st8" cx="157.1" cy="800" r="1"/>
	<circle class="st8" cx="165.1" cy="800" r="1"/>
	<circle class="st8" cx="173.1" cy="800" r="1"/>
	<circle class="st8" cx="181.1" cy="800" r="1"/>
	<circle class="st8" cx="189.1" cy="800" r="1"/>
	<circle class="st8" cx="197.1" cy="800" r="1"/>
	<circle class="st8" cx="205.1" cy="800" r="1"/>
	<circle class="st8" cx="213.1" cy="800" r="1"/>
	<circle class="st8" cx="221.1" cy="800" r="1"/>
	<circle class="st8" cx="229.1" cy="800" r="1"/>
	<circle class="st8" cx="237.1" cy="800" r="1"/>
	<circle class="st8" cx="245.1" cy="800" r="1"/>
	<circle class="st8" cx="253.1" cy="800" r="1"/>
	<circle class="st8" cx="261.1" cy="800" r="1"/>
	<circle class="st8" cx="269.1" cy="800" r="1"/>
	<circle class="st8" cx="277.1" cy="800" r="1"/>
	<circle class="st8" cx="285.1" cy="800" r="1"/>
	<circle class="st8" cx="293.1" cy="800" r="1"/>
	<circle class="st8" cx="301.1" cy="800" r="1"/>
	<circle class="st8" cx="309.1" cy="800" r="1"/>
	<circle class="st8" cx="317.1" cy="800" r="1"/>
	<circle class="st8" cx="325.1" cy="800" r="1"/>
	<circle class="st8" cx="333.1" cy="800" r="1"/>
	<circle class="st8" cx="341.1" cy="800" r="1"/>
	<circle class="st8" cx="349.1" cy="800" r="1"/>
	<circle class="st8" cx="357.1" cy="800" r="1"/>
	<circle class="st8" cx="365.1" cy="800" r="1"/>
	<circle class="st8" cx="373.1" cy="800" r="1"/>
	<circle class="st8" cx="381.1" cy="800" r="1"/>
	<circle class="st8" cx="389.1" cy="800" r="1"/>
	<circle class="st8" cx="397.1" cy="800" r="1"/>
	<circle class="st8" cx="405.1" cy="800" r="1"/>
	<circle class="st8" cx="413.1" cy="800" r="1"/>
	<circle class="st8" cx="421.1" cy="800" r="1"/>
	<circle class="st8" cx="429.1" cy="800" r="1"/>
	<circle class="st8" cx="437.1" cy="800" r="1"/>
	<circle class="st8" cx="445.1" cy="800" r="1"/>
	<circle class="st8" cx="453.1" cy="800" r="1"/>
	<circle class="st8" cx="461.1" cy="800" r="1"/>
	<circle class="st8" cx="469.1" cy="800" r="1"/>
	<circle class="st8" cx="477.1" cy="800" r="1"/>
	<circle class="st8" cx="485.1" cy="800" r="1"/>
	<circle class="st8" cx="493.1" cy="800" r="1"/>
	<circle class="st8" cx="501.1" cy="800" r="1"/>
	<circle class="st8" cx="509.1" cy="800" r="1"/>
	<circle class="st8" cx="517.1" cy="800" r="1"/>
	<circle class="st8" cx="525.1" cy="800" r="1"/>
	<circle class="st8" cx="533.1" cy="800" r="1"/>
	<circle class="st8" cx="541.1" cy="800" r="1"/>
	<circle class="st8" cx="549.1" cy="800" r="1"/>
	<circle class="st8" cx="557.1" cy="800" r="1"/>
	<circle class="st8" cx="565.1" cy="800" r="1"/>
	<circle class="st8" cx="573.1" cy="800" r="1"/>
	<circle class="st8" cx="581.1" cy="800" r="1"/>
	<circle class="st8" cx="589.1" cy="800" r="1"/>
	<circle class="st8" cx="597.1" cy="800" r="1"/>
	<circle class="st8" cx="605.1" cy="800" r="1"/>
	<circle class="st8" cx="613.1" cy="800" r="1"/>
	<circle class="st8" cx="621.1" cy="800" r="1"/>
	<circle class="st8" cx="629.1" cy="800" r="1"/>
	<circle class="st8" cx="637.1" cy="800" r="1"/>
	<circle class="st8" cx="645.1" cy="800" r="1"/>
	<circle class="st8" cx="653.1" cy="800" r="1"/>
	<circle class="st8" cx="661.1" cy="800" r="1"/>
	<circle class="st8" cx="669.1" cy="800" r="1"/>
	<circle class="st8" cx="677.1" cy="800" r="1"/>
	<circle class="st8" cx="685.1" cy="800" r="1"/>
	<circle class="st8" cx="693.1" cy="800" r="1"/>
	<circle class="st8" cx="701.1" cy="800" r="1"/>
	<circle class="st8" cx="709.1" cy="800" r="1"/>
	<circle class="st8" cx="717.1" cy="800" r="1"/>
	<circle class="st8" cx="725.1" cy="800" r="1"/>
	<circle class="st8" cx="733.1" cy="800" r="1"/>
	<circle class="st8" cx="741.1" cy="800" r="1"/>
	<circle class="st8" cx="749.1" cy="800" r="1"/>
	<circle class="st8" cx="757.1" cy="800" r="1"/>
	<circle class="st8" cx="765.1" cy="800" r="1"/>
	<circle class="st8" cx="773.1" cy="800" r="1"/>
	<circle class="st8" cx="781.1" cy="800" r="1"/>
	<circle class="st8" cx="789.1" cy="800" r="1"/>
	<circle class="st8" cx="797.1" cy="800" r="1"/>
	<circle class="st8" cx="805.1" cy="800" r="1"/>
	<circle class="st8" cx="813.1" cy="800" r="1"/>
	<circle class="st8" cx="821.1" cy="800" r="1"/>
	<circle class="st8" cx="829.1" cy="800" r="1"/>
	<circle class="st8" cx="837.1" cy="800" r="1"/>
	<circle class="st8" cx="845.1" cy="800" r="1"/>
	<circle class="st8" cx="853.1" cy="800" r="1"/>
	<circle class="st8" cx="861.1" cy="800" r="1"/>
	<circle class="st8" cx="869.1" cy="800" r="1"/>
	<circle class="st8" cx="877.1" cy="800" r="1"/>
	<circle class="st8" cx="885.1" cy="800" r="1"/>
	<circle class="st8" cx="893.1" cy="800" r="1"/>
	<circle class="st8" cx="901.1" cy="800" r="1"/>
	<circle class="st8" cx="909.1" cy="800" r="1"/>
	<circle class="st8" cx="917.1" cy="800" r="1"/>
	<circle class="st8" cx="925.1" cy="800" r="1"/>
	<circle class="st8" cx="933.1" cy="800" r="1"/>
	<circle class="st8" cx="941.1" cy="800" r="1"/>
	<circle class="st8" cx="109.1" cy="720" r="1"/>
	<circle class="st8" cx="117.1" cy="720" r="1"/>
	<circle class="st8" cx="125.1" cy="720" r="1"/>
	<circle class="st8" cx="133.1" cy="720" r="1"/>
	<circle class="st8" cx="141.1" cy="720" r="1"/>
	<circle class="st8" cx="149.1" cy="720" r="1"/>
	<circle class="st8" cx="157.1" cy="720" r="1"/>
	<circle class="st8" cx="165.1" cy="720" r="1"/>
	<circle class="st8" cx="173.1" cy="720" r="1"/>
	<circle class="st8" cx="181.1" cy="720" r="1"/>
	<circle class="st8" cx="189.1" cy="720" r="1"/>
	<circle class="st8" cx="197.1" cy="720" r="1"/>
	<circle class="st8" cx="205.1" cy="720" r="1"/>
	<circle class="st8" cx="213.1" cy="720" r="1"/>
	<circle class="st8" cx="221.1" cy="720" r="1"/>
	<circle class="st8" cx="229.1" cy="720" r="1"/>
	<circle class="st8" cx="237.1" cy="720" r="1"/>
	<circle class="st8" cx="245.1" cy="720" r="1"/>
	<circle class="st8" cx="253.1" cy="720" r="1"/>
	<circle class="st8" cx="261.1" cy="720" r="1"/>
	<circle class="st8" cx="269.1" cy="720" r="1"/>
	<circle class="st8" cx="277.1" cy="720" r="1"/>
	<circle class="st8" cx="285.1" cy="720" r="1"/>
	<circle class="st8" cx="293.1" cy="720" r="1"/>
	<circle class="st8" cx="301.1" cy="720" r="1"/>
	<circle class="st8" cx="309.1" cy="720" r="1"/>
	<circle class="st8" cx="317.1" cy="720" r="1"/>
	<circle class="st8" cx="325.1" cy="720" r="1"/>
	<circle class="st8" cx="333.1" cy="720" r="1"/>
	<circle class="st8" cx="341.1" cy="720" r="1"/>
	<circle class="st8" cx="349.1" cy="720" r="1"/>
	<circle class="st8" cx="357.1" cy="720" r="1"/>
	<circle class="st8" cx="365.1" cy="720" r="1"/>
	<circle class="st8" cx="373.1" cy="720" r="1"/>
	<circle class="st8" cx="381.1" cy="720" r="1"/>
	<circle class="st8" cx="389.1" cy="720" r="1"/>
	<circle class="st8" cx="397.1" cy="720" r="1"/>
	<circle class="st8" cx="405.1" cy="720" r="1"/>
	<circle class="st8" cx="413.1" cy="720" r="1"/>
	<circle class="st8" cx="421.1" cy="720" r="1"/>
	<circle class="st8" cx="429.1" cy="720" r="1"/>
	<circle class="st8" cx="437.1" cy="720" r="1"/>
	<circle class="st8" cx="445.1" cy="720" r="1"/>
	<circle class="st8" cx="453.1" cy="720" r="1"/>
	<circle class="st8" cx="461.1" cy="720" r="1"/>
	<circle class="st8" cx="469.1" cy="720" r="1"/>
	<circle class="st8" cx="477.1" cy="720" r="1"/>
	<circle class="st8" cx="485.1" cy="720" r="1"/>
	<circle class="st8" cx="493.1" cy="720" r="1"/>
	<circle class="st8" cx="501.1" cy="720" r="1"/>
	<circle class="st8" cx="509.1" cy="720" r="1"/>
	<circle class="st8" cx="517.1" cy="720" r="1"/>
	<circle class="st8" cx="525.1" cy="720" r="1"/>
	<circle class="st8" cx="533.1" cy="720" r="1"/>
	<circle class="st8" cx="541.1" cy="720" r="1"/>
	<circle class="st8" cx="549.1" cy="720" r="1"/>
	<circle class="st8" cx="557.1" cy="720" r="1"/>
	<circle class="st8" cx="565.1" cy="720" r="1"/>
	<circle class="st8" cx="573.1" cy="720" r="1"/>
	<circle class="st8" cx="581.1" cy="720" r="1"/>
	<circle class="st8" cx="589.1" cy="720" r="1"/>
	<circle class="st8" cx="597.1" cy="720" r="1"/>
	<circle class="st8" cx="605.1" cy="720" r="1"/>
	<circle class="st8" cx="613.1" cy="720" r="1"/>
	<circle class="st8" cx="621.1" cy="720" r="1"/>
	<circle class="st8" cx="629.1" cy="720" r="1"/>
	<circle class="st8" cx="637.1" cy="720" r="1"/>
	<circle class="st8" cx="645.1" cy="720" r="1"/>
	<circle class="st8" cx="653.1" cy="720" r="1"/>
	<circle class="st8" cx="661.1" cy="720" r="1"/>
	<circle class="st8" cx="669.1" cy="720" r="1"/>
	<circle class="st8" cx="677.1" cy="720" r="1"/>
	<circle class="st8" cx="685.1" cy="720" r="1"/>
	<circle class="st8" cx="693.1" cy="720" r="1"/>
	<circle class="st8" cx="701.1" cy="720" r="1"/>
	<circle class="st8" cx="709.1" cy="720" r="1"/>
	<circle class="st8" cx="717.1" cy="720" r="1"/>
	<circle class="st8" cx="725.1" cy="720" r="1"/>
	<circle class="st8" cx="733.1" cy="720" r="1"/>
	<circle class="st8" cx="741.1" cy="720" r="1"/>
	<circle class="st8" cx="749.1" cy="720" r="1"/>
	<circle class="st8" cx="757.1" cy="720" r="1"/>
	<circle class="st8" cx="765.1" cy="720" r="1"/>
	<circle class="st8" cx="773.1" cy="720" r="1"/>
	<circle class="st8" cx="781.1" cy="720" r="1"/>
	<circle class="st8" cx="789.1" cy="720" r="1"/>
	<circle class="st8" cx="797.1" cy="720" r="1"/>
	<circle class="st8" cx="805.1" cy="720" r="1"/>
	<circle class="st8" cx="813.1" cy="720" r="1"/>
	<circle class="st8" cx="821.1" cy="720" r="1"/>
	<circle class="st8" cx="829.1" cy="720" r="1"/>
	<circle class="st8" cx="837.1" cy="720" r="1"/>
	<circle class="st8" cx="845.1" cy="720" r="1"/>
	<circle class="st8" cx="853.1" cy="720" r="1"/>
	<circle class="st8" cx="861.1" cy="720" r="1"/>
	<circle class="st8" cx="869.1" cy="720" r="1"/>
	<circle class="st8" cx="877.1" cy="720" r="1"/>
	<circle class="st8" cx="885.1" cy="720" r="1"/>
	<circle class="st8" cx="893.1" cy="720" r="1"/>
	<circle class="st8" cx="901.1" cy="720" r="1"/>
	<circle class="st8" cx="909.1" cy="720" r="1"/>
	<circle class="st8" cx="917.1" cy="720" r="1"/>
	<circle class="st8" cx="925.1" cy="720" r="1"/>
	<circle class="st8" cx="933.1" cy="720" r="1"/>
	<circle class="st8" cx="941.1" cy="720" r="1"/>
	<circle class="st8" cx="109.1" cy="640" r="1"/>
	<circle class="st8" cx="117.1" cy="640" r="1"/>
	<circle class="st8" cx="125.1" cy="640" r="1"/>
	<circle class="st8" cx="133.1" cy="640" r="1"/>
	<circle class="st8" cx="141.1" cy="640" r="1"/>
	<circle class="st8" cx="149.1" cy="640" r="1"/>
	<circle class="st8" cx="157.1" cy="640" r="1"/>
	<circle class="st8" cx="165.1" cy="640" r="1"/>
	<circle class="st8" cx="173.1" cy="640" r="1"/>
	<circle class="st8" cx="181.1" cy="640" r="1"/>
	<circle class="st8" cx="189.1" cy="640" r="1"/>
	<circle class="st8" cx="197.1" cy="640" r="1"/>
	<circle class="st8" cx="205.1" cy="640" r="1"/>
	<circle class="st8" cx="213.1" cy="640" r="1"/>
	<circle class="st8" cx="221.1" cy="640" r="1"/>
	<circle class="st8" cx="229.1" cy="640" r="1"/>
	<circle class="st8" cx="237.1" cy="640" r="1"/>
	<circle class="st8" cx="245.1" cy="640" r="1"/>
	<circle class="st8" cx="253.1" cy="640" r="1"/>
	<circle class="st8" cx="261.1" cy="640" r="1"/>
	<circle class="st8" cx="269.1" cy="640" r="1"/>
	<circle class="st8" cx="277.1" cy="640" r="1"/>
	<circle class="st8" cx="285.1" cy="640" r="1"/>
	<circle class="st8" cx="293.1" cy="640" r="1"/>
	<circle class="st8" cx="301.1" cy="640" r="1"/>
	<circle class="st8" cx="309.1" cy="640" r="1"/>
	<circle class="st8" cx="317.1" cy="640" r="1"/>
	<circle class="st8" cx="325.1" cy="640" r="1"/>
	<circle class="st8" cx="333.1" cy="640" r="1"/>
	<circle class="st8" cx="341.1" cy="640" r="1"/>
	<circle class="st8" cx="349.1" cy="640" r="1"/>
	<circle class="st8" cx="357.1" cy="640" r="1"/>
	<circle class="st8" cx="365.1" cy="640" r="1"/>
	<circle class="st8" cx="373.1" cy="640" r="1"/>
	<circle class="st8" cx="381.1" cy="640" r="1"/>
	<circle class="st8" cx="389.1" cy="640" r="1"/>
	<circle class="st8" cx="397.1" cy="640" r="1"/>
	<circle class="st8" cx="405.1" cy="640" r="1"/>
	<circle class="st8" cx="413.1" cy="640" r="1"/>
	<circle class="st8" cx="421.1" cy="640" r="1"/>
	<circle class="st8" cx="429.1" cy="640" r="1"/>
	<circle class="st8" cx="437.1" cy="640" r="1"/>
	<circle class="st8" cx="445.1" cy="640" r="1"/>
	<circle class="st8" cx="453.1" cy="640" r="1"/>
	<circle class="st8" cx="461.1" cy="640" r="1"/>
	<circle class="st8" cx="469.1" cy="640" r="1"/>
	<circle class="st8" cx="477.1" cy="640" r="1"/>
	<circle class="st8" cx="485.1" cy="640" r="1"/>
	<circle class="st8" cx="493.1" cy="640" r="1"/>
	<circle class="st8" cx="501.1" cy="640" r="1"/>
	<circle class="st8" cx="509.1" cy="640" r="1"/>
	<circle class="st8" cx="517.1" cy="640" r="1"/>
	<circle class="st8" cx="525.1" cy="640" r="1"/>
	<circle class="st8" cx="533.1" cy="640" r="1"/>
	<circle class="st8" cx="541.1" cy="640" r="1"/>
	<circle class="st8" cx="549.1" cy="640" r="1"/>
	<circle class="st8" cx="557.1" cy="640" r="1"/>
	<circle class="st8" cx="565.1" cy="640" r="1"/>
	<circle class="st8" cx="573.1" cy="640" r="1"/>
	<circle class="st8" cx="581.1" cy="640" r="1"/>
	<circle class="st8" cx="589.1" cy="640" r="1"/>
	<circle class="st8" cx="597.1" cy="640" r="1"/>
	<circle class="st8" cx="605.1" cy="640" r="1"/>
	<circle class="st8" cx="613.1" cy="640" r="1"/>
	<circle class="st8" cx="621.1" cy="640" r="1"/>
	<circle class="st8" cx="629.1" cy="640" r="1"/>
	<circle class="st8" cx="637.1" cy="640" r="1"/>
	<circle class="st8" cx="645.1" cy="640" r="1"/>
	<circle class="st8" cx="653.1" cy="640" r="1"/>
	<circle class="st8" cx="661.1" cy="640" r="1"/>
	<circle class="st8" cx="669.1" cy="640" r="1"/>
	<circle class="st8" cx="677.1" cy="640" r="1"/>
	<circle class="st8" cx="685.1" cy="640" r="1"/>
	<circle class="st8" cx="693.1" cy="640" r="1"/>
	<circle class="st8" cx="701.1" cy="640" r="1"/>
	<circle class="st8" cx="709.1" cy="640" r="1"/>
	<circle class="st8" cx="717.1" cy="640" r="1"/>
	<circle class="st8" cx="725.1" cy="640" r="1"/>
	<circle class="st8" cx="733.1" cy="640" r="1"/>
	<circle class="st8" cx="741.1" cy="640" r="1"/>
	<circle class="st8" cx="749.1" cy="640" r="1"/>
	<circle class="st8" cx="757.1" cy="640" r="1"/>
	<circle class="st8" cx="765.1" cy="640" r="1"/>
	<circle class="st8" cx="773.1" cy="640" r="1"/>
	<circle class="st8" cx="781.1" cy="640" r="1"/>
	<circle class="st8" cx="789.1" cy="640" r="1"/>
	<circle class="st8" cx="797.1" cy="640" r="1"/>
	<circle class="st8" cx="805.1" cy="640" r="1"/>
	<circle class="st8" cx="813.1" cy="640" r="1"/>
	<circle class="st8" cx="821.1" cy="640" r="1"/>
	<circle class="st8" cx="829.1" cy="640" r="1"/>
	<circle class="st8" cx="837.1" cy="640" r="1"/>
	<circle class="st8" cx="845.1" cy="640" r="1"/>
	<circle class="st8" cx="853.1" cy="640" r="1"/>
	<circle class="st8" cx="861.1" cy="640" r="1"/>
	<circle class="st8" cx="869.1" cy="640" r="1"/>
	<circle class="st8" cx="877.1" cy="640" r="1"/>
	<circle class="st8" cx="885.1" cy="640" r="1"/>
	<circle class="st8" cx="893.1" cy="640" r="1"/>
	<circle class="st8" cx="901.1" cy="640" r="1"/>
	<circle class="st8" cx="909.1" cy="640" r="1"/>
	<circle class="st8" cx="917.1" cy="640" r="1"/>
	<circle class="st8" cx="925.1" cy="640" r="1"/>
	<circle class="st8" cx="933.1" cy="640" r="1"/>
	<circle class="st8" cx="941.1" cy="640" r="1"/>
	<circle class="st8" cx="109.1" cy="560" r="1"/>
	<circle class="st8" cx="117.1" cy="560" r="1"/>
	<circle class="st8" cx="125.1" cy="560" r="1"/>
	<circle class="st8" cx="133.1" cy="560" r="1"/>
	<circle class="st8" cx="141.1" cy="560" r="1"/>
	<circle class="st8" cx="149.1" cy="560" r="1"/>
	<circle class="st8" cx="157.1" cy="560" r="1"/>
	<circle class="st8" cx="165.1" cy="560" r="1"/>
	<circle class="st8" cx="173.1" cy="560" r="1"/>
	<circle class="st8" cx="181.1" cy="560" r="1"/>
	<circle class="st8" cx="189.1" cy="560" r="1"/>
	<circle class="st8" cx="197.1" cy="560" r="1"/>
	<circle class="st8" cx="205.1" cy="560" r="1"/>
	<circle class="st8" cx="213.1" cy="560" r="1"/>
	<circle class="st8" cx="221.1" cy="560" r="1"/>
	<circle class="st8" cx="229.1" cy="560" r="1"/>
	<circle class="st8" cx="237.1" cy="560" r="1"/>
	<circle class="st8" cx="245.1" cy="560" r="1"/>
	<circle class="st8" cx="253.1" cy="560" r="1"/>
	<circle class="st8" cx="261.1" cy="560" r="1"/>
	<circle class="st8" cx="269.1" cy="560" r="1"/>
	<circle class="st8" cx="277.1" cy="560" r="1"/>
	<circle class="st8" cx="285.1" cy="560" r="1"/>
	<circle class="st8" cx="293.1" cy="560" r="1"/>
	<circle class="st8" cx="301.1" cy="560" r="1"/>
	<circle class="st8" cx="309.1" cy="560" r="1"/>
	<circle class="st8" cx="317.1" cy="560" r="1"/>
	<circle class="st8" cx="325.1" cy="560" r="1"/>
	<circle class="st8" cx="333.1" cy="560" r="1"/>
	<circle class="st8" cx="341.1" cy="560" r="1"/>
	<circle class="st8" cx="349.1" cy="560" r="1"/>
	<circle class="st8" cx="357.1" cy="560" r="1"/>
	<circle class="st8" cx="365.1" cy="560" r="1"/>
	<circle class="st8" cx="373.1" cy="560" r="1"/>
	<circle class="st8" cx="381.1" cy="560" r="1"/>
	<circle class="st8" cx="389.1" cy="560" r="1"/>
	<circle class="st8" cx="397.1" cy="560" r="1"/>
	<circle class="st8" cx="405.1" cy="560" r="1"/>
	<circle class="st8" cx="413.1" cy="560" r="1"/>
	<circle class="st8" cx="421.1" cy="560" r="1"/>
	<circle class="st8" cx="429.1" cy="560" r="1"/>
	<circle class="st8" cx="437.1" cy="560" r="1"/>
	<circle class="st8" cx="445.1" cy="560" r="1"/>
	<circle class="st8" cx="453.1" cy="560" r="1"/>
	<circle class="st8" cx="461.1" cy="560" r="1"/>
	<circle class="st8" cx="469.1" cy="560" r="1"/>
	<circle class="st8" cx="477.1" cy="560" r="1"/>
	<circle class="st8" cx="485.1" cy="560" r="1"/>
	<circle class="st8" cx="493.1" cy="560" r="1"/>
	<circle class="st8" cx="501.1" cy="560" r="1"/>
	<circle class="st8" cx="509.1" cy="560" r="1"/>
	<circle class="st8" cx="517.1" cy="560" r="1"/>
	<circle class="st8" cx="525.1" cy="560" r="1"/>
	<circle class="st8" cx="533.1" cy="560" r="1"/>
	<circle class="st8" cx="541.1" cy="560" r="1"/>
	<circle class="st8" cx="549.1" cy="560" r="1"/>
	<circle class="st8" cx="557.1" cy="560" r="1"/>
	<circle class="st8" cx="565.1" cy="560" r="1"/>
	<circle class="st8" cx="573.1" cy="560" r="1"/>
	<circle class="st8" cx="581.1" cy="560" r="1"/>
	<circle class="st8" cx="589.1" cy="560" r="1"/>
	<circle class="st8" cx="597.1" cy="560" r="1"/>
	<circle class="st8" cx="605.1" cy="560" r="1"/>
	<circle class="st8" cx="613.1" cy="560" r="1"/>
	<circle class="st8" cx="621.1" cy="560" r="1"/>
	<circle class="st8" cx="629.1" cy="560" r="1"/>
	<circle class="st8" cx="637.1" cy="560" r="1"/>
	<circle class="st8" cx="645.1" cy="560" r="1"/>
	<circle class="st8" cx="653.1" cy="560" r="1"/>
	<circle class="st8" cx="661.1" cy="560" r="1"/>
	<circle class="st8" cx="669.1" cy="560" r="1"/>
	<circle class="st8" cx="677.1" cy="560" r="1"/>
	<circle class="st8" cx="685.1" cy="560" r="1"/>
	<circle class="st8" cx="693.1" cy="560" r="1"/>
	<circle class="st8" cx="701.1" cy="560" r="1"/>
	<circle class="st8" cx="709.1" cy="560" r="1"/>
	<circle class="st8" cx="717.1" cy="560" r="1"/>
	<circle class="st8" cx="725.1" cy="560" r="1"/>
	<circle class="st8" cx="733.1" cy="560" r="1"/>
	<circle class="st8" cx="741.1" cy="560" r="1"/>
	<circle class="st8" cx="749.1" cy="560" r="1"/>
	<circle class="st8" cx="757.1" cy="560" r="1"/>
	<circle class="st8" cx="765.1" cy="560" r="1"/>
	<circle class="st8" cx="773.1" cy="560" r="1"/>
	<circle class="st8" cx="781.1" cy="560" r="1"/>
	<circle class="st8" cx="789.1" cy="560" r="1"/>
	<circle class="st8" cx="797.1" cy="560" r="1"/>
	<circle class="st8" cx="805.1" cy="560" r="1"/>
	<circle class="st8" cx="813.1" cy="560" r="1"/>
	<circle class="st8" cx="821.1" cy="560" r="1"/>
	<circle class="st8" cx="829.1" cy="560" r="1"/>
	<circle class="st8" cx="837.1" cy="560" r="1"/>
	<circle class="st8" cx="845.1" cy="560" r="1"/>
	<circle class="st8" cx="853.1" cy="560" r="1"/>
	<circle class="st8" cx="861.1" cy="560" r="1"/>
	<circle class="st8" cx="869.1" cy="560" r="1"/>
	<circle class="st8" cx="877.1" cy="560" r="1"/>
	<circle class="st8" cx="885.1" cy="560" r="1"/>
	<circle class="st8" cx="893.1" cy="560" r="1"/>
	<circle class="st8" cx="901.1" cy="560" r="1"/>
	<circle class="st8" cx="909.1" cy="560" r="1"/>
	<circle class="st8" cx="917.1" cy="560" r="1"/>
	<circle class="st8" cx="925.1" cy="560" r="1"/>
	<circle class="st8" cx="933.1" cy="560" r="1"/>
	<circle class="st8" cx="941.1" cy="560" r="1"/>
	<circle class="st8" cx="109.1" cy="480" r="1"/>
	<circle class="st8" cx="117.1" cy="480" r="1"/>
	<circle class="st8" cx="125.1" cy="480" r="1"/>
	<circle class="st8" cx="133.1" cy="480" r="1"/>
	<circle class="st8" cx="141.1" cy="480" r="1"/>
	<circle class="st8" cx="149.1" cy="480" r="1"/>
	<circle class="st8" cx="157.1" cy="480" r="1"/>
	<circle class="st8" cx="165.1" cy="480" r="1"/>
	<circle class="st8" cx="173.1" cy="480" r="1"/>
	<circle class="st8" cx="181.1" cy="480" r="1"/>
	<circle class="st8" cx="189.1" cy="480" r="1"/>
	<circle class="st8" cx="197.1" cy="480" r="1"/>
	<circle class="st8" cx="205.1" cy="480" r="1"/>
	<circle class="st8" cx="213.1" cy="480" r="1"/>
	<circle class="st8" cx="221.1" cy="480" r="1"/>
	<circle class="st8" cx="229.1" cy="480" r="1"/>
	<circle class="st8" cx="237.1" cy="480" r="1"/>
	<circle class="st8" cx="245.1" cy="480" r="1"/>
	<circle class="st8" cx="253.1" cy="480" r="1"/>
	<circle class="st8" cx="261.1" cy="480" r="1"/>
	<circle class="st8" cx="269.1" cy="480" r="1"/>
	<circle class="st8" cx="277.1" cy="480" r="1"/>
	<circle class="st8" cx="285.1" cy="480" r="1"/>
	<circle class="st8" cx="293.1" cy="480" r="1"/>
	<circle class="st8" cx="301.1" cy="480" r="1"/>
	<circle class="st8" cx="309.1" cy="480" r="1"/>
	<circle class="st8" cx="317.1" cy="480" r="1"/>
	<circle class="st8" cx="325.1" cy="480" r="1"/>
	<circle class="st8" cx="333.1" cy="480" r="1"/>
	<circle class="st8" cx="341.1" cy="480" r="1"/>
	<circle class="st8" cx="349.1" cy="480" r="1"/>
	<circle class="st8" cx="357.1" cy="480" r="1"/>
	<circle class="st8" cx="365.1" cy="480" r="1"/>
	<circle class="st8" cx="373.1" cy="480" r="1"/>
	<circle class="st8" cx="381.1" cy="480" r="1"/>
	<circle class="st8" cx="389.1" cy="480" r="1"/>
	<circle class="st8" cx="397.1" cy="480" r="1"/>
	<circle class="st8" cx="405.1" cy="480" r="1"/>
	<circle class="st8" cx="413.1" cy="480" r="1"/>
	<circle class="st8" cx="421.1" cy="480" r="1"/>
	<circle class="st8" cx="429.1" cy="480" r="1"/>
	<circle class="st8" cx="437.1" cy="480" r="1"/>
	<circle class="st8" cx="445.1" cy="480" r="1"/>
	<circle class="st8" cx="453.1" cy="480" r="1"/>
	<circle class="st8" cx="461.1" cy="480" r="1"/>
	<circle class="st8" cx="469.1" cy="480" r="1"/>
	<circle class="st8" cx="477.1" cy="480" r="1"/>
	<circle class="st8" cx="485.1" cy="480" r="1"/>
	<circle class="st8" cx="493.1" cy="480" r="1"/>
	<circle class="st8" cx="501.1" cy="480" r="1"/>
	<circle class="st8" cx="509.1" cy="480" r="1"/>
	<circle class="st8" cx="517.1" cy="480" r="1"/>
	<circle class="st8" cx="525.1" cy="480" r="1"/>
	<circle class="st8" cx="533.1" cy="480" r="1"/>
	<circle class="st8" cx="541.1" cy="480" r="1"/>
	<circle class="st8" cx="549.1" cy="480" r="1"/>
	<circle class="st8" cx="557.1" cy="480" r="1"/>
	<circle class="st8" cx="565.1" cy="480" r="1"/>
	<circle class="st8" cx="573.1" cy="480" r="1"/>
	<circle class="st8" cx="581.1" cy="480" r="1"/>
	<circle class="st8" cx="589.1" cy="480" r="1"/>
	<circle class="st8" cx="597.1" cy="480" r="1"/>
	<circle class="st8" cx="605.1" cy="480" r="1"/>
	<circle class="st8" cx="613.1" cy="480" r="1"/>
	<circle class="st8" cx="621.1" cy="480" r="1"/>
	<circle class="st8" cx="629.1" cy="480" r="1"/>
	<circle class="st8" cx="637.1" cy="480" r="1"/>
	<circle class="st8" cx="645.1" cy="480" r="1"/>
	<circle class="st8" cx="653.1" cy="480" r="1"/>
	<circle class="st8" cx="661.1" cy="480" r="1"/>
	<circle class="st8" cx="669.1" cy="480" r="1"/>
	<circle class="st8" cx="677.1" cy="480" r="1"/>
	<circle class="st8" cx="685.1" cy="480" r="1"/>
	<circle class="st8" cx="693.1" cy="480" r="1"/>
	<circle class="st8" cx="701.1" cy="480" r="1"/>
	<circle class="st8" cx="709.1" cy="480" r="1"/>
	<circle class="st8" cx="717.1" cy="480" r="1"/>
	<circle class="st8" cx="725.1" cy="480" r="1"/>
	<circle class="st8" cx="733.1" cy="480" r="1"/>
	<circle class="st8" cx="741.1" cy="480" r="1"/>
	<circle class="st8" cx="749.1" cy="480" r="1"/>
	<circle class="st8" cx="757.1" cy="480" r="1"/>
	<circle class="st8" cx="765.1" cy="480" r="1"/>
	<circle class="st8" cx="773.1" cy="480" r="1"/>
	<circle class="st8" cx="781.1" cy="480" r="1"/>
	<circle class="st8" cx="789.1" cy="480" r="1"/>
	<circle class="st8" cx="797.1" cy="480" r="1"/>
	<circle class="st8" cx="805.1" cy="480" r="1"/>
	<circle class="st8" cx="813.1" cy="480" r="1"/>
	<circle class="st8" cx="821.1" cy="480" r="1"/>
	<circle class="st8" cx="829.1" cy="480" r="1"/>
	<circle class="st8" cx="837.1" cy="480" r="1"/>
	<circle class="st8" cx="845.1" cy="480" r="1"/>
	<circle class="st8" cx="853.1" cy="480" r="1"/>
	<circle class="st8" cx="861.1" cy="480" r="1"/>
	<circle class="st8" cx="869.1" cy="480" r="1"/>
	<circle class="st8" cx="877.1" cy="480" r="1"/>
	<circle class="st8" cx="885.1" cy="480" r="1"/>
	<circle class="st8" cx="893.1" cy="480" r="1"/>
	<circle class="st8" cx="901.1" cy="480" r="1"/>
	<circle class="st8" cx="909.1" cy="480" r="1"/>
	<circle class="st8" cx="917.1" cy="480" r="1"/>
	<circle class="st8" cx="925.1" cy="480" r="1"/>
	<circle class="st8" cx="933.1" cy="480" r="1"/>
	<circle class="st8" cx="941.1" cy="480" r="1"/>
	<circle class="st8" cx="109.1" cy="400" r="1"/>
	<circle class="st8" cx="117.1" cy="400" r="1"/>
	<circle class="st8" cx="125.1" cy="400" r="1"/>
	<circle class="st8" cx="133.1" cy="400" r="1"/>
	<circle class="st8" cx="141.1" cy="400" r="1"/>
	<circle class="st8" cx="149.1" cy="400" r="1"/>
	<circle class="st8" cx="157.1" cy="400" r="1"/>
	<circle class="st8" cx="165.1" cy="400" r="1"/>
	<circle class="st8" cx="173.1" cy="400" r="1"/>
	<circle class="st8" cx="181.1" cy="400" r="1"/>
	<circle class="st8" cx="189.1" cy="400" r="1"/>
	<circle class="st8" cx="197.1" cy="400" r="1"/>
	<circle class="st8" cx="205.1" cy="400" r="1"/>
	<circle class="st8" cx="213.1" cy="400" r="1"/>
	<circle class="st8" cx="221.1" cy="400" r="1"/>
	<circle class="st8" cx="229.1" cy="400" r="1"/>
	<circle class="st8" cx="237.1" cy="400" r="1"/>
	<circle class="st8" cx="245.1" cy="400" r="1"/>
	<circle class="st8" cx="253.1" cy="400" r="1"/>
	<circle class="st8" cx="261.1" cy="400" r="1"/>
	<circle class="st8" cx="269.1" cy="400" r="1"/>
	<circle class="st8" cx="277.1" cy="400" r="1"/>
	<circle class="st8" cx="285.1" cy="400" r="1"/>
	<circle class="st8" cx="293.1" cy="400" r="1"/>
	<circle class="st8" cx="301.1" cy="400" r="1"/>
	<circle class="st8" cx="309.1" cy="400" r="1"/>
	<circle class="st8" cx="317.1" cy="400" r="1"/>
	<circle class="st8" cx="325.1" cy="400" r="1"/>
	<circle class="st8" cx="333.1" cy="400" r="1"/>
	<circle class="st8" cx="341.1" cy="400" r="1"/>
	<circle class="st8" cx="349.1" cy="400" r="1"/>
	<circle class="st8" cx="357.1" cy="400" r="1"/>
	<circle class="st8" cx="365.1" cy="400" r="1"/>
	<circle class="st8" cx="373.1" cy="400" r="1"/>
	<circle class="st8" cx="381.1" cy="400" r="1"/>
	<circle class="st8" cx="389.1" cy="400" r="1"/>
	<circle class="st8" cx="397.1" cy="400" r="1"/>
	<circle class="st8" cx="405.1" cy="400" r="1"/>
	<circle class="st8" cx="413.1" cy="400" r="1"/>
	<circle class="st8" cx="421.1" cy="400" r="1"/>
	<circle class="st8" cx="429.1" cy="400" r="1"/>
	<circle class="st8" cx="437.1" cy="400" r="1"/>
	<circle class="st8" cx="445.1" cy="400" r="1"/>
	<circle class="st8" cx="453.1" cy="400" r="1"/>
	<circle class="st8" cx="461.1" cy="400" r="1"/>
	<circle class="st8" cx="469.1" cy="400" r="1"/>
	<circle class="st8" cx="477.1" cy="400" r="1"/>
	<circle class="st8" cx="485.1" cy="400" r="1"/>
	<circle class="st8" cx="493.1" cy="400" r="1"/>
	<circle class="st8" cx="501.1" cy="400" r="1"/>
	<circle class="st8" cx="509.1" cy="400" r="1"/>
	<circle class="st8" cx="517.1" cy="400" r="1"/>
	<circle class="st8" cx="525.1" cy="400" r="1"/>
	<circle class="st8" cx="533.1" cy="400" r="1"/>
	<circle class="st8" cx="541.1" cy="400" r="1"/>
	<circle class="st8" cx="549.1" cy="400" r="1"/>
	<circle class="st8" cx="557.1" cy="400" r="1"/>
	<circle class="st8" cx="565.1" cy="400" r="1"/>
	<circle class="st8" cx="573.1" cy="400" r="1"/>
	<circle class="st8" cx="581.1" cy="400" r="1"/>
	<circle class="st8" cx="589.1" cy="400" r="1"/>
	<circle class="st8" cx="597.1" cy="400" r="1"/>
	<circle class="st8" cx="605.1" cy="400" r="1"/>
	<circle class="st8" cx="613.1" cy="400" r="1"/>
	<circle class="st8" cx="621.1" cy="400" r="1"/>
	<circle class="st8" cx="629.1" cy="400" r="1"/>
	<circle class="st8" cx="637.1" cy="400" r="1"/>
	<circle class="st8" cx="645.1" cy="400" r="1"/>
	<circle class="st8" cx="653.1" cy="400" r="1"/>
	<circle class="st8" cx="661.1" cy="400" r="1"/>
	<circle class="st8" cx="669.1" cy="400" r="1"/>
	<circle class="st8" cx="677.1" cy="400" r="1"/>
	<circle class="st8" cx="685.1" cy="400" r="1"/>
	<circle class="st8" cx="693.1" cy="400" r="1"/>
	<circle class="st8" cx="701.1" cy="400" r="1"/>
	<circle class="st8" cx="709.1" cy="400" r="1"/>
	<circle class="st8" cx="717.1" cy="400" r="1"/>
	<circle class="st8" cx="725.1" cy="400" r="1"/>
	<circle class="st8" cx="733.1" cy="400" r="1"/>
	<circle class="st8" cx="741.1" cy="400" r="1"/>
	<circle class="st8" cx="749.1" cy="400" r="1"/>
	<circle class="st8" cx="757.1" cy="400" r="1"/>
	<circle class="st8" cx="765.1" cy="400" r="1"/>
	<circle class="st8" cx="773.1" cy="400" r="1"/>
	<circle class="st8" cx="781.1" cy="400" r="1"/>
	<circle class="st8" cx="789.1" cy="400" r="1"/>
	<circle class="st8" cx="797.1" cy="400" r="1"/>
	<circle class="st8" cx="805.1" cy="400" r="1"/>
	<circle class="st8" cx="813.1" cy="400" r="1"/>
	<circle class="st8" cx="821.1" cy="400" r="1"/>
	<circle class="st8" cx="829.1" cy="400" r="1"/>
	<circle class="st8" cx="837.1" cy="400" r="1"/>
	<circle class="st8" cx="845.1" cy="400" r="1"/>
	<circle class="st8" cx="853.1" cy="400" r="1"/>
	<circle class="st8" cx="861.1" cy="400" r="1"/>
	<circle class="st8" cx="869.1" cy="400" r="1"/>
	<circle class="st8" cx="877.1" cy="400" r="1"/>
	<circle class="st8" cx="885.1" cy="400" r="1"/>
	<circle class="st8" cx="893.1" cy="400" r="1"/>
	<circle class="st8" cx="901.1" cy="400" r="1"/>
	<circle class="st8" cx="909.1" cy="400" r="1"/>
	<circle class="st8" cx="917.1" cy="400" r="1"/>
	<circle class="st8" cx="925.1" cy="400" r="1"/>
	<circle class="st8" cx="933.1" cy="400" r="1"/>
	<circle class="st8" cx="941.1" cy="400" r="1"/>
	<circle class="st8" cx="109.1" cy="320" r="1"/>
	<circle class="st8" cx="117.1" cy="320" r="1"/>
	<circle class="st8" cx="125.1" cy="320" r="1"/>
	<circle class="st8" cx="133.1" cy="320" r="1"/>
	<circle class="st8" cx="141.1" cy="320" r="1"/>
	<circle class="st8" cx="149.1" cy="320" r="1"/>
	<circle class="st8" cx="157.1" cy="320" r="1"/>
	<circle class="st8" cx="165.1" cy="320" r="1"/>
	<circle class="st8" cx="173.1" cy="320" r="1"/>
	<circle class="st8" cx="181.1" cy="320" r="1"/>
	<circle class="st8" cx="189.1" cy="320" r="1"/>
	<circle class="st8" cx="197.1" cy="320" r="1"/>
	<circle class="st8" cx="205.1" cy="320" r="1"/>
	<circle class="st8" cx="213.1" cy="320" r="1"/>
	<circle class="st8" cx="221.1" cy="320" r="1"/>
	<circle class="st8" cx="229.1" cy="320" r="1"/>
	<circle class="st8" cx="237.1" cy="320" r="1"/>
	<circle class="st8" cx="245.1" cy="320" r="1"/>
	<circle class="st8" cx="253.1" cy="320" r="1"/>
	<circle class="st8" cx="261.1" cy="320" r="1"/>
	<circle class="st8" cx="269.1" cy="320" r="1"/>
	<circle class="st8" cx="277.1" cy="320" r="1"/>
	<circle class="st8" cx="285.1" cy="320" r="1"/>
	<circle class="st8" cx="293.1" cy="320" r="1"/>
	<circle class="st8" cx="301.1" cy="320" r="1"/>
	<circle class="st8" cx="309.1" cy="320" r="1"/>
	<circle class="st8" cx="317.1" cy="320" r="1"/>
	<circle class="st8" cx="325.1" cy="320" r="1"/>
	<circle class="st8" cx="333.1" cy="320" r="1"/>
	<circle class="st8" cx="341.1" cy="320" r="1"/>
	<circle class="st8" cx="349.1" cy="320" r="1"/>
	<circle class="st8" cx="357.1" cy="320" r="1"/>
	<circle class="st8" cx="365.1" cy="320" r="1"/>
	<circle class="st8" cx="373.1" cy="320" r="1"/>
	<circle class="st8" cx="381.1" cy="320" r="1"/>
	<circle class="st8" cx="389.1" cy="320" r="1"/>
	<circle class="st8" cx="397.1" cy="320" r="1"/>
	<circle class="st8" cx="405.1" cy="320" r="1"/>
	<circle class="st8" cx="413.1" cy="320" r="1"/>
	<circle class="st8" cx="421.1" cy="320" r="1"/>
	<circle class="st8" cx="429.1" cy="320" r="1"/>
	<circle class="st8" cx="437.1" cy="320" r="1"/>
	<circle class="st8" cx="445.1" cy="320" r="1"/>
	<circle class="st8" cx="453.1" cy="320" r="1"/>
	<circle class="st8" cx="461.1" cy="320" r="1"/>
	<circle class="st8" cx="469.1" cy="320" r="1"/>
	<circle class="st8" cx="477.1" cy="320" r="1"/>
	<circle class="st8" cx="485.1" cy="320" r="1"/>
	<circle class="st8" cx="493.1" cy="320" r="1"/>
	<circle class="st8" cx="501.1" cy="320" r="1"/>
	<circle class="st8" cx="509.1" cy="320" r="1"/>
	<circle class="st8" cx="517.1" cy="320" r="1"/>
	<circle class="st8" cx="525.1" cy="320" r="1"/>
	<circle class="st8" cx="533.1" cy="320" r="1"/>
	<circle class="st8" cx="541.1" cy="320" r="1"/>
	<circle class="st8" cx="549.1" cy="320" r="1"/>
	<circle class="st8" cx="557.1" cy="320" r="1"/>
	<circle class="st8" cx="565.1" cy="320" r="1"/>
	<circle class="st8" cx="573.1" cy="320" r="1"/>
	<circle class="st8" cx="581.1" cy="320" r="1"/>
	<circle class="st8" cx="589.1" cy="320" r="1"/>
	<circle class="st8" cx="597.1" cy="320" r="1"/>
	<circle class="st8" cx="605.1" cy="320" r="1"/>
	<circle class="st8" cx="613.1" cy="320" r="1"/>
	<circle class="st8" cx="621.1" cy="320" r="1"/>
	<circle class="st8" cx="629.1" cy="320" r="1"/>
	<circle class="st8" cx="637.1" cy="320" r="1"/>
	<circle class="st8" cx="645.1" cy="320" r="1"/>
	<circle class="st8" cx="653.1" cy="320" r="1"/>
	<circle class="st8" cx="661.1" cy="320" r="1"/>
	<circle class="st8" cx="669.1" cy="320" r="1"/>
	<circle class="st8" cx="677.1" cy="320" r="1"/>
	<circle class="st8" cx="685.1" cy="320" r="1"/>
	<circle class="st8" cx="693.1" cy="320" r="1"/>
	<circle class="st8" cx="701.1" cy="320" r="1"/>
	<circle class="st8" cx="709.1" cy="320" r="1"/>
	<circle class="st8" cx="717.1" cy="320" r="1"/>
	<circle class="st8" cx="725.1" cy="320" r="1"/>
	<circle class="st8" cx="733.1" cy="320" r="1"/>
	<circle class="st8" cx="741.1" cy="320" r="1"/>
	<circle class="st8" cx="749.1" cy="320" r="1"/>
	<circle class="st8" cx="757.1" cy="320" r="1"/>
	<circle class="st8" cx="765.1" cy="320" r="1"/>
	<circle class="st8" cx="773.1" cy="320" r="1"/>
	<circle class="st8" cx="781.1" cy="320" r="1"/>
	<circle class="st8" cx="789.1" cy="320" r="1"/>
	<circle class="st8" cx="797.1" cy="320" r="1"/>
	<circle class="st8" cx="805.1" cy="320" r="1"/>
	<circle class="st8" cx="813.1" cy="320" r="1"/>
	<circle class="st8" cx="821.1" cy="320" r="1"/>
	<circle class="st8" cx="829.1" cy="320" r="1"/>
	<circle class="st8" cx="837.1" cy="320" r="1"/>
	<circle class="st8" cx="845.1" cy="320" r="1"/>
	<circle class="st8" cx="853.1" cy="320" r="1"/>
	<circle class="st8" cx="861.1" cy="320" r="1"/>
	<circle class="st8" cx="869.1" cy="320" r="1"/>
	<circle class="st8" cx="877.1" cy="320" r="1"/>
	<circle class="st8" cx="885.1" cy="320" r="1"/>
	<circle class="st8" cx="893.1" cy="320" r="1"/>
	<circle class="st8" cx="901.1" cy="320" r="1"/>
	<circle class="st8" cx="909.1" cy="320" r="1"/>
	<circle class="st8" cx="917.1" cy="320" r="1"/>
	<circle class="st8" cx="925.1" cy="320" r="1"/>
	<circle class="st8" cx="933.1" cy="320" r="1"/>
	<circle class="st8" cx="941.1" cy="320" r="1"/>
	<circle class="st8" cx="109.1" cy="240" r="1"/>
	<circle class="st8" cx="117.1" cy="240" r="1"/>
	<circle class="st8" cx="125.1" cy="240" r="1"/>
	<circle class="st8" cx="133.1" cy="240" r="1"/>
	<circle class="st8" cx="141.1" cy="240" r="1"/>
	<circle class="st8" cx="149.1" cy="240" r="1"/>
	<circle class="st8" cx="157.1" cy="240" r="1"/>
	<circle class="st8" cx="165.1" cy="240" r="1"/>
	<circle class="st8" cx="173.1" cy="240" r="1"/>
	<circle class="st8" cx="181.1" cy="240" r="1"/>
	<circle class="st8" cx="189.1" cy="240" r="1"/>
	<circle class="st8" cx="197.1" cy="240" r="1"/>
	<circle class="st8" cx="205.1" cy="240" r="1"/>
	<circle class="st8" cx="213.1" cy="240" r="1"/>
	<circle class="st8" cx="221.1" cy="240" r="1"/>
	<circle class="st8" cx="229.1" cy="240" r="1"/>
	<circle class="st8" cx="237.1" cy="240" r="1"/>
	<circle class="st8" cx="245.1" cy="240" r="1"/>
	<circle class="st8" cx="253.1" cy="240" r="1"/>
	<circle class="st8" cx="261.1" cy="240" r="1"/>
	<circle class="st8" cx="269.1" cy="240" r="1"/>
	<circle class="st8" cx="277.1" cy="240" r="1"/>
	<circle class="st8" cx="285.1" cy="240" r="1"/>
	<circle class="st8" cx="293.1" cy="240" r="1"/>
	<circle class="st8" cx="301.1" cy="240" r="1"/>
	<circle class="st8" cx="309.1" cy="240" r="1"/>
	<circle class="st8" cx="317.1" cy="240" r="1"/>
	<circle class="st8" cx="325.1" cy="240" r="1"/>
	<circle class="st8" cx="333.1" cy="240" r="1"/>
	<circle class="st8" cx="341.1" cy="240" r="1"/>
	<circle class="st8" cx="349.1" cy="240" r="1"/>
	<circle class="st8" cx="357.1" cy="240" r="1"/>
	<circle class="st8" cx="365.1" cy="240" r="1"/>
	<circle class="st8" cx="373.1" cy="240" r="1"/>
	<circle class="st8" cx="381.1" cy="240" r="1"/>
	<circle class="st8" cx="389.1" cy="240" r="1"/>
	<circle class="st8" cx="397.1" cy="240" r="1"/>
	<circle class="st8" cx="405.1" cy="240" r="1"/>
	<circle class="st8" cx="413.1" cy="240" r="1"/>
	<circle class="st8" cx="421.1" cy="240" r="1"/>
	<circle class="st8" cx="429.1" cy="240" r="1"/>
	<circle class="st8" cx="437.1" cy="240" r="1"/>
	<circle class="st8" cx="445.1" cy="240" r="1"/>
	<circle class="st8" cx="453.1" cy="240" r="1"/>
	<circle class="st8" cx="461.1" cy="240" r="1"/>
	<circle class="st8" cx="469.1" cy="240" r="1"/>
	<circle class="st8" cx="477.1" cy="240" r="1"/>
	<circle class="st8" cx="485.1" cy="240" r="1"/>
	<circle class="st8" cx="493.1" cy="240" r="1"/>
	<circle class="st8" cx="501.1" cy="240" r="1"/>
	<circle class="st8" cx="509.1" cy="240" r="1"/>
	<circle class="st8" cx="517.1" cy="240" r="1"/>
	<circle class="st8" cx="525.1" cy="240" r="1"/>
	<circle class="st8" cx="533.1" cy="240" r="1"/>
	<circle class="st8" cx="541.1" cy="240" r="1"/>
	<circle class="st8" cx="549.1" cy="240" r="1"/>
	<circle class="st8" cx="557.1" cy="240" r="1"/>
	<circle class="st8" cx="565.1" cy="240" r="1"/>
	<circle class="st8" cx="573.1" cy="240" r="1"/>
	<circle class="st8" cx="581.1" cy="240" r="1"/>
	<circle class="st8" cx="589.1" cy="240" r="1"/>
	<circle class="st8" cx="597.1" cy="240" r="1"/>
	<circle class="st8" cx="605.1" cy="240" r="1"/>
	<circle class="st8" cx="613.1" cy="240" r="1"/>
	<circle class="st8" cx="621.1" cy="240" r="1"/>
	<circle class="st8" cx="629.1" cy="240" r="1"/>
	<circle class="st8" cx="637.1" cy="240" r="1"/>
	<circle class="st8" cx="645.1" cy="240" r="1"/>
	<circle class="st8" cx="653.1" cy="240" r="1"/>
	<circle class="st8" cx="661.1" cy="240" r="1"/>
	<circle class="st8" cx="669.1" cy="240" r="1"/>
	<circle class="st8" cx="677.1" cy="240" r="1"/>
	<circle class="st8" cx="685.1" cy="240" r="1"/>
	<circle class="st8" cx="693.1" cy="240" r="1"/>
	<circle class="st8" cx="701.1" cy="240" r="1"/>
	<circle class="st8" cx="709.1" cy="240" r="1"/>
	<circle class="st8" cx="717.1" cy="240" r="1"/>
	<circle class="st8" cx="725.1" cy="240" r="1"/>
	<circle class="st8" cx="733.1" cy="240" r="1"/>
	<circle class="st8" cx="741.1" cy="240" r="1"/>
	<circle class="st8" cx="749.1" cy="240" r="1"/>
	<circle class="st8" cx="757.1" cy="240" r="1"/>
	<circle class="st8" cx="765.1" cy="240" r="1"/>
	<circle class="st8" cx="773.1" cy="240" r="1"/>
	<circle class="st8" cx="781.1" cy="240" r="1"/>
	<circle class="st8" cx="789.1" cy="240" r="1"/>
	<circle class="st8" cx="797.1" cy="240" r="1"/>
	<circle class="st8" cx="805.1" cy="240" r="1"/>
	<circle class="st8" cx="813.1" cy="240" r="1"/>
	<circle class="st8" cx="821.1" cy="240" r="1"/>
	<circle class="st8" cx="829.1" cy="240" r="1"/>
	<circle class="st8" cx="837.1" cy="240" r="1"/>
	<circle class="st8" cx="845.1" cy="240" r="1"/>
	<circle class="st8" cx="853.1" cy="240" r="1"/>
	<circle class="st8" cx="861.1" cy="240" r="1"/>
	<circle class="st8" cx="869.1" cy="240" r="1"/>
	<circle class="st8" cx="877.1" cy="240" r="1"/>
	<circle class="st8" cx="885.1" cy="240" r="1"/>
	<circle class="st8" cx="893.1" cy="240" r="1"/>
	<circle class="st8" cx="901.1" cy="240" r="1"/>
	<circle class="st8" cx="909.1" cy="240" r="1"/>
	<circle class="st8" cx="917.1" cy="240" r="1"/>
	<circle class="st8" cx="925.1" cy="240" r="1"/>
	<circle class="st8" cx="933.1" cy="240" r="1"/>
	<circle class="st8" cx="941.1" cy="240" r="1"/>
	<path class="st9" d="M513.1,743.1c0,0,3.1,0.3,4,0.7s3.2,2.4,4,3s3.3,2.2,4,2.9s3.3,3.8,4,4.4c0.7,0.7,3.3,2.4,4,3.1
		c0.7,0.7,3.4,4.8,4,5.6s3.4,4.7,4,5.5s3.4,4.5,4,5.2c0.6,0.8,3.4,4.2,4,5s3.2,4.2,4,4.9c0.7,0.7,3.2,1.8,4,2.4c0.8,0.6,3.2,3.4,4,4
		s3,1.8,4,2.1s3,0.2,4,0.5c0.9,0.3,3.1,1.9,4,2.3c0.9,0.4,3,0.8,4,1s3,0.5,4,0.6s3,0.3,4,0.5s3,0.9,4,1.2c0.9,0.3,3.1,1.2,4,1.6
		c0.9,0.4,3.1,1.7,4,2.2s3.1,1.7,4,2.2c0.9,0.4,3,1.5,4,1.8c0.9,0.3,3.1,0.5,4,0.9s3.1,1.8,4,2.2s3,1,4,1.3s3.1,0.7,4,1.1
		c0.9,0.4,3,1.8,4,2.1c0.9,0.3,3,0.5,4,0.7s3.1,0.8,4,1.2s3.1,1.8,4,2.3s3,1.6,4,1.9c0.9,0.3,3,0.8,4,0.9c1,0,3-0.5,4-0.5
		s3,0.4,4,0.6c1,0.2,3,0.6,4,0.8c1,0.1,3,0.3,4,0.3s3-0.2,4-0.4s3-0.8,4-1.1s3-0.9,4-1s3,0,4,0.2c1,0.1,3,0.6,4,0.9
		c0.9,0.3,3,1.6,4,1.9c1,0.3,3,0.5,4,0.5c1,0.1,3,0,4,0.1s3,0.3,4,0.5c1,0.1,3,0.7,4,0.7s3-0.5,4-0.7c1-0.3,3.1-0.9,4-1.4
		c0.8-0.5,3.1-3,4-3.4s3-0.5,4-0.5s3,0.1,4,0.3s3,0.8,4,1s3,0.7,4,0.9s3.1,0.3,4,0.6c0.9,0.4,3.1,2,4,2.4s3,0.4,4,0.7
		c1,0.2,3,0.9,4,1.1c1,0.2,3,0.4,4,0.4c1,0.1,3,0.1,4,0s3-0.5,4-0.6c1,0,3,0.5,4,0.4c1-0.2,3-1.5,4-1.6c1,0,3,1.2,4,1.2s3-0.8,4-0.8
		c1-0.1,3,0.1,4,0.1s3-0.4,4-0.5s3-0.2,4-0.2s3,0.3,4,0.2c1,0,3-0.5,4-0.7c1-0.1,3-0.2,4-0.2c1-0.1,3-0.1,4-0.2c1-0.1,3-0.4,4-0.5
		s3-0.3,4-0.4c1-0.1,3-0.2,4-0.3s3-0.3,4-0.3s3,0.1,4-0.1c1-0.2,3-1.1,4-1.3c1-0.3,3.1-0.5,4-0.9c0.9-0.3,3.1-1.7,4-2
		c0.9-0.4,3-1.1,4-1.3s3-0.1,4-0.3s3-0.8,4-1.1c0.9-0.3,3-1.4,4-1.7s3-0.4,4-0.5s3-0.4,4-0.5c1-0.2,3-0.5,4-0.7s3-0.6,4-1
		c0.9-0.3,3-1.5,4-1.8c0.9-0.3,3-0.7,4-0.9s3-0.3,4-0.5s3.1-1.1,4-1.4c0.9-0.4,3-1.4,4-1.6c1-0.3,3-0.4,4-0.5s3-0.2,4-0.2
		c1,0.1,3,0.8,4,0.8s3-0.9,4-1.1c1-0.2,3-0.2,4-0.2s3,0.2,4,0.2c1-0.1,3-0.6,4-0.7c1-0.1,3,0,4-0.2c1-0.1,3-0.5,4-0.8s3-1.4,4-1.6
		c1-0.2,3,0.2,4,0.1c1-0.1,3-0.5,4-0.6s3-0.5,4-0.5c1,0.1,4,1,4,1"/>
	<path class="st9" d="M101.1,814c0,0,3-1.5,4-1.8c0.9-0.3,3.1-0.4,4-0.8s3-1.7,4-1.9s3,0.3,4,0.3c1-0.1,3.1-0.5,4-0.9s3.1-1.8,4-2.2
		c0.9-0.5,3.1-1.8,4-2.1s3-0.3,4-0.6s3.1-1.4,4-1.7s3.1-0.9,4-1.2s3.1-1.2,4-1.7s3.1-1.9,4-2.4s3.1-1.5,4-2s3.1-1.7,4-2.1
		c0.9-0.4,3.1-1.1,4-1.6c0.9-0.4,3-2,4-2.3c0.9-0.3,3-0.2,4-0.3s3-0.7,4-0.8s3,0.1,4,0.2c1,0,3,0,4-0.1s3-0.2,4-0.4s3-0.9,4-1.2
		s3-0.8,4-1s3-0.6,4-0.6s3,0.3,4,0.3s3-0.2,4-0.2s3,0,4,0.2c1,0.1,3,0.7,4,0.7s3.1-0.7,4-0.4s3,2.8,4,3.1c0.9,0.3,3.1-0.3,4-0.7
		s3.1-2.2,4-2.6c0.9-0.4,3.1-0.7,4-1.2s3.1-3,4-3.4s3,0.5,4,0.3s3.2-1.2,4-1.9c0.8-0.6,3.2-4,4-4.6c0.8-0.5,3-0.8,4-0.6s3,2.5,4,2.5
		c1,0.1,3-1.8,4-1.9c1-0.1,3,1.3,4,1s3.1-2.8,4-3.2s3-0.3,4-0.5s3-0.6,4-0.8s3-0.3,4-0.5s3-1.2,4-1.3s3,0.8,4,0.9c1,0.1,3,0.2,4,0.2
		s3-0.4,4-0.5s3-0.2,4-0.3s3-0.4,4-0.6c1-0.3,3.1-1.2,4-1.6c0.9-0.3,3.1-1,4-1.4s3.2-1.8,4-2.3c0.8-0.6,3.2-2.6,4-3.2
		c0.8-0.6,3.1-2.9,4-3.3c0.9-0.4,3-0.6,4-0.7c1-0.1,3,0.1,4,0.2c1,0.1,3,0.6,4,0.7c1,0.1,3.1-0.2,4,0.1c0.9,0.4,3.1,2.7,4,3.1
		c0.9,0.4,3,0.4,4,0.7c0.9,0.3,3.1,1.2,4,1.8c0.9,0.5,3,2.7,4,2.8c1,0.2,3-1.2,4-1.5c0.9-0.3,3-1.2,4-1.2c1-0.1,3.1,1.2,4,0.9
		s3.1-3.2,4-3.8c0.9-0.5,3-0.8,4-1s3.1-0.2,4-0.7s3.1-3.1,4-3.6s3-0.2,4-0.4c1-0.1,3-0.4,4-0.7c1-0.2,3-1.1,4-1.3c1-0.3,3-0.6,4-0.8
		s3-0.6,4-0.9c1-0.2,3.1-0.7,4-1.1c0.9-0.4,3-1.7,4-2c0.9-0.3,3-0.4,4-0.6c1-0.2,3.1-0.9,4-1.3c0.9-0.4,3.1-2.1,4-2.5s3.1-0.4,4-0.8
		c0.9-0.4,3-2.1,4-2.4c0.9-0.3,3,0,4-0.2s3-1.3,4-1.6c1-0.2,3.1-0.1,4-0.4c0.9-0.3,3-2.5,4-2.6s3,1.8,4,2s3-0.5,4-0.2s3.1,2.1,4,2.5
		s3.1,0.5,4,0.9s3.1,2,4,2.4s3.1,0.6,4,1c0.9,0.3,3.1,2.5,4,2c0.8-0.5,3.1-6.7,4-7s3.2,3.5,4,4.1s4,1.2,4,1.2"/>
	<path class="st10" d="M101.1,705.9c-1,0,3.6-5.1,4-6s3.7-11.5,4-12.5s3.7-14,4-15c0.2-1,3.8-14.1,4-15.1s3.8-19.4,4-20.4
		s3.6-9.6,4-10.5c0.3-0.9,3.6-9.3,4-10.3c0.3-0.9,3.7-10.4,4-11.4s3.7-13,4-14s3.7-12.5,4-13.4s3.6-8.9,4-9.8c0.4-0.9,3.6-5.2,4-6.1
		c0.3-0.9,3.7-14.4,4-15.4c0.3-0.9,3.7-6.1,4-7.1c0.3-0.9,3.6-14.5,4-15.4c0.3-0.9,3.3-5.5,4-6.2s3.5-0.4,4-1.2s3.5-10.3,4-11.2
		c0.4-0.9,3-4.1,4-4.4s3.1,2.5,4,2.1s3.4-4.6,4-5.4s3.1-4.6,4-4.9s3.1,1.8,4,2.2c0.9,0.5,3.1,1.4,4,1.8s3.4,1,4,1.7s3.6,7,4,7.9
		s3,7.9,4,8.2c0.9,0.3,3.1-5.3,4-5.6c0.9-0.4,3.1,2.8,4,2.4s3.5-4.8,4-5.7c0.5-0.9,3.1-8.7,4-9.2s3.1,5.4,4,4.9s3.8-8.6,4-9.6
		s3.7-23.7,4-24.6c0.3-1,3.5-3.1,4-4s3.6-10.3,4-11.3c0.4-0.9,3.5-9.1,4-10c0.4-0.9,3.7-4.6,4-5.6s3.8-23,4-24s3.2-9.2,4-8.6
		s3.2,14.8,4,15.4s3.2-7.9,4-8.5c0.8-0.5,3.1,3.6,4,3.2s3.5-6,4-6.8c0.5-0.9,3-6,4-5.9c1,0,3.2,5.5,4,6.1s3.1-0.2,4,0.2
		c0.9,0.4,3,3.7,4,3.5s3.5-4.2,4-5c0.4-0.9,3.6-9.7,4-10.6s3.4-7.6,4-8.5c0.5-0.8,3.3-2.7,4-3.5c0.6-0.8,3.2-5.2,4-5.8
		c0.8-0.6,3.2,1,4,0.5c0.8-0.6,3-5.6,4-5.8c1-0.2,3.3,4.8,4,4.2c0.7-0.7,3.5-10.8,4-11.6c0.5-0.9,3.1-1.3,4-1.7c0.9-0.5,3-2.7,4-2.5
		s3.1,4.5,4,4.1s3.5-7,4-7.8c0.5-0.9,3.7-4.8,4-5.8s3.2-18.5,4-19.1c0.7-0.7,3.1,11.5,4,12s3.5-6.8,4-7.7c0.4-0.9,3.6-7.3,4-8.2
		c0.4-0.9,3.2-9.4,4-8.8s3.5,13.9,4,14.8s3.4-0.3,4,0.5c0.5,0.8,3.3,11,4,11.7s3.4-4.8,4-4s3.7,14.7,4,15.7s3.7,11.5,4,12.4
		c0.3,1,3.5,15.2,4,16c0.5,0.9,3-2,4-2.1s3,1.2,4,1.3c1,0.2,3.1-0.2,4,0.2c0.9,0.4,3.1,2.7,4,3.2c0.8,0.5,3.3,2.6,4,1.9
		s3.8-8.6,4-9.6s3.8-21,4-22s3.7-19.8,4-20.8s3.7-6.2,4-7.1s3.6-16.1,4-17c0.3-0.9,3.5-3.4,4-4.3c0.4-0.9,3.1-11.2,4-11.7
		s3.7,6.4,4,7.3c0.3,1,3.8,16.7,4,17.6c0.2,1,3.7,17.3,4,18.2c0.3,1,3.7,5.3,4,6.2c0.3,1,3.8,17.7,4,18.7s3.8,15.1,4,16.1
		s3.8,22.2,4,23.2c0.1,1,3.9,30.7,4,31.6c0.1,1,3.8,29.4,4,30.4s3.3,8.4,4,9.1s3.6-1.3,4-0.4s3.7,18.4,4,19.4s3.6,9.2,4,10.1
		s3,6,4,6.3c1,0.2,3.5-3.3,4-4.2c0.4-0.9,3.5-11.2,4-12c0.5-0.9,3.3-2.5,4-1.8c0.7,0.7,3,9.7,4,9.4c1-0.3,3.6-10.8,4-11.7
		c0.4-0.9,3.1-5.4,4-5.8s3.1,2.1,4,2.6c0.8,0.5,3.5,1.5,4,2.3c0.5,0.9,3.8,10.1,4,11.1s3.8,20.6,4,21.5c0.2,1,3.8,20.4,4,21.3
		c0.2,1,3.9,26.8,4,27.8s3.8,27.5,4,28.5c0.1,1,3.8,22,4,22.9c0.2,1,3.7,9.8,4,10.8c0.3,0.9,3.7,13.9,4,14.8c0.3,1,3.5,8.2,4,9.1
		c0.4,0.9,3.5,6.2,4,7c0.5,0.9,3.3,5.7,4,6.4c0.6,0.8,3.2,2.2,4,2.7c0.8,0.6,3.4,1.9,4,2.7s3.5,8.1,4,9s3.4,3.1,4,3.9
		c0.6,0.8,3.4,6.2,4,7s3.5,2.5,4,3.3s3.6,8.2,4,9.2c0.4,0.9,3.4,8,4,8.8s3.2,1.9,4,2.5s3.2,2.3,4,2.9c0.8,0.6,3.1,3,4,3.5
		c0.8,0.5,3,1,4,1.3s3,1,4,1.2s3,0.7,4,0.6c1-0.1,3-1.4,4-1.2s3.3,2.1,4,2.9c0.7,0.7,3.1,4.9,4,5.4s3-1.2,4-1c1,0.1,3.1,1.6,4,2
		s3,1.5,4,1.8c0.9,0.3,3.1,0.7,4,1s3.2,1.3,4,1.9c0.8,0.6,3.1,3.5,4,3.9s3-0.6,4-0.5s3.1,0.7,4,1.1c0.9,0.4,3,2.3,4,2.4
		c1,0.1,3.1-2,4-1.5s3.5,5.4,4,6.2c0.5,0.9,3.1,6.7,4,7.3c0.8,0.5,3.1-1.9,4-2.3c0.9-0.4,3.2-1,4-1.5c0.8-0.6,3.2-3.7,4-4.3
		c0.8-0.5,3-1,4-0.9s3.2,2.2,4,1.5s3.5-7.6,4-8.5s3.1-4.3,4-4.8s3-0.2,4,0c1,0.3,3.4,1.5,4,2.3s3.4,6.9,4,7.7s3.1,1.9,4,2.4
		s3.4,1.1,4,1.9c0.6,0.8,3.4,9.1,4,9.9c0.6,0.8,3.1,1.2,4,1.7s3,2.7,4,2.5s3.1-3.8,4-4.2s3.1,1.3,4,0.8s3.2-4.7,4-5.3s3.3-0.2,4-1
		c0.7-0.7,3.4-6.7,4-7.5s3.1-1.8,4-2.3c0.9-0.4,3.1-1.8,4-1.5c0.9,0.4,3,4.3,4,4.5s3.1-3,4-2.7s3.1,5.3,4,5.6s3-2.5,4-2.6
		s3,1.5,4,1.7s3-0.3,4,0c1,0.2,3,2.3,4,2s3.1-3.7,4-4.2s3.1,0.1,4-0.3c0.9-0.4,3-2.7,4-2.8c1-0.2,3,1.9,4,1.6c1-0.3,3.1-3.8,4-4.2
		s3.1,1.1,4,0.6s3.2-4.7,4-5.2c0.8-0.6,3.1,0.1,4-0.3c0.9-0.4,3.3-2.3,4-3s3.3-4.5,4-5.2s3-3.2,4-3.4s3.2,2,4,1.4s3.3-6.8,4-7.5
		s3,0.3,4,0.1c1-0.3,3-2,4-2.2s3,0.5,4,0.5s3.1,0,4-0.4s3.3-2.2,4-2.9s3.2-4.4,4-4.9c0.8-0.6,3.4,0.2,4-0.6s3.4-8.5,4-9.3
		s3.2-1.2,4-1.9s3.3-4.4,4-5.1c0.7-0.7,3.1-2,4-2.4c0.9-0.5,3.1-1.2,4-1.7s3.1-2.5,4-2.8c0.9-0.4,3.1-0.6,4-0.3s3,3.2,4,3.2
		s3.3-2.4,4-3.1c0.7-0.7,3.2-4.1,4-4.7c0.8-0.6,3-1.2,4-1.2c1,0.1,3.1,2.1,4,1.7c0.9-0.5,5-5.9,4-5.8"/>
	<path class="st11" d="M101.1,705.9c0,0,3.6-5.1,4-6s3.7-11.5,4-12.5s3.7-14,4-15c0.2-1,3.8-14.1,4-15.1s3.8-19.4,4-20.4
		s3.6-9.6,4-10.5c0.3-0.9,3.6-9.3,4-10.3c0.3-0.9,3.7-10.4,4-11.4s3.7-13,4-14s3.7-12.5,4-13.4s3.6-8.9,4-9.8c0.4-0.9,3.6-5.2,4-6.1
		c0.3-0.9,3.7-14.4,4-15.4c0.3-0.9,3.7-6.1,4-7.1c0.3-0.9,3.6-14.5,4-15.4c0.3-0.9,3.3-5.5,4-6.2s3.5-0.4,4-1.2s3.5-10.3,4-11.2
		c0.4-0.9,3-4.1,4-4.4s3.1,2.5,4,2.1s3.4-4.6,4-5.4s3.1-4.6,4-4.9s3.1,1.8,4,2.2c0.9,0.5,3.1,1.4,4,1.8s3.4,1,4,1.7s3.6,7,4,7.9
		s3,7.9,4,8.2c0.9,0.3,3.1-5.3,4-5.6c0.9-0.4,3.1,2.8,4,2.4s3.5-4.8,4-5.7c0.5-0.9,3.1-8.7,4-9.2s3.1,5.4,4,4.9s3.8-8.6,4-9.6
		s3.7-23.7,4-24.6c0.3-1,3.5-3.1,4-4s3.6-10.3,4-11.3c0.4-0.9,3.5-9.1,4-10c0.4-0.9,3.7-4.6,4-5.6s3.8-23,4-24s3.2-9.2,4-8.6
		s3.2,14.8,4,15.4s3.2-7.9,4-8.5c0.8-0.5,3.1,3.6,4,3.2s3.5-6,4-6.8c0.5-0.9,3-6,4-5.9c1,0,3.2,5.5,4,6.1s3.1-0.2,4,0.2
		c0.9,0.4,3,3.7,4,3.5s3.5-4.2,4-5c0.4-0.9,3.6-9.7,4-10.6s3.4-7.6,4-8.5c0.5-0.8,3.3-2.7,4-3.5c0.6-0.8,3.2-5.2,4-5.8
		c0.8-0.6,3.2,1,4,0.5c0.8-0.6,3-5.6,4-5.8c1-0.2,3.3,4.8,4,4.2c0.7-0.7,3.5-10.8,4-11.6c0.5-0.9,3.1-1.3,4-1.7c0.9-0.5,3-2.7,4-2.5
		s3.1,4.5,4,4.1s3.5-7,4-7.8c0.5-0.9,3.7-4.8,4-5.8s3.2-18.5,4-19.1c0.7-0.7,3.1,11.5,4,12s3.5-6.8,4-7.7c0.4-0.9,3.6-7.3,4-8.2
		c0.4-0.9,3.2-9.4,4-8.8s3.5,13.9,4,14.8s3.4-0.3,4,0.5c0.5,0.8,3.3,11,4,11.7s3.4-4.8,4-4s3.7,14.7,4,15.7s3.7,11.5,4,12.4
		c0.3,1,3.5,15.2,4,16c0.5,0.9,3-2,4-2.1s3,1.2,4,1.3c1,0.2,3.1-0.2,4,0.2c0.9,0.4,3.1,2.7,4,3.2c0.8,0.5,3.3,2.6,4,1.9
		s3.8-8.6,4-9.6s3.8-21,4-22s3.7-19.8,4-20.8s3.7-6.2,4-7.1s3.6-16.1,4-17c0.3-0.9,3.5-3.4,4-4.3c0.4-0.9,3.1-11.2,4-11.7
		s3.7,6.4,4,7.3c0.3,1,3.8,16.7,4,17.6c0.2,1,3.7,17.3,4,18.2c0.3,1,3.7,5.3,4,6.2c0.3,1,3.8,17.7,4,18.7s3.8,15.1,4,16.1
		s3.8,22.2,4,23.2c0.1,1,3.9,30.7,4,31.6c0.1,1,3.8,29.4,4,30.4s3.3,8.4,4,9.1s3.6-1.3,4-0.4s3.7,18.4,4,19.4s3.6,9.2,4,10.1
		s3,6,4,6.3c1,0.2,3.5-3.3,4-4.2c0.4-0.9,3.5-11.2,4-12c0.5-0.9,3.3-2.5,4-1.8c0.7,0.7,3,9.7,4,9.4c1-0.3,3.6-10.8,4-11.7
		c0.4-0.9,3.1-5.4,4-5.8s3.1,2.1,4,2.6c0.8,0.5,3.5,1.5,4,2.3c0.5,0.9,3.8,10.1,4,11.1s3.8,20.6,4,21.5c0.2,1,3.8,20.4,4,21.3
		c0.2,1,3.9,26.8,4,27.8s3.8,27.5,4,28.5c0.1,1,3.8,22,4,22.9c0.2,1,3.7,9.8,4,10.8c0.3,0.9,3.7,13.9,4,14.8c0.3,1,3.5,8.2,4,9.1
		c0.4,0.9,3.5,6.2,4,7c0.5,0.9,3.3,5.7,4,6.4c0.6,0.8,3.2,2.2,4,2.7c0.8,0.6,3.4,1.9,4,2.7s3.5,8.1,4,9s3.4,3.1,4,3.9
		c0.6,0.8,3.4,6.2,4,7s3.5,2.5,4,3.3s3.6,8.2,4,9.2c0.4,0.9,3.4,8,4,8.8s3.2,1.9,4,2.5s3.2,2.3,4,2.9c0.8,0.6,3.1,3,4,3.5
		c0.8,0.5,3,1,4,1.3s3,1,4,1.2s3,0.7,4,0.6c1-0.1,3-1.4,4-1.2s3.3,2.1,4,2.9c0.7,0.7,3.1,4.9,4,5.4s3-1.2,4-1c1,0.1,3.1,1.6,4,2
		s3,1.5,4,1.8c0.9,0.3,3.1,0.7,4,1s3.2,1.3,4,1.9c0.8,0.6,3.1,3.5,4,3.9s3-0.6,4-0.5s3.1,0.7,4,1.1c0.9,0.4,3,2.3,4,2.4
		c1,0.1,3.1-2,4-1.5s3.5,5.4,4,6.2c0.5,0.9,3.1,6.7,4,7.3c0.8,0.5,3.1-1.9,4-2.3c0.9-0.4,3.2-1,4-1.5c0.8-0.6,3.2-3.7,4-4.3
		c0.8-0.5,3-1,4-0.9s3.2,2.2,4,1.5s3.5-7.6,4-8.5s3.1-4.3,4-4.8s3-0.2,4,0c1,0.3,3.4,1.5,4,2.3s3.4,6.9,4,7.7s3.1,1.9,4,2.4
		s3.4,1.1,4,1.9c0.6,0.8,3.4,9.1,4,9.9c0.6,0.8,3.1,1.2,4,1.7s3,2.7,4,2.5s3.1-3.8,4-4.2s3.1,1.3,4,0.8s3.2-4.7,4-5.3s3.3-0.2,4-1
		c0.7-0.7,3.4-6.7,4-7.5s3.1-1.8,4-2.3c0.9-0.4,3.1-1.8,4-1.5c0.9,0.4,3,4.3,4,4.5s3.1-3,4-2.7s3.1,5.3,4,5.6s3-2.5,4-2.6
		s3,1.5,4,1.7s3-0.3,4,0c1,0.2,3,2.3,4,2s3.1-3.7,4-4.2s3.1,0.1,4-0.3c0.9-0.4,3-2.7,4-2.8c1-0.2,3,1.9,4,1.6c1-0.3,3.1-3.8,4-4.2
		s3.1,1.1,4,0.6s3.2-4.7,4-5.2c0.8-0.6,3.1,0.1,4-0.3c0.9-0.4,3.3-2.3,4-3s3.3-4.5,4-5.2s3-3.2,4-3.4s3.2,2,4,1.4s3.3-6.8,4-7.5
		s3,0.3,4,0.1c1-0.3,3-2,4-2.2s3,0.5,4,0.5s3.1,0,4-0.4s3.3-2.2,4-2.9s3.2-4.4,4-4.9c0.8-0.6,3.4,0.2,4-0.6s3.4-8.5,4-9.3
		s3.2-1.2,4-1.9s3.3-4.4,4-5.1c0.7-0.7,3.1-2,4-2.4c0.9-0.5,3.1-1.2,4-1.7s3.1-2.5,4-2.8c0.9-0.4,3.1-0.6,4-0.3s3,3.2,4,3.2
		s3.3-2.4,4-3.1c0.7-0.7,3.2-4.1,4-4.7c0.8-0.6,3-1.2,4-1.2c1,0.1,3.1,2.1,4,1.7c0.9-0.5,4-5.8,4-5.8"/>
</g>
</svg>
