<?xml version="1.0"?>
<svg xmlns="http://www.w3.org/2000/svg" width="2000" height="2000" viewBox="-1000 -1000 2000 2000">
    <path d="M-1000,-1000L1000,-1000L1000,1000L-1000,1000Z" fill="#212226"/>
    <g>
        <path d="M-723.12,-479.78C-723.12,-479.78 -459.78,-336.64 -459.78,-336.64C-459.78,-336.64 -196.46,-235.31 -196.46,-235.31C-196.46,-235.31 66.88,-109.58 66.88,-109.58C66.88,-109.58 330.22,-161.67 330.22,-161.67C330.22,-161.67 593.54,-225.97 593.54,-225.97C593.54,-225.97 856.88,694.09 856.88,694.09" stroke-width="5" fill="none" stroke="#bf381d"/>
        <path d="M-747.50,841.52L-766.14,841.52L-766.14,838.93L-756.29,827.99C-754.84,826.33 -753.83,824.99 -753.28,823.96C-752.72,822.92 -752.45,821.85 -752.45,820.74C-752.45,819.26 -752.90,818.04 -753.79,817.09C-754.69,816.14 -755.89,815.66 -757.39,815.66C-759.18,815.66 -760.58,816.18 -761.58,817.20C-762.57,818.22 -763.07,819.64 -763.07,821.46L-766.68,821.46C-766.68,818.85 -765.84,816.73 -764.16,815.12C-762.47,813.50 -760.21,812.70 -757.39,812.70C-754.74,812.70 -752.65,813.39 -751.12,814.78C-749.58,816.16 -748.81,818.01 -748.81,820.31C-748.81,823.11 -750.60,826.45 -754.17,830.31L-761.78,838.57L-747.50,838.57ZM-725.84,829.39C-725.84,833.63 -726.57,836.77 -728.01,838.83C-729.46,840.89 -731.72,841.91 -734.79,841.91C-737.82,841.91 -740.07,840.91 -741.53,838.90C-742.99,836.88 -743.74,833.88 -743.79,829.88L-743.79,825.06C-743.79,820.88 -743.07,817.77 -741.63,815.74C-740.18,813.71 -737.92,812.70 -734.83,812.70C-731.77,812.70 -729.52,813.68 -728.07,815.63C-726.63,817.59 -725.88,820.62 -725.84,824.71ZM-729.46,824.45C-729.46,821.39 -729.89,819.16 -730.75,817.76C-731.61,816.36 -732.97,815.66 -734.83,815.66C-736.68,815.66 -738.03,816.36 -738.87,817.75C-739.72,819.15 -740.15,821.29 -740.18,824.18L-740.18,829.96C-740.18,833.03 -739.73,835.30 -738.84,836.77C-737.95,838.23 -736.60,838.96 -734.79,838.96C-733.01,838.96 -731.68,838.27 -730.82,836.89C-729.95,835.51 -729.50,833.34 -729.46,830.37ZM-709.34,841.52L-712.97,841.52L-712.97,817.44L-720.26,820.12L-720.26,816.84L-709.91,812.95L-709.34,812.95ZM-683.50,831.97L-679.56,831.97L-679.56,834.92L-683.50,834.92L-683.50,841.52L-687.13,841.52L-687.13,834.92L-700.08,834.92L-700.08,832.79L-687.35,813.09L-683.50,813.09ZM-695.98,831.97L-687.13,831.97L-687.13,818.03L-687.56,818.81Z" fill="#ffffff"/>
        <path d="M-483.83,841.52L-502.46,841.52L-502.46,838.93L-492.62,827.99C-491.16,826.33 -490.15,824.99 -489.60,823.96C-489.05,822.92 -488.77,821.85 -488.77,820.74C-488.77,819.26 -489.22,818.04 -490.12,817.09C-491.02,816.14 -492.22,815.66 -493.71,815.66C-495.51,815.66 -496.91,816.18 -497.90,817.20C-498.90,818.22 -499.40,819.64 -499.40,821.46L-503.01,821.46C-503.01,818.85 -502.17,816.73 -500.48,815.12C-498.79,813.50 -496.54,812.70 -493.71,812.70C-491.07,812.70 -488.98,813.39 -487.44,814.78C-485.91,816.16 -485.14,818.01 -485.14,820.31C-485.14,823.11 -486.92,826.45 -490.49,830.31L-498.11,838.57L-483.83,838.57ZM-462.17,829.39C-462.17,833.63 -462.89,836.77 -464.34,838.83C-465.78,840.89 -468.04,841.91 -471.11,841.91C-474.15,841.91 -476.39,840.91 -477.85,838.90C-479.31,836.88 -480.07,833.88 -480.12,829.88L-480.12,825.06C-480.12,820.88 -479.40,817.77 -477.95,815.74C-476.51,813.71 -474.24,812.70 -471.15,812.70C-468.09,812.70 -465.84,813.68 -464.40,815.63C-462.95,817.59 -462.21,820.62 -462.17,824.71ZM-465.78,824.45C-465.78,821.39 -466.21,819.16 -467.07,817.76C-467.93,816.36 -469.29,815.66 -471.15,815.66C-473.00,815.66 -474.35,816.36 -475.20,817.75C-476.04,819.15 -476.48,821.29 -476.51,824.18L-476.51,829.96C-476.51,833.03 -476.06,835.30 -475.17,836.77C-474.28,838.23 -472.92,838.96 -471.11,838.96C-469.33,838.96 -468.01,838.27 -467.14,836.89C-466.27,835.51 -465.82,833.34 -465.78,830.37ZM-445.67,841.52L-449.30,841.52L-449.30,817.44L-456.58,820.12L-456.58,816.84L-446.23,812.95L-445.67,812.95ZM-433.42,827.27L-431.97,813.09L-417.40,813.09L-417.40,816.43L-428.91,816.43L-429.77,824.18C-428.37,823.36 -426.79,822.95 -425.02,822.95C-422.43,822.95 -420.37,823.81 -418.85,825.52C-417.33,827.23 -416.56,829.54 -416.56,832.46C-416.56,835.39 -417.36,837.70 -418.94,839.38C-420.52,841.07 -422.73,841.91 -425.57,841.91C-428.08,841.91 -430.13,841.22 -431.72,839.82C-433.31,838.43 -434.21,836.50 -434.44,834.04L-431.02,834.04C-430.80,835.67 -430.22,836.90 -429.28,837.72C-428.34,838.55 -427.10,838.96 -425.57,838.96C-423.89,838.96 -422.57,838.39 -421.61,837.25C-420.66,836.10 -420.18,834.52 -420.18,832.50C-420.18,830.60 -420.69,829.07 -421.73,827.92C-422.77,826.77 -424.14,826.19 -425.86,826.19C-427.44,826.19 -428.67,826.54 -429.57,827.23L-430.53,828.01Z" fill="#ffffff"/>
        <path d="M-220.33,841.52L-238.96,841.52L-238.96,838.93L-229.12,827.99C-227.66,826.33 -226.66,824.99 -226.10,823.96C-225.55,822.92 -225.27,821.85 -225.27,820.74C-225.27,819.26 -225.72,818.04 -226.62,817.09C-227.52,816.14 -228.72,815.66 -230.21,815.66C-232.01,815.66 -233.41,816.18 -234.40,817.20C-235.40,818.22 -235.90,819.64 -235.90,821.46L-239.51,821.46C-239.51,818.85 -238.67,816.73 -236.98,815.12C-235.29,813.50 -233.04,812.70 -230.21,812.70C-227.57,812.70 -225.48,813.39 -223.94,814.78C-222.41,816.16 -221.64,818.01 -221.64,820.31C-221.64,823.11 -223.42,826.45 -226.99,830.31L-234.61,838.57L-220.33,838.57ZM-198.67,829.39C-198.67,833.63 -199.39,836.77 -200.84,838.83C-202.28,840.89 -204.54,841.91 -207.62,841.91C-210.65,841.91 -212.90,840.91 -214.35,838.90C-215.81,836.88 -216.57,833.88 -216.62,829.88L-216.62,825.06C-216.62,820.88 -215.90,817.77 -214.45,815.74C-213.01,813.71 -210.74,812.70 -207.65,812.70C-204.59,812.70 -202.34,813.68 -200.90,815.63C-199.45,817.59 -198.71,820.62 -198.67,824.71ZM-202.28,824.45C-202.28,821.39 -202.71,819.16 -203.57,817.76C-204.43,816.36 -205.79,815.66 -207.65,815.66C-209.50,815.66 -210.85,816.36 -211.70,817.75C-212.54,819.15 -212.98,821.29 -213.01,824.18L-213.01,829.96C-213.01,833.03 -212.56,835.30 -211.67,836.77C-210.78,838.23 -209.43,838.96 -207.62,838.96C-205.83,838.96 -204.51,838.27 -203.64,836.89C-202.78,835.51 -202.32,833.34 -202.28,830.37ZM-182.17,841.52L-185.80,841.52L-185.80,817.44L-193.08,820.12L-193.08,816.84L-182.73,812.95L-182.17,812.95ZM-157.40,813.07L-157.40,816.13L-158.06,816.13C-160.88,816.18 -163.12,817.02 -164.78,818.63C-166.45,820.25 -167.41,822.52 -167.67,825.45C-166.18,823.73 -164.13,822.87 -161.54,822.87C-159.07,822.87 -157.09,823.74 -155.61,825.49C-154.14,827.23 -153.40,829.49 -153.40,832.25C-153.40,835.18 -154.19,837.52 -155.79,839.28C-157.38,841.04 -159.52,841.91 -162.21,841.91C-164.93,841.91 -167.13,840.87 -168.83,838.78C-170.52,836.69 -171.37,834.00 -171.37,830.70L-171.37,829.32C-171.37,824.08 -170.25,820.08 -168.02,817.31C-165.78,814.55 -162.46,813.13 -158.05,813.07ZM-162.15,825.88C-163.38,825.88 -164.52,826.25 -165.56,826.99C-166.61,827.73 -167.33,828.67 -167.73,829.79L-167.73,831.11C-167.73,833.46 -167.21,835.35 -166.15,836.78C-165.10,838.21 -163.78,838.93 -162.21,838.93C-160.58,838.93 -159.30,838.33 -158.37,837.13C-157.44,835.93 -156.97,834.36 -156.97,832.42C-156.97,830.47 -157.44,828.89 -158.39,827.69C-159.33,826.48 -160.58,825.88 -162.15,825.88Z" fill="#ffffff"/>
        <path d="M42.92,841.52L24.28,841.52L24.28,838.93L34.13,827.99C35.58,826.33 36.59,824.99 37.14,823.96C37.70,822.92 37.97,821.85 37.97,820.74C37.97,819.26 37.52,818.04 36.63,817.09C35.73,816.14 34.53,815.66 33.03,815.66C31.24,815.66 29.84,816.18 28.84,817.20C27.85,818.22 27.35,819.64 27.35,821.46L23.74,821.46C23.74,818.85 24.58,816.73 26.26,815.12C27.95,813.50 30.21,812.70 33.03,812.70C35.68,812.70 37.77,813.39 39.30,814.78C40.84,816.16 41.61,818.01 41.61,820.31C41.61,823.11 39.82,826.45 36.25,830.31L28.64,838.57L42.92,838.57ZM64.58,829.39C64.58,833.63 63.85,836.77 62.41,838.83C60.96,840.89 58.70,841.91 55.63,841.91C52.60,841.91 50.35,840.91 48.89,838.90C47.43,836.88 46.68,833.88 46.63,829.88L46.63,825.06C46.63,820.88 47.35,817.77 48.79,815.74C50.24,813.71 52.50,812.70 55.59,812.70C58.65,812.70 60.90,813.68 62.35,815.63C63.79,817.59 64.54,820.62 64.58,824.71ZM60.96,824.45C60.96,821.39 60.53,819.16 59.67,817.76C58.81,816.36 57.45,815.66 55.59,815.66C53.74,815.66 52.39,816.36 51.55,817.75C50.70,819.15 50.27,821.29 50.24,824.18L50.24,829.96C50.24,833.03 50.69,835.30 51.58,836.77C52.47,838.23 53.82,838.96 55.63,838.96C57.41,838.96 58.74,838.27 59.60,836.89C60.47,835.51 60.92,833.34 60.96,830.37ZM81.08,841.52L77.45,841.52L77.45,817.44L70.16,820.12L70.16,816.84L80.51,812.95L81.08,812.95ZM110.02,815.12L98.25,841.52L94.46,841.52L106.20,816.05L90.81,816.05L90.81,813.09L110.02,813.09Z" fill="#ffffff"/>
        <path d="M306.47,841.52L287.84,841.52L287.84,838.93L297.68,827.99C299.14,826.33 300.15,824.99 300.70,823.96C301.25,822.92 301.53,821.85 301.53,820.74C301.53,819.26 301.08,818.04 300.18,817.09C299.29,816.14 298.09,815.66 296.59,815.66C294.79,815.66 293.40,816.18 292.40,817.20C291.40,818.22 290.91,819.64 290.91,821.46L287.29,821.46C287.29,818.85 288.14,816.73 289.82,815.12C291.51,813.50 293.76,812.70 296.59,812.70C299.23,812.70 301.32,813.39 302.86,814.78C304.40,816.16 305.16,818.01 305.16,820.31C305.16,823.11 303.38,826.45 299.81,830.31L292.20,838.57L306.47,838.57ZM328.13,829.39C328.13,833.63 327.41,836.77 325.97,838.83C324.52,840.89 322.26,841.91 319.19,841.91C316.15,841.91 313.91,840.91 312.45,838.90C310.99,836.88 310.24,833.88 310.18,829.88L310.18,825.06C310.18,820.88 310.91,817.77 312.35,815.74C313.80,813.71 316.06,812.70 319.15,812.70C322.21,812.70 324.46,813.68 325.91,815.63C327.35,817.59 328.09,820.62 328.13,824.71ZM324.52,824.45C324.52,821.39 324.09,819.16 323.23,817.76C322.37,816.36 321.01,815.66 319.15,815.66C317.30,815.66 315.95,816.36 315.11,817.75C314.26,819.15 313.82,821.29 313.80,824.18L313.80,829.96C313.80,833.03 314.24,835.30 315.14,836.77C316.03,838.23 317.38,838.96 319.19,838.96C320.97,838.96 322.30,838.27 323.16,836.89C324.03,835.51 324.48,833.34 324.52,830.37ZM344.64,841.52L341.00,841.52L341.00,817.44L333.72,820.12L333.72,816.84L344.07,812.95L344.64,812.95ZM372.47,820.51C372.47,821.93 372.09,823.19 371.35,824.30C370.60,825.40 369.58,826.27 368.31,826.89C369.79,827.53 370.97,828.46 371.83,829.69C372.70,830.91 373.13,832.30 373.13,833.85C373.13,836.31 372.30,838.27 370.64,839.73C368.98,841.18 366.80,841.91 364.09,841.91C361.36,841.91 359.17,841.18 357.52,839.72C355.87,838.25 355.05,836.30 355.05,833.85C355.05,832.31 355.47,830.92 356.31,829.69C357.15,828.45 358.31,827.51 359.79,826.87C358.53,826.25 357.53,825.38 356.81,824.28C356.08,823.17 355.71,821.91 355.71,820.51C355.71,818.11 356.48,816.21 358.02,814.80C359.55,813.40 361.58,812.70 364.09,812.70C366.59,812.70 368.61,813.40 370.15,814.80C371.70,816.21 372.47,818.11 372.47,820.51ZM369.52,833.77C369.52,832.18 369.02,830.89 368.01,829.88C367.00,828.88 365.68,828.38 364.05,828.38C362.42,828.38 361.12,828.87 360.14,829.86C359.15,830.85 358.66,832.15 358.66,833.77C358.66,835.38 359.14,836.65 360.10,837.58C361.05,838.50 362.38,838.96 364.09,838.96C365.78,838.96 367.11,838.50 368.07,837.57C369.04,836.64 369.52,835.37 369.52,833.77ZM364.09,815.66C362.67,815.66 361.52,816.10 360.64,816.98C359.76,817.86 359.32,819.06 359.32,820.57C359.32,822.01 359.76,823.18 360.62,824.07C361.49,824.96 362.64,825.41 364.09,825.41C365.54,825.41 366.69,824.96 367.56,824.07C368.42,823.18 368.86,822.01 368.86,820.57C368.86,819.12 368.41,817.94 367.51,817.03C366.61,816.12 365.47,815.66 364.09,815.66Z" fill="#ffffff"/>
        <path d="M570.02,841.52L551.39,841.52L551.39,838.93L561.23,827.99C562.69,826.33 563.70,824.99 564.25,823.96C564.80,822.92 565.08,821.85 565.08,820.74C565.08,819.26 564.63,818.04 563.73,817.09C562.83,816.14 561.64,815.66 560.14,815.66C558.34,815.66 556.94,816.18 555.95,817.20C554.95,818.22 554.45,819.64 554.45,821.46L550.84,821.46C550.84,818.85 551.68,816.73 553.37,815.12C555.06,813.50 557.31,812.70 560.14,812.70C562.78,812.70 564.87,813.39 566.41,814.78C567.94,816.16 568.71,818.01 568.71,820.31C568.71,823.11 566.93,826.45 563.36,830.31L555.74,838.57L570.02,838.57ZM591.68,829.39C591.68,833.63 590.96,836.77 589.51,838.83C588.07,840.89 585.81,841.91 582.74,841.91C579.70,841.91 577.46,840.91 576.00,838.90C574.54,836.88 573.78,833.88 573.73,829.88L573.73,825.06C573.73,820.88 574.45,817.77 575.90,815.74C577.35,813.71 579.61,812.70 582.70,812.70C585.76,812.70 588.01,813.68 589.45,815.63C590.90,817.59 591.64,820.62 591.68,824.71ZM588.07,824.45C588.07,821.39 587.64,819.16 586.78,817.76C585.92,816.36 584.56,815.66 582.70,815.66C580.85,815.66 579.50,816.36 578.65,817.75C577.81,819.15 577.37,821.29 577.35,824.18L577.35,829.96C577.35,833.03 577.79,835.30 578.68,836.77C579.58,838.23 580.93,838.96 582.74,838.96C584.52,838.96 585.84,838.27 586.71,836.89C587.58,835.51 588.03,833.34 588.07,830.37ZM608.19,841.52L604.55,841.52L604.55,817.44L597.27,820.12L597.27,816.84L607.62,812.95L608.19,812.95ZM632.62,829.02C631.86,829.92 630.96,830.64 629.91,831.19C628.87,831.74 627.72,832.01 626.47,832.01C624.83,832.01 623.40,831.61 622.18,830.80C620.96,829.99 620.02,828.86 619.36,827.39C618.69,825.93 618.36,824.31 618.36,822.54C618.36,820.64 618.72,818.93 619.44,817.40C620.17,815.88 621.19,814.71 622.52,813.91C623.85,813.10 625.40,812.70 627.17,812.70C629.98,812.70 632.20,813.75 633.82,815.85C635.44,817.95 636.25,820.82 636.25,824.45L636.25,825.51C636.25,831.04 635.16,835.08 632.97,837.63C630.78,840.17 627.48,841.48 623.07,841.54L622.36,841.54L622.36,838.50L623.13,838.50C626.11,838.44 628.40,837.67 630.00,836.16C631.60,834.66 632.48,832.28 632.62,829.02ZM627.05,829.02C628.26,829.02 629.38,828.65 630.40,827.91C631.42,827.17 632.17,826.25 632.64,825.16L632.64,823.71C632.64,821.34 632.12,819.41 631.10,817.93C630.07,816.45 628.76,815.70 627.19,815.70C625.60,815.70 624.32,816.31 623.36,817.53C622.40,818.75 621.92,820.35 621.92,822.34C621.92,824.28 622.38,825.88 623.31,827.14C624.24,828.40 625.49,829.02 627.05,829.02Z" fill="#ffffff"/>
        <path d="M833.18,841.52L814.55,841.52L814.55,838.93L824.39,827.99C825.85,826.33 826.85,824.99 827.41,823.96C827.96,822.92 828.24,821.85 828.24,820.74C828.24,819.26 827.79,818.04 826.89,817.09C825.99,816.14 824.79,815.66 823.30,815.66C821.50,815.66 820.10,816.18 819.11,817.20C818.11,818.22 817.61,819.64 817.61,821.46L814.00,821.46C814.00,818.85 814.84,816.73 816.53,815.12C818.21,813.50 820.47,812.70 823.30,812.70C825.94,812.70 828.03,813.39 829.57,814.78C831.10,816.16 831.87,818.01 831.87,820.31C831.87,823.11 830.09,826.45 826.52,830.31L818.90,838.57L833.18,838.57ZM854.84,829.39C854.84,833.63 854.12,836.77 852.67,838.83C851.23,840.89 848.97,841.91 845.89,841.91C842.86,841.91 840.61,840.91 839.16,838.90C837.70,836.88 836.94,833.88 836.89,829.88L836.89,825.06C836.89,820.88 837.61,817.77 839.06,815.74C840.50,813.71 842.77,812.70 845.85,812.70C848.91,812.70 851.17,813.68 852.61,815.63C854.06,817.59 854.80,820.62 854.84,824.71ZM851.23,824.45C851.23,821.39 850.80,819.16 849.94,817.76C849.08,816.36 847.72,815.66 845.85,815.66C844.01,815.66 842.66,816.36 841.81,817.75C840.97,819.15 840.53,821.29 840.50,824.18L840.50,829.96C840.50,833.03 840.95,835.30 841.84,836.77C842.73,838.23 844.08,838.96 845.89,838.96C847.68,838.96 849.00,838.27 849.87,836.89C850.73,835.51 851.19,833.34 851.23,830.37ZM878.10,841.52L859.47,841.52L859.47,838.93L869.31,827.99C870.77,826.33 871.78,824.99 872.33,823.96C872.88,822.92 873.16,821.85 873.16,820.74C873.16,819.26 872.71,818.04 871.81,817.09C870.91,816.14 869.72,815.66 868.22,815.66C866.42,815.66 865.02,816.18 864.03,817.20C863.03,818.22 862.53,819.64 862.53,821.46L858.92,821.46C858.92,818.85 859.76,816.73 861.45,815.12C863.14,813.50 865.39,812.70 868.22,812.70C870.86,812.70 872.95,813.39 874.49,814.78C876.02,816.16 876.79,818.01 876.79,820.31C876.79,823.11 875.01,826.45 871.44,830.31L863.82,838.57L878.10,838.57ZM899.76,829.39C899.76,833.63 899.04,836.77 897.59,838.83C896.15,840.89 893.89,841.91 890.82,841.91C887.78,841.91 885.54,840.91 884.08,838.90C882.62,836.88 881.86,833.88 881.81,829.88L881.81,825.06C881.81,820.88 882.53,817.77 883.98,815.74C885.42,813.71 887.69,812.70 890.78,812.70C893.84,812.70 896.09,813.68 897.53,815.63C898.98,817.59 899.72,820.62 899.76,824.71ZM896.15,824.45C896.15,821.39 895.72,819.16 894.86,817.76C894.00,816.36 892.64,815.66 890.78,815.66C888.93,815.66 887.58,816.36 886.73,817.75C885.89,819.15 885.45,821.29 885.42,824.18L885.42,829.96C885.42,833.03 885.87,835.30 886.76,836.77C887.65,838.23 889.01,838.96 890.82,838.96C892.60,838.96 893.92,838.27 894.79,836.89C895.66,835.51 896.11,833.34 896.15,830.37Z" fill="#ffffff"/>
        <path d="M-724.12,772.70L-722.12,772.70L-722.12,792.70L-724.12,792.70Z" fill="#ffffff"/>
        <path d="M-460.79,772.70L-458.79,772.70L-458.79,792.70L-460.79,792.70Z" fill="#ffffff"/>
        <path d="M-197.45,772.70L-195.45,772.70L-195.45,792.70L-197.45,792.70Z" fill="#ffffff"/>
        <path d="M65.88,772.70L67.88,772.70L67.88,792.70L65.88,792.70Z" fill="#ffffff"/>
        <path d="M329.21,772.70L331.21,772.70L331.21,792.70L329.21,792.70Z" fill="#ffffff"/>
        <path d="M592.55,772.70L594.55,772.70L594.55,792.70L592.55,792.70Z" fill="#ffffff"/>
        <path d="M855.88,772.70L857.88,772.70L857.88,792.70L855.88,792.70Z" fill="#ffffff"/>
        <path d="M-851.73,758.27L-851.73,761.34L-852.40,761.34C-855.21,761.39 -857.45,762.22 -859.12,763.84C-860.78,765.45 -861.75,767.72 -862.01,770.65C-860.51,768.94 -858.47,768.08 -855.87,768.08C-853.40,768.08 -851.42,768.95 -849.95,770.69C-848.47,772.44 -847.73,774.69 -847.73,777.45C-847.73,780.38 -848.53,782.72 -850.12,784.48C-851.72,786.24 -853.86,787.12 -856.54,787.12C-859.26,787.12 -861.47,786.07 -863.16,783.98C-864.85,781.89 -865.70,779.20 -865.70,775.91L-865.70,774.52C-865.70,769.29 -864.58,765.29 -862.35,762.52C-860.12,759.75 -856.79,758.34 -852.38,758.27ZM-856.48,771.08C-857.72,771.08 -858.86,771.46 -859.90,772.20C-860.94,772.94 -861.66,773.87 -862.07,774.99L-862.07,776.32C-862.07,778.66 -861.54,780.55 -860.48,781.98C-859.43,783.41 -858.11,784.13 -856.54,784.13C-854.91,784.13 -853.63,783.53 -852.70,782.33C-851.77,781.14 -851.30,779.57 -851.30,777.63C-851.30,775.67 -851.78,774.10 -852.72,772.89C-853.66,771.69 -854.92,771.08 -856.48,771.08ZM-821.01,781.94L-813.82,765.60L-809.31,765.60L-809.31,786.73L-812.92,786.73L-812.92,771.36L-819.76,786.73L-822.26,786.73L-829.23,771.03L-829.23,786.73L-832.85,786.73L-832.85,765.60L-828.16,765.60ZM-786.19,765.60L-786.19,786.73L-789.82,786.73L-789.82,768.58L-797.01,768.58L-797.44,776.49C-797.67,780.13 -798.28,782.72 -799.26,784.29C-800.25,785.85 -801.81,786.66 -803.94,786.73L-805.39,786.73L-805.39,783.54L-804.35,783.47C-803.18,783.34 -802.34,782.66 -801.83,781.44C-801.32,780.21 -801.00,777.95 -800.85,774.64L-800.46,765.60ZM-763.12,786.73L-766.73,786.73L-766.73,777.71L-776.44,777.71L-776.44,786.73L-780.07,786.73L-780.07,765.60L-776.44,765.60L-776.44,774.76L-766.73,774.76L-766.73,765.60L-763.12,765.60Z" fill="#ffffff"/>
        <path d="M-884.72,558.27L-884.72,561.34L-885.39,561.34C-888.20,561.39 -890.44,562.22 -892.10,563.84C-893.77,565.45 -894.73,567.72 -895.00,570.65C-893.50,568.94 -891.45,568.08 -888.86,568.08C-886.39,568.08 -884.41,568.95 -882.93,570.69C-881.46,572.44 -880.72,574.69 -880.72,577.45C-880.72,580.38 -881.52,582.72 -883.11,584.48C-884.71,586.24 -886.84,587.12 -889.53,587.12C-892.25,587.12 -894.45,586.07 -896.15,583.98C-897.84,581.89 -898.69,579.20 -898.69,575.91L-898.69,574.52C-898.69,569.29 -897.57,565.29 -895.34,562.52C-893.10,559.75 -889.78,558.34 -885.37,558.27ZM-889.47,571.08C-890.70,571.08 -891.84,571.46 -892.89,572.20C-893.93,572.94 -894.65,573.87 -895.05,574.99L-895.05,576.32C-895.05,578.66 -894.53,580.55 -893.47,581.98C-892.42,583.41 -891.10,584.13 -889.53,584.13C-887.90,584.13 -886.62,583.53 -885.69,582.33C-884.76,581.14 -884.29,579.57 -884.29,577.63C-884.29,575.67 -884.76,574.10 -885.71,572.89C-886.65,571.69 -887.91,571.08 -889.47,571.08ZM-875.99,584.83C-875.99,584.21 -875.81,583.69 -875.43,583.27C-875.06,582.85 -874.51,582.65 -873.76,582.65C-873.02,582.65 -872.46,582.85 -872.08,583.27C-871.69,583.69 -871.50,584.21 -871.50,584.83C-871.50,585.43 -871.69,585.93 -872.08,586.34C-872.46,586.74 -873.02,586.94 -873.76,586.94C-874.51,586.94 -875.06,586.74 -875.43,586.34C-875.81,585.93 -875.99,585.43 -875.99,584.83ZM-864.25,572.47L-862.81,558.29L-848.24,558.29L-848.24,561.63L-859.74,561.63L-860.60,569.38C-859.21,568.56 -857.63,568.15 -855.85,568.15C-853.26,568.15 -851.21,569.01 -849.68,570.72C-848.16,572.43 -847.40,574.75 -847.40,577.67C-847.40,580.60 -848.19,582.90 -849.77,584.59C-851.35,586.28 -853.56,587.12 -856.40,587.12C-858.91,587.12 -860.97,586.42 -862.55,585.03C-864.14,583.64 -865.05,581.71 -865.27,579.25L-861.85,579.25C-861.63,580.88 -861.05,582.10 -860.11,582.93C-859.17,583.76 -857.94,584.17 -856.40,584.17C-854.72,584.17 -853.40,583.60 -852.45,582.45C-851.49,581.31 -851.01,579.72 -851.01,577.71C-851.01,575.80 -851.53,574.28 -852.56,573.12C-853.60,571.97 -854.98,571.40 -856.69,571.40C-858.27,571.40 -859.51,571.74 -860.41,572.43L-861.36,573.21ZM-821.01,581.94L-813.82,565.60L-809.31,565.60L-809.31,586.73L-812.92,586.73L-812.92,571.36L-819.76,586.73L-822.26,586.73L-829.23,571.03L-829.23,586.73L-832.85,586.73L-832.85,565.60L-828.16,565.60ZM-786.19,565.60L-786.19,586.73L-789.82,586.73L-789.82,568.58L-797.01,568.58L-797.44,576.49C-797.67,580.13 -798.28,582.72 -799.26,584.29C-800.25,585.85 -801.81,586.66 -803.94,586.73L-805.39,586.73L-805.39,583.54L-804.35,583.47C-803.18,583.34 -802.34,582.66 -801.83,581.44C-801.32,580.21 -801.00,577.95 -800.85,574.64L-800.46,565.60ZM-763.12,586.73L-766.73,586.73L-766.73,577.71L-776.44,577.71L-776.44,586.73L-780.07,586.73L-780.07,565.60L-776.44,565.60L-776.44,574.76L-766.73,574.76L-766.73,565.60L-763.12,565.60Z" fill="#ffffff"/>
        <path d="M-847.55,360.51L-859.33,386.91L-863.12,386.91L-851.38,361.45L-866.77,361.45L-866.77,358.48L-847.55,358.48ZM-821.01,382.13L-813.82,365.78L-809.31,365.78L-809.31,386.91L-812.92,386.91L-812.92,371.54L-819.76,386.91L-822.26,386.91L-829.23,371.21L-829.23,386.91L-832.85,386.91L-832.85,365.78L-828.16,365.78ZM-786.19,365.78L-786.19,386.91L-789.82,386.91L-789.82,368.77L-797.01,368.77L-797.44,376.68C-797.67,380.31 -798.28,382.91 -799.26,384.47C-800.25,386.04 -801.81,386.85 -803.94,386.91L-805.39,386.91L-805.39,383.73L-804.35,383.65C-803.18,383.52 -802.34,382.85 -801.83,381.62C-801.32,380.40 -801.00,378.13 -800.85,374.82L-800.46,365.78ZM-763.12,386.91L-766.73,386.91L-766.73,377.89L-776.44,377.89L-776.44,386.91L-780.07,386.91L-780.07,365.78L-776.44,365.78L-776.44,374.94L-766.73,374.94L-766.73,365.78L-763.12,365.78Z" fill="#ffffff"/>
        <path d="M-880.54,160.31L-892.32,186.72L-896.11,186.72L-884.37,161.25L-899.76,161.25L-899.76,158.28L-880.54,158.28ZM-875.99,184.82C-875.99,184.20 -875.81,183.68 -875.43,183.26C-875.06,182.85 -874.51,182.64 -873.76,182.64C-873.02,182.64 -872.46,182.85 -872.08,183.26C-871.69,183.68 -871.50,184.20 -871.50,184.82C-871.50,185.42 -871.69,185.92 -872.08,186.33C-872.46,186.73 -873.02,186.93 -873.76,186.93C-874.51,186.93 -875.06,186.73 -875.43,186.33C-875.81,185.92 -875.99,185.42 -875.99,184.82ZM-864.25,172.46L-862.81,158.28L-848.24,158.28L-848.24,161.62L-859.74,161.62L-860.60,169.37C-859.21,168.55 -857.63,168.14 -855.85,168.14C-853.26,168.14 -851.21,169.00 -849.68,170.71C-848.16,172.43 -847.40,174.74 -847.40,177.66C-847.40,180.59 -848.19,182.89 -849.77,184.58C-851.35,186.27 -853.56,187.11 -856.40,187.11C-858.91,187.11 -860.97,186.41 -862.55,185.02C-864.14,183.63 -865.05,181.70 -865.27,179.24L-861.85,179.24C-861.63,180.87 -861.05,182.09 -860.11,182.92C-859.17,183.75 -857.94,184.16 -856.40,184.16C-854.72,184.16 -853.40,183.59 -852.45,182.44C-851.49,181.30 -851.01,179.71 -851.01,177.70C-851.01,175.79 -851.53,174.27 -852.56,173.12C-853.60,171.96 -854.98,171.39 -856.69,171.39C-858.27,171.39 -859.51,171.73 -860.41,172.42L-861.36,173.20ZM-821.01,181.93L-813.82,165.59L-809.31,165.59L-809.31,186.72L-812.92,186.72L-812.92,171.35L-819.76,186.72L-822.26,186.72L-829.23,171.02L-829.23,186.72L-832.85,186.72L-832.85,165.59L-828.16,165.59ZM-786.19,165.59L-786.19,186.72L-789.82,186.72L-789.82,168.57L-797.01,168.57L-797.44,176.48C-797.67,180.12 -798.28,182.71 -799.26,184.28C-800.25,185.84 -801.81,186.65 -803.94,186.72L-805.39,186.72L-805.39,183.54L-804.35,183.46C-803.18,183.33 -802.34,182.65 -801.83,181.43C-801.32,180.20 -801.00,177.94 -800.85,174.63L-800.46,165.59ZM-763.12,186.72L-766.73,186.72L-766.73,177.70L-776.44,177.70L-776.44,186.72L-780.07,186.72L-780.07,165.59L-776.44,165.59L-776.44,174.75L-766.73,174.75L-766.73,165.59L-763.12,165.59Z" fill="#ffffff"/>
        <path d="M-848.67,-34.10C-848.67,-32.68 -849.04,-31.42 -849.79,-30.31C-850.54,-29.21 -851.55,-28.34 -852.83,-27.71C-851.34,-27.08 -850.17,-26.15 -849.30,-24.92C-848.44,-23.70 -848.00,-22.31 -848.00,-20.76C-848.00,-18.30 -848.83,-16.34 -850.49,-14.88C-852.15,-13.42 -854.34,-12.70 -857.05,-12.70C-859.78,-12.70 -861.97,-13.43 -863.62,-14.89C-865.27,-16.36 -866.09,-18.31 -866.09,-20.76C-866.09,-22.30 -865.67,-23.68 -864.83,-24.92C-863.99,-26.16 -862.83,-27.10 -861.34,-27.73C-862.61,-28.36 -863.60,-29.23 -864.33,-30.33C-865.06,-31.44 -865.42,-32.70 -865.42,-34.10C-865.42,-36.50 -864.66,-38.40 -863.12,-39.80C-861.58,-41.21 -859.56,-41.91 -857.05,-41.91C-854.55,-41.91 -852.52,-41.21 -850.98,-39.80C-849.44,-38.40 -848.67,-36.50 -848.67,-34.10ZM-851.62,-20.84C-851.62,-22.43 -852.12,-23.72 -853.13,-24.73C-854.14,-25.73 -855.46,-26.23 -857.08,-26.23C-858.71,-26.23 -860.02,-25.74 -861.00,-24.75C-861.98,-23.76 -862.48,-22.45 -862.48,-20.84C-862.48,-19.23 -862.00,-17.96 -861.04,-17.03C-860.08,-16.11 -858.75,-15.64 -857.05,-15.64C-855.35,-15.64 -854.03,-16.11 -853.06,-17.04C-852.10,-17.97 -851.62,-19.24 -851.62,-20.84ZM-857.05,-38.95C-858.47,-38.95 -859.61,-38.51 -860.49,-37.63C-861.37,-36.75 -861.81,-35.55 -861.81,-34.04C-861.81,-32.60 -861.38,-31.43 -860.51,-30.54C-859.65,-29.65 -858.49,-29.20 -857.05,-29.20C-855.60,-29.20 -854.44,-29.65 -853.58,-30.54C-852.71,-31.43 -852.28,-32.60 -852.28,-34.04C-852.28,-35.49 -852.73,-36.67 -853.63,-37.58C-854.53,-38.49 -855.67,-38.95 -857.05,-38.95ZM-821.01,-17.87L-813.82,-34.22L-809.31,-34.22L-809.31,-13.09L-812.92,-13.09L-812.92,-28.46L-819.76,-13.09L-822.26,-13.09L-829.23,-28.79L-829.23,-13.09L-832.85,-13.09L-832.85,-34.22L-828.16,-34.22ZM-786.19,-34.22L-786.19,-13.09L-789.82,-13.09L-789.82,-31.23L-797.01,-31.23L-797.44,-23.32C-797.67,-19.69 -798.28,-17.09 -799.26,-15.53C-800.25,-13.96 -801.81,-13.15 -803.94,-13.09L-805.39,-13.09L-805.39,-16.27L-804.35,-16.35C-803.18,-16.48 -802.34,-17.15 -801.83,-18.38C-801.32,-19.60 -801.00,-21.87 -800.85,-25.18L-800.46,-34.22ZM-763.12,-13.09L-766.73,-13.09L-766.73,-22.11L-776.44,-22.11L-776.44,-13.09L-780.07,-13.09L-780.07,-34.22L-776.44,-34.22L-776.44,-25.06L-766.73,-25.06L-766.73,-34.22L-763.12,-34.22Z" fill="#ffffff"/>
        <path d="M-881.66,-234.10C-881.66,-232.68 -882.03,-231.42 -882.78,-230.31C-883.53,-229.21 -884.54,-228.34 -885.82,-227.71C-884.33,-227.08 -883.16,-226.15 -882.29,-224.92C-881.42,-223.70 -880.99,-222.31 -880.99,-220.76C-880.99,-218.30 -881.82,-216.34 -883.48,-214.88C-885.14,-213.42 -887.33,-212.70 -890.03,-212.70C-892.77,-212.70 -894.96,-213.43 -896.61,-214.89C-898.25,-216.36 -899.08,-218.31 -899.08,-220.76C-899.08,-222.30 -898.66,-223.68 -897.82,-224.92C-896.98,-226.16 -895.82,-227.10 -894.33,-227.73C-895.59,-228.36 -896.59,-229.23 -897.32,-230.33C-898.05,-231.44 -898.41,-232.70 -898.41,-234.10C-898.41,-236.50 -897.64,-238.40 -896.11,-239.80C-894.57,-241.21 -892.55,-241.91 -890.03,-241.91C-887.53,-241.91 -885.51,-241.21 -883.97,-239.80C-882.43,-238.40 -881.66,-236.50 -881.66,-234.10ZM-884.60,-220.84C-884.60,-222.43 -885.11,-223.72 -886.12,-224.73C-887.13,-225.73 -888.45,-226.23 -890.07,-226.23C-891.70,-226.23 -893.01,-225.74 -893.99,-224.75C-894.97,-223.76 -895.46,-222.45 -895.46,-220.84C-895.46,-219.23 -894.99,-217.96 -894.03,-217.03C-893.07,-216.11 -891.74,-215.64 -890.03,-215.64C-888.34,-215.64 -887.01,-216.11 -886.05,-217.04C-885.09,-217.97 -884.60,-219.24 -884.60,-220.84ZM-890.03,-238.95C-891.45,-238.95 -892.60,-238.51 -893.48,-237.63C-894.36,-236.75 -894.80,-235.55 -894.80,-234.04C-894.80,-232.60 -894.37,-231.43 -893.50,-230.54C-892.64,-229.65 -891.48,-229.20 -890.03,-229.20C-888.59,-229.20 -887.43,-229.65 -886.57,-230.54C-885.70,-231.43 -885.27,-232.60 -885.27,-234.04C-885.27,-235.49 -885.72,-236.67 -886.62,-237.58C-887.51,-238.49 -888.65,-238.95 -890.03,-238.95ZM-875.99,-214.98C-875.99,-215.61 -875.81,-216.13 -875.43,-216.54C-875.06,-216.96 -874.51,-217.17 -873.76,-217.17C-873.02,-217.17 -872.46,-216.96 -872.08,-216.54C-871.69,-216.13 -871.50,-215.61 -871.50,-214.98C-871.50,-214.38 -871.69,-213.88 -872.08,-213.48C-872.46,-213.07 -873.02,-212.87 -873.76,-212.87C-874.51,-212.87 -875.06,-213.07 -875.43,-213.48C-875.81,-213.88 -875.99,-214.38 -875.99,-214.98ZM-864.25,-227.34L-862.81,-241.52L-848.24,-241.52L-848.24,-238.18L-859.74,-238.18L-860.60,-230.43C-859.21,-231.25 -857.63,-231.66 -855.85,-231.66C-853.26,-231.66 -851.21,-230.80 -849.68,-229.09C-848.16,-227.38 -847.40,-225.07 -847.40,-222.15C-847.40,-219.22 -848.19,-216.91 -849.77,-215.22C-851.35,-213.54 -853.56,-212.70 -856.40,-212.70C-858.91,-212.70 -860.97,-213.39 -862.55,-214.79C-864.14,-216.18 -865.05,-218.11 -865.27,-220.57L-861.85,-220.57C-861.63,-218.94 -861.05,-217.71 -860.11,-216.88C-859.17,-216.06 -857.94,-215.64 -856.40,-215.64C-854.72,-215.64 -853.40,-216.22 -852.45,-217.36C-851.49,-218.51 -851.01,-220.09 -851.01,-222.11C-851.01,-224.01 -851.53,-225.54 -852.56,-226.69C-853.60,-227.84 -854.98,-228.42 -856.69,-228.42C-858.27,-228.42 -859.51,-228.07 -860.41,-227.38L-861.36,-226.60ZM-821.01,-217.87L-813.82,-234.22L-809.31,-234.22L-809.31,-213.09L-812.92,-213.09L-812.92,-228.46L-819.76,-213.09L-822.26,-213.09L-829.23,-228.79L-829.23,-213.09L-832.85,-213.09L-832.85,-234.22L-828.16,-234.22ZM-786.19,-234.22L-786.19,-213.09L-789.82,-213.09L-789.82,-231.23L-797.01,-231.23L-797.44,-223.32C-797.67,-219.69 -798.28,-217.09 -799.26,-215.53C-800.25,-213.96 -801.81,-213.15 -803.94,-213.09L-805.39,-213.09L-805.39,-216.27L-804.35,-216.35C-803.18,-216.48 -802.34,-217.15 -801.83,-218.38C-801.32,-219.60 -801.00,-221.87 -800.85,-225.18L-800.46,-234.22ZM-763.12,-213.09L-766.73,-213.09L-766.73,-222.11L-776.44,-222.11L-776.44,-213.09L-780.07,-213.09L-780.07,-234.22L-776.44,-234.22L-776.44,-225.06L-766.73,-225.06L-766.73,-234.22L-763.12,-234.22Z" fill="#ffffff"/>
        <path d="M-852.07,-425.40C-852.82,-424.50 -853.72,-423.78 -854.77,-423.23C-855.82,-422.69 -856.97,-422.41 -858.22,-422.41C-859.86,-422.41 -861.29,-422.82 -862.50,-423.62C-863.72,-424.43 -864.66,-425.57 -865.33,-427.03C-865.99,-428.50 -866.32,-430.11 -866.32,-431.88C-866.32,-433.79 -865.96,-435.50 -865.24,-437.02C-864.52,-438.54 -863.49,-439.71 -862.16,-440.52C-860.83,-441.32 -859.29,-441.73 -857.51,-441.73C-854.70,-441.73 -852.49,-440.68 -850.86,-438.57C-849.24,-436.47 -848.43,-433.60 -848.43,-429.97L-848.43,-428.92C-848.43,-423.38 -849.53,-419.34 -851.71,-416.80C-853.90,-414.25 -857.20,-412.95 -861.62,-412.88L-862.32,-412.88L-862.32,-415.93L-861.56,-415.93C-858.58,-415.98 -856.28,-416.76 -854.68,-418.26C-853.08,-419.77 -852.21,-422.15 -852.07,-425.40ZM-857.63,-425.40C-856.42,-425.40 -855.30,-425.77 -854.28,-426.51C-853.26,-427.26 -852.51,-428.17 -852.05,-429.27L-852.05,-430.71C-852.05,-433.08 -852.56,-435.01 -853.59,-436.49C-854.62,-437.98 -855.92,-438.72 -857.50,-438.72C-859.08,-438.72 -860.36,-438.11 -861.32,-436.89C-862.29,-435.68 -862.77,-434.07 -862.77,-432.08C-862.77,-430.14 -862.30,-428.54 -861.37,-427.29C-860.44,-426.03 -859.19,-425.40 -857.63,-425.40ZM-821.01,-417.69L-813.82,-434.03L-809.31,-434.03L-809.31,-412.90L-812.92,-412.90L-812.92,-428.27L-819.76,-412.90L-822.26,-412.90L-829.23,-428.60L-829.23,-412.90L-832.85,-412.90L-832.85,-434.03L-828.16,-434.03ZM-786.19,-434.03L-786.19,-412.90L-789.82,-412.90L-789.82,-431.04L-797.01,-431.04L-797.44,-423.13C-797.67,-419.50 -798.28,-416.90 -799.26,-415.34C-800.25,-413.78 -801.81,-412.97 -803.94,-412.90L-805.39,-412.90L-805.39,-416.08L-804.35,-416.16C-803.18,-416.29 -802.34,-416.97 -801.83,-418.19C-801.32,-419.42 -801.00,-421.68 -800.85,-424.99L-800.46,-434.03ZM-763.12,-412.90L-766.73,-412.90L-766.73,-421.92L-776.44,-421.92L-776.44,-412.90L-780.07,-412.90L-780.07,-434.03L-776.44,-434.03L-776.44,-424.87L-766.73,-424.87L-766.73,-434.03L-763.12,-434.03Z" fill="#ffffff"/>
        <path d="M-885.05,-625.59C-885.81,-624.69 -886.71,-623.96 -887.76,-623.42C-888.81,-622.87 -889.96,-622.60 -891.21,-622.60C-892.85,-622.60 -894.28,-623.00 -895.49,-623.81C-896.71,-624.62 -897.65,-625.75 -898.32,-627.22C-898.98,-628.68 -899.31,-630.30 -899.31,-632.07C-899.31,-633.97 -898.95,-635.68 -898.23,-637.21C-897.50,-638.73 -896.48,-639.90 -895.15,-640.70C-893.82,-641.51 -892.27,-641.91 -890.50,-641.91C-887.69,-641.91 -885.47,-640.86 -883.85,-638.76C-882.23,-636.66 -881.42,-633.79 -881.42,-630.16L-881.42,-629.10C-881.42,-623.57 -882.51,-619.53 -884.70,-616.98C-886.89,-614.44 -890.19,-613.13 -894.60,-613.07L-895.31,-613.07L-895.31,-616.11L-894.55,-616.11C-891.56,-616.17 -889.27,-616.94 -887.67,-618.45C-886.07,-619.95 -885.20,-622.33 -885.05,-625.59ZM-890.62,-625.59C-889.41,-625.59 -888.29,-625.96 -887.27,-626.70C-886.25,-627.44 -885.50,-628.36 -885.03,-629.45L-885.03,-630.90C-885.03,-633.27 -885.55,-635.20 -886.58,-636.68C-887.61,-638.16 -888.91,-638.91 -890.48,-638.91C-892.07,-638.91 -893.35,-638.30 -894.31,-637.08C-895.28,-635.86 -895.76,-634.26 -895.76,-632.27C-895.76,-630.33 -895.29,-628.73 -894.36,-627.47C-893.43,-626.21 -892.18,-625.59 -890.62,-625.59ZM-875.99,-614.98C-875.99,-615.61 -875.81,-616.13 -875.43,-616.54C-875.06,-616.96 -874.51,-617.17 -873.76,-617.17C-873.02,-617.17 -872.46,-616.96 -872.08,-616.54C-871.69,-616.13 -871.50,-615.61 -871.50,-614.98C-871.50,-614.38 -871.69,-613.88 -872.08,-613.48C-872.46,-613.07 -873.02,-612.87 -873.76,-612.87C-874.51,-612.87 -875.06,-613.07 -875.43,-613.48C-875.81,-613.88 -875.99,-614.38 -875.99,-614.98ZM-864.25,-627.34L-862.81,-641.52L-848.24,-641.52L-848.24,-638.18L-859.74,-638.18L-860.60,-630.43C-859.21,-631.25 -857.63,-631.66 -855.85,-631.66C-853.26,-631.66 -851.21,-630.80 -849.68,-629.09C-848.16,-627.38 -847.40,-625.07 -847.40,-622.15C-847.40,-619.22 -848.19,-616.91 -849.77,-615.22C-851.35,-613.54 -853.56,-612.70 -856.40,-612.70C-858.91,-612.70 -860.97,-613.39 -862.55,-614.79C-864.14,-616.18 -865.05,-618.11 -865.27,-620.57L-861.85,-620.57C-861.63,-618.94 -861.05,-617.71 -860.11,-616.88C-859.17,-616.06 -857.94,-615.64 -856.40,-615.64C-854.72,-615.64 -853.40,-616.22 -852.45,-617.36C-851.49,-618.51 -851.01,-620.09 -851.01,-622.11C-851.01,-624.01 -851.53,-625.54 -852.56,-626.69C-853.60,-627.84 -854.98,-628.42 -856.69,-628.42C-858.27,-628.42 -859.51,-628.07 -860.41,-627.38L-861.36,-626.60ZM-821.01,-617.87L-813.82,-634.22L-809.31,-634.22L-809.31,-613.09L-812.92,-613.09L-812.92,-628.46L-819.76,-613.09L-822.26,-613.09L-829.23,-628.79L-829.23,-613.09L-832.85,-613.09L-832.85,-634.22L-828.16,-634.22ZM-786.19,-634.22L-786.19,-613.09L-789.82,-613.09L-789.82,-631.23L-797.01,-631.23L-797.44,-623.32C-797.67,-619.69 -798.28,-617.09 -799.26,-615.53C-800.25,-613.96 -801.81,-613.15 -803.94,-613.09L-805.39,-613.09L-805.39,-616.27L-804.35,-616.35C-803.18,-616.48 -802.34,-617.15 -801.83,-618.38C-801.32,-619.60 -801.00,-621.87 -800.85,-625.18L-800.46,-634.22ZM-763.12,-613.09L-766.73,-613.09L-766.73,-622.11L-776.44,-622.11L-776.44,-613.09L-780.07,-613.09L-780.07,-634.22L-776.44,-634.22L-776.44,-625.06L-766.73,-625.06L-766.73,-634.22L-763.12,-634.22Z" fill="#ffffff"/>
        <path d="M-743.12,771.70L-723.12,771.70L-723.12,773.70L-743.12,773.70Z" fill="#ffffff"/>
        <path d="M-743.12,571.70L-723.12,571.70L-723.12,573.70L-743.12,573.70Z" fill="#ffffff"/>
        <path d="M-743.12,371.70L-723.12,371.70L-723.12,373.70L-743.12,373.70Z" fill="#ffffff"/>
        <path d="M-743.12,171.70L-723.12,171.70L-723.12,173.70L-743.12,173.70Z" fill="#ffffff"/>
        <path d="M-743.12,-28.30L-723.12,-28.30L-723.12,-26.30L-743.12,-26.30Z" fill="#ffffff"/>
        <path d="M-743.12,-228.30L-723.12,-228.30L-723.12,-226.30L-743.12,-226.30Z" fill="#ffffff"/>
        <path d="M-743.12,-428.30L-723.12,-428.30L-723.12,-426.30L-743.12,-426.30Z" fill="#ffffff"/>
        <path d="M-743.12,-628.30L-723.12,-628.30L-723.12,-626.30L-743.12,-626.30Z" fill="#ffffff"/>
        <path d="M-713.12,-479.78C-713.12,-474.26 -717.60,-469.78 -723.12,-469.78C-728.64,-469.78 -733.12,-474.26 -733.12,-479.78C-733.12,-485.30 -728.64,-489.78 -723.12,-489.78C-717.60,-489.78 -713.12,-485.30 -713.12,-479.78Z" fill="#bf381d"/>
        <path d="M-449.78,-336.64C-449.78,-331.12 -454.26,-326.64 -459.78,-326.64C-465.30,-326.64 -469.78,-331.12 -469.78,-336.64C-469.78,-342.16 -465.30,-346.64 -459.78,-346.64C-454.26,-346.64 -449.78,-342.16 -449.78,-336.64Z" fill="#bf381d"/>
        <path d="M-186.46,-235.31C-186.46,-229.79 -190.94,-225.31 -196.46,-225.31C-201.98,-225.31 -206.46,-229.79 -206.46,-235.31C-206.46,-240.84 -201.98,-245.31 -196.46,-245.31C-190.94,-245.31 -186.46,-240.84 -186.46,-235.31Z" fill="#bf381d"/>
        <path d="M76.88,-109.58C76.88,-104.06 72.40,-99.58 66.88,-99.58C61.36,-99.58 56.88,-104.06 56.88,-109.58C56.88,-115.10 61.36,-119.58 66.88,-119.58C72.40,-119.58 76.88,-115.10 76.88,-109.58Z" fill="#bf381d"/>
        <path d="M340.22,-161.67C340.22,-156.15 335.74,-151.67 330.22,-151.67C324.70,-151.67 320.22,-156.15 320.22,-161.67C320.22,-167.20 324.70,-171.67 330.22,-171.67C335.74,-171.67 340.22,-167.20 340.22,-161.67Z" fill="#bf381d"/>
        <path d="M603.54,-225.97C603.54,-220.45 599.06,-215.97 593.54,-215.97C588.02,-215.97 583.54,-220.45 583.54,-225.97C583.54,-231.49 588.02,-235.97 593.54,-235.97C599.06,-235.97 603.54,-231.49 603.54,-225.97Z" fill="#bf381d"/>
        <path d="M866.88,694.09C866.88,699.62 862.40,704.09 856.88,704.09C851.36,704.09 846.88,699.62 846.88,694.09C846.88,688.57 851.36,684.09 856.88,684.09C862.40,684.09 866.88,688.57 866.88,694.09Z" fill="#bf381d"/>
    </g>
    <path d="M-900,-830.77L-900,-899.02L-875.48,-899.02C-866.70,-899.02 -860.02,-897.41 -855.45,-894.19C-850.87,-890.97 -848.58,-886.30 -848.58,-880.17C-848.58,-876.64 -849.39,-873.63 -851.02,-871.13C-852.64,-868.63 -855.03,-866.78 -858.19,-865.59C-854.63,-864.66 -851.89,-862.91 -849.98,-860.34C-848.08,-857.78 -847.13,-854.66 -847.13,-850.97C-847.13,-844.28 -849.24,-839.26 -853.48,-835.90C-857.71,-832.54 -863.98,-830.83 -872.30,-830.77ZM-883.55,-859.78L-883.55,-843.42L-872.77,-843.42C-869.80,-843.42 -867.52,-844.10 -865.92,-845.46C-864.33,-846.82 -863.53,-848.73 -863.53,-851.20C-863.53,-856.89 -866.36,-859.75 -872.02,-859.78ZM-883.55,-870.56L-874.97,-870.56C-871.38,-870.59 -868.81,-871.25 -867.28,-872.53C-865.75,-873.81 -864.98,-875.70 -864.98,-878.20C-864.98,-881.08 -865.81,-883.15 -867.47,-884.41C-869.13,-885.68 -871.80,-886.31 -875.48,-886.31L-883.55,-886.31ZM-767.53,-830.77L-815.16,-830.77L-815.16,-841.08L-793.22,-864.14C-787.81,-870.30 -785.11,-875.19 -785.11,-878.81C-785.11,-881.75 -785.75,-883.98 -787.03,-885.52C-788.31,-887.05 -790.17,-887.81 -792.61,-887.81C-795.02,-887.81 -796.97,-886.79 -798.47,-884.74C-799.97,-882.70 -800.72,-880.14 -800.72,-877.08L-816.56,-877.08C-816.56,-881.27 -815.52,-885.13 -813.42,-888.68C-811.33,-892.23 -808.42,-895 -804.70,-897C-800.98,-899 -796.83,-900 -792.23,-900C-784.86,-900 -779.18,-898.30 -775.20,-894.89C-771.21,-891.48 -769.22,-886.59 -769.22,-880.22C-769.22,-877.53 -769.72,-874.91 -770.72,-872.37C-771.72,-869.82 -773.27,-867.15 -775.38,-864.35C-777.49,-861.55 -780.89,-857.81 -785.58,-853.13L-794.39,-842.95L-767.53,-842.95ZM-712.17,-858.66C-712.17,-849.44 -714.24,-842.33 -718.38,-837.33C-722.52,-832.33 -728.36,-829.83 -735.89,-829.83C-743.48,-829.83 -749.36,-832.34 -753.52,-837.38C-757.67,-842.41 -759.75,-849.50 -759.75,-858.66L-759.75,-871.13C-759.75,-880.34 -757.68,-887.45 -753.54,-892.45C-749.40,-897.45 -743.55,-899.95 -735.98,-899.95C-728.42,-899.95 -722.56,-897.44 -718.41,-892.41C-714.25,-887.38 -712.17,-880.27 -712.17,-871.08ZM-727.97,-873.14C-727.97,-878.05 -728.61,-881.71 -729.89,-884.13C-731.17,-886.55 -733.20,-887.77 -735.98,-887.77C-738.70,-887.77 -740.68,-886.64 -741.91,-884.39C-743.15,-882.14 -743.81,-878.73 -743.91,-874.17L-743.91,-856.73C-743.91,-851.64 -743.27,-847.91 -741.98,-845.55C-740.70,-843.20 -738.67,-842.02 -735.89,-842.02C-733.20,-842.02 -731.22,-843.16 -729.94,-845.46C-728.66,-847.76 -728,-851.36 -727.97,-856.27ZM-656.34,-830.77L-703.97,-830.77L-703.97,-841.08L-682.03,-864.14C-676.63,-870.30 -673.92,-875.19 -673.92,-878.81C-673.92,-881.75 -674.56,-883.98 -675.84,-885.52C-677.13,-887.05 -678.98,-887.81 -681.42,-887.81C-683.83,-887.81 -685.78,-886.79 -687.28,-884.74C-688.78,-882.70 -689.53,-880.14 -689.53,-877.08L-705.38,-877.08C-705.38,-881.27 -704.33,-885.13 -702.23,-888.68C-700.14,-892.23 -697.23,-895 -693.52,-897C-689.80,-899 -685.64,-900 -681.05,-900C-673.67,-900 -667.99,-898.30 -664.01,-894.89C-660.02,-891.48 -658.03,-886.59 -658.03,-880.22C-658.03,-877.53 -658.53,-874.91 -659.53,-872.37C-660.53,-869.82 -662.09,-867.15 -664.20,-864.35C-666.30,-861.55 -669.70,-857.81 -674.39,-853.13L-683.20,-842.95L-656.34,-842.95ZM-600.98,-858.66C-600.98,-849.44 -603.05,-842.33 -607.20,-837.33C-611.34,-832.33 -617.17,-829.83 -624.70,-829.83C-632.30,-829.83 -638.17,-832.34 -642.33,-837.38C-646.48,-842.41 -648.56,-849.50 -648.56,-858.66L-648.56,-871.13C-648.56,-880.34 -646.49,-887.45 -642.35,-892.45C-638.21,-897.45 -632.36,-899.95 -624.80,-899.95C-617.23,-899.95 -611.38,-897.44 -607.22,-892.41C-603.06,-887.38 -600.98,-880.27 -600.98,-871.08ZM-616.78,-873.14C-616.78,-878.05 -617.42,-881.71 -618.70,-884.13C-619.98,-886.55 -622.02,-887.77 -624.80,-887.77C-627.52,-887.77 -629.49,-886.64 -630.73,-884.39C-631.96,-882.14 -632.63,-878.73 -632.72,-874.17L-632.72,-856.73C-632.72,-851.64 -632.08,-847.91 -630.80,-845.55C-629.52,-843.20 -627.48,-842.02 -624.70,-842.02C-622.02,-842.02 -620.03,-843.16 -618.75,-845.46C-617.47,-847.76 -616.81,-851.36 -616.78,-856.27ZM-533.11,-869.30L-553.08,-869.30L-553.08,-830.77L-568.92,-830.77L-568.92,-881.48L-533.11,-881.48ZM-530.44,-856.59C-530.44,-861.66 -529.45,-866.16 -527.48,-870.12C-525.52,-874.07 -522.69,-877.11 -519,-879.23C-515.31,-881.36 -510.98,-882.42 -506.02,-882.42C-498.42,-882.42 -492.44,-880.07 -488.06,-875.37C-483.69,-870.66 -481.50,-864.27 -481.50,-856.17L-481.50,-855.61C-481.50,-847.70 -483.70,-841.43 -488.09,-836.79C-492.48,-832.15 -498.42,-829.83 -505.92,-829.83C-513.14,-829.83 -518.94,-831.99 -523.31,-836.32C-527.69,-840.65 -530.05,-846.52 -530.39,-853.92ZM-514.64,-855.61C-514.64,-850.92 -513.91,-847.48 -512.44,-845.30C-510.97,-843.11 -508.80,-842.02 -505.92,-842.02C-500.30,-842.02 -497.42,-846.34 -497.30,-855L-497.30,-856.59C-497.30,-865.69 -500.20,-870.23 -506.02,-870.23C-511.30,-870.23 -514.16,-866.31 -514.59,-858.47ZM-473.20,-842.95C-470.67,-845.48 -468.84,-848 -467.70,-850.50C-466.55,-853 -465.89,-855.91 -465.70,-859.22L-465.56,-862.69L-465.28,-881.48L-425.77,-881.48L-425.77,-842.95L-418.17,-842.95L-418.17,-815.39L-434.02,-815.39L-434.02,-830.77L-461.48,-830.77L-461.48,-815.39L-477.70,-815.39L-477.75,-842.95ZM-455.02,-842.95L-441.52,-842.95L-441.52,-869.30L-449.63,-869.30L-449.67,-865.13C-449.89,-856 -451.67,-848.61 -455.02,-842.95ZM-392.53,-852.89L-384.09,-881.48L-367.17,-881.48L-387.84,-822.28L-388.73,-820.13C-391.67,-813.56 -396.86,-810.28 -404.30,-810.28C-406.36,-810.28 -408.53,-810.59 -410.81,-811.22L-410.81,-822.52L-408.75,-822.52C-406.53,-822.52 -404.84,-822.84 -403.66,-823.48C-402.49,-824.12 -401.63,-825.27 -401.06,-826.92L-399.80,-830.30L-417.42,-881.48L-400.55,-881.48ZM-294.09,-830.77L-309.98,-830.77L-309.98,-846C-311.80,-845.69 -313.36,-845.53 -314.67,-845.53C-323.02,-845.53 -329.29,-847.15 -333.49,-850.38C-337.70,-853.62 -339.81,-858.47 -339.84,-864.94L-339.84,-881.48L-324.05,-881.48L-324.05,-864.80C-324.02,-862.05 -323.36,-860.18 -322.08,-859.20C-320.80,-858.21 -318.33,-857.72 -314.67,-857.72C-313.14,-857.72 -311.58,-857.86 -309.98,-858.14L-309.98,-881.48L-294.09,-881.48ZM-256.13,-881.48L-240.28,-881.48L-240.28,-830.77L-256.13,-830.77L-256.13,-860.30L-270.05,-830.77L-285.94,-830.77L-285.94,-881.48L-270.05,-881.48L-270.05,-852.05ZM-210.38,-842.02C-208.16,-842.02 -206.44,-842.62 -205.22,-843.82C-204,-845.02 -203.41,-846.70 -203.44,-848.86L-188.63,-848.86C-188.63,-843.30 -190.62,-838.73 -194.60,-835.17C-198.59,-831.61 -203.72,-829.83 -210,-829.83C-217.38,-829.83 -223.19,-832.14 -227.44,-836.77C-231.69,-841.39 -233.81,-847.80 -233.81,-855.98L-233.81,-856.64C-233.81,-861.77 -232.87,-866.29 -230.98,-870.21C-229.09,-874.13 -226.36,-877.15 -222.80,-879.26C-219.23,-881.37 -215.02,-882.42 -210.14,-882.42C-203.55,-882.42 -198.31,-880.59 -194.44,-876.94C-190.56,-873.28 -188.63,-868.33 -188.63,-862.08L-203.44,-862.08C-203.44,-864.70 -204.08,-866.72 -205.36,-868.13C-206.64,-869.53 -208.36,-870.23 -210.52,-870.23C-214.61,-870.23 -217,-867.63 -217.69,-862.41C-217.91,-860.75 -218.02,-858.47 -218.02,-855.56C-218.02,-850.47 -217.41,-846.94 -216.19,-844.97C-214.97,-843 -213.03,-842.02 -210.38,-842.02ZM-136.64,-881.48L-136.64,-830.77L-152.44,-830.77L-152.44,-869.30L-161.91,-869.30L-162.75,-853.78C-163.34,-846.09 -165.08,-840.34 -167.95,-836.53C-170.83,-832.72 -175.09,-830.80 -180.75,-830.77L-185.72,-830.77L-185.91,-842.86L-184.27,-843.05C-182.17,-843.30 -180.62,-844.70 -179.60,-847.24C-178.59,-849.79 -177.94,-853.64 -177.66,-858.80L-176.67,-881.48ZM-130.03,-856.59C-130.03,-861.66 -129.05,-866.16 -127.08,-870.12C-125.11,-874.07 -122.28,-877.11 -118.59,-879.23C-114.91,-881.36 -110.58,-882.42 -105.61,-882.42C-98.02,-882.42 -92.03,-880.07 -87.66,-875.37C-83.28,-870.66 -81.09,-864.27 -81.09,-856.17L-81.09,-855.61C-81.09,-847.70 -83.29,-841.43 -87.68,-836.79C-92.07,-832.15 -98.02,-829.83 -105.52,-829.83C-112.73,-829.83 -118.53,-831.99 -122.91,-836.32C-127.28,-840.65 -129.64,-846.52 -129.98,-853.92ZM-114.23,-855.61C-114.23,-850.92 -113.50,-847.48 -112.03,-845.30C-110.56,-843.11 -108.39,-842.02 -105.52,-842.02C-99.89,-842.02 -97.02,-846.34 -96.89,-855L-96.89,-856.59C-96.89,-865.69 -99.80,-870.23 -105.61,-870.23C-110.89,-870.23 -113.75,-866.31 -114.19,-858.47ZM-18.47,-848.20L-6.98,-881.48L12.89,-881.48L12.89,-830.77L-2.95,-830.77L-2.95,-858.89L-13.17,-830.77L-23.67,-830.77L-33.33,-857.39L-33.33,-830.77L-49.17,-830.77L-49.17,-881.48L-29.77,-881.48ZM52.97,-881.48L68.81,-881.48L68.81,-830.77L52.97,-830.77L52.97,-860.30L39.05,-830.77L23.16,-830.77L23.16,-881.48L39.05,-881.48L39.05,-852.05ZM112.78,-869.30L92.81,-869.30L92.81,-830.77L76.97,-830.77L76.97,-881.48L112.78,-881.48ZM164.53,-855.75C164.53,-847.88 162.76,-841.59 159.21,-836.88C155.66,-832.18 150.88,-829.83 144.84,-829.83C140.19,-829.83 136.36,-831.53 133.36,-834.94L133.36,-811.27L117.56,-811.27L117.56,-881.48L132.33,-881.48L132.80,-876.80C135.83,-880.55 139.81,-882.42 144.75,-882.42C151,-882.42 155.86,-880.12 159.33,-875.51C162.80,-870.90 164.53,-864.56 164.53,-856.50ZM148.73,-856.73C148.73,-865.73 146.11,-870.23 140.86,-870.23C137.11,-870.23 134.61,-868.89 133.36,-866.20L133.36,-846.23C134.73,-843.42 137.27,-842.02 140.95,-842.02C145.98,-842.02 148.58,-846.36 148.73,-855.05ZM200.06,-830.77C199.50,-831.80 199,-833.31 198.56,-835.31C195.66,-831.66 191.59,-829.83 186.38,-829.83C181.59,-829.83 177.53,-831.27 174.19,-834.16C170.84,-837.05 169.17,-840.69 169.17,-845.06C169.17,-850.56 171.20,-854.72 175.27,-857.53C179.33,-860.34 185.23,-861.75 192.98,-861.75L197.86,-861.75L197.86,-864.42C197.86,-869.08 195.84,-871.41 191.81,-871.41C188.06,-871.41 186.19,-869.56 186.19,-865.88L170.39,-865.88C170.39,-870.78 172.48,-874.77 176.65,-877.83C180.82,-880.89 186.14,-882.42 192.61,-882.42C199.08,-882.42 204.19,-880.84 207.94,-877.69C211.69,-874.53 213.61,-870.20 213.70,-864.70L213.70,-842.25C213.77,-837.59 214.48,-834.03 215.86,-831.56L215.86,-830.77ZM190.17,-841.08C192.14,-841.08 193.77,-841.50 195.07,-842.34C196.37,-843.19 197.30,-844.14 197.86,-845.20L197.86,-853.31L193.27,-853.31C187.77,-853.31 185.02,-850.84 185.02,-845.91C185.02,-844.47 185.50,-843.30 186.47,-842.41C187.44,-841.52 188.67,-841.08 190.17,-841.08ZM267.61,-830.77L251.77,-830.77L251.77,-849.56L237.94,-849.56L237.94,-830.77L222.14,-830.77L222.14,-881.48L237.94,-881.48L237.94,-861.70L251.77,-861.70L251.77,-881.48L267.61,-881.48ZM320.67,-869.39L304.69,-869.39L304.69,-830.77L288.80,-830.77L288.80,-869.39L273.05,-869.39L273.05,-881.48L320.67,-881.48ZM324.56,-856.59C324.56,-861.66 325.55,-866.16 327.52,-870.12C329.48,-874.07 332.31,-877.11 336,-879.23C339.69,-881.36 344.02,-882.42 348.98,-882.42C356.58,-882.42 362.56,-880.07 366.94,-875.37C371.31,-870.66 373.50,-864.27 373.50,-856.17L373.50,-855.61C373.50,-847.70 371.30,-841.43 366.91,-836.79C362.52,-832.15 356.58,-829.83 349.08,-829.83C341.86,-829.83 336.06,-831.99 331.69,-836.32C327.31,-840.65 324.95,-846.52 324.61,-853.92ZM340.36,-855.61C340.36,-850.92 341.09,-847.48 342.56,-845.30C344.03,-843.11 346.20,-842.02 349.08,-842.02C354.70,-842.02 357.58,-846.34 357.70,-855L357.70,-856.59C357.70,-865.69 354.80,-870.23 348.98,-870.23C343.70,-870.23 340.84,-866.31 340.41,-858.47ZM381.52,-830.77L381.52,-881.48L403.27,-881.48C410.23,-881.48 415.57,-880.27 419.27,-877.83C422.98,-875.39 424.83,-871.88 424.83,-867.28C424.83,-864.94 424.02,-862.84 422.39,-860.98C420.77,-859.12 418.39,-857.69 415.27,-856.69C419.30,-856 422.41,-854.66 424.59,-852.68C426.78,-850.70 427.88,-848.22 427.88,-845.25C427.88,-840.47 426.07,-836.87 422.46,-834.45C418.85,-832.02 413.66,-830.80 406.88,-830.77ZM397.36,-851.44L397.36,-842.86L406.59,-842.86C408.56,-842.86 409.97,-843.20 410.81,-843.89C411.66,-844.58 412.08,-845.63 412.08,-847.03C412.08,-849.84 410.45,-851.31 407.20,-851.44ZM397.36,-861.19L403.88,-861.19C405.78,-861.19 407.12,-861.51 407.88,-862.15C408.65,-862.79 409.03,-863.73 409.03,-864.98C409.03,-866.61 408.56,-867.75 407.63,-868.41C406.69,-869.06 405.23,-869.39 403.27,-869.39L397.36,-869.39ZM487.78,-881.48L503.63,-881.48L503.63,-830.77L487.78,-830.77L487.78,-860.30L473.86,-830.77L457.97,-830.77L457.97,-881.48L473.86,-881.48L473.86,-852.05ZM538.36,-866.16C538.36,-869.47 536.61,-871.13 533.11,-871.13C529.08,-871.13 527.06,-869.67 527.06,-866.77L511.27,-866.77C511.27,-871.36 513.20,-875.11 517.05,-878.02C520.91,-880.92 525.92,-882.38 532.08,-882.38C538.92,-882.38 544.31,-881.09 548.25,-878.51C552.19,-875.93 554.16,-872.30 554.16,-867.61C554.16,-865.36 553.48,-863.29 552.12,-861.40C550.76,-859.51 548.84,-858 546.38,-856.88C552.16,-854.84 555.05,-850.92 555.05,-845.11C555.05,-840.48 552.96,-836.78 548.79,-834C544.62,-831.22 539.05,-829.83 532.08,-829.83C525.73,-829.83 520.55,-831.27 516.52,-834.16C512.48,-837.05 510.47,-840.92 510.47,-845.77L526.27,-845.77C526.27,-844.48 526.80,-843.38 527.86,-842.46C528.92,-841.54 530.69,-841.08 533.16,-841.08C535.16,-841.08 536.68,-841.56 537.73,-842.53C538.77,-843.50 539.30,-844.83 539.30,-846.52C539.30,-850.14 537.28,-852.02 533.25,-852.14L526.17,-852.14L526.17,-861.33L532.59,-861.33C536.44,-861.33 538.36,-862.94 538.36,-866.16ZM641.58,-853.88C641.36,-849.13 640.08,-844.93 637.73,-841.29C635.39,-837.65 632.10,-834.83 627.87,-832.83C623.63,-830.83 618.80,-829.83 613.36,-829.83C604.39,-829.83 597.33,-832.75 592.17,-838.59C587.02,-844.44 584.44,-852.69 584.44,-863.34L584.44,-866.72C584.44,-873.41 585.60,-879.26 587.93,-884.27C590.26,-889.29 593.61,-893.16 597.98,-895.90C602.36,-898.63 607.42,-900 613.17,-900C621.45,-900 628.11,-897.82 633.14,-893.46C638.17,-889.10 641.03,-883.09 641.72,-875.44L625.31,-875.44C625.19,-879.59 624.14,-882.58 622.17,-884.39C620.20,-886.20 617.20,-887.11 613.17,-887.11C609.08,-887.11 606.08,-885.58 604.17,-882.52C602.27,-879.45 601.27,-874.56 601.17,-867.84L601.17,-863.02C601.17,-855.73 602.09,-850.53 603.91,-847.41C605.74,-844.28 608.89,-842.72 613.36,-842.72C617.14,-842.72 620.03,-843.61 622.03,-845.39C624.03,-847.17 625.09,-850 625.22,-853.88ZM706.41,-830.77L690.05,-830.77L690.05,-859.27L665.81,-859.27L665.81,-830.77L649.36,-830.77L649.36,-899.02L665.81,-899.02L665.81,-871.92L690.05,-871.92L690.05,-899.02L706.41,-899.02ZM762.84,-886.31L733.17,-886.31L733.17,-830.77L716.72,-830.77L716.72,-899.02L762.84,-899.02ZM-899.67,-723.89L-899.67,-774.61L-877.92,-774.61C-870.95,-774.61 -865.62,-773.39 -861.91,-770.95C-858.21,-768.52 -856.36,-765 -856.36,-760.41C-856.36,-758.06 -857.17,-755.96 -858.80,-754.10C-860.42,-752.24 -862.80,-750.81 -865.92,-749.81C-861.89,-749.13 -858.78,-747.79 -856.59,-745.80C-854.41,-743.82 -853.31,-741.34 -853.31,-738.38C-853.31,-733.59 -855.12,-729.99 -858.73,-727.57C-862.34,-725.15 -867.53,-723.92 -874.31,-723.89ZM-883.83,-744.56L-883.83,-735.98L-874.59,-735.98C-872.63,-735.98 -871.22,-736.33 -870.38,-737.02C-869.53,-737.70 -869.11,-738.75 -869.11,-740.16C-869.11,-742.97 -870.73,-744.44 -873.98,-744.56ZM-883.83,-754.31L-877.31,-754.31C-875.41,-754.31 -874.07,-754.63 -873.30,-755.27C-872.54,-755.91 -872.16,-756.86 -872.16,-758.11C-872.16,-759.73 -872.63,-760.88 -873.56,-761.53C-874.50,-762.19 -875.95,-762.52 -877.92,-762.52L-883.83,-762.52ZM-805.73,-747.05L-805.73,-723.89L-822.19,-723.89L-822.19,-792.14L-794.95,-792.14C-789.73,-792.14 -785.12,-791.18 -781.10,-789.26C-777.09,-787.34 -773.98,-784.60 -771.77,-781.05C-769.57,-777.51 -768.47,-773.48 -768.47,-768.98C-768.47,-762.33 -770.85,-757.01 -775.62,-753.02C-780.38,-749.04 -786.92,-747.05 -795.23,-747.05ZM-805.73,-759.75L-794.95,-759.75C-791.77,-759.75 -789.34,-760.55 -787.66,-762.14C-785.99,-763.73 -785.16,-765.98 -785.16,-768.89C-785.16,-772.08 -786.02,-774.63 -787.73,-776.53C-789.45,-778.44 -791.80,-779.41 -794.77,-779.44L-805.73,-779.44ZM-762.42,-749.72C-762.42,-754.78 -761.44,-759.29 -759.47,-763.24C-757.50,-767.20 -754.67,-770.23 -750.98,-772.36C-747.30,-774.48 -742.97,-775.55 -738,-775.55C-730.41,-775.55 -724.42,-773.20 -720.05,-768.49C-715.67,-763.79 -713.48,-757.39 -713.48,-749.30L-713.48,-748.73C-713.48,-740.83 -715.68,-734.55 -720.07,-729.91C-724.46,-725.27 -730.41,-722.95 -737.91,-722.95C-745.13,-722.95 -750.92,-725.12 -755.30,-729.45C-759.67,-733.77 -762.03,-739.64 -762.38,-747.05ZM-746.63,-748.73C-746.63,-744.05 -745.89,-740.61 -744.42,-738.42C-742.95,-736.23 -740.78,-735.14 -737.91,-735.14C-732.28,-735.14 -729.41,-739.47 -729.28,-748.13L-729.28,-749.72C-729.28,-758.81 -732.19,-763.36 -738,-763.36C-743.28,-763.36 -746.14,-759.44 -746.58,-751.59ZM-685.08,-735.14C-682.86,-735.14 -681.14,-735.74 -679.92,-736.95C-678.70,-738.15 -678.11,-739.83 -678.14,-741.98L-663.33,-741.98C-663.33,-736.42 -665.32,-731.86 -669.30,-728.30C-673.29,-724.73 -678.42,-722.95 -684.70,-722.95C-692.08,-722.95 -697.89,-725.27 -702.14,-729.89C-706.39,-734.52 -708.52,-740.92 -708.52,-749.11L-708.52,-749.77C-708.52,-754.89 -707.57,-759.41 -705.68,-763.34C-703.79,-767.26 -701.06,-770.27 -697.50,-772.38C-693.94,-774.49 -689.72,-775.55 -684.84,-775.55C-678.25,-775.55 -673.02,-773.72 -669.14,-770.06C-665.27,-766.41 -663.33,-761.45 -663.33,-755.20L-678.14,-755.20C-678.14,-757.83 -678.78,-759.84 -680.06,-761.25C-681.34,-762.66 -683.06,-763.36 -685.22,-763.36C-689.31,-763.36 -691.70,-760.75 -692.39,-755.53C-692.61,-753.88 -692.72,-751.59 -692.72,-748.69C-692.72,-743.59 -692.11,-740.06 -690.89,-738.09C-689.67,-736.13 -687.73,-735.14 -685.08,-735.14ZM-635.20,-735.14C-632.98,-735.14 -631.27,-735.74 -630.05,-736.95C-628.83,-738.15 -628.23,-739.83 -628.27,-741.98L-613.45,-741.98C-613.45,-736.42 -615.45,-731.86 -619.43,-728.30C-623.41,-724.73 -628.55,-722.95 -634.83,-722.95C-642.20,-722.95 -648.02,-725.27 -652.27,-729.89C-656.52,-734.52 -658.64,-740.92 -658.64,-749.11L-658.64,-749.77C-658.64,-754.89 -657.70,-759.41 -655.80,-763.34C-653.91,-767.26 -651.19,-770.27 -647.63,-772.38C-644.06,-774.49 -639.84,-775.55 -634.97,-775.55C-628.38,-775.55 -623.14,-773.72 -619.27,-770.06C-615.39,-766.41 -613.45,-761.45 -613.45,-755.20L-628.27,-755.20C-628.27,-757.83 -628.91,-759.84 -630.19,-761.25C-631.47,-762.66 -633.19,-763.36 -635.34,-763.36C-639.44,-763.36 -641.83,-760.75 -642.52,-755.53C-642.73,-753.88 -642.84,-751.59 -642.84,-748.69C-642.84,-743.59 -642.23,-740.06 -641.02,-738.09C-639.80,-736.13 -637.86,-735.14 -635.20,-735.14ZM-577.27,-774.61L-561.42,-774.61L-561.42,-723.89L-577.27,-723.89L-577.27,-753.42L-591.19,-723.89L-607.08,-723.89L-607.08,-774.61L-591.19,-774.61L-591.19,-745.17ZM-523.45,-774.61L-507.61,-774.61L-507.61,-723.89L-523.45,-723.89L-523.45,-753.42L-537.38,-723.89L-553.27,-723.89L-553.27,-774.61L-537.38,-774.61L-537.38,-745.17ZM-453.80,-735.14C-451.58,-735.14 -449.86,-735.74 -448.64,-736.95C-447.42,-738.15 -446.83,-739.83 -446.86,-741.98L-432.05,-741.98C-432.05,-736.42 -434.04,-731.86 -438.02,-728.30C-442.01,-724.73 -447.14,-722.95 -453.42,-722.95C-460.80,-722.95 -466.61,-725.27 -470.86,-729.89C-475.11,-734.52 -477.23,-740.92 -477.23,-749.11L-477.23,-749.77C-477.23,-754.89 -476.29,-759.41 -474.40,-763.34C-472.51,-767.26 -469.78,-770.27 -466.22,-772.38C-462.66,-774.49 -458.44,-775.55 -453.56,-775.55C-446.97,-775.55 -441.73,-773.72 -437.86,-770.06C-433.98,-766.41 -432.05,-761.45 -432.05,-755.20L-446.86,-755.20C-446.86,-757.83 -447.50,-759.84 -448.78,-761.25C-450.06,-762.66 -451.78,-763.36 -453.94,-763.36C-458.03,-763.36 -460.42,-760.75 -461.11,-755.53C-461.33,-753.88 -461.44,-751.59 -461.44,-748.69C-461.44,-743.59 -460.83,-740.06 -459.61,-738.09C-458.39,-736.13 -456.45,-735.14 -453.80,-735.14ZM-427.36,-749.72C-427.36,-754.78 -426.38,-759.29 -424.41,-763.24C-422.44,-767.20 -419.61,-770.23 -415.92,-772.36C-412.23,-774.48 -407.91,-775.55 -402.94,-775.55C-395.34,-775.55 -389.36,-773.20 -384.98,-768.49C-380.61,-763.79 -378.42,-757.39 -378.42,-749.30L-378.42,-748.73C-378.42,-740.83 -380.62,-734.55 -385.01,-729.91C-389.40,-725.27 -395.34,-722.95 -402.84,-722.95C-410.06,-722.95 -415.86,-725.12 -420.23,-729.45C-424.61,-733.77 -426.97,-739.64 -427.31,-747.05ZM-411.56,-748.73C-411.56,-744.05 -410.83,-740.61 -409.36,-738.42C-407.89,-736.23 -405.72,-735.14 -402.84,-735.14C-397.22,-735.14 -394.34,-739.47 -394.22,-748.13L-394.22,-749.72C-394.22,-758.81 -397.13,-763.36 -402.94,-763.36C-408.22,-763.36 -411.08,-759.44 -411.52,-751.59ZM-349.83,-741.61L-354.56,-741.61L-354.56,-723.89L-370.41,-723.89L-370.41,-774.61L-354.56,-774.61L-354.56,-756.38L-350.02,-756.38L-341.95,-774.61L-321.70,-774.61L-336.52,-751.17L-336.47,-751.17L-320.20,-723.89L-341.63,-723.89ZM-269.34,-748.88C-269.34,-741 -271.12,-734.71 -274.66,-730.01C-278.21,-725.30 -283,-722.95 -289.03,-722.95C-293.69,-722.95 -297.52,-724.66 -300.52,-728.06L-300.52,-704.39L-316.31,-704.39L-316.31,-774.61L-301.55,-774.61L-301.08,-769.92C-298.05,-773.67 -294.06,-775.55 -289.13,-775.55C-282.88,-775.55 -278.02,-773.24 -274.55,-768.63C-271.08,-764.02 -269.34,-757.69 -269.34,-749.63ZM-285.14,-749.86C-285.14,-758.86 -287.77,-763.36 -293.02,-763.36C-296.77,-763.36 -299.27,-762.02 -300.52,-759.33L-300.52,-739.36C-299.14,-736.55 -296.61,-735.14 -292.92,-735.14C-287.89,-735.14 -285.30,-739.48 -285.14,-748.17ZM-233.81,-723.89C-234.38,-724.92 -234.88,-726.44 -235.31,-728.44C-238.22,-724.78 -242.28,-722.95 -247.50,-722.95C-252.28,-722.95 -256.34,-724.40 -259.69,-727.29C-263.03,-730.18 -264.70,-733.81 -264.70,-738.19C-264.70,-743.69 -262.67,-747.84 -258.61,-750.66C-254.55,-753.47 -248.64,-754.88 -240.89,-754.88L-236.02,-754.88L-236.02,-757.55C-236.02,-762.20 -238.03,-764.53 -242.06,-764.53C-245.81,-764.53 -247.69,-762.69 -247.69,-759L-263.48,-759C-263.48,-763.91 -261.40,-767.89 -257.23,-770.95C-253.05,-774.02 -247.73,-775.55 -241.27,-775.55C-234.80,-775.55 -229.69,-773.97 -225.94,-770.81C-222.19,-767.66 -220.27,-763.33 -220.17,-757.83L-220.17,-735.38C-220.11,-730.72 -219.39,-727.16 -218.02,-724.69L-218.02,-723.89ZM-243.70,-734.20C-241.73,-734.20 -240.10,-734.63 -238.80,-735.47C-237.51,-736.31 -236.58,-737.27 -236.02,-738.33L-236.02,-746.44L-240.61,-746.44C-246.11,-746.44 -248.86,-743.97 -248.86,-739.03C-248.86,-737.59 -248.38,-736.43 -247.41,-735.54C-246.44,-734.65 -245.20,-734.20 -243.70,-734.20ZM-167.02,-762.52L-183,-762.52L-183,-723.89L-198.89,-723.89L-198.89,-762.52L-214.64,-762.52L-214.64,-774.61L-167.02,-774.61ZM-131.63,-774.61L-115.78,-774.61L-115.78,-723.89L-131.63,-723.89L-131.63,-753.42L-145.55,-723.89L-161.44,-723.89L-161.44,-774.61L-145.55,-774.61L-145.55,-745.17ZM-62.02,-774.61L-62.02,-723.89L-77.81,-723.89L-77.81,-762.42L-87.28,-762.42L-88.13,-746.91C-88.72,-739.22 -90.45,-733.47 -93.33,-729.66C-96.20,-725.84 -100.47,-723.92 -106.13,-723.89L-111.09,-723.89L-111.28,-735.98L-109.64,-736.17C-107.55,-736.42 -105.99,-737.82 -104.98,-740.37C-103.96,-742.91 -103.31,-746.77 -103.03,-751.92L-102.05,-774.61ZM-55.41,-749.72C-55.41,-754.78 -54.42,-759.29 -52.45,-763.24C-50.48,-767.20 -47.66,-770.23 -43.97,-772.36C-40.28,-774.48 -35.95,-775.55 -30.98,-775.55C-23.39,-775.55 -17.41,-773.20 -13.03,-768.49C-8.66,-763.79 -6.47,-757.39 -6.47,-749.30L-6.47,-748.73C-6.47,-740.83 -8.66,-734.55 -13.05,-729.91C-17.45,-725.27 -23.39,-722.95 -30.89,-722.95C-38.11,-722.95 -43.91,-725.12 -48.28,-729.45C-52.66,-733.77 -55.02,-739.64 -55.36,-747.05ZM-39.61,-748.73C-39.61,-744.05 -38.88,-740.61 -37.41,-738.42C-35.94,-736.23 -33.77,-735.14 -30.89,-735.14C-25.27,-735.14 -22.39,-739.47 -22.27,-748.13L-22.27,-749.72C-22.27,-758.81 -25.17,-763.36 -30.98,-763.36C-36.27,-763.36 -39.13,-759.44 -39.56,-751.59ZM21.94,-735.14C24.16,-735.14 25.88,-735.74 27.09,-736.95C28.31,-738.15 28.91,-739.83 28.88,-741.98L43.69,-741.98C43.69,-736.42 41.70,-731.86 37.71,-728.30C33.73,-724.73 28.59,-722.95 22.31,-722.95C14.94,-722.95 9.13,-725.27 4.88,-729.89C0.63,-734.52 -1.50,-740.92 -1.50,-749.11L-1.50,-749.77C-1.50,-754.89 -0.55,-759.41 1.34,-763.34C3.23,-767.26 5.95,-770.27 9.52,-772.38C13.08,-774.49 17.30,-775.55 22.17,-775.55C28.77,-775.55 34,-773.72 37.88,-770.06C41.75,-766.41 43.69,-761.45 43.69,-755.20L28.88,-755.20C28.88,-757.83 28.23,-759.84 26.95,-761.25C25.67,-762.66 23.95,-763.36 21.80,-763.36C17.70,-763.36 15.31,-760.75 14.63,-755.53C14.41,-753.88 14.30,-751.59 14.30,-748.69C14.30,-743.59 14.91,-740.06 16.13,-738.09C17.34,-736.13 19.28,-735.14 21.94,-735.14ZM67.31,-760.69L75.42,-760.69C80.11,-760.69 84.23,-759.92 87.80,-758.39C91.36,-756.86 94.08,-754.69 95.95,-751.88C97.83,-749.06 98.77,-745.80 98.77,-742.08C98.77,-736.61 96.65,-732.21 92.41,-728.88C88.18,-725.55 82.41,-723.89 75.09,-723.89L51.42,-723.89L51.42,-774.61L67.31,-774.61ZM67.31,-748.55L67.31,-735.98L75.33,-735.98C77.73,-735.98 79.62,-736.54 80.98,-737.65C82.34,-738.76 83.02,-740.27 83.02,-742.17C83.02,-744.05 82.41,-745.58 81.19,-746.77C79.97,-747.95 78.02,-748.55 75.33,-748.55ZM173.67,-723.89L157.83,-723.89L157.83,-742.69L144,-742.69L144,-723.89L128.20,-723.89L128.20,-774.61L144,-774.61L144,-754.83L157.83,-754.83L157.83,-774.61L173.67,-774.61ZM210.89,-723.89C210.33,-724.92 209.83,-726.44 209.39,-728.44C206.48,-724.78 202.42,-722.95 197.20,-722.95C192.42,-722.95 188.36,-724.40 185.02,-727.29C181.67,-730.18 180,-733.81 180,-738.19C180,-743.69 182.03,-747.84 186.09,-750.66C190.16,-753.47 196.06,-754.88 203.81,-754.88L208.69,-754.88L208.69,-757.55C208.69,-762.20 206.67,-764.53 202.64,-764.53C198.89,-764.53 197.02,-762.69 197.02,-759L181.22,-759C181.22,-763.91 183.30,-767.89 187.48,-770.95C191.65,-774.02 196.97,-775.55 203.44,-775.55C209.91,-775.55 215.02,-773.97 218.77,-770.81C222.52,-767.66 224.44,-763.33 224.53,-757.83L224.53,-735.38C224.59,-730.72 225.31,-727.16 226.69,-724.69L226.69,-723.89ZM201,-734.20C202.97,-734.20 204.60,-734.63 205.90,-735.47C207.20,-736.31 208.13,-737.27 208.69,-738.33L208.69,-746.44L204.09,-746.44C198.59,-746.44 195.84,-743.97 195.84,-739.03C195.84,-737.59 196.33,-736.43 197.30,-735.54C198.27,-734.65 199.50,-734.20 201,-734.20ZM271.36,-764.63L278.81,-764.63C284.72,-764.63 287.67,-767.52 287.67,-773.30C287.67,-775.55 286.97,-777.38 285.56,-778.80C284.16,-780.23 282.17,-780.94 279.61,-780.94C277.52,-780.94 275.70,-780.33 274.15,-779.11C272.60,-777.89 271.83,-776.38 271.83,-774.56L256.03,-774.56C256.03,-778.16 257.03,-781.36 259.03,-784.17C261.03,-786.98 263.80,-789.18 267.35,-790.76C270.90,-792.34 274.80,-793.13 279.05,-793.13C286.64,-793.13 292.61,-791.39 296.95,-787.92C301.30,-784.45 303.47,-779.69 303.47,-773.63C303.47,-770.69 302.57,-767.91 300.77,-765.30C298.98,-762.70 296.36,-760.58 292.92,-758.95C296.55,-757.64 299.39,-755.65 301.45,-752.98C303.52,-750.30 304.55,-747 304.55,-743.06C304.55,-736.97 302.20,-732.09 297.52,-728.44C292.83,-724.78 286.67,-722.95 279.05,-722.95C274.58,-722.95 270.43,-723.80 266.60,-725.51C262.77,-727.21 259.88,-729.57 257.91,-732.59C255.94,-735.60 254.95,-739.03 254.95,-742.88L270.84,-742.88C270.84,-740.78 271.69,-738.97 273.38,-737.44C275.06,-735.91 277.14,-735.14 279.61,-735.14C282.39,-735.14 284.61,-735.91 286.27,-737.46C287.92,-739.01 288.75,-740.98 288.75,-743.39C288.75,-746.83 287.89,-749.27 286.17,-750.70C284.45,-752.14 282.08,-752.86 279.05,-752.86L271.36,-752.86ZM368.44,-741.33L379.92,-774.61L399.80,-774.61L399.80,-723.89L383.95,-723.89L383.95,-752.02L373.73,-723.89L363.23,-723.89L353.58,-750.52L353.58,-723.89L337.73,-723.89L337.73,-774.61L357.14,-774.61ZM455.67,-774.61L455.67,-723.89L439.88,-723.89L439.88,-762.42L430.41,-762.42L429.56,-746.91C428.97,-739.22 427.23,-733.47 424.36,-729.66C421.48,-725.84 417.22,-723.92 411.56,-723.89L406.59,-723.89L406.41,-735.98L408.05,-736.17C410.14,-736.42 411.70,-737.82 412.71,-740.37C413.73,-742.91 414.38,-746.77 414.66,-751.92L415.64,-774.61ZM509.44,-723.89L493.59,-723.89L493.59,-742.69L479.77,-742.69L479.77,-723.89L463.97,-723.89L463.97,-774.61L479.77,-774.61L479.77,-754.83L493.59,-754.83L493.59,-774.61L509.44,-774.61Z" fill="#ffffff"/>
    <g>
        <path d="M-900,918.83C-898.83,918.83 -897.99,918.49 -897.47,917.81C-896.95,917.13 -896.69,916.25 -896.69,915.16L-896.69,909.27C-896.69,908.16 -896.54,907.16 -896.26,906.29C-895.97,905.43 -895.50,904.70 -894.84,904.10C-894.18,903.50 -893.29,903.05 -892.19,902.73C-891.08,902.42 -889.72,902.27 -888.08,902.27L-887.30,902.27L-887.30,906.90L-888.27,906.90C-889.44,906.90 -890.23,907.16 -890.63,907.68C-891.03,908.21 -891.23,909.01 -891.23,910.10L-891.23,915.29C-891.23,916.64 -891.41,917.78 -891.78,918.72C-892.15,919.65 -892.87,920.46 -893.96,921.14C-892.87,921.81 -892.15,922.62 -891.78,923.55C-891.41,924.49 -891.23,925.63 -891.23,926.98L-891.23,932.16C-891.23,933.26 -891.04,934.06 -890.63,934.58C-890.23,935.10 -889.44,935.36 -888.27,935.36L-887.30,935.36L-887.30,940L-888.08,940C-889.72,940 -891.08,939.84 -892.19,939.53C-893.29,939.22 -894.17,938.76 -894.84,938.17C-895.50,937.57 -895.97,936.84 -896.26,935.97C-896.55,935.10 -896.69,934.10 -896.69,932.99L-896.69,927.10C-896.69,926.01 -896.95,925.13 -897.47,924.45C-897.99,923.77 -898.83,923.43 -900,923.43L-900,918.83Z" fill="#ffffff"/>
        <path d="M-858.15,905.78L-852.07,905.78L-852.22,939.99L-858.30,939.99L-858.16,921.32L-868.36,921.32L-868.36,932.78L-874.44,932.78L-874.44,905.78L-868.36,905.78L-868.36,916.10L-858.16,916.10L-858.15,905.78L-858.15,905.78Z" fill="#ffffff"/>
        <path d="M-827.06,922.49C-827.06,924.10 -827.29,925.58 -827.76,926.91C-828.23,928.25 -828.91,929.40 -829.79,930.35C-830.67,931.29 -831.73,932.03 -832.96,932.55C-834.20,933.07 -835.58,933.33 -837.11,933.33C-838.62,933.33 -839.99,933.07 -841.22,932.55C-842.46,932.03 -843.52,931.29 -844.40,930.35C-845.28,929.40 -845.97,928.26 -846.46,926.91C-846.95,925.58 -847.20,924.10 -847.20,922.49C-847.20,920.88 -846.95,919.41 -846.44,918.09C-845.93,916.76 -845.23,915.63 -844.33,914.70C-843.44,913.76 -842.37,913.04 -841.13,912.51C-839.90,911.99 -838.55,911.73 -837.10,911.73C-835.62,911.73 -834.26,911.99 -833.03,912.51C-831.79,913.04 -830.74,913.76 -829.85,914.70C-828.97,915.63 -828.28,916.76 -827.79,918.09C-827.30,919.41 -827.06,920.88 -827.06,922.49ZM-832.98,922.49C-832.98,920.70 -833.34,919.29 -834.05,918.26C-834.77,917.24 -835.79,916.72 -837.11,916.72C-838.44,916.72 -839.47,917.24 -840.19,918.26C-840.92,919.29 -841.28,920.70 -841.28,922.49C-841.28,924.29 -840.92,925.71 -840.19,926.76C-839.47,927.81 -838.44,928.34 -837.11,928.34C-835.79,928.34 -834.77,927.81 -834.05,926.76C-833.34,925.70 -832.98,924.28 -832.98,922.49Z" fill="#ffffff"/>
        <path d="M-813.69,933.17C-814.42,933.17 -815.20,933.14 -816.03,933.09C-816.86,933.03 -817.68,932.96 -818.48,932.87C-819.29,932.78 -820.05,932.67 -820.76,932.56C-821.48,932.45 -822.08,932.33 -822.58,932.23L-822.58,912.59C-822.08,912.49 -821.48,912.39 -820.76,912.30C-820.05,912.21 -819.29,912.12 -818.48,912.05C-817.68,911.97 -816.86,911.91 -816.03,911.87C-815.20,911.84 -814.42,911.81 -813.69,911.81C-812.00,911.81 -810.58,911.98 -809.42,912.32C-808.27,912.65 -807.34,913.10 -806.62,913.64C-805.90,914.19 -805.39,914.80 -805.07,915.47C-804.76,916.15 -804.61,916.82 -804.61,917.50C-804.61,918.41 -804.83,919.24 -805.27,920.00C-805.71,920.75 -806.27,921.29 -806.94,921.63C-806.57,921.79 -806.21,922.01 -805.83,922.29C-805.45,922.58 -805.11,922.92 -804.80,923.33C-804.49,923.73 -804.23,924.21 -804.04,924.77C-803.84,925.32 -803.74,925.97 -803.74,926.69C-803.74,927.53 -803.90,928.33 -804.23,929.11C-804.55,929.89 -805.10,930.58 -805.88,931.17C-806.66,931.77 -807.69,932.25 -808.96,932.61C-810.25,932.99 -811.82,933.17 -813.69,933.17ZM-813.50,920.31C-812.54,920.31 -811.76,920.18 -811.16,919.94C-810.56,919.69 -810.26,919.15 -810.26,918.32C-810.26,917.54 -810.60,917.00 -811.28,916.72C-811.96,916.43 -812.84,916.29 -813.93,916.29C-814.30,916.29 -814.77,916.31 -815.35,916.35C-815.93,916.39 -816.41,916.44 -816.77,916.49L-816.77,920.31L-813.50,920.31L-813.50,920.31ZM-816.77,928.49C-816.40,928.55 -815.92,928.59 -815.30,928.63C-814.69,928.67 -814.13,928.69 -813.61,928.69C-812.31,928.69 -811.30,928.53 -810.56,928.20C-809.84,927.88 -809.47,927.29 -809.47,926.43C-809.47,925.60 -809.80,925.02 -810.47,924.69C-811.13,924.37 -812.10,924.21 -813.37,924.21L-816.76,924.21L-816.77,928.49L-816.77,928.49Z" fill="#ffffff"/>
        <path d="M-791.91,911.73C-790.19,911.73 -788.77,911.93 -787.63,912.32C-786.49,912.71 -785.57,913.26 -784.88,913.99C-784.19,914.72 -783.70,915.60 -783.41,916.64C-783.13,917.68 -782.99,918.84 -782.99,920.11L-782.99,932.19C-783.82,932.37 -784.97,932.58 -786.46,932.83C-787.94,933.08 -789.73,933.20 -791.83,933.20C-793.16,933.20 -794.36,933.09 -795.44,932.85C-796.52,932.62 -797.44,932.24 -798.22,931.70C-799.00,931.17 -799.60,930.47 -800.02,929.62C-800.43,928.76 -800.64,927.71 -800.64,926.46C-800.64,925.27 -800.40,924.26 -799.92,923.42C-799.44,922.59 -798.80,921.93 -797.99,921.44C-797.19,920.94 -796.27,920.58 -795.23,920.36C-794.19,920.14 -793.11,920.03 -791.99,920.03C-791.24,920.03 -790.57,920.06 -789.99,920.13C-789.41,920.19 -788.93,920.28 -788.57,920.38L-788.57,919.83C-788.57,918.85 -788.87,918.06 -789.46,917.46C-790.06,916.86 -791.10,916.56 -792.58,916.56C-793.57,916.56 -794.54,916.64 -795.50,916.78C-796.46,916.92 -797.30,917.12 -798,917.39L-798.74,912.71C-798.40,912.61 -797.98,912.50 -797.47,912.38C-796.97,912.27 -796.42,912.16 -795.82,912.07C-795.22,911.98 -794.59,911.90 -793.93,911.84C-793.25,911.77 -792.59,911.73 -791.91,911.73ZM-791.44,928.73C-790.87,928.73 -790.33,928.71 -789.80,928.69C-789.28,928.67 -788.87,928.62 -788.56,928.57L-788.56,924.17C-788.79,924.11 -789.14,924.06 -789.61,924.01C-790.07,923.96 -790.50,923.93 -790.89,923.93C-791.44,923.93 -791.95,923.96 -792.43,924.03C-792.91,924.09 -793.33,924.21 -793.70,924.40C-794.06,924.58 -794.35,924.83 -794.56,925.14C-794.77,925.45 -794.87,925.84 -794.87,926.31C-794.87,927.22 -794.56,927.85 -793.95,928.20C-793.34,928.55 -792.51,928.73 -791.44,928.73Z" fill="#ffffff"/>
        <path d="M-769.24,925.49C-770.07,926.71 -770.81,927.94 -771.47,929.18C-772.12,930.41 -772.75,931.61 -773.35,932.78L-779.29,932.78C-778.53,931.10 -777.77,929.55 -776.99,928.14C-776.21,926.74 -775.46,925.53 -774.73,924.52C-775.82,923.95 -776.69,923.21 -777.34,922.32C-777.98,921.42 -778.31,920.30 -778.31,918.95C-778.31,916.66 -777.49,914.91 -775.84,913.68C-774.19,912.47 -771.91,911.85 -769.00,911.85C-768.35,911.85 -767.63,911.88 -766.84,911.93C-766.04,911.99 -765.26,912.06 -764.48,912.17C-763.70,912.27 -762.95,912.38 -762.24,912.50C-761.53,912.62 -760.92,912.74 -760.43,912.87L-760.43,932.78L-766.24,932.78L-766.24,925.49L-769.24,925.49ZM-766.24,916.45C-766.49,916.43 -766.90,916.39 -767.44,916.35C-767.99,916.32 -768.46,916.29 -768.85,916.29C-770.27,916.29 -771.25,916.53 -771.77,917.01C-772.29,917.49 -772.55,918.11 -772.55,918.86C-772.55,919.33 -772.45,919.73 -772.24,920.05C-772.03,920.37 -771.76,920.63 -771.42,920.83C-771.08,921.02 -770.71,921.16 -770.29,921.24C-769.88,921.32 -769.46,921.35 -769.04,921.35L-766.24,921.35L-766.24,916.45L-766.24,916.45Z" fill="#ffffff"/>
        <path d="M-739.93,915.87C-739.93,917.04 -740.30,917.93 -741.04,918.54C-741.78,919.15 -742.62,919.46 -743.56,919.46C-744.49,919.46 -745.33,919.15 -746.07,918.54C-746.81,917.93 -747.18,917.04 -747.18,915.87C-747.18,914.70 -746.81,913.81 -746.07,913.20C-745.33,912.59 -744.49,912.28 -743.56,912.28C-742.62,912.28 -741.78,912.59 -741.04,913.20C-740.30,913.80 -739.93,914.70 -739.93,915.87ZM-739.93,929.70C-739.93,930.87 -740.30,931.76 -741.04,932.37C-741.78,932.98 -742.62,933.29 -743.56,933.29C-744.49,933.29 -745.33,932.98 -746.07,932.37C-746.81,931.76 -747.18,930.87 -747.18,929.70C-747.18,928.53 -746.81,927.64 -746.07,927.03C-745.33,926.42 -744.49,926.11 -743.56,926.11C-742.62,926.11 -741.78,926.42 -741.04,927.03C-740.30,927.64 -739.93,928.53 -739.93,929.70Z" fill="#ffffff"/>
        <path d="M-728.63,927.63L-724.74,927.63C-723.78,925.97 -723.02,924.32 -722.48,922.68C-721.93,921.05 -721.52,919.38 -721.25,917.70C-720.98,916.01 -720.80,914.27 -720.74,912.48C-720.68,910.68 -720.65,908.80 -720.65,906.83L-720.65,905.78L-702.80,905.78L-702.80,927.63L-698.17,927.63L-698.17,939.99L-704.01,939.99L-704.01,932.78L-722.79,932.78L-722.79,939.98L-728.63,939.98L-728.63,927.63ZM-714.92,910.92C-714.97,912.32 -715.06,913.76 -715.19,915.24C-715.32,916.73 -715.51,918.18 -715.77,919.63C-716.03,921.07 -716.38,922.47 -716.80,923.84C-717.23,925.20 -717.77,926.46 -718.42,927.63L-708.72,927.63L-708.72,910.92L-714.92,910.92Z" fill="#ffffff"/>
        <path d="M-687.29,911.73C-685.57,911.73 -684.14,911.93 -683.00,912.32C-681.86,912.71 -680.95,913.26 -680.26,913.99C-679.57,914.72 -679.08,915.60 -678.79,916.64C-678.50,917.68 -678.37,918.84 -678.37,920.11L-678.37,932.19C-679.20,932.37 -680.35,932.58 -681.83,932.83C-683.32,933.08 -685.11,933.20 -687.21,933.20C-688.54,933.20 -689.74,933.09 -690.82,932.85C-691.90,932.62 -692.82,932.24 -693.60,931.70C-694.38,931.17 -694.98,930.47 -695.39,929.62C-695.81,928.76 -696.02,927.71 -696.02,926.46C-696.02,925.27 -695.78,924.26 -695.30,923.42C-694.82,922.59 -694.18,921.93 -693.37,921.44C-692.57,920.94 -691.64,920.58 -690.61,920.36C-689.57,920.14 -688.49,920.03 -687.37,920.03C-686.62,920.03 -685.95,920.06 -685.37,920.13C-684.79,920.19 -684.31,920.28 -683.95,920.38L-683.95,919.83C-683.95,918.85 -684.25,918.06 -684.84,917.46C-685.44,916.86 -686.48,916.56 -687.96,916.56C-688.95,916.56 -689.92,916.64 -690.88,916.78C-691.84,916.92 -692.68,917.12 -693.38,917.39L-694.12,912.71C-693.78,912.61 -693.35,912.50 -692.85,912.38C-692.35,912.27 -691.79,912.16 -691.19,912.07C-690.59,911.98 -689.96,911.90 -689.30,911.84C-688.63,911.77 -687.97,911.73 -687.29,911.73ZM-686.82,928.73C-686.25,928.73 -685.70,928.71 -685.18,928.69C-684.66,928.67 -684.25,928.62 -683.93,928.57L-683.93,924.17C-684.17,924.11 -684.52,924.06 -684.98,924.01C-685.45,923.96 -685.88,923.93 -686.27,923.93C-686.81,923.93 -687.32,923.96 -687.81,924.03C-688.29,924.09 -688.71,924.21 -689.08,924.40C-689.44,924.58 -689.72,924.83 -689.93,925.14C-690.14,925.45 -690.25,925.84 -690.25,926.31C-690.25,927.22 -689.94,927.85 -689.33,928.20C-688.73,928.55 -687.89,928.73 -686.82,928.73Z" fill="#ffffff"/>
        <path d="M-656.15,917.03L-662.70,917.03L-662.70,932.78L-668.51,932.78L-668.51,917.03L-675.05,917.03L-675.05,912.28L-656.15,912.28L-656.15,917.03L-656.15,917.03Z" fill="#ffffff"/>
        <path d="M-645.29,911.73C-643.57,911.73 -642.14,911.93 -641.00,912.32C-639.86,912.71 -638.95,913.26 -638.26,913.99C-637.57,914.72 -637.08,915.60 -636.79,916.64C-636.50,917.68 -636.37,918.84 -636.37,920.11L-636.37,932.19C-637.20,932.37 -638.35,932.58 -639.83,932.83C-641.32,933.08 -643.11,933.20 -645.21,933.20C-646.54,933.20 -647.74,933.09 -648.82,932.85C-649.90,932.62 -650.82,932.24 -651.60,931.70C-652.38,931.17 -652.98,930.47 -653.39,929.62C-653.81,928.76 -654.02,927.71 -654.02,926.46C-654.02,925.27 -653.78,924.26 -653.30,923.42C-652.82,922.59 -652.18,921.93 -651.37,921.44C-650.57,920.94 -649.64,920.58 -648.61,920.36C-647.57,920.14 -646.49,920.03 -645.37,920.03C-644.62,920.03 -643.95,920.06 -643.37,920.13C-642.79,920.19 -642.31,920.28 -641.95,920.38L-641.95,919.83C-641.95,918.85 -642.25,918.06 -642.84,917.46C-643.44,916.86 -644.48,916.56 -645.96,916.56C-646.95,916.56 -647.92,916.64 -648.88,916.78C-649.84,916.92 -650.68,917.12 -651.38,917.39L-652.12,912.71C-651.78,912.61 -651.35,912.50 -650.85,912.38C-650.35,912.27 -649.79,912.16 -649.19,912.07C-648.59,911.98 -647.96,911.90 -647.30,911.84C-646.63,911.77 -645.96,911.73 -645.29,911.73ZM-644.82,928.73C-644.25,928.73 -643.70,928.71 -643.18,928.69C-642.66,928.67 -642.25,928.62 -641.93,928.57L-641.93,924.17C-642.17,924.11 -642.52,924.06 -642.98,924.01C-643.45,923.96 -643.88,923.93 -644.27,923.93C-644.81,923.93 -645.32,923.96 -645.81,924.03C-646.29,924.09 -646.71,924.21 -647.08,924.40C-647.44,924.58 -647.72,924.83 -647.93,925.14C-648.14,925.45 -648.25,925.84 -648.25,926.31C-648.25,927.22 -647.94,927.85 -647.33,928.20C-646.72,928.55 -645.88,928.73 -644.82,928.73Z" fill="#ffffff"/>
        <path d="M-632.23,918.51L-620.93,918.51L-620.93,923.78L-632.23,923.78L-632.23,918.51Z" fill="#ffffff"/>
        <path d="M-597.59,922.49C-597.59,924.10 -597.83,925.58 -598.30,926.91C-598.76,928.25 -599.44,929.40 -600.32,930.35C-601.21,931.29 -602.27,932.03 -603.50,932.55C-604.73,933.07 -606.11,933.33 -607.65,933.33C-609.16,933.33 -610.53,933.07 -611.76,932.55C-613.00,932.03 -614.05,931.29 -614.93,930.35C-615.82,929.40 -616.51,928.26 -617.00,926.91C-617.49,925.58 -617.74,924.10 -617.74,922.49C-617.74,920.88 -617.48,919.41 -616.97,918.09C-616.47,916.76 -615.77,915.63 -614.87,914.70C-613.97,913.76 -612.91,913.04 -611.67,912.51C-610.43,911.99 -609.09,911.73 -607.64,911.73C-606.16,911.73 -604.80,911.99 -603.56,912.51C-602.33,913.04 -601.27,913.76 -600.39,914.70C-599.51,915.63 -598.82,916.76 -598.33,918.09C-597.84,919.41 -597.59,920.88 -597.59,922.49ZM-603.52,922.49C-603.52,920.70 -603.88,919.29 -604.59,918.26C-605.30,917.24 -606.32,916.72 -607.65,916.72C-608.98,916.72 -610.00,917.24 -610.73,918.26C-611.45,919.29 -611.82,920.70 -611.82,922.49C-611.82,924.29 -611.45,925.71 -610.73,926.76C-610.00,927.81 -608.98,928.34 -607.65,928.34C-606.32,928.34 -605.30,927.81 -604.59,926.76C-603.87,925.70 -603.52,924.28 -603.52,922.49Z" fill="#ffffff"/>
        <path d="M-576.16,917.03L-582.71,917.03L-582.71,932.78L-588.52,932.78L-588.52,917.03L-595.06,917.03L-595.06,912.28L-576.16,912.28L-576.16,917.03Z" fill="#ffffff"/>
        <path d="M-575.74,928.02L-573.20,928.02C-572.48,927.14 -571.91,926.04 -571.51,924.73C-571.11,923.42 -570.82,922.03 -570.65,920.56C-570.49,919.09 -570.39,917.63 -570.36,916.17C-570.34,914.72 -570.32,913.42 -570.32,912.28L-554.34,912.28L-554.34,928.02L-550.87,928.02L-550.87,938.62L-555.82,938.62L-555.82,932.78L-570.79,932.78L-570.79,938.62L-575.74,938.62L-575.74,928.02ZM-560.15,928.02L-560.15,917.03L-564.90,917.03C-564.95,917.94 -565.01,918.89 -565.07,919.86C-565.14,920.83 -565.25,921.79 -565.42,922.74C-565.59,923.69 -565.82,924.62 -566.11,925.53C-566.39,926.44 -566.77,927.27 -567.23,928.02L-560.15,928.02L-560.15,928.02Z" fill="#ffffff"/>
        <path d="M-548.34,922.68C-548.34,920.87 -548.06,919.28 -547.50,917.91C-546.94,916.55 -546.21,915.41 -545.30,914.50C-544.39,913.59 -543.34,912.90 -542.16,912.44C-540.98,911.97 -539.77,911.73 -538.52,911.73C-535.61,911.73 -533.31,912.62 -531.62,914.40C-529.94,916.19 -529.09,918.80 -529.09,922.26C-529.09,922.59 -529.10,922.97 -529.13,923.37C-529.16,923.77 -529.19,924.13 -529.21,924.44L-542.38,924.44C-542.25,925.64 -541.69,926.58 -540.71,927.29C-539.72,927.99 -538.40,928.34 -536.74,928.34C-535.67,928.34 -534.62,928.24 -533.60,928.04C-532.57,927.85 -531.73,927.61 -531.08,927.32L-530.30,932.04C-530.62,932.19 -531.03,932.35 -531.55,932.51C-532.07,932.66 -532.65,932.80 -533.29,932.91C-533.92,933.03 -534.61,933.13 -535.33,933.21C-536.06,933.29 -536.79,933.32 -537.52,933.32C-539.36,933.32 -540.97,933.05 -542.33,932.51C-543.69,931.96 -544.82,931.22 -545.72,930.27C-546.61,929.32 -547.28,928.20 -547.70,926.90C-548.12,925.59 -548.34,924.19 -548.34,922.68ZM-534.70,920.46C-534.73,919.97 -534.82,919.49 -534.95,919.02C-535.10,918.56 -535.32,918.14 -535.61,917.78C-535.91,917.41 -536.29,917.12 -536.74,916.88C-537.20,916.65 -537.76,916.53 -538.43,916.53C-539.08,916.53 -539.64,916.64 -540.11,916.86C-540.58,917.09 -540.97,917.38 -541.28,917.74C-541.59,918.11 -541.83,918.53 -542.00,919.01C-542.17,919.49 -542.29,919.97 -542.37,920.47L-534.70,920.47L-534.70,920.46L-534.70,920.46Z" fill="#ffffff"/>
        <path d="M-515.42,917.03C-515.44,917.79 -515.48,918.59 -515.51,919.43C-515.55,920.27 -515.62,921.11 -515.73,921.96C-515.83,922.80 -515.97,923.63 -516.14,924.43C-516.31,925.23 -516.52,925.99 -516.78,926.69C-517.09,927.53 -517.49,928.29 -517.97,929.01C-518.45,929.72 -519.06,930.36 -519.80,930.93C-520.54,931.50 -521.44,931.98 -522.49,932.36C-523.54,932.73 -524.77,932.99 -526.17,933.12L-526.95,928.29C-525.62,928.03 -524.60,927.66 -523.87,927.18C-523.15,926.70 -522.60,926.08 -522.23,925.33C-521.95,924.68 -521.72,923.93 -521.55,923.07C-521.38,922.21 -521.26,921.31 -521.18,920.36C-521.10,919.41 -521.05,918.45 -521.04,917.46C-521.03,916.47 -521.02,915.53 -521.02,914.61L-521.02,912.27L-505.63,912.27L-505.63,932.77L-511.44,932.77L-511.44,917.03L-515.42,917.03Z" fill="#ffffff"/>
        <path d="M-480.46,923.42C-481.63,923.42 -482.48,923.76 -482.99,924.44C-483.52,925.11 -483.77,926.00 -483.77,927.09L-483.77,932.97C-483.77,934.09 -483.92,935.09 -484.20,935.96C-484.49,936.83 -484.96,937.56 -485.62,938.16C-486.28,938.75 -487.17,939.21 -488.27,939.52C-489.38,939.83 -490.75,939.99 -492.38,939.99L-493.16,939.99L-493.16,935.35L-492.19,935.35C-491.02,935.35 -490.24,935.09 -489.83,934.57C-489.43,934.05 -489.23,933.24 -489.23,932.15L-489.23,926.97C-489.23,925.62 -489.05,924.47 -488.68,923.54C-488.32,922.61 -487.59,921.80 -486.50,921.12C-487.59,920.45 -488.32,919.64 -488.68,918.71C-489.05,917.77 -489.23,916.63 -489.23,915.27L-489.23,910.09C-489.23,909.00 -489.43,908.19 -489.83,907.67C-490.24,907.15 -491.02,906.89 -492.19,906.89L-493.16,906.89L-493.16,902.27L-492.38,902.27C-490.75,902.27 -489.38,902.42 -488.27,902.73C-487.17,903.05 -486.29,903.50 -485.62,904.10C-484.96,904.70 -484.49,905.43 -484.20,906.30C-483.91,907.17 -483.77,908.16 -483.77,909.28L-483.77,915.17C-483.77,916.26 -483.52,917.14 -482.99,917.82C-482.47,918.50 -481.63,918.83 -480.46,918.83L-480.46,923.42Z" fill="#ffffff"/>
    </g>
    <path d="M214.34,903.03L218.09,903.03L218.09,931.46L214.34,931.46L214.34,909.55L200.33,931.46L196.56,931.46L196.56,903.03L200.33,903.03L200.33,924.94ZM232.83,928.91C234.12,928.91 235.25,928.52 236.21,927.73C237.17,926.95 237.71,925.98 237.81,924.80L241.23,924.80C241.17,926.02 240.75,927.17 239.98,928.26C239.21,929.36 238.19,930.23 236.90,930.88C235.62,931.53 234.26,931.86 232.83,931.86C229.95,931.86 227.67,930.90 225.97,928.97C224.27,927.05 223.42,924.43 223.42,921.09L223.42,920.49C223.42,918.43 223.80,916.60 224.55,915C225.31,913.40 226.39,912.15 227.80,911.27C229.22,910.38 230.89,909.94 232.81,909.94C235.18,909.94 237.15,910.65 238.72,912.07C240.29,913.49 241.13,915.33 241.23,917.60L237.81,917.60C237.71,916.23 237.19,915.11 236.26,914.23C235.33,913.35 234.18,912.91 232.81,912.91C230.98,912.91 229.55,913.57 228.54,914.89C227.54,916.21 227.03,918.13 227.03,920.63L227.03,921.31C227.03,923.74 227.53,925.62 228.54,926.93C229.54,928.25 230.97,928.91 232.83,928.91ZM261.00,913.26L253.91,913.26L253.91,931.46L250.29,931.46L250.29,913.26L243.34,913.26L243.34,910.33L261.00,910.33ZM263.55,920.70C263.55,918.63 263.96,916.77 264.78,915.12C265.59,913.46 266.72,912.19 268.17,911.29C269.63,910.39 271.28,909.94 273.14,909.94C276.02,909.94 278.35,910.94 280.13,912.93C281.90,914.92 282.79,917.57 282.79,920.88L282.79,921.13C282.79,923.19 282.40,925.04 281.61,926.67C280.82,928.30 279.70,929.58 278.23,930.49C276.77,931.40 275.08,931.86 273.18,931.86C270.32,931.86 268.00,930.86 266.22,928.87C264.44,926.88 263.55,924.24 263.55,920.96ZM267.19,921.13C267.19,923.48 267.73,925.36 268.82,926.78C269.91,928.20 271.36,928.91 273.18,928.91C275.02,928.91 276.48,928.19 277.56,926.75C278.64,925.31 279.18,923.29 279.18,920.70C279.18,918.39 278.63,916.51 277.53,915.07C276.43,913.63 274.97,912.91 273.14,912.91C271.36,912.91 269.92,913.62 268.83,915.04C267.73,916.46 267.19,918.49 267.19,921.13ZM303.28,931.46L299.65,931.46L299.65,923.81C298.06,924.23 296.43,924.43 294.77,924.43C292.12,924.43 290.11,923.76 288.72,922.40C287.33,921.05 286.63,919.12 286.60,916.62L286.60,910.31L290.21,910.31L290.21,916.74C290.28,919.89 291.80,921.46 294.77,921.46C296.43,921.46 298.06,921.26 299.65,920.84L299.65,910.33L303.28,910.33ZM326.33,931.46L322.71,931.46L322.71,922.44L313.01,922.44L313.01,931.46L309.38,931.46L309.38,910.33L313.01,910.33L313.01,919.49L322.71,919.49L322.71,910.33L326.33,910.33ZM345.80,910.33L349.41,910.33L349.41,931.46L345.80,931.46L345.80,916.05L336.05,931.46L332.44,931.46L332.44,910.33L336.05,910.33L336.05,925.76ZM361.80,922.46L359.16,922.46L359.16,931.46L355.53,931.46L355.53,910.33L359.16,910.33L359.16,919.28L361.52,919.28L368.63,910.33L373.01,910.33L364.65,920.49L373.71,931.46L369.12,931.46ZM376.70,929.57C376.70,928.95 376.88,928.42 377.26,928.01C377.63,927.59 378.18,927.38 378.93,927.38C379.67,927.38 380.23,927.59 380.62,928.01C381.00,928.42 381.19,928.95 381.19,929.57C381.19,930.17 381.00,930.67 380.62,931.07C380.23,931.48 379.67,931.68 378.93,931.68C378.18,931.68 377.63,931.48 377.26,931.07C376.88,930.67 376.70,930.17 376.70,929.57ZM376.72,912.32C376.72,911.70 376.90,911.18 377.28,910.76C377.65,910.35 378.20,910.14 378.95,910.14C379.69,910.14 380.25,910.35 380.63,910.76C381.02,911.18 381.21,911.70 381.21,912.32C381.21,912.92 381.02,913.42 380.63,913.83C380.25,914.23 379.69,914.43 378.95,914.43C378.20,914.43 377.65,914.23 377.28,913.83C376.90,913.42 376.72,912.92 376.72,912.32ZM396.23,928.52L397.48,926.97C398.89,925.15 399.69,922.42 399.88,918.77L400.21,910.33L413.83,910.33L413.83,928.52L416.54,928.52L416.54,937.68L412.93,937.68L412.93,931.46L398.18,931.46L398.18,937.68L394.57,937.68L394.59,928.52ZM400.51,928.52L410.21,928.52L410.21,913.67L403.71,913.67L403.50,918.71C403.27,922.92 402.28,926.18 400.51,928.52ZM419.59,920.70C419.59,918.63 420.00,916.77 420.81,915.12C421.62,913.46 422.76,912.19 424.21,911.29C425.66,910.39 427.32,909.94 429.18,909.94C432.06,909.94 434.38,910.94 436.16,912.93C437.94,914.92 438.83,917.57 438.83,920.88L438.83,921.13C438.83,923.19 438.43,925.04 437.65,926.67C436.86,928.30 435.73,929.58 434.27,930.49C432.80,931.40 431.12,931.86 429.22,931.86C426.35,931.86 424.03,930.86 422.26,928.87C420.48,926.88 419.59,924.24 419.59,920.96ZM423.22,921.13C423.22,923.48 423.77,925.36 424.85,926.78C425.94,928.20 427.40,928.91 429.22,928.91C431.05,928.91 432.51,928.19 433.59,926.75C434.67,925.31 435.21,923.29 435.21,920.70C435.21,918.39 434.66,916.51 433.56,915.07C432.46,913.63 431.00,912.91 429.18,912.91C427.40,912.91 425.96,913.62 424.86,915.04C423.77,916.46 423.22,918.49 423.22,921.13ZM449.94,922.46L447.30,922.46L447.30,931.46L443.67,931.46L443.67,910.33L447.30,910.33L447.30,919.28L449.67,919.28L456.78,910.33L461.15,910.33L452.79,920.49L461.86,931.46L457.27,931.46ZM482.29,910.33L482.29,931.46L478.65,931.46L478.65,913.32L471.46,913.32L471.04,921.23C470.80,924.86 470.19,927.46 469.21,929.02C468.23,930.59 466.67,931.40 464.53,931.46L463.09,931.46L463.09,928.28L464.12,928.20C465.29,928.07 466.13,927.40 466.64,926.17C467.15,924.95 467.47,922.68 467.62,919.38L468.01,910.33ZM501.13,931.46C500.92,931.05 500.76,930.31 500.63,929.24C498.95,930.98 496.94,931.86 494.61,931.86C492.53,931.86 490.82,931.27 489.48,930.09C488.15,928.91 487.48,927.42 487.48,925.61C487.48,923.40 488.32,921.70 489.99,920.48C491.66,919.26 494.02,918.65 497.05,918.65L500.57,918.65L500.57,916.99C500.57,915.73 500.19,914.72 499.43,913.97C498.68,913.23 497.57,912.85 496.09,912.85C494.80,912.85 493.72,913.18 492.85,913.83C491.98,914.48 491.54,915.27 491.54,916.19L487.91,916.19C487.91,915.14 488.28,914.12 489.03,913.13C489.78,912.15 490.80,911.37 492.08,910.80C493.36,910.23 494.77,909.94 496.31,909.94C498.74,909.94 500.65,910.55 502.03,911.77C503.41,912.99 504.13,914.66 504.18,916.80L504.18,926.52C504.18,928.46 504.43,930.01 504.92,931.15L504.92,931.46ZM495.14,928.71C496.27,928.71 497.34,928.42 498.36,927.83C499.38,927.25 500.11,926.48 500.57,925.55L500.57,921.21L497.73,921.21C493.31,921.21 491.09,922.51 491.09,925.10C491.09,926.23 491.47,927.12 492.23,927.75C492.98,928.39 493.95,928.71 495.14,928.71ZM509.67,928.52L510.92,926.97C512.32,925.15 513.13,922.42 513.32,918.77L513.65,910.33L527.27,910.33L527.27,928.52L529.98,928.52L529.98,937.68L526.37,937.68L526.37,931.46L511.62,931.46L511.62,937.68L508.01,937.68L508.03,928.52ZM513.95,928.52L523.65,928.52L523.65,913.67L517.15,913.67L516.93,918.71C516.71,922.92 515.72,926.18 513.95,928.52ZM562.38,903.03L566.13,903.03L566.13,931.46L562.38,931.46L562.38,909.55L548.38,931.46L544.61,931.46L544.61,903.03L548.38,903.03L548.38,924.94ZM589.67,931.46L586.05,931.46L586.05,922.44L576.35,922.44L576.35,931.46L572.71,931.46L572.71,910.33L576.35,910.33L576.35,919.49L586.05,919.49L586.05,910.33L589.67,910.33ZM603.95,928.91C605.23,928.91 606.36,928.52 607.32,927.73C608.29,926.95 608.82,925.98 608.93,924.80L612.34,924.80C612.28,926.02 611.86,927.17 611.09,928.26C610.33,929.36 609.30,930.23 608.02,930.88C606.74,931.53 605.38,931.86 603.95,931.86C601.07,931.86 598.78,930.90 597.08,928.97C595.38,927.05 594.53,924.43 594.53,921.09L594.53,920.49C594.53,918.43 594.91,916.60 595.66,915C596.42,913.40 597.50,912.15 598.92,911.27C600.33,910.38 602.00,909.94 603.93,909.94C606.30,909.94 608.26,910.65 609.83,912.07C611.40,913.49 612.24,915.33 612.34,917.60L608.93,917.60C608.82,916.23 608.30,915.11 607.37,914.23C606.44,913.35 605.29,912.91 603.93,912.91C602.09,912.91 600.67,913.57 599.66,914.89C598.65,916.21 598.14,918.13 598.14,920.63L598.14,921.31C598.14,923.74 598.65,925.62 599.65,926.93C600.65,928.25 602.08,928.91 603.95,928.91ZM632.11,913.26L625.02,913.26L625.02,931.46L621.41,931.46L621.41,913.26L614.45,913.26L614.45,910.33L632.11,910.33ZM649.30,910.33L652.91,910.33L652.91,931.46L649.30,931.46L649.30,916.05L639.55,931.46L635.94,931.46L635.94,910.33L639.55,910.33L639.55,925.76ZM674.41,913.26L667.32,913.26L667.32,931.46L663.71,931.46L663.71,913.26L656.76,913.26L656.76,910.33L674.41,910.33ZM684.84,926.17L689.77,910.33L693.63,910.33L685.14,934.73C683.82,938.24 681.73,940 678.87,940L678.18,939.94L676.84,939.69L676.84,936.76L677.81,936.84C679.04,936.84 679.99,936.59 680.67,936.09C681.36,935.60 681.92,934.69 682.36,933.38L683.16,931.23L675.63,910.33L679.57,910.33ZM712.56,913.26L705.47,913.26L705.47,931.46L701.86,931.46L701.86,913.26L694.90,913.26L694.90,910.33L712.56,910.33ZM729.12,931.46C728.91,931.05 728.74,930.31 728.61,929.24C726.93,930.98 724.93,931.86 722.60,931.86C720.51,931.86 718.81,931.27 717.47,930.09C716.14,928.91 715.47,927.42 715.47,925.61C715.47,923.40 716.31,921.70 717.98,920.48C719.65,919.26 722.01,918.65 725.04,918.65L728.55,918.65L728.55,916.99C728.55,915.73 728.18,914.72 727.42,913.97C726.67,913.23 725.55,912.85 724.08,912.85C722.79,912.85 721.71,913.18 720.84,913.83C719.97,914.48 719.53,915.27 719.53,916.19L715.90,916.19C715.90,915.14 716.27,914.12 717.02,913.13C717.77,912.15 718.79,911.37 720.07,910.80C721.35,910.23 722.76,909.94 724.30,909.94C726.73,909.94 728.64,910.55 730.02,911.77C731.40,912.99 732.12,914.66 732.17,916.80L732.17,926.52C732.17,928.46 732.42,930.01 732.91,931.15L732.91,931.46ZM723.13,928.71C724.26,928.71 725.33,928.42 726.35,927.83C727.36,927.25 728.10,926.48 728.55,925.55L728.55,921.21L725.72,921.21C721.30,921.21 719.08,922.51 719.08,925.10C719.08,926.23 719.46,927.12 720.21,927.75C720.97,928.39 721.94,928.71 723.13,928.71ZM765.94,906.11L752.23,906.11L752.23,931.46L748.46,931.46L748.46,903.03L765.94,903.03ZM783.03,931.46C782.82,931.05 782.65,930.31 782.52,929.24C780.84,930.98 778.83,931.86 776.50,931.86C774.42,931.86 772.71,931.27 771.38,930.09C770.04,928.91 769.38,927.42 769.38,925.61C769.38,923.40 770.21,921.70 771.88,920.48C773.56,919.26 775.91,918.65 778.95,918.65L782.46,918.65L782.46,916.99C782.46,915.73 782.08,914.72 781.33,913.97C780.57,913.23 779.46,912.85 777.99,912.85C776.70,912.85 775.62,913.18 774.75,913.83C773.87,914.48 773.44,915.27 773.44,916.19L769.80,916.19C769.80,915.14 770.18,914.12 770.93,913.13C771.68,912.15 772.69,911.37 773.97,910.80C775.26,910.23 776.67,909.94 778.20,909.94C780.64,909.94 782.55,910.55 783.93,911.77C785.31,912.99 786.02,914.66 786.07,916.80L786.07,926.52C786.07,928.46 786.32,930.01 786.82,931.15L786.82,931.46ZM777.03,928.71C778.16,928.71 779.24,928.42 780.25,927.83C781.27,927.25 782.01,926.48 782.46,925.55L782.46,921.21L779.63,921.21C775.20,921.21 772.99,922.51 772.99,925.10C772.99,926.23 773.37,927.12 774.12,927.75C774.88,928.39 775.85,928.71 777.03,928.71ZM805.41,910.33L809.02,910.33L809.02,931.46L805.41,931.46L805.41,916.05L795.66,931.46L792.05,931.46L792.05,910.33L795.66,910.33L795.66,925.76ZM806.39,902.64C806.39,904.21 805.85,905.48 804.78,906.44C803.70,907.39 802.29,907.87 800.55,907.87C798.80,907.87 797.39,907.39 796.31,906.43C795.23,905.46 794.69,904.20 794.69,902.64L797.64,902.64C797.64,903.55 797.88,904.26 798.38,904.78C798.87,905.29 799.60,905.55 800.55,905.55C801.46,905.55 802.17,905.29 802.69,904.79C803.20,904.28 803.46,903.56 803.46,902.64ZM814.65,928.52L815.90,926.97C817.30,925.15 818.11,922.42 818.30,918.77L818.63,910.33L832.25,910.33L832.25,928.52L834.96,928.52L834.96,937.68L831.35,937.68L831.35,931.46L816.60,931.46L816.60,937.68L812.99,937.68L813.01,928.52ZM818.93,928.52L828.63,928.52L828.63,913.67L822.13,913.67L821.91,918.71C821.69,922.92 820.70,926.18 818.93,928.52ZM852.01,931.46C851.80,931.05 851.63,930.31 851.50,929.24C849.82,930.98 847.82,931.86 845.49,931.86C843.40,931.86 841.70,931.27 840.36,930.09C839.03,928.91 838.36,927.42 838.36,925.61C838.36,923.40 839.20,921.70 840.87,920.48C842.54,919.26 844.90,918.65 847.93,918.65L851.45,918.65L851.45,916.99C851.45,915.73 851.07,914.72 850.31,913.97C849.56,913.23 848.44,912.85 846.97,912.85C845.68,912.85 844.60,913.18 843.73,913.83C842.86,914.48 842.42,915.27 842.42,916.19L838.79,916.19C838.79,915.14 839.16,914.12 839.91,913.13C840.66,912.15 841.68,911.37 842.96,910.80C844.24,910.23 845.65,909.94 847.19,909.94C849.62,909.94 851.53,910.55 852.91,911.77C854.29,912.99 855.01,914.66 855.06,916.80L855.06,926.52C855.06,928.46 855.31,930.01 855.80,931.15L855.80,931.46ZM846.02,928.71C847.15,928.71 848.22,928.42 849.24,927.83C850.25,927.25 850.99,926.48 851.45,925.55L851.45,921.21L848.61,921.21C844.19,921.21 841.97,922.51 841.97,925.10C841.97,926.23 842.35,927.12 843.11,927.75C843.86,928.39 844.83,928.71 846.02,928.71ZM878.57,921.13C878.57,924.35 877.84,926.94 876.37,928.91C874.90,930.87 872.90,931.86 870.39,931.86C867.83,931.86 865.81,931.04 864.34,929.41L864.34,939.59L860.72,939.59L860.72,910.33L864.02,910.33L864.20,912.68C865.67,910.85 867.71,909.94 870.33,909.94C872.87,909.94 874.88,910.90 876.36,912.81C877.84,914.73 878.57,917.39 878.57,920.80ZM874.96,920.72C874.96,918.34 874.45,916.46 873.44,915.08C872.42,913.70 871.03,913.01 869.26,913.01C867.07,913.01 865.43,913.98 864.34,915.92L864.34,926.02C865.42,927.94 867.07,928.91 869.30,928.91C871.03,928.91 872.41,928.22 873.43,926.85C874.45,925.47 874.96,923.43 874.96,920.72ZM896.21,931.46C896.00,931.05 895.83,930.31 895.70,929.24C894.02,930.98 892.02,931.86 889.69,931.86C887.60,931.86 885.90,931.27 884.56,930.09C883.23,928.91 882.56,927.42 882.56,925.61C882.56,923.40 883.40,921.70 885.07,920.48C886.74,919.26 889.10,918.65 892.13,918.65L895.64,918.65L895.64,916.99C895.64,915.73 895.27,914.72 894.51,913.97C893.76,913.23 892.64,912.85 891.17,912.85C889.88,912.85 888.80,913.18 887.93,913.83C887.06,914.48 886.62,915.27 886.62,916.19L882.99,916.19C882.99,915.14 883.36,914.12 884.11,913.13C884.86,912.15 885.88,911.37 887.16,910.80C888.44,910.23 889.85,909.94 891.39,909.94C893.82,909.94 895.73,910.55 897.11,911.77C898.49,912.99 899.21,914.66 899.26,916.80L899.26,926.52C899.26,928.46 899.51,930.01 900,931.15L900,931.46ZM890.21,928.71C891.35,928.71 892.42,928.42 893.44,927.83C894.45,927.25 895.19,926.48 895.64,925.55L895.64,921.21L892.81,921.21C888.39,921.21 886.17,922.51 886.17,925.10C886.17,926.23 886.55,927.12 887.30,927.75C888.06,928.39 889.03,928.71 890.21,928.71Z" fill="#ffffff"/>
</svg>