<?xml version="1.0" encoding="utf-8"?>
<!-- Generator: Adobe Illustrator 23.0.6, SVG Export Plug-In . SVG Version: 6.00 Build 0)  -->
<svg version="1.1" id="Слой_1" xmlns="http://www.w3.org/2000/svg" xmlns:xlink="http://www.w3.org/1999/xlink" x="0px" y="0px"
	 viewBox="0 0 1000 1000" style="enable-background:new 0 0 1000 1000;" xml:space="preserve">
<style type="text/css">
	.st0{fill:#FFFFFF;}
	.st1{fill:#60AAE2;}
	.st2{fill:#979899;}
	.st3{opacity:0;}
	.st4{fill:none;stroke:#00ACE5;stroke-width:2;stroke-linecap:square;stroke-miterlimit:10;}
</style>
<rect class="st0" width="1000" height="1000"/>
<path class="st1" d="M50,958.4c0.6,0,1-0.2,1.3-0.5s0.4-0.8,0.4-1.3v-2.9c0-0.6,0.1-1.1,0.2-1.5c0.1-0.4,0.4-0.8,0.7-1.1
	s0.8-0.5,1.3-0.7s1.2-0.2,2-0.2h0.4v2.3h-0.5c-0.6,0-1,0.1-1.2,0.4c-0.2,0.3-0.3,0.7-0.3,1.2v2.6c0,0.7-0.1,1.2-0.3,1.7
	s-0.5,0.9-1.1,1.2c0.5,0.3,0.9,0.7,1.1,1.2c0.2,0.5,0.3,1,0.3,1.7v2.6c0,0.6,0.1,1,0.3,1.2c0.2,0.3,0.6,0.4,1.2,0.4h0.5v2.3H56
	c-0.8,0-1.5-0.1-2-0.2c-0.6-0.2-1-0.4-1.3-0.7s-0.6-0.7-0.7-1.1c-0.1-0.4-0.2-0.9-0.2-1.5v-2.9c0-0.5-0.1-1-0.4-1.3
	c-0.3-0.3-0.7-0.5-1.3-0.5L50,958.4L50,958.4z M70.9,951.9v5.2h-5.1v-5.2h-3v13.5h3v-5.7h5.1l-0.1,9.3h3l0.1-17.1H70.9L70.9,951.9z
	 M86.1,958c-0.2-0.7-0.6-1.2-1-1.7s-1-0.8-1.6-1.1s-1.3-0.4-2-0.4s-1.4,0.1-2,0.4s-1.1,0.6-1.6,1.1c-0.4,0.5-0.8,1-1,1.7
	s-0.4,1.4-0.4,2.2s0.1,1.5,0.4,2.2c0.2,0.7,0.6,1.2,1,1.7s1,0.8,1.6,1.1s1.3,0.4,2,0.4c0.8,0,1.5-0.1,2.1-0.4
	c0.6-0.3,1.1-0.6,1.6-1.1c0.4-0.5,0.8-1,1-1.7s0.4-1.4,0.4-2.2C86.5,959.4,86.4,958.7,86.1,958z M83,962.4c-0.4,0.5-0.9,0.8-1.5,0.8
	c-0.7,0-1.2-0.3-1.5-0.8c-0.4-0.5-0.5-1.2-0.5-2.1c0-0.9,0.2-1.6,0.5-2.1c0.4-0.5,0.9-0.8,1.5-0.8c0.7,0,1.2,0.3,1.5,0.8
	c0.4,0.5,0.5,1.2,0.5,2.1C83.5,961.1,83.3,961.8,83,962.4z M95.5,965.3c0.6-0.2,1.2-0.4,1.5-0.7c0.4-0.3,0.7-0.6,0.8-1
	c0.2-0.4,0.2-0.8,0.2-1.2s-0.1-0.7-0.1-1c-0.1-0.3-0.2-0.5-0.4-0.7c-0.2-0.2-0.3-0.4-0.5-0.5s-0.4-0.2-0.5-0.3
	c0.3-0.2,0.6-0.4,0.8-0.8c0.2-0.4,0.3-0.8,0.3-1.2c0-0.3-0.1-0.7-0.2-1s-0.4-0.7-0.8-0.9c-0.4-0.3-0.8-0.5-1.4-0.7s-1.3-0.2-2.1-0.2
	c-0.4,0-0.8,0-1.2,0c-0.4,0-0.8,0-1.2,0.1c-0.4,0-0.8,0.1-1.1,0.1c-0.4,0-0.7,0.1-0.9,0.1v9.8c0.2,0.1,0.6,0.1,0.9,0.2
	c0.4,0.1,0.7,0.1,1.1,0.2c0.4,0,0.8,0.1,1.2,0.1c0.4,0,0.8,0,1.2,0C94.1,965.6,94.9,965.5,95.5,965.3z M93.2,959.2h-1.6v-1.9
	c0.2,0,0.4,0,0.7-0.1c0.3,0,0.5,0,0.7,0c0.5,0,1,0.1,1.3,0.2c0.3,0.1,0.5,0.4,0.5,0.8c0,0.4-0.1,0.7-0.4,0.8
	C94.1,959.1,93.7,959.2,93.2,959.2L93.2,959.2z M91.6,963.2V961h1.7c0.6,0,1.1,0.1,1.5,0.2c0.3,0.2,0.5,0.5,0.5,0.9
	s-0.2,0.7-0.5,0.9c-0.4,0.2-0.9,0.2-1.5,0.2c-0.3,0-0.6,0-0.9,0C92,963.3,91.8,963.3,91.6,963.2L91.6,963.2z M103,954.9
	c-0.3,0-0.6,0.1-1,0.1c-0.3,0-0.6,0.1-0.8,0.1c-0.2,0.1-0.5,0.1-0.6,0.2l0.4,2.3c0.4-0.1,0.8-0.2,1.2-0.3c0.5-0.1,1-0.1,1.5-0.1
	c0.7,0,1.3,0.1,1.6,0.4c0.3,0.3,0.5,0.7,0.5,1.2v0.3c-0.2,0-0.4-0.1-0.7-0.1c-0.3,0-0.6,0-1,0c-0.6,0-1.1,0-1.6,0.2
	c-0.5,0.1-1,0.3-1.4,0.5s-0.7,0.6-1,1c-0.2,0.4-0.4,0.9-0.4,1.5s0.1,1.2,0.3,1.6c0.2,0.4,0.5,0.8,0.9,1c0.4,0.3,0.8,0.5,1.4,0.6
	c0.5,0.1,1.1,0.2,1.8,0.2c1.1,0,2-0.1,2.7-0.2c0.7-0.1,1.3-0.2,1.7-0.3v-6c0-0.6-0.1-1.2-0.2-1.7s-0.4-1-0.7-1.3
	c-0.3-0.4-0.8-0.7-1.4-0.8c-0.6-0.2-1.3-0.3-2.1-0.3C103.7,954.9,103.4,954.9,103,954.9z M103,963.1c-0.3-0.2-0.4-0.5-0.4-0.9
	c0-0.2,0-0.4,0.1-0.6c0.1-0.2,0.2-0.3,0.4-0.4s0.4-0.2,0.6-0.2s0.5,0,0.8,0c0.2,0,0.4,0,0.7,0c0.2,0,0.4,0,0.5,0.1v2.2
	c-0.1,0-0.4,0-0.6,0.1c-0.3,0-0.5,0-0.8,0C103.7,963.4,103.3,963.3,103,963.1z M116.9,961.8v3.6h2.9v-10c-0.2-0.1-0.6-0.1-0.9-0.2
	c-0.4-0.1-0.7-0.1-1.1-0.2c-0.4,0-0.8-0.1-1.2-0.1c-0.4,0-0.8,0-1.1,0c-1.5,0-2.6,0.3-3.4,0.9c-0.8,0.6-1.2,1.5-1.2,2.6
	c0,0.7,0.2,1.2,0.5,1.7c0.3,0.4,0.8,0.8,1.3,1.1c-0.4,0.5-0.7,1.1-1.1,1.8s-0.8,1.5-1.2,2.3h3c0.3-0.6,0.6-1.2,0.9-1.8
	s0.7-1.2,1.1-1.8h1.5V961.8z M116.9,957.2v2.5h-1.4c-0.2,0-0.4,0-0.6-0.1c-0.2,0-0.4-0.1-0.6-0.2c-0.2-0.1-0.3-0.2-0.4-0.4
	s-0.1-0.4-0.1-0.6c0-0.4,0.1-0.7,0.4-0.9c0.2-0.2,0.7-0.4,1.5-0.4c0.2,0,0.4,0,0.7,0C116.5,957.2,116.8,957.2,116.9,957.2
	L116.9,957.2z M129.5,955.6c-0.4-0.3-0.8-0.5-1.3-0.5s-0.9,0.2-1.3,0.5s-0.5,0.8-0.5,1.3c0,0.6,0.2,1,0.5,1.3
	c0.4,0.3,0.8,0.5,1.3,0.5s0.9-0.2,1.3-0.5c0.4-0.3,0.5-0.8,0.5-1.3C130,956.3,129.9,955.9,129.5,955.6z M129.5,962.5
	c-0.4-0.3-0.8-0.5-1.3-0.5s-0.9,0.1-1.3,0.5c-0.4,0.3-0.5,0.8-0.5,1.3c0,0.6,0.2,1,0.5,1.3c0.4,0.3,0.8,0.5,1.3,0.5s0.9-0.2,1.3-0.5
	c0.4-0.3,0.5-0.8,0.5-1.3S129.9,962.8,129.5,962.5z M135.7,969h2.9v-3.6h9.4v3.6h2.9v-6.2h-2.3v-10.9h-8.9v0.5c0,1,0,1.9,0,2.8
	c0,0.9-0.1,1.8-0.2,2.6c-0.1,0.8-0.4,1.7-0.6,2.5c-0.3,0.8-0.7,1.7-1.1,2.5h-2L135.7,969L135.7,969z M145.6,954.5v8.4h-4.9
	c0.3-0.6,0.6-1.2,0.8-1.9s0.4-1.4,0.5-2.1c0.1-0.7,0.2-1.5,0.3-2.2s0.1-1.5,0.1-2.2H145.6z M155.4,954.9c-0.3,0-0.6,0.1-1,0.1
	c-0.3,0-0.6,0.1-0.8,0.1c-0.2,0.1-0.5,0.1-0.6,0.2l0.4,2.3c0.4-0.1,0.8-0.2,1.2-0.3c0.5-0.1,1-0.1,1.5-0.1c0.7,0,1.3,0.1,1.6,0.4
	c0.3,0.3,0.5,0.7,0.5,1.2v0.3c-0.2,0-0.4-0.1-0.7-0.1s-0.6,0-1,0c-0.5,0-1.1,0-1.6,0.2c-0.5,0.1-1,0.3-1.4,0.5s-0.7,0.6-1,1
	c-0.2,0.4-0.4,0.9-0.4,1.5s0.1,1.2,0.3,1.6c0.2,0.4,0.5,0.8,0.9,1c0.4,0.3,0.8,0.5,1.4,0.6c0.5,0.1,1.1,0.2,1.8,0.2
	c1,0,1.9-0.1,2.7-0.2c0.7-0.1,1.3-0.2,1.7-0.3v-6c0-0.6-0.1-1.2-0.2-1.7c-0.1-0.5-0.4-1-0.7-1.3c-0.3-0.4-0.8-0.7-1.4-0.8
	c-0.6-0.2-1.3-0.3-2.1-0.3C156,954.9,155.7,954.9,155.4,954.9z M155.3,963.1c-0.3-0.2-0.5-0.5-0.5-0.9c0-0.2,0-0.4,0.1-0.6
	c0.1-0.2,0.2-0.3,0.4-0.4c0.2-0.1,0.4-0.2,0.6-0.2c0.2,0,0.5,0,0.8,0c0.2,0,0.4,0,0.6,0c0.2,0,0.4,0,0.5,0.1v2.2
	c-0.1,0-0.4,0-0.6,0.1c-0.3,0-0.5,0-0.8,0C156.1,963.4,155.6,963.3,155.3,963.1z M171.9,957.5v-2.4h-9.5v2.4h3.3v7.9h2.9v-7.9H171.9
	L171.9,957.5z M176.4,954.9c-0.3,0-0.6,0.1-1,0.1c-0.3,0-0.6,0.1-0.8,0.1c-0.2,0.1-0.5,0.1-0.6,0.2l0.4,2.3c0.4-0.1,0.8-0.2,1.2-0.3
	c0.5-0.1,1-0.1,1.5-0.1c0.7,0,1.3,0.1,1.6,0.4c0.3,0.3,0.5,0.7,0.5,1.2v0.3c-0.2,0-0.4-0.1-0.7-0.1s-0.6,0-1,0c-0.5,0-1.1,0-1.6,0.2
	c-0.5,0.1-1,0.3-1.4,0.5s-0.7,0.6-1,1c-0.2,0.4-0.4,0.9-0.4,1.5s0.1,1.2,0.3,1.6c0.2,0.4,0.5,0.8,0.9,1c0.4,0.3,0.8,0.5,1.4,0.6
	c0.5,0.1,1.1,0.2,1.8,0.2c1,0,1.9-0.1,2.7-0.2c0.7-0.1,1.3-0.2,1.7-0.3v-6c0-0.6-0.1-1.2-0.2-1.7c-0.1-0.5-0.4-1-0.7-1.3
	c-0.3-0.4-0.8-0.7-1.4-0.8c-0.6-0.2-1.3-0.3-2.1-0.3C177,954.9,176.7,954.9,176.4,954.9z M176.3,963.1c-0.3-0.2-0.5-0.5-0.5-0.9
	c0-0.2,0-0.4,0.1-0.6c0.1-0.2,0.2-0.3,0.4-0.4c0.2-0.1,0.4-0.2,0.6-0.2c0.2,0,0.5,0,0.8,0c0.2,0,0.4,0,0.6,0c0.2,0,0.4,0,0.5,0.1
	v2.2c-0.1,0-0.4,0-0.6,0.1c-0.3,0-0.5,0-0.8,0C177.1,963.4,176.6,963.3,176.3,963.1z M183.9,960.9h5.6v-2.6h-5.6V960.9z M200.8,958
	c-0.2-0.7-0.6-1.2-1-1.7s-1-0.8-1.6-1.1s-1.3-0.4-2-0.4s-1.4,0.1-2,0.4c-0.6,0.3-1.2,0.6-1.6,1.1c-0.5,0.5-0.8,1-1.1,1.7
	c-0.2,0.7-0.4,1.4-0.4,2.2s0.1,1.5,0.4,2.2c0.2,0.7,0.6,1.2,1,1.7s1,0.8,1.6,1.1s1.3,0.4,2.1,0.4s1.5-0.1,2.1-0.4
	c0.6-0.3,1.1-0.6,1.6-1.1c0.4-0.5,0.8-1,1-1.7s0.4-1.4,0.4-2.2C201.2,959.4,201.1,958.7,200.8,958z M197.7,962.4
	c-0.4,0.5-0.9,0.8-1.5,0.8c-0.7,0-1.2-0.3-1.5-0.8c-0.4-0.5-0.6-1.2-0.6-2.1c0-0.9,0.2-1.6,0.6-2.1c0.4-0.5,0.9-0.8,1.5-0.8
	c0.7,0,1.2,0.3,1.5,0.8c0.4,0.5,0.5,1.2,0.5,2.1C198.2,961.1,198.1,961.8,197.7,962.4z M211.9,955.1h-9.5v2.4h3.3v7.9h2.9v-7.9h3.3
	V955.1z M212.1,968.3h2.5v-2.9h7.5v2.9h2.5V963h-1.7v-7.9h-8c0,0.6,0,1.2,0,1.9s-0.1,1.5-0.1,2.2c-0.1,0.7-0.2,1.4-0.4,2.1
	c-0.2,0.7-0.5,1.2-0.8,1.6h-1.3v5.4H212.1z M219.9,963h-3.5c0.2-0.4,0.4-0.8,0.6-1.2c0.1-0.5,0.2-0.9,0.3-1.4s0.1-0.9,0.2-1.4
	c0-0.5,0.1-1,0.1-1.4h2.4v5.4H219.9z M226.1,962.5c0.2,0.6,0.5,1.2,1,1.7c0.4,0.5,1,0.8,1.7,1.1s1.5,0.4,2.4,0.4
	c0.4,0,0.7,0,1.1-0.1c0.4,0,0.7-0.1,1-0.1c0.3-0.1,0.6-0.1,0.9-0.2c0.3-0.1,0.5-0.2,0.6-0.2l-0.4-2.4c-0.3,0.1-0.8,0.3-1.3,0.4
	c-0.5,0.1-1,0.2-1.6,0.2c-0.8,0-1.5-0.2-2-0.5s-0.8-0.8-0.8-1.4h6.6c0-0.1,0-0.3,0-0.5s0-0.4,0-0.5c0-1.7-0.4-3-1.3-3.9
	c-0.9-0.9-2-1.3-3.5-1.3c-0.6,0-1.2,0.1-1.8,0.3s-1.1,0.6-1.6,1c-0.5,0.5-0.8,1-1.1,1.7s-0.4,1.5-0.4,2.4
	C225.8,961.1,225.9,961.8,226.1,962.5z M232.6,959.2h-3.8c0-0.2,0.1-0.5,0.2-0.7c0.1-0.2,0.2-0.5,0.4-0.6c0.2-0.2,0.4-0.3,0.6-0.4
	c0.2-0.1,0.5-0.2,0.8-0.2s0.6,0,0.9,0.2c0.2,0.1,0.4,0.3,0.6,0.5c0.1,0.2,0.3,0.4,0.3,0.6C232.6,958.8,232.6,959,232.6,959.2
	L232.6,959.2z M244.3,957.5v7.9h2.9v-10.2h-7.7v1.2c0,0.5,0,0.9,0,1.4s0,1-0.1,1.5c0,0.5-0.1,0.9-0.2,1.4c-0.1,0.4-0.2,0.8-0.3,1.1
	c-0.2,0.4-0.5,0.7-0.8,0.9c-0.4,0.2-0.9,0.4-1.5,0.6l0.4,2.4c0.7-0.1,1.3-0.2,1.9-0.4c0.5-0.2,1-0.4,1.3-0.7c0.4-0.3,0.7-0.6,0.9-1
	c0.2-0.3,0.4-0.7,0.6-1.2c0.1-0.3,0.2-0.7,0.3-1.1c0.1-0.4,0.1-0.8,0.2-1.2c0.1-0.4,0.1-0.8,0.1-1.3c0-0.4,0-0.8,0.1-1.2h1.9V957.5z
	 M259.8,958.4c-0.6,0-1-0.2-1.3-0.5s-0.4-0.8-0.4-1.3v-2.9c0-0.6-0.1-1.1-0.2-1.5s-0.4-0.8-0.7-1.1s-0.8-0.5-1.3-0.7
	c-0.6-0.2-1.2-0.2-2.1-0.2h-0.4v2.3h0.5c0.6,0,1,0.1,1.2,0.4s0.3,0.7,0.3,1.2v2.6c0,0.7,0.1,1.2,0.3,1.7s0.6,0.9,1.1,1.2
	c-0.5,0.3-0.9,0.7-1.1,1.2c-0.2,0.5-0.3,1-0.3,1.7v2.6c0,0.5-0.1,0.9-0.3,1.2s-0.6,0.4-1.2,0.4h-0.5v2.3h0.4c0.8,0,1.5-0.1,2.1-0.2
	c0.6-0.1,1-0.4,1.3-0.7c0.3-0.3,0.6-0.7,0.7-1.1c0.1-0.4,0.2-0.9,0.2-1.5v-2.9c0-0.5,0.1-1,0.4-1.3s0.7-0.5,1.3-0.5V958.4z"/>
<path d="M84,77.6c-0.1,2.7-0.8,5-2.2,7.1c-1.3,2-3.2,3.6-5.6,4.8c-2.4,1.1-5.1,1.7-8.2,1.7c-5,0-9-1.6-11.9-4.9s-4.4-7.9-4.4-13.9
	v-1.9c0-3.8,0.7-7.1,2-9.9c1.3-2.8,3.2-5,5.7-6.5s5.3-2.3,8.5-2.3c4.7,0,8.4,1.2,11.2,3.7c2.8,2.5,4.4,5.8,4.8,10.1h-9.2
	c-0.1-2.3-0.7-4-1.8-5c-1.1-1-2.8-1.5-5.1-1.5c-2.3,0-4,0.9-5.1,2.6c-1.1,1.7-1.6,4.5-1.7,8.3v2.7c0,4.1,0.5,7,1.5,8.8
	s2.8,2.6,5.3,2.6c2.1,0,3.8-0.5,4.9-1.5s1.7-2.6,1.8-4.8H84V77.6z M114.4,76.6c0,4.4-1,8-3,10.6s-4.7,4-8.1,4c-2.6,0-4.8-1-6.5-2.9
	v13.3H88V62.1h8.3l0.3,2.6c1.7-2.1,3.9-3.2,6.7-3.2c3.5,0,6.2,1.3,8.2,3.9s2.9,6.2,2.9,10.7V76.6z M105.5,76c0-5.1-1.5-7.6-4.4-7.6
	c-2.1,0-3.5,0.8-4.2,2.3v11.2c0.8,1.6,2.2,2.4,4.3,2.4c2.8,0,4.3-2.4,4.4-7.3v-1H105.5z M132.1,91.2c-4.4,0-7.9-1.3-10.6-3.9
	s-4.1-6-4.1-10.2v-0.7c0-2.9,0.5-5.5,1.6-7.7s2.7-4,4.7-5.2c2.1-1.2,4.5-1.8,7.4-1.8c4,0,7.2,1.2,9.5,3.7c2.3,2.5,3.5,6,3.5,10.4
	v3.5h-17.7c0.3,1.6,1,2.9,2.1,3.8s2.5,1.4,4.2,1.4c2.8,0,5-1,6.6-3l4.1,4.8c-1.1,1.5-2.7,2.7-4.7,3.7S134.5,91.2,132.1,91.2z
	 M131.1,68.4c-2.6,0-4.1,1.7-4.6,5.2h9v-0.7c0-1.4-0.3-2.5-1.1-3.3C133.6,68.8,132.5,68.4,131.1,68.4z M148.5,83.8
	c1.4-1.4,2.5-2.8,3.1-4.2c0.6-1.4,1-3,1.1-4.9l0.1-2l0.2-10.6h22.2v21.7h4.3v15.5h-8.9v-8.6h-15.5v8.6H146V83.8H148.5z M158.7,83.8
	h7.6V69h-4.6v2.3C161.6,76.5,160.6,80.6,158.7,83.8z M207.4,90.6h-8.9V80.1h-7.8v10.5h-8.9V62.1h8.9v11.1h7.8V62.1h8.9V90.6z
	 M237.1,62.1v28.5h-8.9v-9.4h-3.4l-5,9.4h-8.9l5.9-10.9c-1.7-0.8-3-1.9-3.9-3.2c-0.9-1.3-1.4-2.8-1.4-4.5c0-2.9,1.2-5.3,3.5-7.1
	c2.3-1.8,5.3-2.7,9.1-2.8C224.1,62.1,237.1,62.1,237.1,62.1z M220.3,72.3c0,0.9,0.4,1.6,1.1,2.2c0.7,0.6,1.6,1,2.8,1h4.1v-6.6h-4
	c-1.2,0-2.1,0.3-2.8,1C220.7,70.5,220.3,71.3,220.3,72.3z M267.6,62.1v28.5h-8.9v-9.4h-3.4l-5,9.4h-8.9l5.9-10.9
	c-1.7-0.8-3-1.9-3.9-3.2c-0.9-1.3-1.4-2.8-1.4-4.5c0-2.9,1.2-5.3,3.5-7.1c2.3-1.8,5.3-2.7,9.1-2.8C254.6,62.1,267.6,62.1,267.6,62.1
	z M250.8,72.3c0,0.9,0.4,1.6,1.1,2.2c0.7,0.6,1.6,1,2.8,1h4.1v-6.6h-4c-1.2,0-2.1,0.3-2.8,1C251.2,70.5,250.8,71.3,250.8,72.3z
	 M298.7,84.3c1.2,0,2.2-0.3,2.9-1c0.7-0.7,1-1.6,1-2.8h8.3c0,3.1-1.1,5.7-3.4,7.7s-5.1,3-8.7,3c-4.1,0-7.4-1.3-9.8-3.9
	s-3.6-6.2-3.6-10.8v-0.4c0-2.9,0.5-5.4,1.6-7.6s2.6-3.9,4.6-5.1s4.4-1.8,7.1-1.8c3.7,0,6.7,1,8.8,3.1c2.2,2.1,3.3,4.8,3.3,8.4h-8.3
	c0-1.5-0.4-2.6-1.1-3.4s-1.7-1.2-2.9-1.2c-2.3,0-3.6,1.5-4,4.4c-0.1,0.9-0.2,2.2-0.2,3.8c0,2.9,0.3,4.9,1,6S297.2,84.3,298.7,84.3z
	 M326.9,80.7h-2.7v10h-8.9V62.1h8.9v10.3h2.6l4.5-10.3h11.4l-8.3,13.2l0,0l9.1,15.3h-12L326.9,80.7z M343,76.1
	c0-2.8,0.6-5.4,1.7-7.6s2.7-3.9,4.8-5.1c2.1-1.2,4.5-1.8,7.3-1.8c4.3,0,7.6,1.3,10.1,4c2.5,2.6,3.7,6.2,3.7,10.8v0.3
	c0,4.4-1.2,8-3.7,10.6s-5.8,3.9-10,3.9c-4.1,0-7.3-1.2-9.8-3.7c-2.5-2.4-3.8-5.7-4-9.9L343,76.1z M351.9,76.7c0,2.6,0.4,4.6,1.2,5.8
	c0.8,1.2,2,1.8,3.7,1.8c3.2,0,4.8-2.4,4.9-7.3v-0.9c0-5.1-1.6-7.7-4.9-7.7c-3,0-4.6,2.2-4.8,6.6L351.9,76.7z M401,76.6
	c0,4.4-1,8-3,10.6s-4.7,4-8.1,4c-2.6,0-4.8-1-6.5-2.9v13.3h-8.9V62.1h8.3l0.3,2.6c1.7-2.1,3.9-3.2,6.7-3.2c3.5,0,6.2,1.3,8.2,3.9
	s2.9,6.2,2.9,10.7v0.5H401z M392.1,76c0-5.1-1.5-7.6-4.4-7.6c-2.1,0-3.5,0.8-4.2,2.3v11.2c0.8,1.6,2.2,2.4,4.3,2.4
	c2.8,0,4.3-2.4,4.4-7.3L392.1,76L392.1,76z M403.8,76.1c0-2.8,0.6-5.4,1.7-7.6s2.7-3.9,4.8-5.1c2.1-1.2,4.5-1.8,7.3-1.8
	c4.3,0,7.6,1.3,10.1,4c2.5,2.6,3.7,6.2,3.7,10.8v0.3c0,4.4-1.2,8-3.7,10.6s-5.8,3.9-10,3.9c-4.1,0-7.3-1.2-9.8-3.7
	c-2.5-2.4-3.8-5.7-4-9.9L403.8,76.1z M412.7,76.7c0,2.6,0.4,4.6,1.2,5.8c0.8,1.2,2,1.8,3.7,1.8c3.2,0,4.8-2.4,4.9-7.3v-0.9
	c0-5.1-1.6-7.7-4.9-7.7c-3,0-4.6,2.2-4.8,6.6L412.7,76.7z M447.3,84.3c1.2,0,2.2-0.3,2.9-1c0.7-0.7,1-1.6,1-2.8h8.3
	c0,3.1-1.1,5.7-3.4,7.7s-5.1,3-8.7,3c-4.1,0-7.4-1.3-9.8-3.9s-3.6-6.2-3.6-10.8v-0.4c0-2.9,0.5-5.4,1.6-7.6s2.6-3.9,4.6-5.1
	s4.4-1.8,7.1-1.8c3.7,0,6.7,1,8.8,3.1c2.2,2.1,3.3,4.8,3.3,8.4h-8.3c0-1.5-0.4-2.6-1.1-3.4s-1.7-1.2-2.9-1.2c-2.3,0-3.6,1.5-4,4.4
	c-0.1,0.9-0.2,2.2-0.2,3.8c0,2.9,0.3,4.9,1,6S445.8,84.3,447.3,84.3z M488.2,68.9h-9v21.7h-8.9V68.9h-8.9v-6.8h26.8V68.9z M501.1,70
	h4.6c2.6,0,5,0.4,7,1.3s3.5,2.1,4.6,3.7s1.6,3.4,1.6,5.5c0,3.1-1.2,5.6-3.6,7.4s-5.6,2.8-9.7,2.8h-13.3V62.1h8.9L501.1,70L501.1,70z
	 M501.1,76.8v7h4.5c1.4,0,2.4-0.3,3.2-0.9c0.8-0.6,1.1-1.5,1.1-2.5c0-1.1-0.3-1.9-1-2.6s-1.8-1-3.3-1H501.1z M536.1,90.6V62.1h12.2
	c3.9,0,6.9,0.7,9,2.1c2.1,1.4,3.1,3.3,3.1,5.9c0,1.3-0.5,2.5-1.4,3.5s-2.2,1.9-4,2.4c2.3,0.4,4,1.1,5.2,2.3c1.2,1.1,1.8,2.5,1.8,4.2
	c0,2.7-1,4.7-3,6.1s-5,2.1-8.8,2.1L536.1,90.6L536.1,90.6z M545,73.5h3.7c1.1,0,1.8-0.2,2.3-0.5c0.4-0.4,0.6-0.9,0.6-1.6
	c0-0.9-0.3-1.6-0.8-1.9s-1.3-0.6-2.5-0.6H545V73.5z M545,79v4.8h5.2c1.1,0,1.9-0.2,2.4-0.6s0.7-1,0.7-1.8c0-1.6-0.9-2.4-2.7-2.5
	L545,79L545,79z M581.9,90.6c-0.3-0.6-0.6-1.4-0.8-2.6c-1.6,2.1-3.9,3.1-6.9,3.1c-2.7,0-5-0.8-6.9-2.4s-2.8-3.7-2.8-6.1
	c0-3.1,1.1-5.4,3.4-7s5.6-2.4,10-2.4h2.7v-1.5c0-2.6-1.1-3.9-3.4-3.9c-2.1,0-3.2,1-3.2,3.1h-8.9c0-2.8,1.2-5,3.5-6.7
	c2.3-1.7,5.3-2.6,9-2.6s6.5,0.9,8.6,2.7c2.1,1.8,3.2,4.2,3.2,7.3v12.6c0,2.6,0.4,4.6,1.2,6v0.4H581.9z M576.3,84.8
	c1.1,0,2-0.2,2.8-0.7s1.3-1,1.6-1.6V78h-2.6c-3.1,0-4.6,1.4-4.6,4.2c0,0.8,0.3,1.5,0.8,2S575.5,84.8,576.3,84.8z M606.7,80.7H604v10
	h-8.9V62.1h8.9v10.3h2.6l4.5-10.3h11.4l-8.3,13.2l0,0l9.1,15.3h-12L606.7,80.7z M625.3,62.1h8.9v21.7h7.9V62.1h8.9v21.7h4.7
	l-0.5,15.3h-8.4v-8.5h-21.5L625.3,62.1L625.3,62.1z M675.3,62.1h8.9v28.5h-8.9V74l-7.8,16.6h-8.9V62.1h8.9v16.6L675.3,62.1z
	 M714.4,90.6h-8.9V80.1h-7.8v10.5h-8.9V62.1h8.9v11.1h7.8V62.1h8.9V90.6z M735.3,90.6c-0.3-0.6-0.6-1.4-0.8-2.6
	c-1.6,2.1-3.9,3.1-6.9,3.1c-2.7,0-5-0.8-6.9-2.4s-2.8-3.7-2.8-6.1c0-3.1,1.1-5.4,3.4-7s5.6-2.4,10-2.4h2.7v-1.5
	c0-2.6-1.1-3.9-3.4-3.9c-2.1,0-3.2,1-3.2,3.1h-8.9c0-2.8,1.2-5,3.5-6.7c2.3-1.7,5.3-2.6,9-2.6s6.5,0.9,8.6,2.7
	c2.1,1.8,3.2,4.2,3.2,7.3v12.6c0,2.6,0.4,4.6,1.2,6v0.4H735.3z M729.7,84.8c1.1,0,2-0.2,2.8-0.7s1.3-1,1.6-1.6V78h-2.6
	c-3.1,0-4.6,1.4-4.6,4.2c0,0.8,0.3,1.5,0.8,2S728.9,84.8,729.7,84.8z M747.7,62.1h8.9v21.7h7.9V62.1h8.9v21.7h4.7l-0.5,15.3h-8.4
	v-8.5h-21.5L747.7,62.1L747.7,62.1z M797.7,62.1h8.9v28.5h-8.9V74l-7.8,16.6H781V62.1h8.9v16.6L797.7,62.1z M828,62.1h8.9v28.5H828
	V74l-7.8,16.6h-8.9V62.1h8.9v16.6L828,62.1z M53.1,144.6v-28.5h12.2c3.9,0,6.9,0.7,9,2.1s3.1,3.3,3.1,5.9c0,1.3-0.5,2.5-1.4,3.5
	s-2.3,1.9-4,2.4c2.3,0.4,4,1.1,5.2,2.3c1.2,1.1,1.8,2.5,1.8,4.2c0,2.7-1,4.7-3,6.1c-2,1.4-5,2.1-8.8,2.1H53.1V144.6z M62,127.5h3.7
	c1.1,0,1.8-0.2,2.3-0.5c0.4-0.4,0.6-0.9,0.6-1.6c0-0.9-0.3-1.6-0.8-1.9s-1.3-0.6-2.5-0.6H62V127.5z M62,133v4.8h5.2
	c1.1,0,1.9-0.2,2.4-0.6c0.5-0.4,0.7-1,0.7-1.8c0-1.6-0.9-2.4-2.7-2.5H62V133z M105.9,131.6v13h-9.3v-38.4H112c2.9,0,5.5,0.5,7.8,1.6
	s4,2.6,5.2,4.6s1.9,4.3,1.9,6.8c0,3.7-1.3,6.7-4,9c-2.7,2.2-6.4,3.4-11,3.4H105.9z M105.9,124.5h6.1c1.8,0,3.2-0.4,4.1-1.3
	s1.4-2.2,1.4-3.8c0-1.8-0.5-3.2-1.5-4.3c-1-1.1-2.3-1.6-4-1.6h-6.2L105.9,124.5L105.9,124.5z M129.9,130.1c0-2.8,0.6-5.4,1.7-7.6
	c1.1-2.2,2.7-3.9,4.8-5.1s4.5-1.8,7.3-1.8c4.3,0,7.6,1.3,10.1,4c2.5,2.6,3.7,6.2,3.7,10.8v0.3c0,4.4-1.2,8-3.7,10.6s-5.8,3.9-10,3.9
	c-4.1,0-7.3-1.2-9.8-3.7c-2.5-2.4-3.8-5.7-4-9.9L129.9,130.1z M138.8,130.7c0,2.6,0.4,4.6,1.2,5.8s2,1.8,3.7,1.8
	c3.2,0,4.8-2.4,4.9-7.3v-0.9c0-5.1-1.6-7.7-4.9-7.7c-3,0-4.6,2.2-4.8,6.6L138.8,130.7z M173.5,138.3c1.2,0,2.2-0.3,2.9-1
	s1-1.6,1-2.8h8.3c0,3.1-1.1,5.7-3.4,7.7s-5.1,3-8.7,3c-4.1,0-7.4-1.3-9.8-3.9c-2.4-2.6-3.6-6.2-3.6-10.8v-0.4c0-2.9,0.5-5.4,1.6-7.6
	s2.6-3.9,4.6-5.1s4.4-1.8,7.1-1.8c3.7,0,6.7,1,8.8,3.1c2.2,2.1,3.3,4.8,3.3,8.4h-8.3c0-1.5-0.4-2.6-1.1-3.4
	c-0.7-0.8-1.7-1.2-2.9-1.2c-2.3,0-3.6,1.5-4,4.4c-0.1,0.9-0.2,2.2-0.2,3.8c0,2.9,0.3,4.9,1,6S172,138.3,173.5,138.3z M201.5,138.3
	c1.2,0,2.2-0.3,2.9-1s1-1.6,1-2.8h8.3c0,3.1-1.1,5.7-3.4,7.7s-5.1,3-8.7,3c-4.1,0-7.4-1.3-9.8-3.9c-2.4-2.6-3.6-6.2-3.6-10.8v-0.4
	c0-2.9,0.5-5.4,1.6-7.6s2.6-3.9,4.6-5.1s4.4-1.8,7.1-1.8c3.7,0,6.7,1,8.8,3.1c2.2,2.1,3.3,4.8,3.3,8.4h-8.3c0-1.5-0.4-2.6-1.1-3.4
	c-0.7-0.8-1.7-1.2-2.9-1.2c-2.3,0-3.6,1.5-4,4.4c-0.1,0.9-0.2,2.2-0.2,3.8c0,2.9,0.3,4.9,1,6S200,138.3,201.5,138.3z M234.1,116.1
	h8.9v28.5h-8.9V128l-7.8,16.6h-8.9v-28.5h8.9v16.6L234.1,116.1z M264.4,116.1h8.9v28.5h-8.9V128l-7.8,16.6h-8.9v-28.5h8.9v16.6
	L264.4,116.1z M281.2,155l-4.5-2.1l0.9-1.8c1.2-2.3,1.9-4.5,1.9-6.5V138h7.1v5.7c0,2-0.5,4.1-1.6,6.2
	C284,151.9,282.7,153.6,281.2,155z M331.4,144.6h-8.9V136c-1,0.2-1.9,0.3-2.6,0.3c-4.7,0-8.2-0.9-10.6-2.7s-3.6-4.5-3.6-8.2v-9.3
	h8.9v9.4c0,1.5,0.4,2.6,1.1,3.2s2.1,0.8,4.2,0.8c0.9,0,1.7-0.1,2.6-0.2v-13.1h8.9V144.6z M350,145.2c-4.4,0-7.9-1.3-10.6-3.9
	c-2.7-2.6-4.1-6-4.1-10.2v-0.7c0-2.9,0.5-5.5,1.6-7.7s2.7-4,4.7-5.2c2.1-1.2,4.5-1.8,7.4-1.8c4,0,7.2,1.2,9.5,3.7s3.5,6,3.5,10.4
	v3.5h-17.7c0.3,1.6,1,2.9,2.1,3.8c1.1,0.9,2.5,1.4,4.2,1.4c2.8,0,5-1,6.6-3l4.1,4.8c-1.1,1.5-2.7,2.7-4.7,3.7S352.3,145.2,350,145.2
	z M349,122.4c-2.6,0-4.1,1.7-4.6,5.2h9v-0.7c0-1.4-0.3-2.5-1.1-3.3C351.4,122.8,350.4,122.4,349,122.4z M391,116.1v28.5h-8.9V123
	h-5.3l-0.5,8.7c-0.3,4.3-1.3,7.6-2.9,9.7c-1.6,2.1-4,3.2-7.2,3.2h-2.8l-0.1-6.8l0.9-0.1c1.2-0.1,2.1-0.9,2.6-2.4
	c0.6-1.4,0.9-3.6,1.1-6.5l0.6-12.8H391V116.1z M394.8,130.1c0-2.8,0.6-5.4,1.7-7.6s2.7-3.9,4.8-5.1c2.1-1.2,4.5-1.8,7.3-1.8
	c4.3,0,7.6,1.3,10.1,4c2.5,2.6,3.7,6.2,3.7,10.8v0.3c0,4.4-1.2,8-3.7,10.6s-5.8,3.9-10,3.9c-4.1,0-7.3-1.2-9.8-3.7
	c-2.5-2.4-3.8-5.7-4-9.9L394.8,130.1z M403.6,130.7c0,2.6,0.4,4.6,1.2,5.8c0.8,1.2,2,1.8,3.7,1.8c3.2,0,4.8-2.4,4.9-7.3v-0.9
	c0-5.1-1.6-7.7-4.9-7.7c-3,0-4.6,2.2-4.8,6.6L403.6,130.7z M426.8,144.6v-28.5H439c3.9,0,6.9,0.7,9,2.1s3.1,3.3,3.1,5.9
	c0,1.3-0.5,2.5-1.4,3.5s-2.3,1.9-4,2.4c2.3,0.4,4,1.1,5.2,2.3c1.2,1.1,1.8,2.5,1.8,4.2c0,2.7-1,4.7-3,6.1c-2,1.4-5,2.1-8.8,2.1
	h-14.1V144.6z M435.7,127.5h3.7c1.1,0,1.8-0.2,2.3-0.5c0.4-0.4,0.6-0.9,0.6-1.6c0-0.9-0.3-1.6-0.8-1.9s-1.3-0.6-2.5-0.6h-3.3
	L435.7,127.5L435.7,127.5z M435.7,133v4.8h5.2c1.1,0,1.9-0.2,2.4-0.6c0.5-0.4,0.7-1,0.7-1.8c0-1.6-0.9-2.4-2.7-2.5h-5.6V133z
	 M470.3,145.2c-4.4,0-7.9-1.3-10.6-3.9c-2.7-2.6-4.1-6-4.1-10.2v-0.7c0-2.9,0.5-5.5,1.6-7.7s2.7-4,4.7-5.2c2.1-1.2,4.5-1.8,7.4-1.8
	c4,0,7.2,1.2,9.5,3.7s3.5,6,3.5,10.4v3.5h-17.7c0.3,1.6,1,2.9,2.1,3.8c1.1,0.9,2.5,1.4,4.2,1.4c2.8,0,5-1,6.6-3l4.1,4.8
	c-1.1,1.5-2.7,2.7-4.7,3.7S472.7,145.2,470.3,145.2z M469.3,122.4c-2.6,0-4.1,1.7-4.6,5.2h9v-0.7c0-1.4-0.3-2.5-1.1-3.3
	C471.8,122.8,470.7,122.4,469.3,122.4z M498.1,134.7h-2.7v10h-8.9v-28.5h8.9v10.3h2.6l4.5-10.3h11.4l-8.3,13.2l0,0l9.1,15.3h-12
	L498.1,134.7z M530.9,144.6v-28.5h12.2c3.9,0,6.9,0.7,9,2.1s3.1,3.3,3.1,5.9c0,1.3-0.5,2.5-1.4,3.5s-2.2,1.9-4,2.4
	c2.3,0.4,4,1.1,5.2,2.3c1.2,1.1,1.8,2.5,1.8,4.2c0,2.7-1,4.7-3,6.1c-2,1.4-5,2.1-8.8,2.1h-14.1V144.6z M539.8,127.5h3.7
	c1.1,0,1.8-0.2,2.3-0.5c0.4-0.4,0.6-0.9,0.6-1.6c0-0.9-0.3-1.6-0.8-1.9s-1.3-0.6-2.5-0.6h-3.3V127.5z M539.8,133v4.8h5.2
	c1.1,0,1.9-0.2,2.4-0.6c0.5-0.4,0.7-1,0.7-1.8c0-1.6-0.9-2.4-2.7-2.5h-5.6V133z M574.8,137.8c1.4-1.4,2.5-2.8,3.1-4.2s1-3,1.1-4.9
	l0.1-2l0.2-10.6h22.2v21.7h4.3v15.5h-8.9v-8.6h-15.5v8.6h-9.1v-15.5L574.8,137.8L574.8,137.8z M585.1,137.8h7.6V123h-4.6v2.3
	C588,130.5,587,134.6,585.1,137.8z M622.6,145.2c-4.4,0-7.9-1.3-10.6-3.9s-4.1-6-4.1-10.2v-0.7c0-2.9,0.5-5.5,1.6-7.7s2.7-4,4.7-5.2
	c2.1-1.2,4.5-1.8,7.4-1.8c4,0,7.2,1.2,9.5,3.7s3.5,6,3.5,10.4v3.5H617c0.3,1.6,1,2.9,2.1,3.8c1.1,0.9,2.5,1.4,4.2,1.4
	c2.8,0,5-1,6.6-3l4.1,4.8c-1.1,1.5-2.7,2.7-4.7,3.7C627.1,144.7,625,145.2,622.6,145.2z M621.6,122.4c-2.6,0-4.1,1.7-4.6,5.2h9v-0.7
	c0-1.4-0.3-2.5-1.1-3.3C624.1,122.8,623,122.4,621.6,122.4z M663.6,144.6h-8.9v-10.5h-7.8v10.5H638v-28.5h8.9v11.1h7.8v-11.1h8.9
	L663.6,144.6L663.6,144.6z M678,124h4.6c2.6,0,5,0.4,7,1.3s3.5,2.1,4.6,3.7c1.1,1.6,1.6,3.4,1.6,5.5c0,3.1-1.2,5.6-3.6,7.4
	s-5.6,2.8-9.7,2.8h-13.3v-28.5h8.9L678,124L678,124z M678,130.8v7h4.5c1.4,0,2.4-0.3,3.2-0.9c0.8-0.6,1.1-1.5,1.1-2.5
	c0-1.1-0.3-1.9-1-2.6c-0.7-0.7-1.8-1-3.3-1H678z"/>
<g>
	<path d="M698.2,950.6h1.9v14.2h-1.9v-11l-7,11h-1.9v-14.2h1.9v11L698.2,950.6z"/>
	<path d="M707.4,963.5c0.6,0,1.2-0.2,1.7-0.6s0.7-0.9,0.8-1.5h1.7c0,0.6-0.2,1.2-0.6,1.7s-0.9,1-1.5,1.3s-1.3,0.5-2,0.5
		c-1.4,0-2.6-0.5-3.4-1.4s-1.3-2.3-1.3-3.9v-0.3c0-1,0.2-1.9,0.6-2.7s0.9-1.4,1.6-1.9s1.5-0.7,2.5-0.7c1.2,0,2.2,0.4,3,1.1
		s1.2,1.6,1.3,2.8h-1.7c-0.1-0.7-0.3-1.2-0.8-1.7s-1-0.7-1.7-0.7c-0.9,0-1.6,0.3-2.1,1s-0.8,1.6-0.8,2.9v0.3c0,1.2,0.3,2.2,0.8,2.8
		S706.5,963.5,707.4,963.5z"/>
	<path d="M721.5,955.7H718v9.1h-1.8v-9.1h-3.5v-1.5h8.8V955.7z"/>
	<path d="M722.4,959.4c0-1,0.2-2,0.6-2.8s1-1.5,1.7-1.9s1.6-0.7,2.5-0.7c1.4,0,2.6,0.5,3.5,1.5s1.3,2.3,1.3,4v0.1c0,1-0.2,2-0.6,2.8
		s-1,1.5-1.7,1.9s-1.6,0.7-2.5,0.7c-1.4,0-2.6-0.5-3.5-1.5S722.4,961.2,722.4,959.4L722.4,959.4z M724.2,959.7
		c0,1.2,0.3,2.1,0.8,2.8s1.3,1.1,2.2,1.1s1.6-0.4,2.2-1.1s0.8-1.7,0.8-3c0-1.2-0.3-2.1-0.8-2.8s-1.3-1.1-2.2-1.1s-1.6,0.4-2.2,1.1
		S724.2,958.3,724.2,959.7z"/>
	<path d="M742.2,964.8h-1.8V961c-0.8,0.2-1.6,0.3-2.4,0.3c-1.3,0-2.3-0.3-3-1s-1-1.6-1.1-2.9v-3.2h1.8v3.2c0,1.6,0.8,2.4,2.3,2.4
		c0.8,0,1.6-0.1,2.4-0.3v-5.3h1.8V964.8z"/>
	<path d="M753.8,964.8H752v-4.5h-4.9v4.5h-1.8v-10.6h1.8v4.6h4.9v-4.6h1.8V964.8z"/>
	<path d="M763.5,954.3h1.8v10.6h-1.8v-7.7l-4.9,7.7h-1.8v-10.6h1.8v7.7L763.5,954.3z"/>
	<path d="M771.5,960.3h-1.3v4.5h-1.8v-10.6h1.8v4.5h1.2l3.6-4.5h2.2l-4.2,5.1l4.5,5.5h-2.3L771.5,960.3z"/>
	<path d="M779,963.9c0-0.3,0.1-0.6,0.3-0.8s0.5-0.3,0.8-0.3s0.7,0.1,0.8,0.3s0.3,0.5,0.3,0.8s-0.1,0.5-0.3,0.8s-0.5,0.3-0.8,0.3
		s-0.6-0.1-0.8-0.3S779,964.2,779,963.9z M779,955.3c0-0.3,0.1-0.6,0.3-0.8s0.5-0.3,0.8-0.3s0.7,0.1,0.8,0.3s0.3,0.5,0.3,0.8
		s-0.1,0.5-0.3,0.8s-0.5,0.3-0.8,0.3s-0.6-0.1-0.8-0.3S779,955.6,779,955.3z"/>
	<path d="M797.7,959.7c0,1.6-0.4,2.9-1.1,3.9s-1.7,1.5-3,1.5s-2.3-0.4-3-1.2v5.1h-1.8v-14.6h1.7l0.1,1.2c0.7-0.9,1.8-1.4,3.1-1.4
		s2.3,0.5,3,1.4S797.8,957.9,797.7,959.7L797.7,959.7L797.7,959.7z M795.9,959.5c0-1.2-0.3-2.1-0.8-2.8s-1.2-1-2.1-1
		c-1.1,0-1.9,0.5-2.5,1.5v5c0.5,1,1.4,1.4,2.5,1.4c0.9,0,1.6-0.3,2.1-1S795.9,960.8,795.9,959.5z"/>
	<path d="M806.6,964.8c-0.1-0.2-0.2-0.6-0.3-1.1c-0.8,0.9-1.8,1.3-3,1.3c-1,0-1.9-0.3-2.6-0.9s-1-1.3-1-2.2c0-1.1,0.4-2,1.3-2.6
		s2-0.9,3.5-0.9h1.8v-0.8c0-0.6-0.2-1.1-0.6-1.5s-0.9-0.6-1.7-0.6c-0.6,0-1.2,0.2-1.6,0.5s-0.7,0.7-0.7,1.2h-1.8
		c0-0.5,0.2-1,0.6-1.5s0.9-0.9,1.5-1.2s1.3-0.4,2.1-0.4c1.2,0,2.2,0.3,2.9,0.9s1,1.4,1.1,2.5v4.9c0,1,0.1,1.7,0.4,2.3v0.2h-1.9
		V964.8z M803.6,963.5c0.6,0,1.1-0.1,1.6-0.4s0.9-0.7,1.1-1.1v-2.2h-1.4c-2.2,0-3.3,0.6-3.3,1.9c0,0.6,0.2,1,0.6,1.3
		S803,963.5,803.6,963.5z"/>
	<path d="M815.1,963.5c0.6,0,1.2-0.2,1.7-0.6s0.7-0.9,0.8-1.5h1.7c0,0.6-0.2,1.2-0.6,1.7s-0.9,1-1.5,1.3s-1.3,0.5-2,0.5
		c-1.4,0-2.6-0.5-3.4-1.4s-1.3-2.3-1.3-3.9v-0.3c0-1,0.2-1.9,0.6-2.7s0.9-1.4,1.6-1.9s1.5-0.7,2.5-0.7c1.2,0,2.2,0.4,3,1.1
		s1.2,1.6,1.3,2.8h-1.7c-0.1-0.7-0.3-1.2-0.8-1.7s-1-0.7-1.7-0.7c-0.9,0-1.6,0.3-2.1,1s-0.8,1.6-0.8,2.9v0.3c0,1.2,0.3,2.2,0.8,2.8
		S814.2,963.5,815.1,963.5z"/>
	<path d="M829.4,964.8h-1.8V961c-0.8,0.2-1.6,0.3-2.4,0.3c-1.3,0-2.3-0.3-3-1s-1-1.6-1.1-2.9v-3.2h1.8v3.2c0,1.6,0.8,2.4,2.3,2.4
		c0.8,0,1.6-0.1,2.4-0.3v-5.3h1.8V964.8z"/>
	<path d="M836.6,965c-1.4,0-2.6-0.5-3.5-1.4s-1.3-2.2-1.3-3.8v-0.3c0-1,0.2-2,0.6-2.8s1-1.5,1.7-1.9s1.5-0.7,2.3-0.7
		c1.4,0,2.4,0.5,3.2,1.4s1.1,2.2,1.1,3.9v0.8h-7.2c0,1,0.3,1.9,0.9,2.5s1.3,1,2.2,1c0.6,0,1.2-0.1,1.6-0.4s0.8-0.6,1.2-1l1.1,0.9
		C839.7,964.3,838.4,965,836.6,965z M836.4,955.5c-0.7,0-1.3,0.3-1.8,0.8s-0.8,1.3-0.9,2.2h5.3v-0.1c-0.1-0.9-0.3-1.6-0.7-2.1
		S837.2,955.5,836.4,955.5z"/>
	<path d="M850.6,955.7H847v9.1h-1.8v-9.1h-3.5v-1.5h8.8L850.6,955.7L850.6,955.7z"/>
	<path d="M854.3,957.9h2.7c1.2,0,2.1,0.3,2.8,0.9s1,1.4,1,2.5s-0.4,1.9-1.1,2.5s-1.7,1-2.9,1h-4.5v-10.6h1.8v3.7H854.3z
		 M854.3,959.4v4h2.7c0.7,0,1.2-0.2,1.6-0.5s0.6-0.8,0.6-1.4c0-0.6-0.2-1.1-0.5-1.4s-0.9-0.6-1.5-0.6L854.3,959.4L854.3,959.4z
		 M864.7,964.8h-1.8v-10.6h1.8V964.8z"/>
	<path d="M874.2,959.5l2.5,3.9h-1.4l-2.9-3.8v-0.2l2.9-3.8h1.4L874.2,959.5z M877.4,959.5l2.5,3.9h-1.4l-2.9-3.8v-0.2l2.9-3.8h1.4
		L877.4,959.5z"/>
	<path d="M893.4,964.8h-1.9v-6.6h-7.2v6.6h-1.9v-14.2h1.9v6.1h7.2v-6.1h1.9V964.8z"/>
	<path d="M896,959.4c0-1,0.2-2,0.6-2.8s1-1.5,1.7-1.9s1.6-0.7,2.5-0.7c1.4,0,2.6,0.5,3.5,1.5s1.3,2.3,1.3,4v0.1c0,1-0.2,2-0.6,2.8
		s-1,1.5-1.7,1.9s-1.6,0.7-2.5,0.7c-1.4,0-2.6-0.5-3.5-1.5S896,961.2,896,959.4L896,959.4z M897.8,959.7c0,1.2,0.3,2.1,0.8,2.8
		s1.3,1.1,2.2,1.1s1.6-0.4,2.2-1.1s0.8-1.7,0.8-3c0-1.2-0.3-2.1-0.8-2.8s-1.3-1.1-2.2-1.1s-1.6,0.4-2.2,1.1S897.8,958.3,897.8,959.7
		z"/>
	<path d="M908,964.8v-10.6h4.1c1.4,0,2.5,0.2,3.2,0.7s1.1,1.2,1.1,2.2c0,0.5-0.1,0.9-0.4,1.3s-0.7,0.7-1.3,0.9
		c0.6,0.1,1.2,0.4,1.5,0.9s0.6,1,0.6,1.6c0,1-0.4,1.7-1.1,2.2s-1.7,0.8-3,0.8L908,964.8L908,964.8z M909.8,958.7h2.3
		c1.7,0,2.5-0.5,2.5-1.5s-0.8-1.5-2.4-1.5h-2.5v3H909.8z M909.8,960.2v3.2h3c0.8,0,1.3-0.1,1.7-0.4s0.6-0.7,0.6-1.2
		c0-1.1-0.8-1.6-2.3-1.6H909.8z"/>
	<path d="M918.8,959.4c0-1,0.2-2,0.6-2.8s1-1.5,1.7-1.9s1.6-0.7,2.5-0.7c1.4,0,2.6,0.5,3.5,1.5s1.3,2.3,1.3,4v0.1c0,1-0.2,2-0.6,2.8
		s-1,1.5-1.7,1.9s-1.6,0.7-2.5,0.7c-1.4,0-2.6-0.5-3.5-1.5S918.8,961.2,918.8,959.4L918.8,959.4z M920.6,959.7
		c0,1.2,0.3,2.1,0.8,2.8s1.3,1.1,2.2,1.1s1.6-0.4,2.2-1.1s0.8-1.7,0.8-3c0-1.2-0.3-2.1-0.8-2.8s-1.3-1.1-2.2-1.1s-1.6,0.4-2.2,1.1
		S920.6,958.3,920.6,959.7z"/>
	<path d="M937.5,954.3h1.8v10.6h-1.8v-7.7l-4.9,7.7h-1.8v-10.6h1.8v7.7L937.5,954.3z M938,950.4c0,0.8-0.3,1.4-0.8,1.9
		s-1.2,0.7-2.1,0.7s-1.6-0.2-2.1-0.7s-0.8-1.1-0.8-1.9h1.5c0,0.5,0.1,0.8,0.4,1.1s0.6,0.4,1.1,0.4s0.8-0.1,1.1-0.4s0.4-0.6,0.4-1.1
		H938z"/>
	<path d="M943.3,955.6l2.9,3.8v0.2l-2.9,3.8h-1.4l2.5-3.9l-2.5-3.9L943.3,955.6L943.3,955.6z M946.7,955.6l2.9,3.8v0.2l-2.9,3.8
		h-1.4l2.5-3.9l-2.5-3.9L946.7,955.6L946.7,955.6z"/>
</g>
<g>
	<path d="M116.9,858.7c0-1.5-0.2-2.7-0.6-3.4s-1.1-1-2-1s-1.6,0.3-2,1c-0.4,0.7-0.6,1.8-0.7,3.2v2.9c0,1.5,0.2,2.7,0.7,3.4
		c0.5,0.7,1.1,1.1,2,1.1c0.9,0,1.6-0.3,2-1c0.4-0.7,0.6-1.8,0.7-3.3V858.7z M118.7,861.1c0,2.1-0.4,3.7-1.1,4.7
		c-0.7,1-1.9,1.5-3.4,1.5c-1.5,0-2.6-0.5-3.4-1.5c-0.7-1-1.1-2.5-1.1-4.5V859c0-2.1,0.4-3.6,1.1-4.7c0.7-1,1.9-1.5,3.4-1.5
		c1.5,0,2.7,0.5,3.4,1.5c0.7,1,1.1,2.5,1.1,4.5V861.1z"/>
	<path d="M116.9,783.7c0-1.5-0.2-2.7-0.6-3.4s-1.1-1-2-1s-1.6,0.3-2,1c-0.4,0.7-0.6,1.8-0.7,3.2v2.9c0,1.5,0.2,2.7,0.7,3.4
		c0.5,0.7,1.1,1.1,2,1.1c0.9,0,1.6-0.3,2-1c0.4-0.7,0.6-1.8,0.7-3.3V783.7z M118.7,786.1c0,2.1-0.4,3.7-1.1,4.7
		c-0.7,1-1.9,1.5-3.4,1.5c-1.5,0-2.6-0.5-3.4-1.5c-0.7-1-1.1-2.5-1.1-4.5V784c0-2.1,0.4-3.6,1.1-4.7c0.7-1,1.9-1.5,3.4-1.5
		c1.5,0,2.7,0.5,3.4,1.5c0.7,1,1.1,2.5,1.1,4.5V786.1z M105.6,783.7c0-1.5-0.2-2.7-0.6-3.4s-1.1-1-2-1s-1.6,0.3-2,1
		c-0.4,0.7-0.6,1.8-0.7,3.2v2.9c0,1.5,0.2,2.7,0.7,3.4c0.4,0.7,1.1,1.1,2,1.1c0.9,0,1.5-0.3,2-1c0.4-0.7,0.7-1.8,0.7-3.3V783.7z
		 M107.4,786.1c0,2.1-0.4,3.7-1.1,4.7c-0.7,1-1.9,1.5-3.4,1.5c-1.5,0-2.6-0.5-3.4-1.5c-0.7-1-1.1-2.5-1.1-4.5V784
		c0-2.1,0.4-3.6,1.1-4.7c0.7-1,1.9-1.5,3.4-1.5c1.5,0,2.7,0.5,3.4,1.5c0.7,1,1.1,2.5,1.1,4.5V786.1z M94.4,783.7
		c0-1.5-0.2-2.7-0.6-3.4s-1.1-1-2-1s-1.6,0.3-2,1c-0.4,0.7-0.6,1.8-0.7,3.2v2.9c0,1.5,0.2,2.7,0.7,3.4c0.5,0.7,1.1,1.1,2,1.1
		c0.9,0,1.6-0.3,2-1c0.4-0.7,0.7-1.8,0.7-3.3V783.7z M96.2,786.1c0,2.1-0.4,3.7-1.1,4.7c-0.7,1-1.9,1.5-3.4,1.5
		c-1.5,0-2.6-0.5-3.4-1.5c-0.7-1-1.1-2.5-1.1-4.5V784c0-2.1,0.4-3.6,1.1-4.7c0.7-1,1.8-1.5,3.4-1.5c1.5,0,2.7,0.5,3.4,1.5
		c0.7,1,1.1,2.5,1.1,4.5V786.1z M76.9,785.1l0.7-7.1h7.3v1.7h-5.8l-0.4,3.9c0.7-0.4,1.5-0.6,2.4-0.6c1.3,0,2.3,0.4,3.1,1.3
		c0.8,0.9,1.1,2,1.1,3.5c0,1.5-0.4,2.6-1.2,3.5c-0.8,0.8-1.9,1.3-3.3,1.3c-1.3,0-2.3-0.4-3.1-1c-0.8-0.7-1.2-1.7-1.3-2.9h1.7
		c0.1,0.8,0.4,1.4,0.9,1.8c0.5,0.4,1.1,0.6,1.9,0.6c0.8,0,1.5-0.3,2-0.9c0.5-0.6,0.7-1.4,0.7-2.4c0-1-0.2-1.7-0.8-2.3
		c-0.5-0.6-1.2-0.9-2.1-0.9c-0.8,0-1.4,0.2-1.8,0.5l-0.5,0.4L76.9,785.1z M74.2,792.2h-9.3v-1.3l4.9-5.5c0.7-0.8,1.2-1.5,1.5-2
		c0.3-0.5,0.4-1.1,0.4-1.6c0-0.7-0.2-1.3-0.7-1.8c-0.4-0.5-1-0.7-1.8-0.7c-0.9,0-1.6,0.2-2.1,0.8c-0.5,0.5-0.7,1.2-0.7,2.1h-1.8
		c0-1.3,0.4-2.4,1.3-3.2c0.8-0.8,2-1.2,3.4-1.2c1.3,0,2.4,0.3,3.1,1c0.8,0.7,1.2,1.6,1.2,2.8c0,1.4-0.9,3.1-2.7,5l-3.8,4.1h7.1
		V792.2z"/>
	<path d="M116.9,708.7c0-1.5-0.2-2.7-0.6-3.4s-1.1-1-2-1s-1.6,0.3-2,1c-0.4,0.7-0.6,1.8-0.7,3.2v2.9c0,1.5,0.2,2.7,0.7,3.4
		c0.5,0.7,1.1,1.1,2,1.1c0.9,0,1.6-0.4,2-1c0.4-0.7,0.6-1.8,0.7-3.3V708.7z M118.7,711.1c0,2.1-0.4,3.7-1.1,4.7
		c-0.7,1-1.9,1.5-3.4,1.5c-1.5,0-2.6-0.5-3.4-1.5c-0.7-1-1.1-2.5-1.1-4.5V709c0-2.1,0.4-3.6,1.1-4.7c0.7-1,1.9-1.5,3.4-1.5
		c1.5,0,2.7,0.5,3.4,1.5c0.7,1,1.1,2.5,1.1,4.5V711.1z M105.6,708.7c0-1.5-0.2-2.7-0.6-3.4s-1.1-1-2-1s-1.6,0.3-2,1
		c-0.4,0.7-0.6,1.8-0.7,3.2v2.9c0,1.5,0.2,2.7,0.7,3.4c0.4,0.7,1.1,1.1,2,1.1c0.9,0,1.5-0.4,2-1c0.4-0.7,0.7-1.8,0.7-3.3V708.7z
		 M107.4,711.1c0,2.1-0.4,3.7-1.1,4.7c-0.7,1-1.9,1.5-3.4,1.5c-1.5,0-2.6-0.5-3.4-1.5c-0.7-1-1.1-2.5-1.1-4.5V709
		c0-2.1,0.4-3.6,1.1-4.7c0.7-1,1.9-1.5,3.4-1.5c1.5,0,2.7,0.5,3.4,1.5c0.7,1,1.1,2.5,1.1,4.5V711.1z M94.4,708.7
		c0-1.5-0.2-2.7-0.6-3.4s-1.1-1-2-1s-1.6,0.3-2,1c-0.4,0.7-0.6,1.8-0.7,3.2v2.9c0,1.5,0.2,2.7,0.7,3.4c0.5,0.7,1.1,1.1,2,1.1
		c0.9,0,1.6-0.4,2-1c0.4-0.7,0.7-1.8,0.7-3.3V708.7z M96.2,711.1c0,2.1-0.4,3.7-1.1,4.7c-0.7,1-1.9,1.5-3.4,1.5
		c-1.5,0-2.6-0.5-3.4-1.5c-0.7-1-1.1-2.5-1.1-4.5V709c0-2.1,0.4-3.6,1.1-4.7c0.7-1,1.8-1.5,3.4-1.5c1.5,0,2.7,0.5,3.4,1.5
		c0.7,1,1.1,2.5,1.1,4.5V711.1z M83.2,708.7c0-1.5-0.2-2.7-0.6-3.4s-1.1-1-2-1s-1.6,0.3-2,1c-0.4,0.7-0.7,1.8-0.7,3.2v2.9
		c0,1.5,0.2,2.7,0.7,3.4c0.4,0.7,1.1,1.1,2,1.1c0.9,0,1.5-0.4,2-1c0.4-0.7,0.7-1.8,0.7-3.3V708.7z M85,711.1c0,2.1-0.4,3.7-1.1,4.7
		c-0.7,1-1.9,1.5-3.4,1.5c-1.5,0-2.6-0.5-3.4-1.5c-0.7-1-1.1-2.5-1.1-4.5V709c0-2.1,0.4-3.6,1.1-4.7c0.7-1,1.9-1.5,3.4-1.5
		c1.5,0,2.7,0.5,3.4,1.5c0.7,1,1.1,2.5,1.1,4.5V711.1z M65.7,710.1l0.7-7.1h7.3v1.7h-5.8l-0.4,3.9c0.7-0.4,1.5-0.6,2.4-0.6
		c1.3,0,2.3,0.4,3.1,1.3c0.8,0.9,1.1,2,1.1,3.5c0,1.5-0.4,2.6-1.2,3.5c-0.8,0.8-1.9,1.3-3.3,1.3c-1.3,0-2.3-0.3-3.1-1
		c-0.8-0.7-1.2-1.7-1.3-2.9h1.7c0.1,0.8,0.4,1.4,0.9,1.8c0.5,0.4,1.1,0.6,1.9,0.6c0.8,0,1.5-0.3,2-0.9c0.5-0.6,0.7-1.4,0.7-2.4
		c0-1-0.2-1.7-0.8-2.3c-0.5-0.6-1.2-0.9-2.1-0.9c-0.8,0-1.4,0.2-1.9,0.5l-0.5,0.4L65.7,710.1z"/>
	<path d="M116.9,633.7c0-1.5-0.2-2.7-0.6-3.4s-1.1-1-2-1s-1.6,0.3-2,1c-0.4,0.7-0.6,1.8-0.7,3.2v2.9c0,1.5,0.2,2.7,0.7,3.4
		c0.5,0.7,1.1,1.1,2,1.1c0.9,0,1.6-0.4,2-1c0.4-0.7,0.6-1.8,0.7-3.3V633.7z M118.7,636.1c0,2.1-0.4,3.7-1.1,4.7
		c-0.7,1-1.9,1.5-3.4,1.5c-1.5,0-2.6-0.5-3.4-1.5c-0.7-1-1.1-2.5-1.1-4.5V634c0-2.1,0.4-3.6,1.1-4.7c0.7-1,1.9-1.5,3.4-1.5
		c1.5,0,2.7,0.5,3.4,1.5c0.7,1,1.1,2.5,1.1,4.5V636.1z M105.6,633.7c0-1.5-0.2-2.7-0.6-3.4s-1.1-1-2-1s-1.6,0.3-2,1
		c-0.4,0.7-0.6,1.8-0.7,3.2v2.9c0,1.5,0.2,2.7,0.7,3.4c0.4,0.7,1.1,1.1,2,1.1c0.9,0,1.5-0.4,2-1c0.4-0.7,0.7-1.8,0.7-3.3V633.7z
		 M107.4,636.1c0,2.1-0.4,3.7-1.1,4.7c-0.7,1-1.9,1.5-3.4,1.5c-1.5,0-2.6-0.5-3.4-1.5c-0.7-1-1.1-2.5-1.1-4.5V634
		c0-2.1,0.4-3.6,1.1-4.7c0.7-1,1.9-1.5,3.4-1.5c1.5,0,2.7,0.5,3.4,1.5c0.7,1,1.1,2.5,1.1,4.5V636.1z M94.4,633.7
		c0-1.5-0.2-2.7-0.6-3.4s-1.1-1-2-1s-1.6,0.3-2,1c-0.4,0.7-0.6,1.8-0.7,3.2v2.9c0,1.5,0.2,2.7,0.7,3.4c0.5,0.7,1.1,1.1,2,1.1
		c0.9,0,1.6-0.4,2-1c0.4-0.7,0.7-1.8,0.7-3.3V633.7z M96.2,636.1c0,2.1-0.4,3.7-1.1,4.7c-0.7,1-1.9,1.5-3.4,1.5
		c-1.5,0-2.6-0.5-3.4-1.5c-0.7-1-1.1-2.5-1.1-4.5V634c0-2.1,0.4-3.6,1.1-4.7c0.7-1,1.8-1.5,3.4-1.5c1.5,0,2.7,0.5,3.4,1.5
		c0.7,1,1.1,2.5,1.1,4.5V636.1z M76.9,635.1l0.7-7.1h7.3v1.7h-5.8l-0.4,3.9c0.7-0.4,1.5-0.6,2.4-0.6c1.3,0,2.3,0.4,3.1,1.3
		c0.8,0.9,1.1,2,1.1,3.5c0,1.5-0.4,2.6-1.2,3.5c-0.8,0.8-1.9,1.3-3.3,1.3c-1.3,0-2.3-0.3-3.1-1c-0.8-0.7-1.2-1.7-1.3-2.9h1.7
		c0.1,0.8,0.4,1.4,0.9,1.8c0.5,0.4,1.1,0.6,1.9,0.6c0.8,0,1.5-0.3,2-0.9c0.5-0.6,0.7-1.4,0.7-2.4c0-1-0.2-1.7-0.8-2.3
		c-0.5-0.6-1.2-0.9-2.1-0.9c-0.8,0-1.4,0.2-1.8,0.5l-0.5,0.4L76.9,635.1z M74,629l-5.9,13.2h-1.9l5.9-12.7h-7.7V628H74V629z"/>
	<path d="M116.9,558.7c0-1.5-0.2-2.7-0.6-3.4s-1.1-1-2-1s-1.6,0.3-2,1c-0.4,0.7-0.6,1.8-0.7,3.2v2.9c0,1.5,0.2,2.7,0.7,3.4
		c0.5,0.7,1.1,1.1,2,1.1c0.9,0,1.6-0.4,2-1c0.4-0.7,0.6-1.8,0.7-3.3V558.7z M118.7,561.1c0,2.1-0.4,3.7-1.1,4.7
		c-0.7,1-1.9,1.5-3.4,1.5c-1.5,0-2.6-0.5-3.4-1.5c-0.7-1-1.1-2.5-1.1-4.5V559c0-2.1,0.4-3.6,1.1-4.7c0.7-1,1.9-1.5,3.4-1.5
		c1.5,0,2.7,0.5,3.4,1.5c0.7,1,1.1,2.5,1.1,4.5V561.1z M105.6,558.7c0-1.5-0.2-2.7-0.6-3.4s-1.1-1-2-1s-1.6,0.3-2,1
		c-0.4,0.7-0.6,1.8-0.7,3.2v2.9c0,1.5,0.2,2.7,0.7,3.4c0.4,0.7,1.1,1.1,2,1.1c0.9,0,1.5-0.4,2-1c0.4-0.7,0.7-1.8,0.7-3.3V558.7z
		 M107.4,561.1c0,2.1-0.4,3.7-1.1,4.7c-0.7,1-1.9,1.5-3.4,1.5c-1.5,0-2.6-0.5-3.4-1.5c-0.7-1-1.1-2.5-1.1-4.5V559
		c0-2.1,0.4-3.6,1.1-4.7c0.7-1,1.9-1.5,3.4-1.5c1.5,0,2.7,0.5,3.4,1.5c0.7,1,1.1,2.5,1.1,4.5V561.1z M94.4,558.7
		c0-1.5-0.2-2.7-0.6-3.4s-1.1-1-2-1s-1.6,0.3-2,1c-0.4,0.7-0.6,1.8-0.7,3.2v2.9c0,1.5,0.2,2.7,0.7,3.4c0.5,0.7,1.1,1.1,2,1.1
		c0.9,0,1.6-0.4,2-1c0.4-0.7,0.7-1.8,0.7-3.3V558.7z M96.2,561.1c0,2.1-0.4,3.7-1.1,4.7c-0.7,1-1.9,1.5-3.4,1.5
		c-1.5,0-2.6-0.5-3.4-1.5c-0.7-1-1.1-2.5-1.1-4.5V559c0-2.1,0.4-3.6,1.1-4.7c0.7-1,1.8-1.5,3.4-1.5c1.5,0,2.7,0.5,3.4,1.5
		c0.7,1,1.1,2.5,1.1,4.5V561.1z M83.2,558.7c0-1.5-0.2-2.7-0.6-3.4s-1.1-1-2-1s-1.6,0.3-2,1c-0.4,0.7-0.7,1.8-0.7,3.2v2.9
		c0,1.5,0.2,2.7,0.7,3.4c0.4,0.7,1.1,1.1,2,1.1c0.9,0,1.5-0.4,2-1c0.4-0.7,0.7-1.8,0.7-3.3V558.7z M85,561.1c0,2.1-0.4,3.7-1.1,4.7
		c-0.7,1-1.9,1.5-3.4,1.5c-1.5,0-2.6-0.5-3.4-1.5c-0.7-1-1.1-2.5-1.1-4.5V559c0-2.1,0.4-3.6,1.1-4.7c0.7-1,1.9-1.5,3.4-1.5
		c1.5,0,2.7,0.5,3.4,1.5c0.7,1,1.1,2.5,1.1,4.5V561.1z M71.9,558.7c0-1.5-0.2-2.7-0.6-3.4s-1.1-1-2-1s-1.6,0.3-2,1
		c-0.4,0.7-0.7,1.8-0.7,3.2v2.9c0,1.5,0.2,2.7,0.7,3.4c0.4,0.7,1.1,1.1,2,1.1c0.9,0,1.6-0.4,2-1c0.4-0.7,0.7-1.8,0.7-3.3V558.7z
		 M73.8,561.1c0,2.1-0.4,3.7-1.1,4.7c-0.7,1-1.9,1.5-3.4,1.5c-1.5,0-2.6-0.5-3.4-1.5c-0.7-1-1.1-2.5-1.1-4.5V559
		c0-2.1,0.4-3.6,1.1-4.7c0.7-1,1.8-1.5,3.4-1.5c1.5,0,2.7,0.5,3.4,1.5c0.7,1,1.1,2.5,1.1,4.5V561.1z M59.5,567.2h-1.8v-12l-3.6,1.3
		v-1.6l5.2-1.9h0.3V567.2z"/>
	<path d="M116.9,483.7c0-1.5-0.2-2.6-0.6-3.4s-1.1-1-2-1s-1.6,0.3-2,1c-0.4,0.7-0.6,1.8-0.7,3.2v2.9c0,1.5,0.2,2.7,0.7,3.4
		c0.5,0.7,1.1,1.1,2,1.1c0.9,0,1.6-0.4,2-1c0.4-0.7,0.6-1.8,0.7-3.3V483.7z M118.7,486.1c0,2.1-0.4,3.7-1.1,4.7
		c-0.7,1-1.9,1.5-3.4,1.5c-1.5,0-2.6-0.5-3.4-1.5c-0.7-1-1.1-2.5-1.1-4.5V484c0-2.1,0.4-3.6,1.1-4.7c0.7-1,1.9-1.5,3.4-1.5
		c1.5,0,2.7,0.5,3.4,1.5c0.7,1,1.1,2.5,1.1,4.5V486.1z M105.6,483.7c0-1.5-0.2-2.6-0.6-3.4s-1.1-1-2-1s-1.6,0.3-2,1
		c-0.4,0.7-0.6,1.8-0.7,3.2v2.9c0,1.5,0.2,2.7,0.7,3.4c0.4,0.7,1.1,1.1,2,1.1c0.9,0,1.5-0.4,2-1c0.4-0.7,0.7-1.8,0.7-3.3V483.7z
		 M107.4,486.1c0,2.1-0.4,3.7-1.1,4.7c-0.7,1-1.9,1.5-3.4,1.5c-1.5,0-2.6-0.5-3.4-1.5c-0.7-1-1.1-2.5-1.1-4.5V484
		c0-2.1,0.4-3.6,1.1-4.7c0.7-1,1.9-1.5,3.4-1.5c1.5,0,2.7,0.5,3.4,1.5c0.7,1,1.1,2.5,1.1,4.5V486.1z M94.4,483.7
		c0-1.5-0.2-2.6-0.6-3.4s-1.1-1-2-1s-1.6,0.3-2,1c-0.4,0.7-0.6,1.8-0.7,3.2v2.9c0,1.5,0.2,2.7,0.7,3.4c0.5,0.7,1.1,1.1,2,1.1
		c0.9,0,1.6-0.4,2-1c0.4-0.7,0.7-1.8,0.7-3.3V483.7z M96.2,486.1c0,2.1-0.4,3.7-1.1,4.7c-0.7,1-1.9,1.5-3.4,1.5
		c-1.5,0-2.6-0.5-3.4-1.5c-0.7-1-1.1-2.5-1.1-4.5V484c0-2.1,0.4-3.6,1.1-4.7c0.7-1,1.8-1.5,3.4-1.5c1.5,0,2.7,0.5,3.4,1.5
		c0.7,1,1.1,2.5,1.1,4.5V486.1z M76.9,485.1l0.7-7.1h7.3v1.7h-5.8l-0.4,3.9c0.7-0.4,1.5-0.6,2.4-0.6c1.3,0,2.3,0.4,3.1,1.3
		c0.8,0.9,1.1,2,1.1,3.5c0,1.5-0.4,2.6-1.2,3.5c-0.8,0.8-1.9,1.3-3.3,1.3c-1.3,0-2.3-0.4-3.1-1c-0.8-0.7-1.2-1.7-1.3-2.9h1.7
		c0.1,0.8,0.4,1.4,0.9,1.8c0.5,0.4,1.1,0.6,1.9,0.6c0.8,0,1.5-0.3,2-0.9c0.5-0.6,0.7-1.4,0.7-2.4c0-0.9-0.2-1.7-0.8-2.3
		c-0.5-0.6-1.2-0.9-2.1-0.9c-0.8,0-1.4,0.2-1.8,0.5l-0.5,0.4L76.9,485.1z M74.2,492.2h-9.3v-1.3l4.9-5.5c0.7-0.8,1.2-1.5,1.5-2
		c0.3-0.5,0.4-1.1,0.4-1.6c0-0.7-0.2-1.3-0.7-1.8c-0.4-0.5-1-0.7-1.8-0.7c-0.9,0-1.6,0.2-2.1,0.8c-0.5,0.5-0.7,1.2-0.7,2.1h-1.8
		c0-1.3,0.4-2.4,1.3-3.2c0.8-0.8,2-1.2,3.4-1.2c1.3,0,2.4,0.4,3.1,1c0.8,0.7,1.2,1.6,1.2,2.8c0,1.4-0.9,3.1-2.7,5l-3.8,4.1h7.1
		V492.2z M59.5,492.2h-1.8v-12l-3.6,1.3v-1.6l5.2-1.9h0.3V492.2z"/>
	<path d="M116.9,408.7c0-1.5-0.2-2.6-0.6-3.3s-1.1-1-2-1s-1.6,0.3-2,1c-0.4,0.7-0.6,1.8-0.7,3.2v2.9c0,1.5,0.2,2.7,0.7,3.4
		c0.5,0.7,1.1,1.1,2,1.1c0.9,0,1.6-0.3,2-1c0.4-0.7,0.6-1.8,0.7-3.3V408.7z M118.7,411.1c0,2.1-0.4,3.7-1.1,4.7
		c-0.7,1-1.9,1.5-3.4,1.5c-1.5,0-2.6-0.5-3.4-1.5c-0.7-1-1.1-2.5-1.1-4.5V409c0-2.1,0.4-3.6,1.1-4.7c0.7-1,1.9-1.5,3.4-1.5
		c1.5,0,2.7,0.5,3.4,1.5c0.7,1,1.1,2.5,1.1,4.5V411.1z M105.6,408.7c0-1.5-0.2-2.6-0.6-3.3s-1.1-1-2-1s-1.6,0.3-2,1
		c-0.4,0.7-0.6,1.8-0.7,3.2v2.9c0,1.5,0.2,2.7,0.7,3.4c0.4,0.7,1.1,1.1,2,1.1c0.9,0,1.5-0.3,2-1c0.4-0.7,0.7-1.8,0.7-3.3V408.7z
		 M107.4,411.1c0,2.1-0.4,3.7-1.1,4.7c-0.7,1-1.9,1.5-3.4,1.5c-1.5,0-2.6-0.5-3.4-1.5c-0.7-1-1.1-2.5-1.1-4.5V409
		c0-2.1,0.4-3.6,1.1-4.7c0.7-1,1.9-1.5,3.4-1.5c1.5,0,2.7,0.5,3.4,1.5c0.7,1,1.1,2.5,1.1,4.5V411.1z M94.4,408.7
		c0-1.5-0.2-2.6-0.6-3.3s-1.1-1-2-1s-1.6,0.3-2,1c-0.4,0.7-0.6,1.8-0.7,3.2v2.9c0,1.5,0.2,2.7,0.7,3.4c0.5,0.7,1.1,1.1,2,1.1
		c0.9,0,1.6-0.3,2-1c0.4-0.7,0.7-1.8,0.7-3.3V408.7z M96.2,411.1c0,2.1-0.4,3.7-1.1,4.7c-0.7,1-1.9,1.5-3.4,1.5
		c-1.5,0-2.6-0.5-3.4-1.5c-0.7-1-1.1-2.5-1.1-4.5V409c0-2.1,0.4-3.6,1.1-4.7c0.7-1,1.8-1.5,3.4-1.5c1.5,0,2.7,0.5,3.4,1.5
		c0.7,1,1.1,2.5,1.1,4.5V411.1z M83.2,408.7c0-1.5-0.2-2.6-0.6-3.3s-1.1-1-2-1s-1.6,0.3-2,1c-0.4,0.7-0.7,1.8-0.7,3.2v2.9
		c0,1.5,0.2,2.7,0.7,3.4c0.4,0.7,1.1,1.1,2,1.1c0.9,0,1.5-0.3,2-1c0.4-0.7,0.7-1.8,0.7-3.3V408.7z M85,411.1c0,2.1-0.4,3.7-1.1,4.7
		c-0.7,1-1.9,1.5-3.4,1.5c-1.5,0-2.6-0.5-3.4-1.5c-0.7-1-1.1-2.5-1.1-4.5V409c0-2.1,0.4-3.6,1.1-4.7c0.7-1,1.9-1.5,3.4-1.5
		c1.5,0,2.7,0.5,3.4,1.5c0.7,1,1.1,2.5,1.1,4.5V411.1z M65.7,410.1l0.7-7.1h7.3v1.7h-5.8l-0.4,3.9c0.7-0.4,1.5-0.6,2.4-0.6
		c1.3,0,2.3,0.4,3.1,1.3c0.8,0.9,1.1,2,1.1,3.5c0,1.5-0.4,2.6-1.2,3.5c-0.8,0.8-1.9,1.3-3.3,1.3c-1.3,0-2.3-0.4-3.1-1
		c-0.8-0.7-1.2-1.7-1.3-2.9h1.7c0.1,0.8,0.4,1.4,0.9,1.8c0.5,0.4,1.1,0.6,1.9,0.6c0.8,0,1.5-0.3,2-0.9c0.5-0.6,0.7-1.4,0.7-2.4
		c0-1-0.2-1.7-0.8-2.3c-0.5-0.6-1.2-0.9-2.1-0.9c-0.8,0-1.4,0.2-1.9,0.5l-0.5,0.4L65.7,410.1z M59.5,417.2h-1.8v-12l-3.6,1.3v-1.6
		l5.2-1.9h0.3V417.2z"/>
	<path d="M116.9,333.7c0-1.5-0.2-2.6-0.6-3.3s-1.1-1-2-1s-1.6,0.3-2,1c-0.4,0.7-0.6,1.8-0.7,3.2v2.9c0,1.5,0.2,2.7,0.7,3.4
		c0.5,0.7,1.1,1.1,2,1.1c0.9,0,1.6-0.3,2-1c0.4-0.7,0.6-1.8,0.7-3.3V333.7z M118.7,336.1c0,2.1-0.4,3.7-1.1,4.7
		c-0.7,1-1.9,1.5-3.4,1.5c-1.5,0-2.6-0.5-3.4-1.5c-0.7-1-1.1-2.5-1.1-4.5V334c0-2.1,0.4-3.6,1.1-4.7c0.7-1,1.9-1.5,3.4-1.5
		c1.5,0,2.7,0.5,3.4,1.5c0.7,1,1.1,2.5,1.1,4.5V336.1z M105.6,333.7c0-1.5-0.2-2.6-0.6-3.3s-1.1-1-2-1s-1.6,0.3-2,1
		c-0.4,0.7-0.6,1.8-0.7,3.2v2.9c0,1.5,0.2,2.7,0.7,3.4c0.4,0.7,1.1,1.1,2,1.1c0.9,0,1.5-0.3,2-1c0.4-0.7,0.7-1.8,0.7-3.3V333.7z
		 M107.4,336.1c0,2.1-0.4,3.7-1.1,4.7c-0.7,1-1.9,1.5-3.4,1.5c-1.5,0-2.6-0.5-3.4-1.5c-0.7-1-1.1-2.5-1.1-4.5V334
		c0-2.1,0.4-3.6,1.1-4.7c0.7-1,1.9-1.5,3.4-1.5c1.5,0,2.7,0.5,3.4,1.5c0.7,1,1.1,2.5,1.1,4.5V336.1z M94.4,333.7
		c0-1.5-0.2-2.6-0.6-3.3s-1.1-1-2-1s-1.6,0.3-2,1c-0.4,0.7-0.6,1.8-0.7,3.2v2.9c0,1.5,0.2,2.7,0.7,3.4c0.5,0.7,1.1,1.1,2,1.1
		c0.9,0,1.6-0.3,2-1c0.4-0.7,0.7-1.8,0.7-3.3V333.7z M96.2,336.1c0,2.1-0.4,3.7-1.1,4.7c-0.7,1-1.9,1.5-3.4,1.5
		c-1.5,0-2.6-0.5-3.4-1.5c-0.7-1-1.1-2.5-1.1-4.5V334c0-2.1,0.4-3.6,1.1-4.7c0.7-1,1.8-1.5,3.4-1.5c1.5,0,2.7,0.5,3.4,1.5
		c0.7,1,1.1,2.5,1.1,4.5V336.1z M76.9,335.1l0.7-7.1h7.3v1.7h-5.8l-0.4,3.9c0.7-0.4,1.5-0.6,2.4-0.6c1.3,0,2.3,0.4,3.1,1.3
		c0.8,0.9,1.1,2,1.1,3.5c0,1.5-0.4,2.6-1.2,3.5c-0.8,0.8-1.9,1.3-3.3,1.3c-1.3,0-2.3-0.4-3.1-1c-0.8-0.7-1.2-1.7-1.3-2.9h1.7
		c0.1,0.8,0.4,1.4,0.9,1.8c0.5,0.4,1.1,0.6,1.9,0.6c0.8,0,1.5-0.3,2-0.9c0.5-0.6,0.7-1.4,0.7-2.4c0-1-0.2-1.7-0.8-2.3
		c-0.5-0.6-1.2-0.9-2.1-0.9c-0.8,0-1.4,0.2-1.8,0.5l-0.5,0.4L76.9,335.1z M74,329l-5.9,13.2h-1.9l5.9-12.7h-7.7V328H74V329z
		 M59.5,342.2h-1.8v-12l-3.6,1.3v-1.6l5.2-1.9h0.3V342.2z"/>
	<path d="M116.9,258.7c0-1.5-0.2-2.6-0.6-3.3s-1.1-1-2-1s-1.6,0.3-2,1c-0.4,0.7-0.6,1.8-0.7,3.2v2.9c0,1.5,0.2,2.7,0.7,3.4
		c0.5,0.7,1.1,1.1,2,1.1c0.9,0,1.6-0.3,2-1c0.4-0.7,0.6-1.8,0.7-3.3V258.7z M118.7,261.1c0,2.1-0.4,3.7-1.1,4.7
		c-0.7,1-1.9,1.5-3.4,1.5c-1.5,0-2.6-0.5-3.4-1.5c-0.7-1-1.1-2.5-1.1-4.5V259c0-2.1,0.4-3.6,1.1-4.7c0.7-1,1.9-1.5,3.4-1.5
		c1.5,0,2.7,0.5,3.4,1.5c0.7,1,1.1,2.5,1.1,4.5V261.1z M105.6,258.7c0-1.5-0.2-2.6-0.6-3.3s-1.1-1-2-1s-1.6,0.3-2,1
		c-0.4,0.7-0.6,1.8-0.7,3.2v2.9c0,1.5,0.2,2.7,0.7,3.4c0.4,0.7,1.1,1.1,2,1.1c0.9,0,1.5-0.3,2-1c0.4-0.7,0.7-1.8,0.7-3.3V258.7z
		 M107.4,261.1c0,2.1-0.4,3.7-1.1,4.7c-0.7,1-1.9,1.5-3.4,1.5c-1.5,0-2.6-0.5-3.4-1.5c-0.7-1-1.1-2.5-1.1-4.5V259
		c0-2.1,0.4-3.6,1.1-4.7c0.7-1,1.9-1.5,3.4-1.5c1.5,0,2.7,0.5,3.4,1.5c0.7,1,1.1,2.5,1.1,4.5V261.1z M94.4,258.7
		c0-1.5-0.2-2.6-0.6-3.3s-1.1-1-2-1s-1.6,0.3-2,1c-0.4,0.7-0.6,1.8-0.7,3.2v2.9c0,1.5,0.2,2.7,0.7,3.4c0.5,0.7,1.1,1.1,2,1.1
		c0.9,0,1.6-0.3,2-1c0.4-0.7,0.7-1.8,0.7-3.3V258.7z M96.2,261.1c0,2.1-0.4,3.7-1.1,4.7c-0.7,1-1.9,1.5-3.4,1.5
		c-1.5,0-2.6-0.5-3.4-1.5c-0.7-1-1.1-2.5-1.1-4.5V259c0-2.1,0.4-3.6,1.1-4.7c0.7-1,1.8-1.5,3.4-1.5c1.5,0,2.7,0.5,3.4,1.5
		c0.7,1,1.1,2.5,1.1,4.5V261.1z M83.2,258.7c0-1.5-0.2-2.6-0.6-3.3s-1.1-1-2-1s-1.6,0.3-2,1c-0.4,0.7-0.7,1.8-0.7,3.2v2.9
		c0,1.5,0.2,2.7,0.7,3.4c0.4,0.7,1.1,1.1,2,1.1c0.9,0,1.5-0.3,2-1c0.4-0.7,0.7-1.8,0.7-3.3V258.7z M85,261.1c0,2.1-0.4,3.7-1.1,4.7
		c-0.7,1-1.9,1.5-3.4,1.5c-1.5,0-2.6-0.5-3.4-1.5c-0.7-1-1.1-2.5-1.1-4.5V259c0-2.1,0.4-3.6,1.1-4.7c0.7-1,1.9-1.5,3.4-1.5
		c1.5,0,2.7,0.5,3.4,1.5c0.7,1,1.1,2.5,1.1,4.5V261.1z M71.9,258.7c0-1.5-0.2-2.6-0.6-3.3s-1.1-1-2-1s-1.6,0.3-2,1
		c-0.4,0.7-0.7,1.8-0.7,3.2v2.9c0,1.5,0.2,2.7,0.7,3.4c0.4,0.7,1.1,1.1,2,1.1c0.9,0,1.6-0.3,2-1c0.4-0.7,0.7-1.8,0.7-3.3V258.7z
		 M73.8,261.1c0,2.1-0.4,3.7-1.1,4.7c-0.7,1-1.9,1.5-3.4,1.5c-1.5,0-2.6-0.5-3.4-1.5c-0.7-1-1.1-2.5-1.1-4.5V259
		c0-2.1,0.4-3.6,1.1-4.7c0.7-1,1.8-1.5,3.4-1.5c1.5,0,2.7,0.5,3.4,1.5c0.7,1,1.1,2.5,1.1,4.5V261.1z M62.9,267.2h-9.3v-1.3l4.9-5.5
		c0.7-0.8,1.2-1.5,1.5-2c0.3-0.5,0.4-1,0.4-1.6c0-0.7-0.2-1.3-0.7-1.8c-0.4-0.5-1-0.7-1.8-0.7c-0.9,0-1.6,0.2-2.1,0.8
		c-0.5,0.5-0.7,1.2-0.7,2.1h-1.8c0-1.3,0.4-2.4,1.3-3.2c0.8-0.8,2-1.2,3.4-1.2c1.3,0,2.4,0.3,3.1,1s1.1,1.6,1.1,2.8
		c0,1.4-0.9,3.1-2.7,5l-3.8,4.1h7.1V267.2z"/>
	<circle class="st2" cx="126.7" cy="860.1" r="1"/>
	<circle class="st2" cx="134.7" cy="860.1" r="1"/>
	<circle class="st2" cx="142.7" cy="860.1" r="1"/>
	<circle class="st2" cx="150.7" cy="860.1" r="1"/>
	<circle class="st2" cx="158.7" cy="860.1" r="1"/>
	<circle class="st2" cx="166.7" cy="860.1" r="1"/>
	<circle class="st2" cx="174.7" cy="860.1" r="1"/>
	<circle class="st2" cx="182.7" cy="860.1" r="1"/>
	<circle class="st2" cx="190.7" cy="860.1" r="1"/>
	<circle class="st2" cx="198.7" cy="860.1" r="1"/>
	<circle class="st2" cx="206.7" cy="860.1" r="1"/>
	<circle class="st2" cx="214.7" cy="860.1" r="1"/>
	<circle class="st2" cx="222.7" cy="860.1" r="1"/>
	<circle class="st2" cx="230.7" cy="860.1" r="1"/>
	<circle class="st2" cx="238.7" cy="860.1" r="1"/>
	<circle class="st2" cx="246.7" cy="860.1" r="1"/>
	<circle class="st2" cx="254.7" cy="860.1" r="1"/>
	<circle class="st2" cx="262.7" cy="860.1" r="1"/>
	<circle class="st2" cx="270.7" cy="860.1" r="1"/>
	<circle class="st2" cx="278.7" cy="860.1" r="1"/>
	<circle class="st2" cx="286.7" cy="860.1" r="1"/>
	<circle class="st2" cx="294.7" cy="860.1" r="1"/>
	<circle class="st2" cx="302.7" cy="860.1" r="1"/>
	<circle class="st2" cx="310.7" cy="860.1" r="1"/>
	<circle class="st2" cx="318.7" cy="860.1" r="1"/>
	<circle class="st2" cx="326.7" cy="860.1" r="1"/>
	<circle class="st2" cx="334.7" cy="860.1" r="1"/>
	<circle class="st2" cx="342.7" cy="860.1" r="1"/>
	<circle class="st2" cx="350.7" cy="860.1" r="1"/>
	<circle class="st2" cx="358.7" cy="860.1" r="1"/>
	<circle class="st2" cx="366.7" cy="860.1" r="1"/>
	<circle class="st2" cx="374.7" cy="860.1" r="1"/>
	<circle class="st2" cx="382.7" cy="860.1" r="1"/>
	<circle class="st2" cx="390.7" cy="860.1" r="1"/>
	<circle class="st2" cx="398.7" cy="860.1" r="1"/>
	<circle class="st2" cx="406.7" cy="860.1" r="1"/>
	<circle class="st2" cx="414.7" cy="860.1" r="1"/>
	<circle class="st2" cx="422.7" cy="860.1" r="1"/>
	<circle class="st2" cx="430.7" cy="860.1" r="1"/>
	<circle class="st2" cx="438.7" cy="860.1" r="1"/>
	<circle class="st2" cx="446.7" cy="860.1" r="1"/>
	<circle class="st2" cx="454.7" cy="860.1" r="1"/>
	<circle class="st2" cx="462.7" cy="860.1" r="1"/>
	<circle class="st2" cx="470.7" cy="860.1" r="1"/>
	<circle class="st2" cx="478.7" cy="860.1" r="1"/>
	<circle class="st2" cx="486.7" cy="860.1" r="1"/>
	<circle class="st2" cx="494.7" cy="860.1" r="1"/>
	<circle class="st2" cx="502.7" cy="860.1" r="1"/>
	<circle class="st2" cx="510.7" cy="860.1" r="1"/>
	<circle class="st2" cx="518.7" cy="860.1" r="1"/>
	<circle class="st2" cx="526.7" cy="860.1" r="1"/>
	<circle class="st2" cx="534.7" cy="860.1" r="1"/>
	<circle class="st2" cx="542.7" cy="860.1" r="1"/>
	<circle class="st2" cx="550.7" cy="860.1" r="1"/>
	<circle class="st2" cx="558.7" cy="860.1" r="1"/>
	<circle class="st2" cx="566.7" cy="860.1" r="1"/>
	<circle class="st2" cx="574.7" cy="860.1" r="1"/>
	<circle class="st2" cx="582.7" cy="860.1" r="1"/>
	<circle class="st2" cx="590.7" cy="860.1" r="1"/>
	<circle class="st2" cx="598.7" cy="860.1" r="1"/>
	<circle class="st2" cx="606.7" cy="860.1" r="1"/>
	<circle class="st2" cx="614.7" cy="860.1" r="1"/>
	<circle class="st2" cx="622.7" cy="860.1" r="1"/>
	<circle class="st2" cx="630.7" cy="860.1" r="1"/>
	<circle class="st2" cx="638.7" cy="860.1" r="1"/>
	<circle class="st2" cx="646.7" cy="860.1" r="1"/>
	<circle class="st2" cx="654.7" cy="860.1" r="1"/>
	<circle class="st2" cx="662.7" cy="860.1" r="1"/>
	<circle class="st2" cx="670.7" cy="860.1" r="1"/>
	<circle class="st2" cx="678.7" cy="860.1" r="1"/>
	<circle class="st2" cx="686.7" cy="860.1" r="1"/>
	<circle class="st2" cx="694.7" cy="860.1" r="1"/>
	<circle class="st2" cx="702.7" cy="860.1" r="1"/>
	<circle class="st2" cx="710.7" cy="860.1" r="1"/>
	<circle class="st2" cx="718.7" cy="860.1" r="1"/>
	<circle class="st2" cx="726.7" cy="860.1" r="1"/>
	<circle class="st2" cx="734.7" cy="860.1" r="1"/>
	<circle class="st2" cx="742.7" cy="860.1" r="1"/>
	<circle class="st2" cx="750.7" cy="860.1" r="1"/>
	<circle class="st2" cx="758.7" cy="860.1" r="1"/>
	<circle class="st2" cx="766.7" cy="860.1" r="1"/>
	<circle class="st2" cx="774.7" cy="860.1" r="1"/>
	<circle class="st2" cx="782.7" cy="860.1" r="1"/>
	<circle class="st2" cx="790.7" cy="860.1" r="1"/>
	<circle class="st2" cx="798.7" cy="860.1" r="1"/>
	<circle class="st2" cx="806.7" cy="860.1" r="1"/>
	<circle class="st2" cx="814.7" cy="860.1" r="1"/>
	<circle class="st2" cx="822.7" cy="860.1" r="1"/>
	<circle class="st2" cx="830.7" cy="860.1" r="1"/>
	<circle class="st2" cx="838.7" cy="860.1" r="1"/>
	<circle class="st2" cx="846.7" cy="860.1" r="1"/>
	<circle class="st2" cx="854.7" cy="860.1" r="1"/>
	<circle class="st2" cx="862.7" cy="860.1" r="1"/>
	<circle class="st2" cx="870.7" cy="860.1" r="1"/>
	<circle class="st2" cx="878.7" cy="860.1" r="1"/>
	<circle class="st2" cx="886.7" cy="860.1" r="1"/>
	<circle class="st2" cx="894.7" cy="860.1" r="1"/>
	<circle class="st2" cx="902.7" cy="860.1" r="1"/>
	<circle class="st2" cx="910.7" cy="860.1" r="1"/>
	<circle class="st2" cx="918.7" cy="860.1" r="1"/>
	<circle class="st2" cx="926.7" cy="860.1" r="1"/>
	<circle class="st2" cx="934.7" cy="860.1" r="1"/>
	<circle class="st2" cx="942.7" cy="860.1" r="1"/>
	<circle class="st2" cx="126.7" cy="785.1" r="1"/>
	<circle class="st2" cx="134.7" cy="785.1" r="1"/>
	<circle class="st2" cx="142.7" cy="785.1" r="1"/>
	<circle class="st2" cx="150.7" cy="785.1" r="1"/>
	<circle class="st2" cx="158.7" cy="785.1" r="1"/>
	<circle class="st2" cx="166.7" cy="785.1" r="1"/>
	<circle class="st2" cx="174.7" cy="785.1" r="1"/>
	<circle class="st2" cx="182.7" cy="785.1" r="1"/>
	<circle class="st2" cx="190.7" cy="785.1" r="1"/>
	<circle class="st2" cx="198.7" cy="785.1" r="1"/>
	<circle class="st2" cx="206.7" cy="785.1" r="1"/>
	<circle class="st2" cx="214.7" cy="785.1" r="1"/>
	<circle class="st2" cx="222.7" cy="785.1" r="1"/>
	<circle class="st2" cx="230.7" cy="785.1" r="1"/>
	<circle class="st2" cx="238.7" cy="785.1" r="1"/>
	<circle class="st2" cx="246.7" cy="785.1" r="1"/>
	<circle class="st2" cx="254.7" cy="785.1" r="1"/>
	<circle class="st2" cx="262.7" cy="785.1" r="1"/>
	<circle class="st2" cx="270.7" cy="785.1" r="1"/>
	<circle class="st2" cx="278.7" cy="785.1" r="1"/>
	<circle class="st2" cx="286.7" cy="785.1" r="1"/>
	<circle class="st2" cx="294.7" cy="785.1" r="1"/>
	<circle class="st2" cx="302.7" cy="785.1" r="1"/>
	<circle class="st2" cx="310.7" cy="785.1" r="1"/>
	<circle class="st2" cx="318.7" cy="785.1" r="1"/>
	<circle class="st2" cx="326.7" cy="785.1" r="1"/>
	<circle class="st2" cx="334.7" cy="785.1" r="1"/>
	<circle class="st2" cx="342.7" cy="785.1" r="1"/>
	<circle class="st2" cx="350.7" cy="785.1" r="1"/>
	<circle class="st2" cx="358.7" cy="785.1" r="1"/>
	<circle class="st2" cx="366.7" cy="785.1" r="1"/>
	<circle class="st2" cx="374.7" cy="785.1" r="1"/>
	<circle class="st2" cx="382.7" cy="785.1" r="1"/>
	<circle class="st2" cx="390.7" cy="785.1" r="1"/>
	<circle class="st2" cx="398.7" cy="785.1" r="1"/>
	<circle class="st2" cx="406.7" cy="785.1" r="1"/>
	<circle class="st2" cx="414.7" cy="785.1" r="1"/>
	<circle class="st2" cx="422.7" cy="785.1" r="1"/>
	<circle class="st2" cx="430.7" cy="785.1" r="1"/>
	<circle class="st2" cx="438.7" cy="785.1" r="1"/>
	<circle class="st2" cx="446.7" cy="785.1" r="1"/>
	<circle class="st2" cx="454.7" cy="785.1" r="1"/>
	<circle class="st2" cx="462.7" cy="785.1" r="1"/>
	<circle class="st2" cx="470.7" cy="785.1" r="1"/>
	<circle class="st2" cx="478.7" cy="785.1" r="1"/>
	<circle class="st2" cx="486.7" cy="785.1" r="1"/>
	<circle class="st2" cx="494.7" cy="785.1" r="1"/>
	<circle class="st2" cx="502.7" cy="785.1" r="1"/>
	<circle class="st2" cx="510.7" cy="785.1" r="1"/>
	<circle class="st2" cx="518.7" cy="785.1" r="1"/>
	<circle class="st2" cx="526.7" cy="785.1" r="1"/>
	<circle class="st2" cx="534.7" cy="785.1" r="1"/>
	<circle class="st2" cx="542.7" cy="785.1" r="1"/>
	<circle class="st2" cx="550.7" cy="785.1" r="1"/>
	<circle class="st2" cx="558.7" cy="785.1" r="1"/>
	<circle class="st2" cx="566.7" cy="785.1" r="1"/>
	<circle class="st2" cx="574.7" cy="785.1" r="1"/>
	<circle class="st2" cx="582.7" cy="785.1" r="1"/>
	<circle class="st2" cx="590.7" cy="785.1" r="1"/>
	<circle class="st2" cx="598.7" cy="785.1" r="1"/>
	<circle class="st2" cx="606.7" cy="785.1" r="1"/>
	<circle class="st2" cx="614.7" cy="785.1" r="1"/>
	<circle class="st2" cx="622.7" cy="785.1" r="1"/>
	<circle class="st2" cx="630.7" cy="785.1" r="1"/>
	<circle class="st2" cx="638.7" cy="785.1" r="1"/>
	<circle class="st2" cx="646.7" cy="785.1" r="1"/>
	<circle class="st2" cx="654.7" cy="785.1" r="1"/>
	<circle class="st2" cx="662.7" cy="785.1" r="1"/>
	<circle class="st2" cx="670.7" cy="785.1" r="1"/>
	<circle class="st2" cx="678.7" cy="785.1" r="1"/>
	<circle class="st2" cx="686.7" cy="785.1" r="1"/>
	<circle class="st2" cx="694.7" cy="785.1" r="1"/>
	<circle class="st2" cx="702.7" cy="785.1" r="1"/>
	<circle class="st2" cx="710.7" cy="785.1" r="1"/>
	<circle class="st2" cx="718.7" cy="785.1" r="1"/>
	<circle class="st2" cx="726.7" cy="785.1" r="1"/>
	<circle class="st2" cx="734.7" cy="785.1" r="1"/>
	<circle class="st2" cx="742.7" cy="785.1" r="1"/>
	<circle class="st2" cx="750.7" cy="785.1" r="1"/>
	<circle class="st2" cx="758.7" cy="785.1" r="1"/>
	<circle class="st2" cx="766.7" cy="785.1" r="1"/>
	<circle class="st2" cx="774.7" cy="785.1" r="1"/>
	<circle class="st2" cx="782.7" cy="785.1" r="1"/>
	<circle class="st2" cx="790.7" cy="785.1" r="1"/>
	<circle class="st2" cx="798.7" cy="785.1" r="1"/>
	<circle class="st2" cx="806.7" cy="785.1" r="1"/>
	<circle class="st2" cx="814.7" cy="785.1" r="1"/>
	<circle class="st2" cx="822.7" cy="785.1" r="1"/>
	<circle class="st2" cx="830.7" cy="785.1" r="1"/>
	<circle class="st2" cx="838.7" cy="785.1" r="1"/>
	<circle class="st2" cx="846.7" cy="785.1" r="1"/>
	<circle class="st2" cx="854.7" cy="785.1" r="1"/>
	<circle class="st2" cx="862.7" cy="785.1" r="1"/>
	<circle class="st2" cx="870.7" cy="785.1" r="1"/>
	<circle class="st2" cx="878.7" cy="785.1" r="1"/>
	<circle class="st2" cx="886.7" cy="785.1" r="1"/>
	<circle class="st2" cx="894.7" cy="785.1" r="1"/>
	<circle class="st2" cx="902.7" cy="785.1" r="1"/>
	<circle class="st2" cx="910.7" cy="785.1" r="1"/>
	<circle class="st2" cx="918.7" cy="785.1" r="1"/>
	<circle class="st2" cx="926.7" cy="785.1" r="1"/>
	<circle class="st2" cx="934.7" cy="785.1" r="1"/>
	<circle class="st2" cx="942.7" cy="785.1" r="1"/>
	<circle class="st2" cx="126.7" cy="710.1" r="1"/>
	<circle class="st2" cx="134.7" cy="710.1" r="1"/>
	<circle class="st2" cx="142.7" cy="710.1" r="1"/>
	<circle class="st2" cx="150.7" cy="710.1" r="1"/>
	<circle class="st2" cx="158.7" cy="710.1" r="1"/>
	<circle class="st2" cx="166.7" cy="710.1" r="1"/>
	<circle class="st2" cx="174.7" cy="710.1" r="1"/>
	<circle class="st2" cx="182.7" cy="710.1" r="1"/>
	<circle class="st2" cx="190.7" cy="710.1" r="1"/>
	<circle class="st2" cx="198.7" cy="710.1" r="1"/>
	<circle class="st2" cx="206.7" cy="710.1" r="1"/>
	<circle class="st2" cx="214.7" cy="710.1" r="1"/>
	<circle class="st2" cx="222.7" cy="710.1" r="1"/>
	<circle class="st2" cx="230.7" cy="710.1" r="1"/>
	<circle class="st2" cx="238.7" cy="710.1" r="1"/>
	<circle class="st2" cx="246.7" cy="710.1" r="1"/>
	<circle class="st2" cx="254.7" cy="710.1" r="1"/>
	<circle class="st2" cx="262.7" cy="710.1" r="1"/>
	<circle class="st2" cx="270.7" cy="710.1" r="1"/>
	<circle class="st2" cx="278.7" cy="710.1" r="1"/>
	<circle class="st2" cx="286.7" cy="710.1" r="1"/>
	<circle class="st2" cx="294.7" cy="710.1" r="1"/>
	<circle class="st2" cx="302.7" cy="710.1" r="1"/>
	<circle class="st2" cx="310.7" cy="710.1" r="1"/>
	<circle class="st2" cx="318.7" cy="710.1" r="1"/>
	<circle class="st2" cx="326.7" cy="710.1" r="1"/>
	<circle class="st2" cx="334.7" cy="710.1" r="1"/>
	<circle class="st2" cx="342.7" cy="710.1" r="1"/>
	<circle class="st2" cx="350.7" cy="710.1" r="1"/>
	<circle class="st2" cx="358.7" cy="710.1" r="1"/>
	<circle class="st2" cx="366.7" cy="710.1" r="1"/>
	<circle class="st2" cx="374.7" cy="710.1" r="1"/>
	<circle class="st2" cx="382.7" cy="710.1" r="1"/>
	<circle class="st2" cx="390.7" cy="710.1" r="1"/>
	<circle class="st2" cx="398.7" cy="710.1" r="1"/>
	<circle class="st2" cx="406.7" cy="710.1" r="1"/>
	<circle class="st2" cx="414.7" cy="710.1" r="1"/>
	<circle class="st2" cx="422.7" cy="710.1" r="1"/>
	<circle class="st2" cx="430.7" cy="710.1" r="1"/>
	<circle class="st2" cx="438.7" cy="710.1" r="1"/>
	<circle class="st2" cx="446.7" cy="710.1" r="1"/>
	<circle class="st2" cx="454.7" cy="710.1" r="1"/>
	<circle class="st2" cx="462.7" cy="710.1" r="1"/>
	<circle class="st2" cx="470.7" cy="710.1" r="1"/>
	<circle class="st2" cx="478.7" cy="710.1" r="1"/>
	<circle class="st2" cx="486.7" cy="710.1" r="1"/>
	<circle class="st2" cx="494.7" cy="710.1" r="1"/>
	<circle class="st2" cx="502.7" cy="710.1" r="1"/>
	<circle class="st2" cx="510.7" cy="710.1" r="1"/>
	<circle class="st2" cx="518.7" cy="710.1" r="1"/>
	<circle class="st2" cx="526.7" cy="710.1" r="1"/>
	<circle class="st2" cx="534.7" cy="710.1" r="1"/>
	<circle class="st2" cx="542.7" cy="710.1" r="1"/>
	<circle class="st2" cx="550.7" cy="710.1" r="1"/>
	<circle class="st2" cx="558.7" cy="710.1" r="1"/>
	<circle class="st2" cx="566.7" cy="710.1" r="1"/>
	<circle class="st2" cx="574.7" cy="710.1" r="1"/>
	<circle class="st2" cx="582.7" cy="710.1" r="1"/>
	<circle class="st2" cx="590.7" cy="710.1" r="1"/>
	<circle class="st2" cx="598.7" cy="710.1" r="1"/>
	<circle class="st2" cx="606.7" cy="710.1" r="1"/>
	<circle class="st2" cx="614.7" cy="710.1" r="1"/>
	<circle class="st2" cx="622.7" cy="710.1" r="1"/>
	<circle class="st2" cx="630.7" cy="710.1" r="1"/>
	<circle class="st2" cx="638.7" cy="710.1" r="1"/>
	<circle class="st2" cx="646.7" cy="710.1" r="1"/>
	<circle class="st2" cx="654.7" cy="710.1" r="1"/>
	<circle class="st2" cx="662.7" cy="710.1" r="1"/>
	<circle class="st2" cx="670.7" cy="710.1" r="1"/>
	<circle class="st2" cx="678.7" cy="710.1" r="1"/>
	<circle class="st2" cx="686.7" cy="710.1" r="1"/>
	<circle class="st2" cx="694.7" cy="710.1" r="1"/>
	<circle class="st2" cx="702.7" cy="710.1" r="1"/>
	<circle class="st2" cx="710.7" cy="710.1" r="1"/>
	<circle class="st2" cx="718.7" cy="710.1" r="1"/>
	<circle class="st2" cx="726.7" cy="710.1" r="1"/>
	<circle class="st2" cx="734.7" cy="710.1" r="1"/>
	<circle class="st2" cx="742.7" cy="710.1" r="1"/>
	<circle class="st2" cx="750.7" cy="710.1" r="1"/>
	<circle class="st2" cx="758.7" cy="710.1" r="1"/>
	<circle class="st2" cx="766.7" cy="710.1" r="1"/>
	<circle class="st2" cx="774.7" cy="710.1" r="1"/>
	<circle class="st2" cx="782.7" cy="710.1" r="1"/>
	<circle class="st2" cx="790.7" cy="710.1" r="1"/>
	<circle class="st2" cx="798.7" cy="710.1" r="1"/>
	<circle class="st2" cx="806.7" cy="710.1" r="1"/>
	<circle class="st2" cx="814.7" cy="710.1" r="1"/>
	<circle class="st2" cx="822.7" cy="710.1" r="1"/>
	<circle class="st2" cx="830.7" cy="710.1" r="1"/>
	<circle class="st2" cx="838.7" cy="710.1" r="1"/>
	<circle class="st2" cx="846.7" cy="710.1" r="1"/>
	<circle class="st2" cx="854.7" cy="710.1" r="1"/>
	<circle class="st2" cx="862.7" cy="710.1" r="1"/>
	<circle class="st2" cx="870.7" cy="710.1" r="1"/>
	<circle class="st2" cx="878.7" cy="710.1" r="1"/>
	<circle class="st2" cx="886.7" cy="710.1" r="1"/>
	<circle class="st2" cx="894.7" cy="710.1" r="1"/>
	<circle class="st2" cx="902.7" cy="710.1" r="1"/>
	<circle class="st2" cx="910.7" cy="710.1" r="1"/>
	<circle class="st2" cx="918.7" cy="710.1" r="1"/>
	<circle class="st2" cx="926.7" cy="710.1" r="1"/>
	<circle class="st2" cx="934.7" cy="710.1" r="1"/>
	<circle class="st2" cx="942.7" cy="710.1" r="1"/>
	<circle class="st2" cx="126.7" cy="635.1" r="1"/>
	<circle class="st2" cx="134.7" cy="635.1" r="1"/>
	<circle class="st2" cx="142.7" cy="635.1" r="1"/>
	<circle class="st2" cx="150.7" cy="635.1" r="1"/>
	<circle class="st2" cx="158.7" cy="635.1" r="1"/>
	<circle class="st2" cx="166.7" cy="635.1" r="1"/>
	<circle class="st2" cx="174.7" cy="635.1" r="1"/>
	<circle class="st2" cx="182.7" cy="635.1" r="1"/>
	<circle class="st2" cx="190.7" cy="635.1" r="1"/>
	<circle class="st2" cx="198.7" cy="635.1" r="1"/>
	<circle class="st2" cx="206.7" cy="635.1" r="1"/>
	<circle class="st2" cx="214.7" cy="635.1" r="1"/>
	<circle class="st2" cx="222.7" cy="635.1" r="1"/>
	<circle class="st2" cx="230.7" cy="635.1" r="1"/>
	<circle class="st2" cx="238.7" cy="635.1" r="1"/>
	<circle class="st2" cx="246.7" cy="635.1" r="1"/>
	<circle class="st2" cx="254.7" cy="635.1" r="1"/>
	<circle class="st2" cx="262.7" cy="635.1" r="1"/>
	<circle class="st2" cx="270.7" cy="635.1" r="1"/>
	<circle class="st2" cx="278.7" cy="635.1" r="1"/>
	<circle class="st2" cx="286.7" cy="635.1" r="1"/>
	<circle class="st2" cx="294.7" cy="635.1" r="1"/>
	<circle class="st2" cx="302.7" cy="635.1" r="1"/>
	<circle class="st2" cx="310.7" cy="635.1" r="1"/>
	<circle class="st2" cx="318.7" cy="635.1" r="1"/>
	<circle class="st2" cx="326.7" cy="635.1" r="1"/>
	<circle class="st2" cx="334.7" cy="635.1" r="1"/>
	<circle class="st2" cx="342.7" cy="635.1" r="1"/>
	<circle class="st2" cx="350.7" cy="635.1" r="1"/>
	<circle class="st2" cx="358.7" cy="635.1" r="1"/>
	<circle class="st2" cx="366.7" cy="635.1" r="1"/>
	<circle class="st2" cx="374.7" cy="635.1" r="1"/>
	<circle class="st2" cx="382.7" cy="635.1" r="1"/>
	<circle class="st2" cx="390.7" cy="635.1" r="1"/>
	<circle class="st2" cx="398.7" cy="635.1" r="1"/>
	<circle class="st2" cx="406.7" cy="635.1" r="1"/>
	<circle class="st2" cx="414.7" cy="635.1" r="1"/>
	<circle class="st2" cx="422.7" cy="635.1" r="1"/>
	<circle class="st2" cx="430.7" cy="635.1" r="1"/>
	<circle class="st2" cx="438.7" cy="635.1" r="1"/>
	<circle class="st2" cx="446.7" cy="635.1" r="1"/>
	<circle class="st2" cx="454.7" cy="635.1" r="1"/>
	<circle class="st2" cx="462.7" cy="635.1" r="1"/>
	<circle class="st2" cx="470.7" cy="635.1" r="1"/>
	<circle class="st2" cx="478.7" cy="635.1" r="1"/>
	<circle class="st2" cx="486.7" cy="635.1" r="1"/>
	<circle class="st2" cx="494.7" cy="635.1" r="1"/>
	<circle class="st2" cx="502.7" cy="635.1" r="1"/>
	<circle class="st2" cx="510.7" cy="635.1" r="1"/>
	<circle class="st2" cx="518.7" cy="635.1" r="1"/>
	<circle class="st2" cx="526.7" cy="635.1" r="1"/>
	<circle class="st2" cx="534.7" cy="635.1" r="1"/>
	<circle class="st2" cx="542.7" cy="635.1" r="1"/>
	<circle class="st2" cx="550.7" cy="635.1" r="1"/>
	<circle class="st2" cx="558.7" cy="635.1" r="1"/>
	<circle class="st2" cx="566.7" cy="635.1" r="1"/>
	<circle class="st2" cx="574.7" cy="635.1" r="1"/>
	<circle class="st2" cx="582.7" cy="635.1" r="1"/>
	<circle class="st2" cx="590.7" cy="635.1" r="1"/>
	<circle class="st2" cx="598.7" cy="635.1" r="1"/>
	<circle class="st2" cx="606.7" cy="635.1" r="1"/>
	<circle class="st2" cx="614.7" cy="635.1" r="1"/>
	<circle class="st2" cx="622.7" cy="635.1" r="1"/>
	<circle class="st2" cx="630.7" cy="635.1" r="1"/>
	<circle class="st2" cx="638.7" cy="635.1" r="1"/>
	<circle class="st2" cx="646.7" cy="635.1" r="1"/>
	<circle class="st2" cx="654.7" cy="635.1" r="1"/>
	<circle class="st2" cx="662.7" cy="635.1" r="1"/>
	<circle class="st2" cx="670.7" cy="635.1" r="1"/>
	<circle class="st2" cx="678.7" cy="635.1" r="1"/>
	<circle class="st2" cx="686.7" cy="635.1" r="1"/>
	<circle class="st2" cx="694.7" cy="635.1" r="1"/>
	<circle class="st2" cx="702.7" cy="635.1" r="1"/>
	<circle class="st2" cx="710.7" cy="635.1" r="1"/>
	<circle class="st2" cx="718.7" cy="635.1" r="1"/>
	<circle class="st2" cx="726.7" cy="635.1" r="1"/>
	<circle class="st2" cx="734.7" cy="635.1" r="1"/>
	<circle class="st2" cx="742.7" cy="635.1" r="1"/>
	<circle class="st2" cx="750.7" cy="635.1" r="1"/>
	<circle class="st2" cx="758.7" cy="635.1" r="1"/>
	<circle class="st2" cx="766.7" cy="635.1" r="1"/>
	<circle class="st2" cx="774.7" cy="635.1" r="1"/>
	<circle class="st2" cx="782.7" cy="635.1" r="1"/>
	<circle class="st2" cx="790.7" cy="635.1" r="1"/>
	<circle class="st2" cx="798.7" cy="635.1" r="1"/>
	<circle class="st2" cx="806.7" cy="635.1" r="1"/>
	<circle class="st2" cx="814.7" cy="635.1" r="1"/>
	<circle class="st2" cx="822.7" cy="635.1" r="1"/>
	<circle class="st2" cx="830.7" cy="635.1" r="1"/>
	<circle class="st2" cx="838.7" cy="635.1" r="1"/>
	<circle class="st2" cx="846.7" cy="635.1" r="1"/>
	<circle class="st2" cx="854.7" cy="635.1" r="1"/>
	<circle class="st2" cx="862.7" cy="635.1" r="1"/>
	<circle class="st2" cx="870.7" cy="635.1" r="1"/>
	<circle class="st2" cx="878.7" cy="635.1" r="1"/>
	<circle class="st2" cx="886.7" cy="635.1" r="1"/>
	<circle class="st2" cx="894.7" cy="635.1" r="1"/>
	<circle class="st2" cx="902.7" cy="635.1" r="1"/>
	<circle class="st2" cx="910.7" cy="635.1" r="1"/>
	<circle class="st2" cx="918.7" cy="635.1" r="1"/>
	<circle class="st2" cx="926.7" cy="635.1" r="1"/>
	<circle class="st2" cx="934.7" cy="635.1" r="1"/>
	<circle class="st2" cx="942.7" cy="635.1" r="1"/>
	<circle class="st2" cx="126.7" cy="560.1" r="1"/>
	<circle class="st2" cx="134.7" cy="560.1" r="1"/>
	<circle class="st2" cx="142.7" cy="560.1" r="1"/>
	<circle class="st2" cx="150.7" cy="560.1" r="1"/>
	<circle class="st2" cx="158.7" cy="560.1" r="1"/>
	<circle class="st2" cx="166.7" cy="560.1" r="1"/>
	<circle class="st2" cx="174.7" cy="560.1" r="1"/>
	<circle class="st2" cx="182.7" cy="560.1" r="1"/>
	<circle class="st2" cx="190.7" cy="560.1" r="1"/>
	<circle class="st2" cx="198.7" cy="560.1" r="1"/>
	<circle class="st2" cx="206.7" cy="560.1" r="1"/>
	<circle class="st2" cx="214.7" cy="560.1" r="1"/>
	<circle class="st2" cx="222.7" cy="560.1" r="1"/>
	<circle class="st2" cx="230.7" cy="560.1" r="1"/>
	<circle class="st2" cx="238.7" cy="560.1" r="1"/>
	<circle class="st2" cx="246.7" cy="560.1" r="1"/>
	<circle class="st2" cx="254.7" cy="560.1" r="1"/>
	<circle class="st2" cx="262.7" cy="560.1" r="1"/>
	<circle class="st2" cx="270.7" cy="560.1" r="1"/>
	<circle class="st2" cx="278.7" cy="560.1" r="1"/>
	<circle class="st2" cx="286.7" cy="560.1" r="1"/>
	<circle class="st2" cx="294.7" cy="560.1" r="1"/>
	<circle class="st2" cx="302.7" cy="560.1" r="1"/>
	<circle class="st2" cx="310.7" cy="560.1" r="1"/>
	<circle class="st2" cx="318.7" cy="560.1" r="1"/>
	<circle class="st2" cx="326.7" cy="560.1" r="1"/>
	<circle class="st2" cx="334.7" cy="560.1" r="1"/>
	<circle class="st2" cx="342.7" cy="560.1" r="1"/>
	<circle class="st2" cx="350.7" cy="560.1" r="1"/>
	<circle class="st2" cx="358.7" cy="560.1" r="1"/>
	<circle class="st2" cx="366.7" cy="560.1" r="1"/>
	<circle class="st2" cx="374.7" cy="560.1" r="1"/>
	<circle class="st2" cx="382.7" cy="560.1" r="1"/>
	<circle class="st2" cx="390.7" cy="560.1" r="1"/>
	<circle class="st2" cx="398.7" cy="560.1" r="1"/>
	<circle class="st2" cx="406.7" cy="560.1" r="1"/>
	<circle class="st2" cx="414.7" cy="560.1" r="1"/>
	<circle class="st2" cx="422.7" cy="560.1" r="1"/>
	<circle class="st2" cx="430.7" cy="560.1" r="1"/>
	<circle class="st2" cx="438.7" cy="560.1" r="1"/>
	<circle class="st2" cx="446.7" cy="560.1" r="1"/>
	<circle class="st2" cx="454.7" cy="560.1" r="1"/>
	<circle class="st2" cx="462.7" cy="560.1" r="1"/>
	<circle class="st2" cx="470.7" cy="560.1" r="1"/>
	<circle class="st2" cx="478.7" cy="560.1" r="1"/>
	<circle class="st2" cx="486.7" cy="560.1" r="1"/>
	<circle class="st2" cx="494.7" cy="560.1" r="1"/>
	<circle class="st2" cx="502.7" cy="560.1" r="1"/>
	<circle class="st2" cx="510.7" cy="560.1" r="1"/>
	<circle class="st2" cx="518.7" cy="560.1" r="1"/>
	<circle class="st2" cx="526.7" cy="560.1" r="1"/>
	<circle class="st2" cx="534.7" cy="560.1" r="1"/>
	<circle class="st2" cx="542.7" cy="560.1" r="1"/>
	<circle class="st2" cx="550.7" cy="560.1" r="1"/>
	<circle class="st2" cx="558.7" cy="560.1" r="1"/>
	<circle class="st2" cx="566.7" cy="560.1" r="1"/>
	<circle class="st2" cx="574.7" cy="560.1" r="1"/>
	<circle class="st2" cx="582.7" cy="560.1" r="1"/>
	<circle class="st2" cx="590.7" cy="560.1" r="1"/>
	<circle class="st2" cx="598.7" cy="560.1" r="1"/>
	<circle class="st2" cx="606.7" cy="560.1" r="1"/>
	<circle class="st2" cx="614.7" cy="560.1" r="1"/>
	<circle class="st2" cx="622.7" cy="560.1" r="1"/>
	<circle class="st2" cx="630.7" cy="560.1" r="1"/>
	<circle class="st2" cx="638.7" cy="560.1" r="1"/>
	<circle class="st2" cx="646.7" cy="560.1" r="1"/>
	<circle class="st2" cx="654.7" cy="560.1" r="1"/>
	<circle class="st2" cx="662.7" cy="560.1" r="1"/>
	<circle class="st2" cx="670.7" cy="560.1" r="1"/>
	<circle class="st2" cx="678.7" cy="560.1" r="1"/>
	<circle class="st2" cx="686.7" cy="560.1" r="1"/>
	<circle class="st2" cx="694.7" cy="560.1" r="1"/>
	<circle class="st2" cx="702.7" cy="560.1" r="1"/>
	<circle class="st2" cx="710.7" cy="560.1" r="1"/>
	<circle class="st2" cx="718.7" cy="560.1" r="1"/>
	<circle class="st2" cx="726.7" cy="560.1" r="1"/>
	<circle class="st2" cx="734.7" cy="560.1" r="1"/>
	<circle class="st2" cx="742.7" cy="560.1" r="1"/>
	<circle class="st2" cx="750.7" cy="560.1" r="1"/>
	<circle class="st2" cx="758.7" cy="560.1" r="1"/>
	<circle class="st2" cx="766.7" cy="560.1" r="1"/>
	<circle class="st2" cx="774.7" cy="560.1" r="1"/>
	<circle class="st2" cx="782.7" cy="560.1" r="1"/>
	<circle class="st2" cx="790.7" cy="560.1" r="1"/>
	<circle class="st2" cx="798.7" cy="560.1" r="1"/>
	<circle class="st2" cx="806.7" cy="560.1" r="1"/>
	<circle class="st2" cx="814.7" cy="560.1" r="1"/>
	<circle class="st2" cx="822.7" cy="560.1" r="1"/>
	<circle class="st2" cx="830.7" cy="560.1" r="1"/>
	<circle class="st2" cx="838.7" cy="560.1" r="1"/>
	<circle class="st2" cx="846.7" cy="560.1" r="1"/>
	<circle class="st2" cx="854.7" cy="560.1" r="1"/>
	<circle class="st2" cx="862.7" cy="560.1" r="1"/>
	<circle class="st2" cx="870.7" cy="560.1" r="1"/>
	<circle class="st2" cx="878.7" cy="560.1" r="1"/>
	<circle class="st2" cx="886.7" cy="560.1" r="1"/>
	<circle class="st2" cx="894.7" cy="560.1" r="1"/>
	<circle class="st2" cx="902.7" cy="560.1" r="1"/>
	<circle class="st2" cx="910.7" cy="560.1" r="1"/>
	<circle class="st2" cx="918.7" cy="560.1" r="1"/>
	<circle class="st2" cx="926.7" cy="560.1" r="1"/>
	<circle class="st2" cx="934.7" cy="560.1" r="1"/>
	<circle class="st2" cx="942.7" cy="560.1" r="1"/>
	<circle class="st2" cx="126.7" cy="485.1" r="1"/>
	<circle class="st2" cx="134.7" cy="485.1" r="1"/>
	<circle class="st2" cx="142.7" cy="485.1" r="1"/>
	<circle class="st2" cx="150.7" cy="485.1" r="1"/>
	<circle class="st2" cx="158.7" cy="485.1" r="1"/>
	<circle class="st2" cx="166.7" cy="485.1" r="1"/>
	<circle class="st2" cx="174.7" cy="485.1" r="1"/>
	<circle class="st2" cx="182.7" cy="485.1" r="1"/>
	<circle class="st2" cx="190.7" cy="485.1" r="1"/>
	<circle class="st2" cx="198.7" cy="485.1" r="1"/>
	<circle class="st2" cx="206.7" cy="485.1" r="1"/>
	<circle class="st2" cx="214.7" cy="485.1" r="1"/>
	<circle class="st2" cx="222.7" cy="485.1" r="1"/>
	<circle class="st2" cx="230.7" cy="485.1" r="1"/>
	<circle class="st2" cx="238.7" cy="485.1" r="1"/>
	<circle class="st2" cx="246.7" cy="485.1" r="1"/>
	<circle class="st2" cx="254.7" cy="485.1" r="1"/>
	<circle class="st2" cx="262.7" cy="485.1" r="1"/>
	<circle class="st2" cx="270.7" cy="485.1" r="1"/>
	<circle class="st2" cx="278.7" cy="485.1" r="1"/>
	<circle class="st2" cx="286.7" cy="485.1" r="1"/>
	<circle class="st2" cx="294.7" cy="485.1" r="1"/>
	<circle class="st2" cx="302.7" cy="485.1" r="1"/>
	<circle class="st2" cx="310.7" cy="485.1" r="1"/>
	<circle class="st2" cx="318.7" cy="485.1" r="1"/>
	<circle class="st2" cx="326.7" cy="485.1" r="1"/>
	<circle class="st2" cx="334.7" cy="485.1" r="1"/>
	<circle class="st2" cx="342.7" cy="485.1" r="1"/>
	<circle class="st2" cx="350.7" cy="485.1" r="1"/>
	<circle class="st2" cx="358.7" cy="485.1" r="1"/>
	<circle class="st2" cx="366.7" cy="485.1" r="1"/>
	<circle class="st2" cx="374.7" cy="485.1" r="1"/>
	<circle class="st2" cx="382.7" cy="485.1" r="1"/>
	<circle class="st2" cx="390.7" cy="485.1" r="1"/>
	<circle class="st2" cx="398.7" cy="485.1" r="1"/>
	<circle class="st2" cx="406.7" cy="485.1" r="1"/>
	<circle class="st2" cx="414.7" cy="485.1" r="1"/>
	<circle class="st2" cx="422.7" cy="485.1" r="1"/>
	<circle class="st2" cx="430.7" cy="485.1" r="1"/>
	<circle class="st2" cx="438.7" cy="485.1" r="1"/>
	<circle class="st2" cx="446.7" cy="485.1" r="1"/>
	<circle class="st2" cx="454.7" cy="485.1" r="1"/>
	<circle class="st2" cx="462.7" cy="485.1" r="1"/>
	<circle class="st2" cx="470.7" cy="485.1" r="1"/>
	<circle class="st2" cx="478.7" cy="485.1" r="1"/>
	<circle class="st2" cx="486.7" cy="485.1" r="1"/>
	<circle class="st2" cx="494.7" cy="485.1" r="1"/>
	<circle class="st2" cx="502.7" cy="485.1" r="1"/>
	<circle class="st2" cx="510.7" cy="485.1" r="1"/>
	<circle class="st2" cx="518.7" cy="485.1" r="1"/>
	<circle class="st2" cx="526.7" cy="485.1" r="1"/>
	<circle class="st2" cx="534.7" cy="485.1" r="1"/>
	<circle class="st2" cx="542.7" cy="485.1" r="1"/>
	<circle class="st2" cx="550.7" cy="485.1" r="1"/>
	<circle class="st2" cx="558.7" cy="485.1" r="1"/>
	<circle class="st2" cx="566.7" cy="485.1" r="1"/>
	<circle class="st2" cx="574.7" cy="485.1" r="1"/>
	<circle class="st2" cx="582.7" cy="485.1" r="1"/>
	<circle class="st2" cx="590.7" cy="485.1" r="1"/>
	<circle class="st2" cx="598.7" cy="485.1" r="1"/>
	<circle class="st2" cx="606.7" cy="485.1" r="1"/>
	<circle class="st2" cx="614.7" cy="485.1" r="1"/>
	<circle class="st2" cx="622.7" cy="485.1" r="1"/>
	<circle class="st2" cx="630.7" cy="485.1" r="1"/>
	<circle class="st2" cx="638.7" cy="485.1" r="1"/>
	<circle class="st2" cx="646.7" cy="485.1" r="1"/>
	<circle class="st2" cx="654.7" cy="485.1" r="1"/>
	<circle class="st2" cx="662.7" cy="485.1" r="1"/>
	<circle class="st2" cx="670.7" cy="485.1" r="1"/>
	<circle class="st2" cx="678.7" cy="485.1" r="1"/>
	<circle class="st2" cx="686.7" cy="485.1" r="1"/>
	<circle class="st2" cx="694.7" cy="485.1" r="1"/>
	<circle class="st2" cx="702.7" cy="485.1" r="1"/>
	<circle class="st2" cx="710.7" cy="485.1" r="1"/>
	<circle class="st2" cx="718.7" cy="485.1" r="1"/>
	<circle class="st2" cx="726.7" cy="485.1" r="1"/>
	<circle class="st2" cx="734.7" cy="485.1" r="1"/>
	<circle class="st2" cx="742.7" cy="485.1" r="1"/>
	<circle class="st2" cx="750.7" cy="485.1" r="1"/>
	<circle class="st2" cx="758.7" cy="485.1" r="1"/>
	<circle class="st2" cx="766.7" cy="485.1" r="1"/>
	<circle class="st2" cx="774.7" cy="485.1" r="1"/>
	<circle class="st2" cx="782.7" cy="485.1" r="1"/>
	<circle class="st2" cx="790.7" cy="485.1" r="1"/>
	<circle class="st2" cx="798.7" cy="485.1" r="1"/>
	<circle class="st2" cx="806.7" cy="485.1" r="1"/>
	<circle class="st2" cx="814.7" cy="485.1" r="1"/>
	<circle class="st2" cx="822.7" cy="485.1" r="1"/>
	<circle class="st2" cx="830.7" cy="485.1" r="1"/>
	<circle class="st2" cx="838.7" cy="485.1" r="1"/>
	<circle class="st2" cx="846.7" cy="485.1" r="1"/>
	<circle class="st2" cx="854.7" cy="485.1" r="1"/>
	<circle class="st2" cx="862.7" cy="485.1" r="1"/>
	<circle class="st2" cx="870.7" cy="485.1" r="1"/>
	<circle class="st2" cx="878.7" cy="485.1" r="1"/>
	<circle class="st2" cx="886.7" cy="485.1" r="1"/>
	<circle class="st2" cx="894.7" cy="485.1" r="1"/>
	<circle class="st2" cx="902.7" cy="485.1" r="1"/>
	<circle class="st2" cx="910.7" cy="485.1" r="1"/>
	<circle class="st2" cx="918.7" cy="485.1" r="1"/>
	<circle class="st2" cx="926.7" cy="485.1" r="1"/>
	<circle class="st2" cx="934.7" cy="485.1" r="1"/>
	<circle class="st2" cx="942.7" cy="485.1" r="1"/>
	<circle class="st2" cx="126.7" cy="410.1" r="1"/>
	<circle class="st2" cx="134.7" cy="410.1" r="1"/>
	<circle class="st2" cx="142.7" cy="410.1" r="1"/>
	<circle class="st2" cx="150.7" cy="410.1" r="1"/>
	<circle class="st2" cx="158.7" cy="410.1" r="1"/>
	<circle class="st2" cx="166.7" cy="410.1" r="1"/>
	<circle class="st2" cx="174.7" cy="410.1" r="1"/>
	<circle class="st2" cx="182.7" cy="410.1" r="1"/>
	<circle class="st2" cx="190.7" cy="410.1" r="1"/>
	<circle class="st2" cx="198.7" cy="410.1" r="1"/>
	<circle class="st2" cx="206.7" cy="410.1" r="1"/>
	<circle class="st2" cx="214.7" cy="410.1" r="1"/>
	<circle class="st2" cx="222.7" cy="410.1" r="1"/>
	<circle class="st2" cx="230.7" cy="410.1" r="1"/>
	<circle class="st2" cx="238.7" cy="410.1" r="1"/>
	<circle class="st2" cx="246.7" cy="410.1" r="1"/>
	<circle class="st2" cx="254.7" cy="410.1" r="1"/>
	<circle class="st2" cx="262.7" cy="410.1" r="1"/>
	<circle class="st2" cx="270.7" cy="410.1" r="1"/>
	<circle class="st2" cx="278.7" cy="410.1" r="1"/>
	<circle class="st2" cx="286.7" cy="410.1" r="1"/>
	<circle class="st2" cx="294.7" cy="410.1" r="1"/>
	<circle class="st2" cx="302.7" cy="410.1" r="1"/>
	<circle class="st2" cx="310.7" cy="410.1" r="1"/>
	<circle class="st2" cx="318.7" cy="410.1" r="1"/>
	<circle class="st2" cx="326.7" cy="410.1" r="1"/>
	<circle class="st2" cx="334.7" cy="410.1" r="1"/>
	<circle class="st2" cx="342.7" cy="410.1" r="1"/>
	<circle class="st2" cx="350.7" cy="410.1" r="1"/>
	<circle class="st2" cx="358.7" cy="410.1" r="1"/>
	<circle class="st2" cx="366.7" cy="410.1" r="1"/>
	<circle class="st2" cx="374.7" cy="410.1" r="1"/>
	<circle class="st2" cx="382.7" cy="410.1" r="1"/>
	<circle class="st2" cx="390.7" cy="410.1" r="1"/>
	<circle class="st2" cx="398.7" cy="410.1" r="1"/>
	<circle class="st2" cx="406.7" cy="410.1" r="1"/>
	<circle class="st2" cx="414.7" cy="410.1" r="1"/>
	<circle class="st2" cx="422.7" cy="410.1" r="1"/>
	<circle class="st2" cx="430.7" cy="410.1" r="1"/>
	<circle class="st2" cx="438.7" cy="410.1" r="1"/>
	<circle class="st2" cx="446.7" cy="410.1" r="1"/>
	<circle class="st2" cx="454.7" cy="410.1" r="1"/>
	<circle class="st2" cx="462.7" cy="410.1" r="1"/>
	<circle class="st2" cx="470.7" cy="410.1" r="1"/>
	<circle class="st2" cx="478.7" cy="410.1" r="1"/>
	<circle class="st2" cx="486.7" cy="410.1" r="1"/>
	<circle class="st2" cx="494.7" cy="410.1" r="1"/>
	<circle class="st2" cx="502.7" cy="410.1" r="1"/>
	<circle class="st2" cx="510.7" cy="410.1" r="1"/>
	<circle class="st2" cx="518.7" cy="410.1" r="1"/>
	<circle class="st2" cx="526.7" cy="410.1" r="1"/>
	<circle class="st2" cx="534.7" cy="410.1" r="1"/>
	<circle class="st2" cx="542.7" cy="410.1" r="1"/>
	<circle class="st2" cx="550.7" cy="410.1" r="1"/>
	<circle class="st2" cx="558.7" cy="410.1" r="1"/>
	<circle class="st2" cx="566.7" cy="410.1" r="1"/>
	<circle class="st2" cx="574.7" cy="410.1" r="1"/>
	<circle class="st2" cx="582.7" cy="410.1" r="1"/>
	<circle class="st2" cx="590.7" cy="410.1" r="1"/>
	<circle class="st2" cx="598.7" cy="410.1" r="1"/>
	<circle class="st2" cx="606.7" cy="410.1" r="1"/>
	<circle class="st2" cx="614.7" cy="410.1" r="1"/>
	<circle class="st2" cx="622.7" cy="410.1" r="1"/>
	<circle class="st2" cx="630.7" cy="410.1" r="1"/>
	<circle class="st2" cx="638.7" cy="410.1" r="1"/>
	<circle class="st2" cx="646.7" cy="410.1" r="1"/>
	<circle class="st2" cx="654.7" cy="410.1" r="1"/>
	<circle class="st2" cx="662.7" cy="410.1" r="1"/>
	<circle class="st2" cx="670.7" cy="410.1" r="1"/>
	<circle class="st2" cx="678.7" cy="410.1" r="1"/>
	<circle class="st2" cx="686.7" cy="410.1" r="1"/>
	<circle class="st2" cx="694.7" cy="410.1" r="1"/>
	<circle class="st2" cx="702.7" cy="410.1" r="1"/>
	<circle class="st2" cx="710.7" cy="410.1" r="1"/>
	<circle class="st2" cx="718.7" cy="410.1" r="1"/>
	<circle class="st2" cx="726.7" cy="410.1" r="1"/>
	<circle class="st2" cx="734.7" cy="410.1" r="1"/>
	<circle class="st2" cx="742.7" cy="410.1" r="1"/>
	<circle class="st2" cx="750.7" cy="410.1" r="1"/>
	<circle class="st2" cx="758.7" cy="410.1" r="1"/>
	<circle class="st2" cx="766.7" cy="410.1" r="1"/>
	<circle class="st2" cx="774.7" cy="410.1" r="1"/>
	<circle class="st2" cx="782.7" cy="410.1" r="1"/>
	<circle class="st2" cx="790.7" cy="410.1" r="1"/>
	<circle class="st2" cx="798.7" cy="410.1" r="1"/>
	<circle class="st2" cx="806.7" cy="410.1" r="1"/>
	<circle class="st2" cx="814.7" cy="410.1" r="1"/>
	<circle class="st2" cx="822.7" cy="410.1" r="1"/>
	<circle class="st2" cx="830.7" cy="410.1" r="1"/>
	<circle class="st2" cx="838.7" cy="410.1" r="1"/>
	<circle class="st2" cx="846.7" cy="410.1" r="1"/>
	<circle class="st2" cx="854.7" cy="410.1" r="1"/>
	<circle class="st2" cx="862.7" cy="410.1" r="1"/>
	<circle class="st2" cx="870.7" cy="410.1" r="1"/>
	<circle class="st2" cx="878.7" cy="410.1" r="1"/>
	<circle class="st2" cx="886.7" cy="410.1" r="1"/>
	<circle class="st2" cx="894.7" cy="410.1" r="1"/>
	<circle class="st2" cx="902.7" cy="410.1" r="1"/>
	<circle class="st2" cx="910.7" cy="410.1" r="1"/>
	<circle class="st2" cx="918.7" cy="410.1" r="1"/>
	<circle class="st2" cx="926.7" cy="410.1" r="1"/>
	<circle class="st2" cx="934.7" cy="410.1" r="1"/>
	<circle class="st2" cx="942.7" cy="410.1" r="1"/>
	<circle class="st2" cx="126.7" cy="335.1" r="1"/>
	<circle class="st2" cx="134.7" cy="335.1" r="1"/>
	<circle class="st2" cx="142.7" cy="335.1" r="1"/>
	<circle class="st2" cx="150.7" cy="335.1" r="1"/>
	<circle class="st2" cx="158.7" cy="335.1" r="1"/>
	<circle class="st2" cx="166.7" cy="335.1" r="1"/>
	<circle class="st2" cx="174.7" cy="335.1" r="1"/>
	<circle class="st2" cx="182.7" cy="335.1" r="1"/>
	<circle class="st2" cx="190.7" cy="335.1" r="1"/>
	<circle class="st2" cx="198.7" cy="335.1" r="1"/>
	<circle class="st2" cx="206.7" cy="335.1" r="1"/>
	<circle class="st2" cx="214.7" cy="335.1" r="1"/>
	<circle class="st2" cx="222.7" cy="335.1" r="1"/>
	<circle class="st2" cx="230.7" cy="335.1" r="1"/>
	<circle class="st2" cx="238.7" cy="335.1" r="1"/>
	<circle class="st2" cx="246.7" cy="335.1" r="1"/>
	<circle class="st2" cx="254.7" cy="335.1" r="1"/>
	<circle class="st2" cx="262.7" cy="335.1" r="1"/>
	<circle class="st2" cx="270.7" cy="335.1" r="1"/>
	<circle class="st2" cx="278.7" cy="335.1" r="1"/>
	<circle class="st2" cx="286.7" cy="335.1" r="1"/>
	<circle class="st2" cx="294.7" cy="335.1" r="1"/>
	<circle class="st2" cx="302.7" cy="335.1" r="1"/>
	<circle class="st2" cx="310.7" cy="335.1" r="1"/>
	<circle class="st2" cx="318.7" cy="335.1" r="1"/>
	<circle class="st2" cx="326.7" cy="335.1" r="1"/>
	<circle class="st2" cx="334.7" cy="335.1" r="1"/>
	<circle class="st2" cx="342.7" cy="335.1" r="1"/>
	<circle class="st2" cx="350.7" cy="335.1" r="1"/>
	<circle class="st2" cx="358.7" cy="335.1" r="1"/>
	<circle class="st2" cx="366.7" cy="335.1" r="1"/>
	<circle class="st2" cx="374.7" cy="335.1" r="1"/>
	<circle class="st2" cx="382.7" cy="335.1" r="1"/>
	<circle class="st2" cx="390.7" cy="335.1" r="1"/>
	<circle class="st2" cx="398.7" cy="335.1" r="1"/>
	<circle class="st2" cx="406.7" cy="335.1" r="1"/>
	<circle class="st2" cx="414.7" cy="335.1" r="1"/>
	<circle class="st2" cx="422.7" cy="335.1" r="1"/>
	<circle class="st2" cx="430.7" cy="335.1" r="1"/>
	<circle class="st2" cx="438.7" cy="335.1" r="1"/>
	<circle class="st2" cx="446.7" cy="335.1" r="1"/>
	<circle class="st2" cx="454.7" cy="335.1" r="1"/>
	<circle class="st2" cx="462.7" cy="335.1" r="1"/>
	<circle class="st2" cx="470.7" cy="335.1" r="1"/>
	<circle class="st2" cx="478.7" cy="335.1" r="1"/>
	<circle class="st2" cx="486.7" cy="335.1" r="1"/>
	<circle class="st2" cx="494.7" cy="335.1" r="1"/>
	<circle class="st2" cx="502.7" cy="335.1" r="1"/>
	<circle class="st2" cx="510.7" cy="335.1" r="1"/>
	<circle class="st2" cx="518.7" cy="335.1" r="1"/>
	<circle class="st2" cx="526.7" cy="335.1" r="1"/>
	<circle class="st2" cx="534.7" cy="335.1" r="1"/>
	<circle class="st2" cx="542.7" cy="335.1" r="1"/>
	<circle class="st2" cx="550.7" cy="335.1" r="1"/>
	<circle class="st2" cx="558.7" cy="335.1" r="1"/>
	<circle class="st2" cx="566.7" cy="335.1" r="1"/>
	<circle class="st2" cx="574.7" cy="335.1" r="1"/>
	<circle class="st2" cx="582.7" cy="335.1" r="1"/>
	<circle class="st2" cx="590.7" cy="335.1" r="1"/>
	<circle class="st2" cx="598.7" cy="335.1" r="1"/>
	<circle class="st2" cx="606.7" cy="335.1" r="1"/>
	<circle class="st2" cx="614.7" cy="335.1" r="1"/>
	<circle class="st2" cx="622.7" cy="335.1" r="1"/>
	<circle class="st2" cx="630.7" cy="335.1" r="1"/>
	<circle class="st2" cx="638.7" cy="335.1" r="1"/>
	<circle class="st2" cx="646.7" cy="335.1" r="1"/>
	<circle class="st2" cx="654.7" cy="335.1" r="1"/>
	<circle class="st2" cx="662.7" cy="335.1" r="1"/>
	<circle class="st2" cx="670.7" cy="335.1" r="1"/>
	<circle class="st2" cx="678.7" cy="335.1" r="1"/>
	<circle class="st2" cx="686.7" cy="335.1" r="1"/>
	<circle class="st2" cx="694.7" cy="335.1" r="1"/>
	<circle class="st2" cx="702.7" cy="335.1" r="1"/>
	<circle class="st2" cx="710.7" cy="335.1" r="1"/>
	<circle class="st2" cx="718.7" cy="335.1" r="1"/>
	<circle class="st2" cx="726.7" cy="335.1" r="1"/>
	<circle class="st2" cx="734.7" cy="335.1" r="1"/>
	<circle class="st2" cx="742.7" cy="335.1" r="1"/>
	<circle class="st2" cx="750.7" cy="335.1" r="1"/>
	<circle class="st2" cx="758.7" cy="335.1" r="1"/>
	<circle class="st2" cx="766.7" cy="335.1" r="1"/>
	<circle class="st2" cx="774.7" cy="335.1" r="1"/>
	<circle class="st2" cx="782.7" cy="335.1" r="1"/>
	<circle class="st2" cx="790.7" cy="335.1" r="1"/>
	<circle class="st2" cx="798.7" cy="335.1" r="1"/>
	<circle class="st2" cx="806.7" cy="335.1" r="1"/>
	<circle class="st2" cx="814.7" cy="335.1" r="1"/>
	<circle class="st2" cx="822.7" cy="335.1" r="1"/>
	<circle class="st2" cx="830.7" cy="335.1" r="1"/>
	<circle class="st2" cx="838.7" cy="335.1" r="1"/>
	<circle class="st2" cx="846.7" cy="335.1" r="1"/>
	<circle class="st2" cx="854.7" cy="335.1" r="1"/>
	<circle class="st2" cx="862.7" cy="335.1" r="1"/>
	<circle class="st2" cx="870.7" cy="335.1" r="1"/>
	<circle class="st2" cx="878.7" cy="335.1" r="1"/>
	<circle class="st2" cx="886.7" cy="335.1" r="1"/>
	<circle class="st2" cx="894.7" cy="335.1" r="1"/>
	<circle class="st2" cx="902.7" cy="335.1" r="1"/>
	<circle class="st2" cx="910.7" cy="335.1" r="1"/>
	<circle class="st2" cx="918.7" cy="335.1" r="1"/>
	<circle class="st2" cx="926.7" cy="335.1" r="1"/>
	<circle class="st2" cx="934.7" cy="335.1" r="1"/>
	<circle class="st2" cx="942.7" cy="335.1" r="1"/>
	<circle class="st2" cx="126.7" cy="260.1" r="1"/>
	<circle class="st2" cx="134.7" cy="260.1" r="1"/>
	<circle class="st2" cx="142.7" cy="260.1" r="1"/>
	<circle class="st2" cx="150.7" cy="260.1" r="1"/>
	<circle class="st2" cx="158.7" cy="260.1" r="1"/>
	<circle class="st2" cx="166.7" cy="260.1" r="1"/>
	<circle class="st2" cx="174.7" cy="260.1" r="1"/>
	<circle class="st2" cx="182.7" cy="260.1" r="1"/>
	<circle class="st2" cx="190.7" cy="260.1" r="1"/>
	<circle class="st2" cx="198.7" cy="260.1" r="1"/>
	<circle class="st2" cx="206.7" cy="260.1" r="1"/>
	<circle class="st2" cx="214.7" cy="260.1" r="1"/>
	<circle class="st2" cx="222.7" cy="260.1" r="1"/>
	<circle class="st2" cx="230.7" cy="260.1" r="1"/>
	<circle class="st2" cx="238.7" cy="260.1" r="1"/>
	<circle class="st2" cx="246.7" cy="260.1" r="1"/>
	<circle class="st2" cx="254.7" cy="260.1" r="1"/>
	<circle class="st2" cx="262.7" cy="260.1" r="1"/>
	<circle class="st2" cx="270.7" cy="260.1" r="1"/>
	<circle class="st2" cx="278.7" cy="260.1" r="1"/>
	<circle class="st2" cx="286.7" cy="260.1" r="1"/>
	<circle class="st2" cx="294.7" cy="260.1" r="1"/>
	<circle class="st2" cx="302.7" cy="260.1" r="1"/>
	<circle class="st2" cx="310.7" cy="260.1" r="1"/>
	<circle class="st2" cx="318.7" cy="260.1" r="1"/>
	<circle class="st2" cx="326.7" cy="260.1" r="1"/>
	<circle class="st2" cx="334.7" cy="260.1" r="1"/>
	<circle class="st2" cx="342.7" cy="260.1" r="1"/>
	<circle class="st2" cx="350.7" cy="260.1" r="1"/>
	<circle class="st2" cx="358.7" cy="260.1" r="1"/>
	<circle class="st2" cx="366.7" cy="260.1" r="1"/>
	<circle class="st2" cx="374.7" cy="260.1" r="1"/>
	<circle class="st2" cx="382.7" cy="260.1" r="1"/>
	<circle class="st2" cx="390.7" cy="260.1" r="1"/>
	<circle class="st2" cx="398.7" cy="260.1" r="1"/>
	<circle class="st2" cx="406.7" cy="260.1" r="1"/>
	<circle class="st2" cx="414.7" cy="260.1" r="1"/>
	<circle class="st2" cx="422.7" cy="260.1" r="1"/>
	<circle class="st2" cx="430.7" cy="260.1" r="1"/>
	<circle class="st2" cx="438.7" cy="260.1" r="1"/>
	<circle class="st2" cx="446.7" cy="260.1" r="1"/>
	<circle class="st2" cx="454.7" cy="260.1" r="1"/>
	<circle class="st2" cx="462.7" cy="260.1" r="1"/>
	<circle class="st2" cx="470.7" cy="260.1" r="1"/>
	<circle class="st2" cx="478.7" cy="260.1" r="1"/>
	<circle class="st2" cx="486.7" cy="260.1" r="1"/>
	<circle class="st2" cx="494.7" cy="260.1" r="1"/>
	<circle class="st2" cx="502.7" cy="260.1" r="1"/>
	<circle class="st2" cx="510.7" cy="260.1" r="1"/>
	<circle class="st2" cx="518.7" cy="260.1" r="1"/>
	<circle class="st2" cx="526.7" cy="260.1" r="1"/>
	<circle class="st2" cx="534.7" cy="260.1" r="1"/>
	<circle class="st2" cx="542.7" cy="260.1" r="1"/>
	<circle class="st2" cx="550.7" cy="260.1" r="1"/>
	<circle class="st2" cx="558.7" cy="260.1" r="1"/>
	<circle class="st2" cx="566.7" cy="260.1" r="1"/>
	<circle class="st2" cx="574.7" cy="260.1" r="1"/>
	<circle class="st2" cx="582.7" cy="260.1" r="1"/>
	<circle class="st2" cx="590.7" cy="260.1" r="1"/>
	<circle class="st2" cx="598.7" cy="260.1" r="1"/>
	<circle class="st2" cx="606.7" cy="260.1" r="1"/>
	<circle class="st2" cx="614.7" cy="260.1" r="1"/>
	<circle class="st2" cx="622.7" cy="260.1" r="1"/>
	<circle class="st2" cx="630.7" cy="260.1" r="1"/>
	<circle class="st2" cx="638.7" cy="260.1" r="1"/>
	<circle class="st2" cx="646.7" cy="260.1" r="1"/>
	<circle class="st2" cx="654.7" cy="260.1" r="1"/>
	<circle class="st2" cx="662.7" cy="260.1" r="1"/>
	<circle class="st2" cx="670.7" cy="260.1" r="1"/>
	<circle class="st2" cx="678.7" cy="260.1" r="1"/>
	<circle class="st2" cx="686.7" cy="260.1" r="1"/>
	<circle class="st2" cx="694.7" cy="260.1" r="1"/>
	<circle class="st2" cx="702.7" cy="260.1" r="1"/>
	<circle class="st2" cx="710.7" cy="260.1" r="1"/>
	<circle class="st2" cx="718.7" cy="260.1" r="1"/>
	<circle class="st2" cx="726.7" cy="260.1" r="1"/>
	<circle class="st2" cx="734.7" cy="260.1" r="1"/>
	<circle class="st2" cx="742.7" cy="260.1" r="1"/>
	<circle class="st2" cx="750.7" cy="260.1" r="1"/>
	<circle class="st2" cx="758.7" cy="260.1" r="1"/>
	<circle class="st2" cx="766.7" cy="260.1" r="1"/>
	<circle class="st2" cx="774.7" cy="260.1" r="1"/>
	<circle class="st2" cx="782.7" cy="260.1" r="1"/>
	<circle class="st2" cx="790.7" cy="260.1" r="1"/>
	<circle class="st2" cx="798.7" cy="260.1" r="1"/>
	<circle class="st2" cx="806.7" cy="260.1" r="1"/>
	<circle class="st2" cx="814.7" cy="260.1" r="1"/>
	<circle class="st2" cx="822.7" cy="260.1" r="1"/>
	<circle class="st2" cx="830.7" cy="260.1" r="1"/>
	<circle class="st2" cx="838.7" cy="260.1" r="1"/>
	<circle class="st2" cx="846.7" cy="260.1" r="1"/>
	<circle class="st2" cx="854.7" cy="260.1" r="1"/>
	<circle class="st2" cx="862.7" cy="260.1" r="1"/>
	<circle class="st2" cx="870.7" cy="260.1" r="1"/>
	<circle class="st2" cx="878.7" cy="260.1" r="1"/>
	<circle class="st2" cx="886.7" cy="260.1" r="1"/>
	<circle class="st2" cx="894.7" cy="260.1" r="1"/>
	<circle class="st2" cx="902.7" cy="260.1" r="1"/>
	<circle class="st2" cx="910.7" cy="260.1" r="1"/>
	<circle class="st2" cx="918.7" cy="260.1" r="1"/>
	<circle class="st2" cx="926.7" cy="260.1" r="1"/>
	<circle class="st2" cx="934.7" cy="260.1" r="1"/>
	<circle class="st2" cx="942.7" cy="260.1" r="1"/>
	<path d="M153.6,879.4h-1.3v4.5h-1.8v-10.6h1.8v4.5h1.2l3.6-4.5h2.2l-4.2,5.1l4.5,5.5h-2.3L153.6,879.4z M143.8,874.6
		c-0.7,0-1.3,0.3-1.8,0.8c-0.5,0.5-0.8,1.3-0.9,2.2h5.3v-0.1c-0.1-0.9-0.3-1.6-0.7-2.1C145.2,874.9,144.6,874.6,143.8,874.6z
		 M144,884.1c-1.4,0-2.6-0.5-3.5-1.4c-0.9-0.9-1.4-2.2-1.4-3.8v-0.3c0-1,0.2-2,0.6-2.8c0.4-0.8,1-1.5,1.7-1.9
		c0.7-0.5,1.5-0.7,2.3-0.7c1.4,0,2.4,0.4,3.2,1.4c0.8,0.9,1.1,2.2,1.1,3.9v0.8H141c0,1,0.3,1.9,0.9,2.5c0.6,0.6,1.3,1,2.2,1
		c0.6,0,1.2-0.1,1.6-0.4c0.5-0.3,0.8-0.6,1.2-1l1.1,0.9C147.1,883.4,145.8,884.1,144,884.1z M129.6,882.4h4.9V875h-3.2l-0.1,2.5
		C131,879.6,130.5,881.3,129.6,882.4z M127.5,882.4l0.6-0.8c0.7-0.9,1.1-2.3,1.2-4.1l0.2-4.2h6.8v9.1h1.4v4.6h-1.8v-3.1h-7.4v3.1
		h-1.8l0-4.6H127.5z"/>
	<path d="M303.7,879.3h2.3c1.7,0,2.5-0.5,2.5-1.5s-0.8-1.5-2.4-1.5h-2.5V879.3z M303.7,880.7v3.2h3c0.8,0,1.3-0.1,1.7-0.4
		c0.4-0.3,0.6-0.7,0.6-1.2c0-1-0.8-1.6-2.3-1.6H303.7z M301.9,885.4v-10.6h4.1c1.4,0,2.5,0.2,3.2,0.7c0.8,0.5,1.1,1.2,1.1,2.2
		c0,0.5-0.1,0.9-0.4,1.3c-0.3,0.4-0.7,0.7-1.3,0.9c0.6,0.2,1.1,0.4,1.5,0.9c0.4,0.4,0.6,1,0.6,1.6c0,1-0.4,1.7-1.1,2.2
		c-0.7,0.5-1.7,0.8-3,0.8H301.9z M298.8,885.4H297v-4.5h-4.8v4.5h-1.8v-10.6h1.8v4.6h4.8v-4.6h1.8V885.4z M280.7,878
		c0,0.5,0.2,0.9,0.5,1.2s0.8,0.5,1.4,0.5h2.9v-3.5h-2.6c-0.7,0-1.2,0.2-1.6,0.5C280.9,877.1,280.7,877.5,280.7,878z M287.3,874.8
		v10.6h-1.8v-4.1h-2.7l-2.5,4.1h-2l2.7-4.4c-0.7-0.2-1.2-0.6-1.6-1.1c-0.4-0.5-0.5-1.1-0.5-1.8c0-1,0.4-1.7,1.1-2.3
		c0.7-0.6,1.7-0.9,2.9-0.9H287.3z"/>
	<path d="M479.9,879.5h2.3c1.7,0,2.5-0.5,2.5-1.5s-0.8-1.5-2.4-1.5h-2.5V879.5z M479.9,880.9v3.2h3c0.8,0,1.3-0.1,1.7-0.4
		c0.4-0.3,0.6-0.7,0.6-1.2c0-1.1-0.8-1.6-2.3-1.6H479.9z M478.1,885.5V875h4.1c1.4,0,2.5,0.2,3.2,0.7c0.8,0.5,1.1,1.2,1.1,2.2
		c0,0.5-0.1,0.9-0.4,1.3c-0.3,0.4-0.7,0.7-1.3,0.9c0.6,0.2,1.1,0.5,1.5,0.9c0.4,0.4,0.6,1,0.6,1.6c0,1-0.4,1.7-1.1,2.2
		c-0.7,0.5-1.7,0.8-3,0.8H478.1z M471.5,876.3c-0.7,0-1.3,0.3-1.8,0.8c-0.5,0.5-0.8,1.3-0.9,2.2h5.3v-0.1c-0.1-0.9-0.3-1.6-0.7-2.1
		C472.8,876.5,472.2,876.3,471.5,876.3z M471.7,885.8c-1.4,0-2.6-0.5-3.5-1.4c-0.9-0.9-1.4-2.2-1.4-3.8v-0.3c0-1,0.2-2,0.6-2.8
		c0.4-0.8,1-1.5,1.7-1.9c0.7-0.5,1.5-0.7,2.3-0.7c1.4,0,2.5,0.5,3.2,1.4c0.8,0.9,1.1,2.2,1.1,3.9v0.8h-7.2c0,1,0.3,1.9,0.9,2.5
		c0.6,0.6,1.3,1,2.2,1c0.6,0,1.2-0.1,1.6-0.4c0.4-0.3,0.8-0.6,1.2-1l1.1,0.9C474.8,885.1,473.5,885.8,471.7,885.8z M454.2,880.7
		c0,1.2,0.2,2.1,0.6,2.7c0.4,0.6,1,0.9,1.8,0.9c0.4,0,0.7-0.1,1-0.2v-7.7c-0.3-0.1-0.6-0.2-1-0.2c-0.8,0-1.4,0.3-1.8,1.1
		C454.4,878,454.2,879.2,454.2,880.7z M463.2,880.5c0-1.3-0.2-2.4-0.7-3.1c-0.5-0.7-1.1-1.1-1.9-1.1c-0.4,0-0.8,0.1-1.1,0.2v7.7
		c0.3,0.1,0.7,0.2,1.1,0.2c0.8,0,1.4-0.3,1.9-0.9C462.9,882.7,463.2,881.8,463.2,880.5z M452.4,880.5c0-1.8,0.3-3.1,1-4.2
		c0.7-1,1.6-1.5,2.8-1.5c0.5,0,1,0.1,1.4,0.3v-4.5h1.8v4.6c0.5-0.2,1-0.3,1.6-0.3c1.2,0,2.1,0.5,2.8,1.5c0.7,1,1,2.5,1,4.4
		c0,1.6-0.3,2.8-1,3.7c-0.7,0.9-1.6,1.4-2.8,1.4c-0.6,0-1.2-0.1-1.6-0.3v4.2h-1.8v-4.1c-0.4,0.2-0.9,0.3-1.5,0.3
		c-1.2,0-2.1-0.5-2.8-1.4s-1-2.2-1-3.8V880.5z"/>
	<path d="M654.3,874.3h-3.5v9.1H649v-9.1h-3.5v-1.5h8.8V874.3z M642.3,878.1c0-1.2-0.3-2.1-0.8-2.8c-0.5-0.7-1.2-1-2.1-1
		c-1.1,0-1.9,0.5-2.5,1.5v5c0.5,1,1.4,1.5,2.5,1.5c0.9,0,1.6-0.4,2.1-1C642.1,880.4,642.3,879.4,642.3,878.1z M644.2,878.3
		c0,1.6-0.4,2.9-1.1,3.9c-0.7,1-1.7,1.5-3,1.5c-1.3,0-2.3-0.4-3-1.2v5.1h-1.8v-14.6h1.7l0.1,1.2c0.7-0.9,1.8-1.4,3.1-1.4
		c1.3,0,2.3,0.5,3,1.4c0.7,1,1.1,2.3,1.1,4V878.3z M627.9,882.1c0.6,0,1.1-0.1,1.6-0.4c0.5-0.3,0.9-0.7,1.1-1.1v-2.2h-1.4
		c-2.2,0-3.3,0.7-3.3,1.9c0,0.6,0.2,1,0.6,1.3S627.3,882.1,627.9,882.1z M630.9,883.4c-0.1-0.2-0.2-0.6-0.2-1.1
		c-0.8,0.9-1.8,1.3-3,1.3c-1,0-1.9-0.3-2.6-0.9c-0.7-0.6-1-1.3-1-2.2c0-1.1,0.4-2,1.2-2.6c0.8-0.6,2-0.9,3.5-0.9h1.8v-0.8
		c0-0.6-0.2-1.1-0.6-1.5c-0.4-0.4-0.9-0.6-1.7-0.6c-0.6,0-1.2,0.2-1.6,0.5c-0.4,0.3-0.6,0.7-0.6,1.2h-1.8c0-0.5,0.2-1,0.6-1.5
		c0.4-0.5,0.9-0.9,1.5-1.2c0.6-0.3,1.3-0.4,2.1-0.4c1.2,0,2.2,0.3,2.9,0.9c0.7,0.6,1,1.4,1.1,2.5v4.9c0,1,0.1,1.8,0.4,2.3v0.1H630.9
		z M615.6,881l3.6-8.2h2.3v10.6h-1.8v-7.7l-3.4,7.7H615l-3.5-7.8v7.8h-1.8v-10.6h2.3L615.6,881z"/>
	<path d="M813.6,878.1c0-1.2-0.2-2.1-0.8-2.8c-0.5-0.7-1.2-1-2.1-1c-1.1,0-1.9,0.5-2.5,1.5v5c0.5,1,1.4,1.5,2.5,1.5
		c0.9,0,1.6-0.4,2.1-1C813.4,880.4,813.6,879.4,813.6,878.1z M815.4,878.3c0,1.6-0.4,2.9-1.1,3.9c-0.7,1-1.7,1.5-3,1.5
		c-1.3,0-2.3-0.4-3-1.2v5.1h-1.8v-14.6h1.6l0.1,1.2c0.7-0.9,1.8-1.4,3.1-1.4c1.3,0,2.3,0.5,3,1.4c0.7,1,1.1,2.3,1.1,4V878.3z
		 M803.6,883.4h-1.8v-9.1H797v9.1h-1.8v-10.6h8.5V883.4z M787.6,882.1c0.6,0,1.1-0.1,1.6-0.4c0.5-0.3,0.9-0.7,1.1-1.1v-2.2h-1.4
		c-2.2,0-3.3,0.7-3.3,1.9c0,0.6,0.2,1,0.6,1.3C786.5,881.9,787,882.1,787.6,882.1z M790.6,883.4c-0.1-0.2-0.2-0.6-0.3-1.1
		c-0.8,0.9-1.8,1.3-3,1.3c-1,0-1.9-0.3-2.6-0.9c-0.7-0.6-1-1.3-1-2.2c0-1.1,0.4-2,1.3-2.6c0.8-0.6,2-0.9,3.5-0.9h1.8v-0.8
		c0-0.6-0.2-1.1-0.6-1.5s-0.9-0.6-1.7-0.6c-0.6,0-1.2,0.2-1.6,0.5c-0.4,0.3-0.7,0.7-0.7,1.2H784c0-0.5,0.2-1,0.6-1.5
		c0.4-0.5,0.9-0.9,1.5-1.2c0.6-0.3,1.3-0.4,2.1-0.4c1.2,0,2.2,0.3,2.9,0.9c0.7,0.6,1,1.4,1.1,2.5v4.9c0,1,0.1,1.8,0.4,2.3v0.1H790.6
		z"/>
	<polyline class="st3" points="126.7,857.1 132.3,857.1 137.9,838.1 143.5,838.1 149.1,838.1 154.8,838.1 160.4,838.1 166,838.1 
		171.6,838.1 177.2,838.1 182.8,838.1 188.4,838.1 194.1,838.1 199.7,838.1 205.3,838.1 210.9,838.1 216.5,838.1 222.1,838.1 
		227.8,838.1 233.4,838.1 239,838.1 244.6,838.1 250.2,838.1 255.9,838.1 261.5,838.1 267.1,838.1 272.7,838.1 278.3,838.1 
		283.9,838.1 289.5,838.1 295.2,838.1 300.8,838.1 306.4,838.1 312,838.1 317.6,838.1 323.2,838.1 328.9,838.1 334.5,838.1 
		340.1,838.1 345.7,838.1 351.3,838.1 356.9,838.1 362.6,838.1 368.2,838.1 373.8,783.1 379.4,783.1 385,783.1 390.6,783.1 
		396.3,783.1 401.9,783.1 407.5,783.1 413.1,625.4 418.7,625.4 424.3,625.4 430,625.4 435.6,625.4 441.2,625.4 446.8,625.4 
		452.4,644.8 458,644.8 463.7,644.8 469.3,644.8 474.9,644.8 480.5,644.8 486.1,644.8 491.7,529.8 497.4,529.8 503,529.8 
		508.6,529.8 514.2,529.8 519.8,529.8 525.4,529.8 531,376.2 536.7,376.2 542.3,376.2 547.9,376.2 553.5,376.2 559.1,376.2 
		564.8,376.2 570.4,693.3 576,693.3 581.6,693.3 587.2,693.3 592.8,693.3 598.5,693.3 604.1,693.3 609.7,509.6 615.3,509.6 
		620.9,509.6 626.5,509.6 632.2,509.6 637.8,509.6 643.4,509.6 649,722.1 654.6,722.1 660.2,722.1 665.8,722.1 671.5,722.1 
		677.1,722.1 682.7,722.1 688.3,623.8 693.9,623.8 699.5,623.8 705.2,623.8 710.8,623.8 716.4,623.8 722,623.8 727.6,545.5 
		733.2,545.5 738.9,545.5 744.5,545.5 750.1,545.5 755.7,545.5 761.3,545.5 766.9,533.4 772.6,533.4 778.2,533.4 783.8,533.4 
		789.4,533.4 795,533.4 800.6,533.4 806.3,454 811.9,454 817.5,454 823.1,454 828.7,454 834.3,454 840,454 845.6,309.1 851.2,309.1 
		856.8,309.1 862.4,309.1 868,309.1 873.7,309.1 879.3,309.1 884.9,250.4 890.5,250.4 896.1,250.4 901.7,250.4 907.3,250.4 
		913,250.4 918.6,250.4 924.2,375 929.8,375 935.4,375 941,375 946.7,375 	"/>
	<polyline class="st4" points="126.7,857.1 132.3,857.1 137.9,838.1 143.5,838.1 149.1,838.1 154.8,838.1 160.4,838.1 166,838.1 
		171.6,838.1 177.2,838.1 182.8,838.1 188.4,838.1 194.1,838.1 199.7,838.1 205.3,838.1 210.9,838.1 216.5,838.1 222.1,838.1 
		227.8,838.1 233.4,838.1 239,838.1 244.6,838.1 250.2,838.1 255.9,838.1 261.5,838.1 267.1,838.1 272.7,838.1 278.3,838.1 
		283.9,838.1 289.5,838.1 295.2,838.1 300.8,838.1 306.4,838.1 312,838.1 317.6,838.1 323.2,838.1 328.9,838.1 334.5,838.1 
		340.1,838.1 345.7,838.1 351.3,838.1 356.9,838.1 362.6,838.1 368.2,838.1 373.8,783.1 379.4,783.1 385,783.1 390.6,783.1 
		396.3,783.1 401.9,783.1 407.5,783.1 413.1,625.4 418.7,625.4 424.3,625.4 430,625.4 435.6,625.4 441.2,625.4 446.8,625.4 
		452.4,644.8 458,644.8 463.7,644.8 469.3,644.8 474.9,644.8 480.5,644.8 486.1,644.8 491.7,529.8 497.4,529.8 503,529.8 
		508.6,529.8 514.2,529.8 519.8,529.8 525.4,529.8 531,376.2 536.7,376.2 542.3,376.2 547.9,376.2 553.5,376.2 559.1,376.2 
		564.8,376.2 570.4,693.3 576,693.3 581.6,693.3 587.2,693.3 592.8,693.3 598.5,693.3 604.1,693.3 609.7,509.6 615.3,509.6 
		620.9,509.6 626.5,509.6 632.2,509.6 637.8,509.6 643.4,509.6 649,722.1 654.6,722.1 660.2,722.1 665.8,722.1 671.5,722.1 
		677.1,722.1 682.7,722.1 688.3,623.8 693.9,623.8 699.5,623.8 705.2,623.8 710.8,623.8 716.4,623.8 722,623.8 727.6,545.5 
		733.2,545.5 738.9,545.5 744.5,545.5 750.1,545.5 755.7,545.5 761.3,545.5 766.9,533.4 772.6,533.4 778.2,533.4 783.8,533.4 
		789.4,533.4 795,533.4 800.6,533.4 806.3,454 811.9,454 817.5,454 823.1,454 828.7,454 834.3,454 840,454 845.6,309.1 851.2,309.1 
		856.8,309.1 862.4,309.1 868,309.1 873.7,309.1 879.3,309.1 884.9,250.4 890.5,250.4 896.1,250.4 901.7,250.4 907.3,250.4 
		913,250.4 918.6,250.4 924.2,375 929.8,375 935.4,375 941,375 946.7,375 	"/>
</g>
</svg>
